solid OpenSCAD_Model
  facet normal -0 0 -1
    outer loop
      vertex -6.8 17.5 0
      vertex -2.5 21.8 0
      vertex -6.8 8.5 0
    endloop
  endfacet
  facet normal 0 0 -1
    outer loop
      vertex -4.2 16.423 0
      vertex -2.5 21.8 0
      vertex -0.1 21.8 0
    endloop
  endfacet
  facet normal 0 -0 -1
    outer loop
      vertex -0.1 21.8 0
      vertex -0.1 26 0
      vertex 2.25 26 0
    endloop
  endfacet
  facet normal -0 0 -1
    outer loop
      vertex 1.75 24.01 0
      vertex 2.25 26 0
      vertex 2.25 24.01 0
    endloop
  endfacet
  facet normal 0 0 -1
    outer loop
      vertex 3.75 26 0
      vertex 4.25 24.01 0
      vertex 3.75 24.01 0
    endloop
  endfacet
  facet normal 0 0 -1
    outer loop
      vertex -0.1 19.2 0
      vertex 1.75 22.51 0
      vertex 4.25 22.51 0
    endloop
  endfacet
  facet normal -0 -0 -1
    outer loop
      vertex -2.5 4.2 0
      vertex -6.8 8.5 0
      vertex -0.1 4.2 0
    endloop
  endfacet
  facet normal 0 0 -1
    outer loop
      vertex 3.75 1.99 0
      vertex 5.92 0 0
      vertex 3.75 0 0
    endloop
  endfacet
  facet normal 0 -0 -1
    outer loop
      vertex 4.25 24.01 0
      vertex 3.75 26 0
      vertex 5.92 26 0
    endloop
  endfacet
  facet normal -0 0 -1
    outer loop
      vertex 4.25 24.01 0
      vertex 5.92 26 0
      vertex 4.25 22.51 0
    endloop
  endfacet
  facet normal -0 0 -1
    outer loop
      vertex 4.25 22.51 0
      vertex 5.92 26 0
      vertex 5.92 0 0
    endloop
  endfacet
  facet normal 0 0 -1
    outer loop
      vertex 4.25 1.99 0
      vertex 5.92 0 0
      vertex 3.75 1.99 0
    endloop
  endfacet
  facet normal -0 0 -1
    outer loop
      vertex -1.42304 19.2 0
      vertex 1.75 22.51 0
      vertex -0.1 19.2 0
    endloop
  endfacet
  facet normal 0 0 -1
    outer loop
      vertex 4.25 3.49 0
      vertex 5.92 0 0
      vertex 4.25 1.99 0
    endloop
  endfacet
  facet normal -0 -0 -1
    outer loop
      vertex -0.1 4.2 0
      vertex -6.8 8.5 0
      vertex 1.75 3.49 0
    endloop
  endfacet
  facet normal 0 0 -1
    outer loop
      vertex 4.25 22.51 0
      vertex 5.92 0 0
      vertex 4.25 3.49 0
    endloop
  endfacet
  facet normal 0 -0 -1
    outer loop
      vertex 1.75 1.99 0
      vertex -0.1 4.2 0
      vertex 1.75 3.49 0
    endloop
  endfacet
  facet normal 0 -0 -1
    outer loop
      vertex -4.2 9.57696 0
      vertex -6.8 8.5 0
      vertex -4.2 16.423 0
    endloop
  endfacet
  facet normal 0 0 -1
    outer loop
      vertex -4.2 9.57696 0
      vertex 1.75 3.49 0
      vertex -6.8 8.5 0
    endloop
  endfacet
  facet normal 0 -0 -1
    outer loop
      vertex 2.25 0 0
      vertex 1.75 1.99 0
      vertex 2.25 1.99 0
    endloop
  endfacet
  facet normal -0 0 -1
    outer loop
      vertex 1.75 3.49 0
      vertex 4.25 22.51 0
      vertex 4.25 3.49 0
    endloop
  endfacet
  facet normal 0 0 -1
    outer loop
      vertex -1.42304 19.2 0
      vertex 1.75 24.01 0
      vertex 1.75 22.51 0
    endloop
  endfacet
  facet normal 0 0 -1
    outer loop
      vertex -6.8 8.5 0
      vertex -2.5 21.8 0
      vertex -4.2 16.423 0
    endloop
  endfacet
  facet normal 0 -0 -1
    outer loop
      vertex -1.42304 19.2 0
      vertex -4.2 16.423 0
      vertex -0.1 21.8 0
    endloop
  endfacet
  facet normal 0 0 -1
    outer loop
      vertex -1.42304 6.8 0
      vertex 1.75 3.49 0
      vertex -4.2 9.57696 0
    endloop
  endfacet
  facet normal -0 0 -1
    outer loop
      vertex -0.1 19.2 0
      vertex 4.25 22.51 0
      vertex -0.1 6.8 0
    endloop
  endfacet
  facet normal 0 0 -1
    outer loop
      vertex -0.1 6.8 0
      vertex 1.75 3.49 0
      vertex -1.42304 6.8 0
    endloop
  endfacet
  facet normal 0 0 -1
    outer loop
      vertex 4.25 22.51 0
      vertex 1.75 3.49 0
      vertex -0.1 6.8 0
    endloop
  endfacet
  facet normal 0 0 -1
    outer loop
      vertex -1.42304 19.2 0
      vertex -0.1 21.8 0
      vertex 2.25 26 0
    endloop
  endfacet
  facet normal 0 0 -1
    outer loop
      vertex -0.1 4.2 0
      vertex 2.25 0 0
      vertex -0.1 0 0
    endloop
  endfacet
  facet normal 0 0 -1
    outer loop
      vertex -0.1 4.2 0
      vertex 1.75 1.99 0
      vertex 2.25 0 0
    endloop
  endfacet
  facet normal 0 0 -1
    outer loop
      vertex -1.42304 19.2 0
      vertex 2.25 26 0
      vertex 1.75 24.01 0
    endloop
  endfacet
  facet normal -1 9.86865e-17 0
    outer loop
      vertex -6.8 8.5 0
      vertex -6.8 8.5 2
      vertex -6.8 17.5 0
    endloop
  endfacet
  facet normal -1 9.86865e-17 0
    outer loop
      vertex -6.8 17.5 0
      vertex -6.8 8.5 2
      vertex -6.8 17.5 2
    endloop
  endfacet
  facet normal 0 0 1
    outer loop
      vertex -2.5 4.2 2
      vertex -6.8 17.5 2
      vertex -6.8 8.5 2
    endloop
  endfacet
  facet normal 0 0 1
    outer loop
      vertex -2.5 4.2 2
      vertex -0.1 4.2 2
      vertex -1.42304 6.8 2
    endloop
  endfacet
  facet normal 0 0 1
    outer loop
      vertex -2.5 4.2 2
      vertex -4.2 9.57696 2
      vertex -6.8 17.5 2
    endloop
  endfacet
  facet normal 0 0 1
    outer loop
      vertex -2.5 4.2 2
      vertex -1.42304 6.8 2
      vertex -4.2 9.57696 2
    endloop
  endfacet
  facet normal -0 0 1
    outer loop
      vertex -0.1 19.2 2
      vertex -0.1 21.8 2
      vertex -1.42304 19.2 2
    endloop
  endfacet
  facet normal 0 0 1
    outer loop
      vertex -0.1 21.8 2
      vertex -2.5 21.8 2
      vertex -6.8 17.5 2
    endloop
  endfacet
  facet normal 0 0 1
    outer loop
      vertex -4.2 16.423 2
      vertex -1.42304 19.2 2
      vertex -6.8 17.5 2
    endloop
  endfacet
  facet normal 0 0 1
    outer loop
      vertex -6.8 17.5 2
      vertex -1.42304 19.2 2
      vertex -0.1 21.8 2
    endloop
  endfacet
  facet normal 0 0 1
    outer loop
      vertex -0.1 6.8 2
      vertex -1.42304 6.8 2
      vertex -0.1 4.2 2
    endloop
  endfacet
  facet normal 0 0 1
    outer loop
      vertex -4.2 9.57696 2
      vertex -4.2 16.423 2
      vertex -6.8 17.5 2
    endloop
  endfacet
  facet normal -0.707107 -0.707107 -0
    outer loop
      vertex -6.8 8.5 0
      vertex -2.5 4.2 0
      vertex -6.8 8.5 2
    endloop
  endfacet
  facet normal -0.707107 -0.707107 0
    outer loop
      vertex -6.8 8.5 2
      vertex -2.5 4.2 0
      vertex -2.5 4.2 2
    endloop
  endfacet
  facet normal 0 -1 0
    outer loop
      vertex -2.5 4.2 2
      vertex -2.5 4.2 0
      vertex -0.1 4.2 0
    endloop
  endfacet
  facet normal 0 -1 0
    outer loop
      vertex -0.1 4.2 2
      vertex -2.5 4.2 2
      vertex -0.1 4.2 0
    endloop
  endfacet
  facet normal -1 -0 -0
    outer loop
      vertex -0.1 0 0
      vertex -0.1 0 4
      vertex -0.1 4.2 0
    endloop
  endfacet
  facet normal -1 0 -0
    outer loop
      vertex -0.1 6.8 2
      vertex -0.1 0 4
      vertex -0.1 26 4
    endloop
  endfacet
  facet normal -1 -0 0
    outer loop
      vertex -0.1 21.8 0
      vertex -0.1 26 4
      vertex -0.1 26 0
    endloop
  endfacet
  facet normal -1 -0 0
    outer loop
      vertex -0.1 21.8 2
      vertex -0.1 26 4
      vertex -0.1 21.8 0
    endloop
  endfacet
  facet normal -1 -0 0
    outer loop
      vertex -0.1 19.2 2
      vertex -0.1 26 4
      vertex -0.1 21.8 2
    endloop
  endfacet
  facet normal -1 -0 0
    outer loop
      vertex -0.1 6.8 2
      vertex -0.1 26 4
      vertex -0.1 19.2 2
    endloop
  endfacet
  facet normal -1 0 0
    outer loop
      vertex -0.1 6.8 2
      vertex -0.1 19.2 2
      vertex -0.1 6.8 0
    endloop
  endfacet
  facet normal -1 -0 -0
    outer loop
      vertex -0.1 4.2 2
      vertex -0.1 0 4
      vertex -0.1 6.8 2
    endloop
  endfacet
  facet normal -1 0 0
    outer loop
      vertex -0.1 4.2 0
      vertex -0.1 0 4
      vertex -0.1 4.2 2
    endloop
  endfacet
  facet normal -1 0 0
    outer loop
      vertex -0.1 19.2 0
      vertex -0.1 6.8 0
      vertex -0.1 19.2 2
    endloop
  endfacet
  facet normal 0 -1 0
    outer loop
      vertex -0.1 0 4
      vertex -0.1 0 0
      vertex 2.25 0 0
    endloop
  endfacet
  facet normal 0 -1 0
    outer loop
      vertex 2.25 0 4
      vertex -0.1 0 4
      vertex 2.25 0 0
    endloop
  endfacet
  facet normal 1 -2.2316e-16 0
    outer loop
      vertex 2.25 1.99 0
      vertex 2.25 1.99 4
      vertex 2.25 0 4
    endloop
  endfacet
  facet normal 1 -2.2316e-16 0
    outer loop
      vertex 2.25 0 0
      vertex 2.25 1.99 0
      vertex 2.25 0 4
    endloop
  endfacet
  facet normal 0 1 0
    outer loop
      vertex 1.75 1.99 0
      vertex 1.75 1.99 4
      vertex 2.25 1.99 0
    endloop
  endfacet
  facet normal 0 1 0
    outer loop
      vertex 2.25 1.99 0
      vertex 1.75 1.99 4
      vertex 2.25 1.99 4
    endloop
  endfacet
  facet normal 1 -1.4803e-16 0
    outer loop
      vertex 1.75 3.49 0
      vertex 1.75 3.49 4
      vertex 1.75 1.99 4
    endloop
  endfacet
  facet normal 1 -1.4803e-16 0
    outer loop
      vertex 1.75 1.99 0
      vertex 1.75 3.49 0
      vertex 1.75 1.99 4
    endloop
  endfacet
  facet normal -1.77636e-16 -1 -0
    outer loop
      vertex 4.25 3.49 0
      vertex 4.25 3.49 4
      vertex 1.75 3.49 4
    endloop
  endfacet
  facet normal -1.77636e-16 -1 -0
    outer loop
      vertex 1.75 3.49 0
      vertex 4.25 3.49 0
      vertex 1.75 3.49 4
    endloop
  endfacet
  facet normal -1 0 0
    outer loop
      vertex 4.25 3.49 4
      vertex 4.25 3.49 0
      vertex 4.25 1.99 4
    endloop
  endfacet
  facet normal -1 0 0
    outer loop
      vertex 4.25 1.99 4
      vertex 4.25 3.49 0
      vertex 4.25 1.99 0
    endloop
  endfacet
  facet normal 0 1 0
    outer loop
      vertex 3.75 1.99 0
      vertex 3.75 1.99 4
      vertex 4.25 1.99 0
    endloop
  endfacet
  facet normal 0 1 0
    outer loop
      vertex 4.25 1.99 0
      vertex 3.75 1.99 4
      vertex 4.25 1.99 4
    endloop
  endfacet
  facet normal -1 2.2316e-16 0
    outer loop
      vertex 3.75 1.99 4
      vertex 3.75 1.99 0
      vertex 3.75 0 4
    endloop
  endfacet
  facet normal -1 2.2316e-16 0
    outer loop
      vertex 3.75 0 4
      vertex 3.75 1.99 0
      vertex 3.75 0 0
    endloop
  endfacet
  facet normal 0 -1 0
    outer loop
      vertex 3.75 0 4
      vertex 3.75 0 0
      vertex 5.92 0 0
    endloop
  endfacet
  facet normal 0 -1 0
    outer loop
      vertex 5.92 0 4
      vertex 3.75 0 4
      vertex 5.92 0 0
    endloop
  endfacet
  facet normal 1 0 -0
    outer loop
      vertex 5.92 0 4
      vertex 5.92 0 0
      vertex 5.92 26 0
    endloop
  endfacet
  facet normal 1 0 0
    outer loop
      vertex 5.92 26 4
      vertex 5.92 0 4
      vertex 5.92 26 0
    endloop
  endfacet
  facet normal 0 1 0
    outer loop
      vertex 3.75 26 0
      vertex 3.75 26 4
      vertex 5.92 26 0
    endloop
  endfacet
  facet normal 0 1 0
    outer loop
      vertex 5.92 26 0
      vertex 3.75 26 4
      vertex 5.92 26 4
    endloop
  endfacet
  facet normal -1 0 0
    outer loop
      vertex 3.75 26 4
      vertex 3.75 26 0
      vertex 3.75 24.01 4
    endloop
  endfacet
  facet normal -1 0 0
    outer loop
      vertex 3.75 24.01 4
      vertex 3.75 26 0
      vertex 3.75 24.01 0
    endloop
  endfacet
  facet normal 0 -1 0
    outer loop
      vertex 3.75 24.01 4
      vertex 3.75 24.01 0
      vertex 4.25 24.01 0
    endloop
  endfacet
  facet normal 0 -1 0
    outer loop
      vertex 4.25 24.01 4
      vertex 3.75 24.01 4
      vertex 4.25 24.01 0
    endloop
  endfacet
  facet normal -1 0 0
    outer loop
      vertex 4.25 24.01 4
      vertex 4.25 24.01 0
      vertex 4.25 22.51 4
    endloop
  endfacet
  facet normal -1 0 0
    outer loop
      vertex 4.25 22.51 4
      vertex 4.25 24.01 0
      vertex 4.25 22.51 0
    endloop
  endfacet
  facet normal 1.42109e-15 1 -0
    outer loop
      vertex 4.25 22.51 4
      vertex 4.25 22.51 0
      vertex 1.75 22.51 4
    endloop
  endfacet
  facet normal 1.42109e-15 1 -0
    outer loop
      vertex 1.75 22.51 4
      vertex 4.25 22.51 0
      vertex 1.75 22.51 0
    endloop
  endfacet
  facet normal 1 -2.96059e-16 0
    outer loop
      vertex 1.75 24.01 0
      vertex 1.75 24.01 4
      vertex 1.75 22.51 4
    endloop
  endfacet
  facet normal 1 -2.96059e-16 0
    outer loop
      vertex 1.75 22.51 0
      vertex 1.75 24.01 0
      vertex 1.75 22.51 4
    endloop
  endfacet
  facet normal -7.10543e-15 -1 0
    outer loop
      vertex 1.75 24.01 4
      vertex 1.75 24.01 0
      vertex 2.25 24.01 0
    endloop
  endfacet
  facet normal -7.10543e-15 -1 0
    outer loop
      vertex 2.25 24.01 4
      vertex 1.75 24.01 4
      vertex 2.25 24.01 0
    endloop
  endfacet
  facet normal 1 0 0
    outer loop
      vertex 2.25 26 0
      vertex 2.25 26 4
      vertex 2.25 24.01 4
    endloop
  endfacet
  facet normal 1 0 0
    outer loop
      vertex 2.25 24.01 0
      vertex 2.25 26 0
      vertex 2.25 24.01 4
    endloop
  endfacet
  facet normal 0 1 0
    outer loop
      vertex -0.1 26 0
      vertex -0.1 26 4
      vertex 2.25 26 0
    endloop
  endfacet
  facet normal 0 1 0
    outer loop
      vertex 2.25 26 0
      vertex -0.1 26 4
      vertex 2.25 26 4
    endloop
  endfacet
  facet normal 0 1 0
    outer loop
      vertex -2.5 21.8 0
      vertex -2.5 21.8 2
      vertex -0.1 21.8 0
    endloop
  endfacet
  facet normal 0 1 0
    outer loop
      vertex -0.1 21.8 0
      vertex -2.5 21.8 2
      vertex -0.1 21.8 2
    endloop
  endfacet
  facet normal -0.707107 0.707107 0
    outer loop
      vertex -6.8 17.5 0
      vertex -6.8 17.5 2
      vertex -2.5 21.8 0
    endloop
  endfacet
  facet normal -0.707107 0.707107 0
    outer loop
      vertex -2.5 21.8 0
      vertex -6.8 17.5 2
      vertex -2.5 21.8 2
    endloop
  endfacet
  facet normal 1 -1.29735e-16 0
    outer loop
      vertex -4.2 9.57696 2
      vertex -4.2 9.57696 0
      vertex -4.2 16.423 0
    endloop
  endfacet
  facet normal 1 -1.29735e-16 0
    outer loop
      vertex -4.2 16.423 2
      vertex -4.2 9.57696 2
      vertex -4.2 16.423 0
    endloop
  endfacet
  facet normal 0.707107 -0.707107 0
    outer loop
      vertex -4.2 16.423 2
      vertex -4.2 16.423 0
      vertex -1.42304 19.2 0
    endloop
  endfacet
  facet normal 0.707107 -0.707107 0
    outer loop
      vertex -1.42304 19.2 2
      vertex -4.2 16.423 2
      vertex -1.42304 19.2 0
    endloop
  endfacet
  facet normal 0 -1 0
    outer loop
      vertex -1.42304 19.2 2
      vertex -1.42304 19.2 0
      vertex -0.1 19.2 0
    endloop
  endfacet
  facet normal 0 -1 0
    outer loop
      vertex -0.1 19.2 2
      vertex -1.42304 19.2 2
      vertex -0.1 19.2 0
    endloop
  endfacet
  facet normal 0 1 0
    outer loop
      vertex -1.42304 6.8 0
      vertex -1.42304 6.8 2
      vertex -0.1 6.8 0
    endloop
  endfacet
  facet normal 0 1 0
    outer loop
      vertex -0.1 6.8 0
      vertex -1.42304 6.8 2
      vertex -0.1 6.8 2
    endloop
  endfacet
  facet normal 0.707107 0.707107 0
    outer loop
      vertex -1.42304 6.8 0
      vertex -4.2 9.57696 0
      vertex -4.2 9.57696 2
    endloop
  endfacet
  facet normal 0.707107 0.707107 -0
    outer loop
      vertex -1.42304 6.8 2
      vertex -1.42304 6.8 0
      vertex -4.2 9.57696 2
    endloop
  endfacet
  facet normal 0 -0 1
    outer loop
      vertex 1.75 1.99 4
      vertex -0.1 0 4
      vertex 2.25 0 4
    endloop
  endfacet
  facet normal 0 0 1
    outer loop
      vertex 3.75 24.01 4
      vertex 4.25 24.01 4
      vertex 3.75 26 4
    endloop
  endfacet
  facet normal 0 -0 1
    outer loop
      vertex -0.1 26 4
      vertex -0.1 0 4
      vertex 1.75 1.99 4
    endloop
  endfacet
  facet normal 0 0 1
    outer loop
      vertex 1.75 3.49 4
      vertex 4.25 3.49 4
      vertex -0.1 26 4
    endloop
  endfacet
  facet normal 0 0 1
    outer loop
      vertex -0.1 26 4
      vertex 1.75 1.99 4
      vertex 1.75 3.49 4
    endloop
  endfacet
  facet normal 0 0 1
    outer loop
      vertex 5.92 0 4
      vertex -0.1 26 4
      vertex 4.25 3.49 4
    endloop
  endfacet
  facet normal 0 0 1
    outer loop
      vertex 2.25 24.01 4
      vertex 2.25 26 4
      vertex -0.1 26 4
    endloop
  endfacet
  facet normal 0 0 1
    outer loop
      vertex 5.92 0 4
      vertex 4.25 3.49 4
      vertex 4.25 1.99 4
    endloop
  endfacet
  facet normal -0 0 1
    outer loop
      vertex 5.92 0 4
      vertex 4.25 1.99 4
      vertex 3.75 0 4
    endloop
  endfacet
  facet normal -0 -0 1
    outer loop
      vertex 1.75 22.51 4
      vertex -0.1 26 4
      vertex 5.92 0 4
    endloop
  endfacet
  facet normal -0 -0 1
    outer loop
      vertex 4.25 22.51 4
      vertex 1.75 22.51 4
      vertex 5.92 0 4
    endloop
  endfacet
  facet normal 0 0 1
    outer loop
      vertex 5.92 26 4
      vertex 4.25 24.01 4
      vertex 5.92 0 4
    endloop
  endfacet
  facet normal 0 0 1
    outer loop
      vertex 5.92 26 4
      vertex 3.75 26 4
      vertex 4.25 24.01 4
    endloop
  endfacet
  facet normal 0 -0 1
    outer loop
      vertex 4.25 24.01 4
      vertex 4.25 22.51 4
      vertex 5.92 0 4
    endloop
  endfacet
  facet normal -0 0 1
    outer loop
      vertex 1.75 24.01 4
      vertex -0.1 26 4
      vertex 1.75 22.51 4
    endloop
  endfacet
  facet normal 0 0 1
    outer loop
      vertex 2.25 24.01 4
      vertex -0.1 26 4
      vertex 1.75 24.01 4
    endloop
  endfacet
  facet normal 0 -0 1
    outer loop
      vertex 3.75 1.99 4
      vertex 3.75 0 4
      vertex 4.25 1.99 4
    endloop
  endfacet
  facet normal 0 0 1
    outer loop
      vertex 2.25 1.99 4
      vertex 1.75 1.99 4
      vertex 2.25 0 4
    endloop
  endfacet
  facet normal -1 -0 -0
    outer loop
      vertex 6 4.2 0
      vertex 6 4.2 2
      vertex 6 6.8 0
    endloop
  endfacet
  facet normal -1 0 0
    outer loop
      vertex 6 6.8 0
      vertex 6 4.2 2
      vertex 6 6.8 2
    endloop
  endfacet
  facet normal 0 -1 0
    outer loop
      vertex 6 4.2 2
      vertex 6 4.2 0
      vertex 8.5 4.2 0
    endloop
  endfacet
  facet normal 0 -1 0
    outer loop
      vertex 8.5 4.2 2
      vertex 6 4.2 2
      vertex 8.5 4.2 0
    endloop
  endfacet
  facet normal -0 -0 -1
    outer loop
      vertex 6 4.2 0
      vertex 6 6.8 0
      vertex 8.5 4.2 0
    endloop
  endfacet
  facet normal 0 0 -1
    outer loop
      vertex 8.5 4.2 0
      vertex 6 6.8 0
      vertex 7.42304 6.8 0
    endloop
  endfacet
  facet normal 0 -0 -1
    outer loop
      vertex 8.5 4.2 0
      vertex 7.42304 6.8 0
      vertex 10.2 9.57696 0
    endloop
  endfacet
  facet normal 0 0 -1
    outer loop
      vertex 7.42304 19.2 0
      vertex 6 19.2 0
      vertex 6 21.8 0
    endloop
  endfacet
  facet normal -0 -0 -1
    outer loop
      vertex 7.42304 19.2 0
      vertex 6 21.8 0
      vertex 10.2 16.423 0
    endloop
  endfacet
  facet normal 0 0 -1
    outer loop
      vertex 10.2 16.423 0
      vertex 6 21.8 0
      vertex 8.5 21.8 0
    endloop
  endfacet
  facet normal 0 -0 -1
    outer loop
      vertex 10.2 16.423 0
      vertex 8.5 21.8 0
      vertex 12.8 17.5 0
    endloop
  endfacet
  facet normal -0 0 -1
    outer loop
      vertex 10.2 16.423 0
      vertex 12.8 17.5 0
      vertex 10.2 9.57696 0
    endloop
  endfacet
  facet normal 0 0 -1
    outer loop
      vertex 8.5 4.2 0
      vertex 12.8 17.5 0
      vertex 12.8 8.5 0
    endloop
  endfacet
  facet normal 0 0 -1
    outer loop
      vertex 12.8 17.5 0
      vertex 8.5 4.2 0
      vertex 10.2 9.57696 0
    endloop
  endfacet
  facet normal 0 1 0
    outer loop
      vertex 6 6.8 0
      vertex 6 6.8 2
      vertex 7.42304 6.8 0
    endloop
  endfacet
  facet normal 0 1 0
    outer loop
      vertex 7.42304 6.8 0
      vertex 6 6.8 2
      vertex 7.42304 6.8 2
    endloop
  endfacet
  facet normal 0 -0 1
    outer loop
      vertex 6 6.8 2
      vertex 6 4.2 2
      vertex 8.5 4.2 2
    endloop
  endfacet
  facet normal 0 -0 1
    outer loop
      vertex 7.42304 6.8 2
      vertex 6 6.8 2
      vertex 8.5 4.2 2
    endloop
  endfacet
  facet normal 0 -0 1
    outer loop
      vertex 10.2 9.57696 2
      vertex 7.42304 6.8 2
      vertex 12.8 8.5 2
    endloop
  endfacet
  facet normal 0 -0 1
    outer loop
      vertex 10.2 16.423 2
      vertex 10.2 9.57696 2
      vertex 12.8 17.5 2
    endloop
  endfacet
  facet normal 0 -0 1
    outer loop
      vertex 6 21.8 2
      vertex 6 19.2 2
      vertex 8.5 21.8 2
    endloop
  endfacet
  facet normal 0 0 1
    outer loop
      vertex 6 19.2 2
      vertex 7.42304 19.2 2
      vertex 8.5 21.8 2
    endloop
  endfacet
  facet normal 0 0 1
    outer loop
      vertex 8.5 21.8 2
      vertex 10.2 16.423 2
      vertex 12.8 17.5 2
    endloop
  endfacet
  facet normal 0 0 1
    outer loop
      vertex 12.8 17.5 2
      vertex 10.2 9.57696 2
      vertex 12.8 8.5 2
    endloop
  endfacet
  facet normal 0 0 1
    outer loop
      vertex 12.8 8.5 2
      vertex 7.42304 6.8 2
      vertex 8.5 4.2 2
    endloop
  endfacet
  facet normal 0 0 1
    outer loop
      vertex 7.42304 19.2 2
      vertex 10.2 16.423 2
      vertex 8.5 21.8 2
    endloop
  endfacet
  facet normal 0.707107 -0.707107 0
    outer loop
      vertex 8.5 4.2 2
      vertex 8.5 4.2 0
      vertex 12.8 8.5 0
    endloop
  endfacet
  facet normal 0.707107 -0.707107 0
    outer loop
      vertex 12.8 8.5 2
      vertex 8.5 4.2 2
      vertex 12.8 8.5 0
    endloop
  endfacet
  facet normal 1 0 -0
    outer loop
      vertex 12.8 8.5 2
      vertex 12.8 8.5 0
      vertex 12.8 17.5 0
    endloop
  endfacet
  facet normal 1 0 0
    outer loop
      vertex 12.8 17.5 2
      vertex 12.8 8.5 2
      vertex 12.8 17.5 0
    endloop
  endfacet
  facet normal 0.707107 0.707107 0
    outer loop
      vertex 8.5 21.8 0
      vertex 8.5 21.8 2
      vertex 12.8 17.5 0
    endloop
  endfacet
  facet normal 0.707107 0.707107 0
    outer loop
      vertex 12.8 17.5 0
      vertex 8.5 21.8 2
      vertex 12.8 17.5 2
    endloop
  endfacet
  facet normal 0 1 0
    outer loop
      vertex 6 21.8 0
      vertex 6 21.8 2
      vertex 8.5 21.8 0
    endloop
  endfacet
  facet normal 0 1 0
    outer loop
      vertex 8.5 21.8 0
      vertex 6 21.8 2
      vertex 8.5 21.8 2
    endloop
  endfacet
  facet normal -1 -0 -0
    outer loop
      vertex 6 19.2 0
      vertex 6 19.2 2
      vertex 6 21.8 0
    endloop
  endfacet
  facet normal -1 0 0
    outer loop
      vertex 6 21.8 0
      vertex 6 19.2 2
      vertex 6 21.8 2
    endloop
  endfacet
  facet normal 0 -1 0
    outer loop
      vertex 6 19.2 2
      vertex 6 19.2 0
      vertex 7.42304 19.2 0
    endloop
  endfacet
  facet normal 0 -1 0
    outer loop
      vertex 7.42304 19.2 2
      vertex 6 19.2 2
      vertex 7.42304 19.2 0
    endloop
  endfacet
  facet normal -0.707107 -0.707107 0
    outer loop
      vertex 7.42304 19.2 2
      vertex 7.42304 19.2 0
      vertex 10.2 16.423 0
    endloop
  endfacet
  facet normal -0.707107 -0.707107 0
    outer loop
      vertex 10.2 16.423 2
      vertex 7.42304 19.2 2
      vertex 10.2 16.423 0
    endloop
  endfacet
  facet normal -1 -0 -0
    outer loop
      vertex 10.2 9.57696 0
      vertex 10.2 9.57696 2
      vertex 10.2 16.423 0
    endloop
  endfacet
  facet normal -1 0 0
    outer loop
      vertex 10.2 16.423 0
      vertex 10.2 9.57696 2
      vertex 10.2 16.423 2
    endloop
  endfacet
  facet normal -0.707107 0.707107 0
    outer loop
      vertex 7.42304 6.8 0
      vertex 7.42304 6.8 2
      vertex 10.2 9.57696 0
    endloop
  endfacet
  facet normal -0.707107 0.707107 0
    outer loop
      vertex 10.2 9.57696 0
      vertex 7.42304 6.8 2
      vertex 10.2 9.57696 2
    endloop
  endfacet
endsolid OpenSCAD_Model
