solid OpenSCAD_Model
  facet normal -1 -0 -0
    outer loop
      vertex 0 0 0
      vertex 0 0 3.5
      vertex 0 4 0
    endloop
  endfacet
  facet normal -1 0 0
    outer loop
      vertex 0 4 0
      vertex 0 0 3.5
      vertex 0 0.5 3.5
    endloop
  endfacet
  facet normal -1 0 0
    outer loop
      vertex 0 4 0
      vertex 0 0.5 3.5
      vertex 0 0.5 3.6
    endloop
  endfacet
  facet normal -1 0 -0
    outer loop
      vertex 0 7 2
      vertex 0 0.5 3.6
      vertex 0 25.4 3.6
    endloop
  endfacet
  facet normal -1 -0 0
    outer loop
      vertex 0 22 0
      vertex 0 26 3.5
      vertex 0 26 0
    endloop
  endfacet
  facet normal -1 -0 0
    outer loop
      vertex 0 22 2
      vertex 0 26 3.5
      vertex 0 22 0
    endloop
  endfacet
  facet normal -1 -0 0
    outer loop
      vertex 0 19 2
      vertex 0 26 3.5
      vertex 0 22 2
    endloop
  endfacet
  facet normal -1 -0 0
    outer loop
      vertex 0 7 2
      vertex 0 26 3.5
      vertex 0 19 2
    endloop
  endfacet
  facet normal -1 0 0
    outer loop
      vertex 0 7 2
      vertex 0 25.4 3.6
      vertex 0 25.4 3.5
    endloop
  endfacet
  facet normal -1 0 0
    outer loop
      vertex 0 7 2
      vertex 0 25.4 3.5
      vertex 0 26 3.5
    endloop
  endfacet
  facet normal -1 -0 -0
    outer loop
      vertex 0 4 2
      vertex 0 0.5 3.6
      vertex 0 7 2
    endloop
  endfacet
  facet normal -1 0 0
    outer loop
      vertex 0 4 0
      vertex 0 0.5 3.6
      vertex 0 4 2
    endloop
  endfacet
  facet normal -1 0 0
    outer loop
      vertex 0 19 0
      vertex 0 7 0
      vertex 0 19 2
    endloop
  endfacet
  facet normal -1 0 0
    outer loop
      vertex 0 7 2
      vertex 0 19 2
      vertex 0 7 0
    endloop
  endfacet
  facet normal 0 -1 0
    outer loop
      vertex 0 0 3.5
      vertex 0 0 0
      vertex 4 0 0
    endloop
  endfacet
  facet normal 0 -1 0
    outer loop
      vertex 7 0 2
      vertex 0 0 3.5
      vertex 4 0 2
    endloop
  endfacet
  facet normal 0 -1 0
    outer loop
      vertex 4 0 2
      vertex 0 0 3.5
      vertex 4 0 0
    endloop
  endfacet
  facet normal 0 -1 0
    outer loop
      vertex 19 0 0
      vertex 0 0 3.5
      vertex 7 0 2
    endloop
  endfacet
  facet normal 0 -1 0
    outer loop
      vertex 19 0 0
      vertex 7 0 2
      vertex 7 0 0
    endloop
  endfacet
  facet normal 0 -1 0
    outer loop
      vertex 19 0 2
      vertex 0 0 3.5
      vertex 19 0 0
    endloop
  endfacet
  facet normal 0 -1 0
    outer loop
      vertex 22 0 2
      vertex 0 0 3.5
      vertex 19 0 2
    endloop
  endfacet
  facet normal 0 -1 0
    outer loop
      vertex 25.41 0 3.5
      vertex 0.49 0 3.5
      vertex 22 0 2
    endloop
  endfacet
  facet normal 0 -1 0
    outer loop
      vertex 26 0 0
      vertex 22 0 2
      vertex 22 0 0
    endloop
  endfacet
  facet normal 0 -1 0
    outer loop
      vertex 26 0 3.5
      vertex 22 0 2
      vertex 26 0 0
    endloop
  endfacet
  facet normal 0 -1 0
    outer loop
      vertex 0.49 0 3.5
      vertex 0 0 3.5
      vertex 22 0 2
    endloop
  endfacet
  facet normal 0 -1 0
    outer loop
      vertex 26 0 3.5
      vertex 25.41 0 3.5
      vertex 22 0 2
    endloop
  endfacet
  facet normal 0 -1 0
    outer loop
      vertex 25.41 0 3.6
      vertex 0.49 0 3.5
      vertex 25.41 0 3.5
    endloop
  endfacet
  facet normal 0 -1 0
    outer loop
      vertex 0.49 0 3.6
      vertex 0.49 0 3.5
      vertex 25.41 0 3.6
    endloop
  endfacet
  facet normal -0 -0 -1
    outer loop
      vertex 0 0 0
      vertex 0 4 0
      vertex 4 0 0
    endloop
  endfacet
  facet normal 0 0 -1
    outer loop
      vertex 4 0 0
      vertex 0 4 0
      vertex 2.49 4 0
    endloop
  endfacet
  facet normal 0 -0 -1
    outer loop
      vertex 4 2.49 0
      vertex 2.49 4 0
      vertex 6.99 8.5 0
    endloop
  endfacet
  facet normal 0 0 -1
    outer loop
      vertex 2.49 22 0
      vertex 0 22 0
      vertex 0 26 0
    endloop
  endfacet
  facet normal -0 -0 -1
    outer loop
      vertex 2.49 22 0
      vertex 0 26 0
      vertex 6.99 17.5 0
    endloop
  endfacet
  facet normal 0 -0 -1
    outer loop
      vertex 4 23.51 0
      vertex 0 26 0
      vertex 4 26 0
    endloop
  endfacet
  facet normal 0 0 -1
    outer loop
      vertex 6.99 17.5 0
      vertex 0 26 0
      vertex 4 23.51 0
    endloop
  endfacet
  facet normal 0 0 -1
    outer loop
      vertex 8.5 6.99 0
      vertex 13 10.75 0
      vertex 14.591 11.409 0
    endloop
  endfacet
  facet normal -0 0 -1
    outer loop
      vertex 6.99 17.5 0
      vertex 8.5 19.01 0
      vertex 6.99 8.5 0
    endloop
  endfacet
  facet normal 0 -0 -1
    outer loop
      vertex 13 15.25 0
      vertex 8.5 19.01 0
      vertex 17.5 19.01 0
    endloop
  endfacet
  facet normal 0 -0 -1
    outer loop
      vertex 22 23.51 0
      vertex 22 26 0
      vertex 26 26 0
    endloop
  endfacet
  facet normal -0 0 -1
    outer loop
      vertex 23.51 22 0
      vertex 26 26 0
      vertex 26 22 0
    endloop
  endfacet
  facet normal 0 0 -1
    outer loop
      vertex 19.01 17.5 0
      vertex 26 26 0
      vertex 23.51 22 0
    endloop
  endfacet
  facet normal 0 0 -1
    outer loop
      vertex 23.51 4 0
      vertex 26 4 0
      vertex 22 2.49 0
    endloop
  endfacet
  facet normal -0 0 -1
    outer loop
      vertex 17.5 6.99 0
      vertex 19.01 8.5 0
      vertex 23.51 4 0
    endloop
  endfacet
  facet normal 0 0 -1
    outer loop
      vertex 14.591 14.591 0
      vertex 26 26 0
      vertex 19.01 17.5 0
    endloop
  endfacet
  facet normal -0 0 -1
    outer loop
      vertex 22 0 0
      vertex 26 4 0
      vertex 26 0 0
    endloop
  endfacet
  facet normal -0 0 -1
    outer loop
      vertex 22 2.49 0
      vertex 26 4 0
      vertex 22 0 0
    endloop
  endfacet
  facet normal 0 0 -1
    outer loop
      vertex 14.591 14.591 0
      vertex 22 23.51 0
      vertex 26 26 0
    endloop
  endfacet
  facet normal -0 0 -1
    outer loop
      vertex 14.591 14.591 0
      vertex 19.01 17.5 0
      vertex 15.25 13 0
    endloop
  endfacet
  facet normal 0 0 -1
    outer loop
      vertex 4 2.49 0
      vertex 6.99 8.5 0
      vertex 8.5 6.99 0
    endloop
  endfacet
  facet normal 0 0 -1
    outer loop
      vertex 4 0 0
      vertex 2.49 4 0
      vertex 4 2.49 0
    endloop
  endfacet
  facet normal 0 0 -1
    outer loop
      vertex 11.409 11.409 0
      vertex 6.99 8.5 0
      vertex 10.75 13 0
    endloop
  endfacet
  facet normal 0 0 -1
    outer loop
      vertex 6.99 8.5 0
      vertex 8.5 19.01 0
      vertex 10.75 13 0
    endloop
  endfacet
  facet normal 0 0 -1
    outer loop
      vertex 13 10.75 0
      vertex 8.5 6.99 0
      vertex 11.409 11.409 0
    endloop
  endfacet
  facet normal -0 0 -1
    outer loop
      vertex 6.99 8.5 0
      vertex 11.409 11.409 0
      vertex 8.5 6.99 0
    endloop
  endfacet
  facet normal -0 0 -1
    outer loop
      vertex 13 15.25 0
      vertex 17.5 19.01 0
      vertex 14.591 14.591 0
    endloop
  endfacet
  facet normal 0 0 -1
    outer loop
      vertex 17.5 6.99 0
      vertex 23.51 4 0
      vertex 22 2.49 0
    endloop
  endfacet
  facet normal -0 0 -1
    outer loop
      vertex 17.5 19.01 0
      vertex 22 23.51 0
      vertex 14.591 14.591 0
    endloop
  endfacet
  facet normal 0 -0 -1
    outer loop
      vertex 11.409 14.591 0
      vertex 8.5 19.01 0
      vertex 13 15.25 0
    endloop
  endfacet
  facet normal 0 -0 -1
    outer loop
      vertex 10.75 13 0
      vertex 8.5 19.01 0
      vertex 11.409 14.591 0
    endloop
  endfacet
  facet normal 0 0 -1
    outer loop
      vertex 8.5 19.01 0
      vertex 6.99 17.5 0
      vertex 4 23.51 0
    endloop
  endfacet
  facet normal 0 0 -1
    outer loop
      vertex 19.01 8.5 0
      vertex 14.591 11.409 0
      vertex 15.25 13 0
    endloop
  endfacet
  facet normal 0 0 -1
    outer loop
      vertex 19.01 8.5 0
      vertex 15.25 13 0
      vertex 19.01 17.5 0
    endloop
  endfacet
  facet normal 0 0 -1
    outer loop
      vertex 8.5 6.99 0
      vertex 14.591 11.409 0
      vertex 19.01 8.5 0
    endloop
  endfacet
  facet normal -0 0 -1
    outer loop
      vertex 8.5 6.99 0
      vertex 19.01 8.5 0
      vertex 17.5 6.99 0
    endloop
  endfacet
  facet normal 0 1 0
    outer loop
      vertex 2.49 4 2
      vertex 2.49 4 0
      vertex 0 4 2
    endloop
  endfacet
  facet normal 0 1 -0
    outer loop
      vertex 0 4 2
      vertex 2.49 4 0
      vertex 0 4 0
    endloop
  endfacet
  facet normal 0 0 -1
    outer loop
      vertex 2.49 22 2
      vertex 3.99 16.2574 2
      vertex 0 22 2
    endloop
  endfacet
  facet normal 0 0 -1
    outer loop
      vertex 0 22 2
      vertex 1.24736 19 2
      vertex 0 19 2
    endloop
  endfacet
  facet normal 0 0 -1
    outer loop
      vertex 3.99 16.2574 2
      vertex 1.24736 19 2
      vertex 0 22 2
    endloop
  endfacet
  facet normal 0 0 -1
    outer loop
      vertex 6.99 17.5 2
      vertex 3.99 16.2574 2
      vertex 2.49 22 2
    endloop
  endfacet
  facet normal 0 -0 -1
    outer loop
      vertex 3.99 9.74264 2
      vertex 3.99 16.2574 2
      vertex 6.99 17.5 2
    endloop
  endfacet
  facet normal 0 0 -1
    outer loop
      vertex 6.99 8.5 2
      vertex 3.99 9.74264 2
      vertex 6.99 17.5 2
    endloop
  endfacet
  facet normal 0 0 -1
    outer loop
      vertex 1.24736 7 2
      vertex 3.99 9.74264 2
      vertex 6.99 8.5 2
    endloop
  endfacet
  facet normal -0 0 -1
    outer loop
      vertex 1.24736 7 2
      vertex 6.99 8.5 2
      vertex 2.49 4 2
    endloop
  endfacet
  facet normal 0 0 -1
    outer loop
      vertex 1.24736 7 2
      vertex 2.49 4 2
      vertex 0 7 2
    endloop
  endfacet
  facet normal 0 0 -1
    outer loop
      vertex 2.49 4 2
      vertex 0 4 2
      vertex 0 7 2
    endloop
  endfacet
  facet normal 0 -1 0
    outer loop
      vertex 1.24736 7 0
      vertex 1.24736 7 2
      vertex 0 7 2
    endloop
  endfacet
  facet normal -0 -1 -0
    outer loop
      vertex 0 7 0
      vertex 1.24736 7 0
      vertex 0 7 2
    endloop
  endfacet
  facet normal -0 -0 -1
    outer loop
      vertex 0 7 0
      vertex 0 19 0
      vertex 1.24736 7 0
    endloop
  endfacet
  facet normal 0 -0 -1
    outer loop
      vertex 1.24736 7 0
      vertex 0 19 0
      vertex 1.24736 19 0
    endloop
  endfacet
  facet normal 0 0 -1
    outer loop
      vertex 1.24736 7 0
      vertex 1.24736 19 0
      vertex 3.99 16.2574 0
    endloop
  endfacet
  facet normal 0 0 -1
    outer loop
      vertex 1.24736 7 0
      vertex 3.99 16.2574 0
      vertex 3.99 9.74264 0
    endloop
  endfacet
  facet normal 0 1 0
    outer loop
      vertex 1.24736 19 2
      vertex 1.24736 19 0
      vertex 0 19 2
    endloop
  endfacet
  facet normal 0 1 -0
    outer loop
      vertex 0 19 2
      vertex 1.24736 19 0
      vertex 0 19 0
    endloop
  endfacet
  facet normal 0 -1 0
    outer loop
      vertex 2.49 22 0
      vertex 2.49 22 2
      vertex 0 22 2
    endloop
  endfacet
  facet normal -0 -1 -0
    outer loop
      vertex 0 22 0
      vertex 2.49 22 0
      vertex 0 22 2
    endloop
  endfacet
  facet normal 0 1 0
    outer loop
      vertex 0 26 0
      vertex 0 26 3.5
      vertex 4 26 0
    endloop
  endfacet
  facet normal 0 1 0
    outer loop
      vertex 7 26 2
      vertex 0 26 3.5
      vertex 26 26 3.5
    endloop
  endfacet
  facet normal 0 1 0
    outer loop
      vertex 22 26 0
      vertex 26 26 3.5
      vertex 26 26 0
    endloop
  endfacet
  facet normal 0 1 -0
    outer loop
      vertex 22 26 2
      vertex 26 26 3.5
      vertex 22 26 0
    endloop
  endfacet
  facet normal 0 1 0
    outer loop
      vertex 19 26 2
      vertex 26 26 3.5
      vertex 22 26 2
    endloop
  endfacet
  facet normal 0 1 0
    outer loop
      vertex 7 26 2
      vertex 26 26 3.5
      vertex 19 26 2
    endloop
  endfacet
  facet normal 0 1 -0
    outer loop
      vertex 7 26 2
      vertex 19 26 2
      vertex 7 26 0
    endloop
  endfacet
  facet normal 0 1 0
    outer loop
      vertex 4 26 2
      vertex 0 26 3.5
      vertex 7 26 2
    endloop
  endfacet
  facet normal 0 1 0
    outer loop
      vertex 4 26 0
      vertex 0 26 3.5
      vertex 4 26 2
    endloop
  endfacet
  facet normal -0 1 0
    outer loop
      vertex 19 26 0
      vertex 7 26 0
      vertex 19 26 2
    endloop
  endfacet
  facet normal 0 0 1
    outer loop
      vertex 25.5545 0.024472 3.5
      vertex 26 0 3.5
      vertex 25.9 0.5 3.5
    endloop
  endfacet
  facet normal 0 -0 1
    outer loop
      vertex 0 26 3.5
      vertex 0 25.4 3.5
      vertex 0.095492 25.4 3.5
    endloop
  endfacet
  facet normal -0 0 1
    outer loop
      vertex 0.49 25.8221 3.5
      vertex 0 26 3.5
      vertex 0.095492 25.6939 3.5
    endloop
  endfacet
  facet normal -0 0 1
    outer loop
      vertex 0.095492 25.6939 3.5
      vertex 0 26 3.5
      vertex 0.095492 25.4 3.5
    endloop
  endfacet
  facet normal -0 0 1
    outer loop
      vertex 0.49 25.9 3.5
      vertex 0 26 3.5
      vertex 0.49 25.8221 3.5
    endloop
  endfacet
  facet normal -0 0 1
    outer loop
      vertex 25.41 25.9 3.5
      vertex 0 26 3.5
      vertex 0.49 25.9 3.5
    endloop
  endfacet
  facet normal 0 0 1
    outer loop
      vertex 26 26 3.5
      vertex 0 26 3.5
      vertex 25.41 25.9 3.5
    endloop
  endfacet
  facet normal -0 0 1
    outer loop
      vertex 25.5545 25.8755 3.5
      vertex 25.41 25.9 3.5
      vertex 25.41 25.8286 3.5
    endloop
  endfacet
  facet normal 0 0 1
    outer loop
      vertex 26 26 3.5
      vertex 25.41 25.9 3.5
      vertex 25.5545 25.8755 3.5
    endloop
  endfacet
  facet normal 0 0 1
    outer loop
      vertex 26 26 3.5
      vertex 25.5545 25.8755 3.5
      vertex 25.9 25.4 3.5
    endloop
  endfacet
  facet normal 0 0 1
    outer loop
      vertex 26 0 3.5
      vertex 25.9 25.4 3.5
      vertex 25.9 0.5 3.5
    endloop
  endfacet
  facet normal 0 -0 1
    outer loop
      vertex 25.41 0.0714254 3.5
      vertex 25.41 0 3.5
      vertex 25.5545 0.024472 3.5
    endloop
  endfacet
  facet normal 0 0 1
    outer loop
      vertex 25.41 0 3.5
      vertex 26 0 3.5
      vertex 25.5545 0.024472 3.5
    endloop
  endfacet
  facet normal 0 0 1
    outer loop
      vertex 26 0 3.5
      vertex 26 26 3.5
      vertex 25.9 25.4 3.5
    endloop
  endfacet
  facet normal 0 1 0
    outer loop
      vertex 0 25.4 3.5
      vertex 0 25.4 3.6
      vertex 0.095492 25.4 3.5
    endloop
  endfacet
  facet normal 0 1 0
    outer loop
      vertex 0.095492 25.4 3.5
      vertex 0 25.4 3.6
      vertex 0.095492 25.4 3.6
    endloop
  endfacet
  facet normal 0 -0 1
    outer loop
      vertex 0 25.4 3.6
      vertex 0 0.5 3.6
      vertex 0.095492 0.5 3.6
    endloop
  endfacet
  facet normal 0 0 1
    outer loop
      vertex 0.095492 25.4 3.6
      vertex 0 25.4 3.6
      vertex 0.095492 0.5 3.6
    endloop
  endfacet
  facet normal 0 -1 0
    outer loop
      vertex 0 0.5 3.6
      vertex 0 0.5 3.5
      vertex 0.095492 0.5 3.5
    endloop
  endfacet
  facet normal 0 -1 0
    outer loop
      vertex 0.095492 0.5 3.6
      vertex 0 0.5 3.6
      vertex 0.095492 0.5 3.5
    endloop
  endfacet
  facet normal 0 -0 1
    outer loop
      vertex 0.095492 0.206107 3.5
      vertex 0 0 3.5
      vertex 0.49 0 3.5
    endloop
  endfacet
  facet normal 0 0 1
    outer loop
      vertex 0.095492 0.206107 3.5
      vertex 0.095492 0.5 3.5
      vertex 0 0.5 3.5
    endloop
  endfacet
  facet normal 0 -0 1
    outer loop
      vertex 0 0.5 3.5
      vertex 0 0 3.5
      vertex 0.095492 0.206107 3.5
    endloop
  endfacet
  facet normal -0 0 1
    outer loop
      vertex 0.49 0.0779238 3.5
      vertex 0.095492 0.206107 3.5
      vertex 0.49 0 3.5
    endloop
  endfacet
  facet normal -1 -0 -0
    outer loop
      vertex 0.49 0 3.5
      vertex 0.49 0 3.6
      vertex 0.49 0.0779238 3.5
    endloop
  endfacet
  facet normal -1 0 0
    outer loop
      vertex 0.49 0.0779238 3.5
      vertex 0.49 0 3.6
      vertex 0.49 0.0779238 3.6
    endloop
  endfacet
  facet normal 0 -0 1
    outer loop
      vertex 0.654508 0.024472 3.6
      vertex 0.49 0 3.6
      vertex 25.41 0 3.6
    endloop
  endfacet
  facet normal -0 0 1
    outer loop
      vertex 0.654508 0.024472 3.6
      vertex 0.5 0.0746746 3.6
      vertex 0.49 0 3.6
    endloop
  endfacet
  facet normal 0 -0 1
    outer loop
      vertex 0.690982 0.0746746 3.6
      vertex 0.654508 0.024472 3.6
      vertex 25.41 0 3.6
    endloop
  endfacet
  facet normal 0 -0 1
    outer loop
      vertex 0.49 0.0779238 3.6
      vertex 0.49 0 3.6
      vertex 0.5 0.0746746 3.6
    endloop
  endfacet
  facet normal 0 0 1
    outer loop
      vertex 25.4 0.0746746 3.6
      vertex 25.41 0 3.6
      vertex 25.41 0.0714254 3.6
    endloop
  endfacet
  facet normal -0 -0 1
    outer loop
      vertex 25.4 0.0746746 3.6
      vertex 0.690982 0.0746746 3.6
      vertex 25.41 0 3.6
    endloop
  endfacet
  facet normal 1 0 -0
    outer loop
      vertex 25.41 0 3.6
      vertex 25.41 0 3.5
      vertex 25.41 0.0714254 3.5
    endloop
  endfacet
  facet normal 1 0 0
    outer loop
      vertex 25.41 0.0714254 3.6
      vertex 25.41 0 3.6
      vertex 25.41 0.0714254 3.5
    endloop
  endfacet
  facet normal 1 0 -0
    outer loop
      vertex 26 0 3.5
      vertex 26 0 0
      vertex 26 4 0
    endloop
  endfacet
  facet normal 1 -0 0
    outer loop
      vertex 26 7 2
      vertex 26 0 3.5
      vertex 26 4 2
    endloop
  endfacet
  facet normal 1 -0 0
    outer loop
      vertex 26 4 2
      vertex 26 0 3.5
      vertex 26 4 0
    endloop
  endfacet
  facet normal 1 0 0
    outer loop
      vertex 26 19 0
      vertex 26 0 3.5
      vertex 26 7 2
    endloop
  endfacet
  facet normal 1 -0 0
    outer loop
      vertex 26 19 0
      vertex 26 7 2
      vertex 26 7 0
    endloop
  endfacet
  facet normal 1 -0 0
    outer loop
      vertex 26 19 2
      vertex 26 0 3.5
      vertex 26 19 0
    endloop
  endfacet
  facet normal 1 -0 0
    outer loop
      vertex 26 22 2
      vertex 26 0 3.5
      vertex 26 19 2
    endloop
  endfacet
  facet normal 1 0 0
    outer loop
      vertex 26 26 3.5
      vertex 26 0 3.5
      vertex 26 22 2
    endloop
  endfacet
  facet normal 1 -0 0
    outer loop
      vertex 26 26 0
      vertex 26 22 2
      vertex 26 22 0
    endloop
  endfacet
  facet normal 1 0 0
    outer loop
      vertex 26 26 3.5
      vertex 26 22 2
      vertex 26 26 0
    endloop
  endfacet
  facet normal -1 0 0
    outer loop
      vertex 22 2.49 2
      vertex 22 2.49 0
      vertex 22 0 2
    endloop
  endfacet
  facet normal -1 0 0
    outer loop
      vertex 22 0 2
      vertex 22 2.49 0
      vertex 22 0 0
    endloop
  endfacet
  facet normal 0 0 -1
    outer loop
      vertex 4 2.49 2
      vertex 8.5 6.99 2
      vertex 17.5 6.99 2
    endloop
  endfacet
  facet normal 0 -0 -1
    outer loop
      vertex 7 1.24736 2
      vertex 4 2.49 2
      vertex 9.74264 3.99 2
    endloop
  endfacet
  facet normal -0 0 -1
    outer loop
      vertex 19 1.24736 2
      vertex 22 2.49 2
      vertex 22 0 2
    endloop
  endfacet
  facet normal 0 0 -1
    outer loop
      vertex 16.2574 3.99 2
      vertex 22 2.49 2
      vertex 19 1.24736 2
    endloop
  endfacet
  facet normal 0 0 -1
    outer loop
      vertex 17.5 6.99 2
      vertex 22 2.49 2
      vertex 16.2574 3.99 2
    endloop
  endfacet
  facet normal 0 0 -1
    outer loop
      vertex 17.5 6.99 2
      vertex 16.2574 3.99 2
      vertex 9.74264 3.99 2
    endloop
  endfacet
  facet normal 0 0 -1
    outer loop
      vertex 17.5 6.99 2
      vertex 9.74264 3.99 2
      vertex 4 2.49 2
    endloop
  endfacet
  facet normal 0 0 -1
    outer loop
      vertex 4 2.49 2
      vertex 7 1.24736 2
      vertex 7 0 2
    endloop
  endfacet
  facet normal 0 0 -1
    outer loop
      vertex 4 2.49 2
      vertex 7 0 2
      vertex 4 0 2
    endloop
  endfacet
  facet normal 0 0 -1
    outer loop
      vertex 19 1.24736 2
      vertex 22 0 2
      vertex 19 0 2
    endloop
  endfacet
  facet normal 1 0 0
    outer loop
      vertex 19 1.24736 0
      vertex 19 1.24736 2
      vertex 19 0 2
    endloop
  endfacet
  facet normal 1 0 0
    outer loop
      vertex 19 0 0
      vertex 19 1.24736 0
      vertex 19 0 2
    endloop
  endfacet
  facet normal -0 -0 -1
    outer loop
      vertex 7 0 0
      vertex 7 1.24736 0
      vertex 19 0 0
    endloop
  endfacet
  facet normal 0 0 -1
    outer loop
      vertex 19 0 0
      vertex 7 1.24736 0
      vertex 9.74264 3.99 0
    endloop
  endfacet
  facet normal 0 0 -1
    outer loop
      vertex 19 0 0
      vertex 9.74264 3.99 0
      vertex 16.2574 3.99 0
    endloop
  endfacet
  facet normal 0 0 -1
    outer loop
      vertex 19 0 0
      vertex 16.2574 3.99 0
      vertex 19 1.24736 0
    endloop
  endfacet
  facet normal -1 0 0
    outer loop
      vertex 7 1.24736 2
      vertex 7 1.24736 0
      vertex 7 0 2
    endloop
  endfacet
  facet normal -1 0 0
    outer loop
      vertex 7 0 2
      vertex 7 1.24736 0
      vertex 7 0 0
    endloop
  endfacet
  facet normal 1 0 0
    outer loop
      vertex 4 2.49 0
      vertex 4 2.49 2
      vertex 4 0 2
    endloop
  endfacet
  facet normal 1 0 0
    outer loop
      vertex 4 0 0
      vertex 4 2.49 0
      vertex 4 0 2
    endloop
  endfacet
  facet normal 0.707107 -0.707107 0
    outer loop
      vertex 8.5 6.99 0
      vertex 8.5 6.99 2
      vertex 4 2.49 2
    endloop
  endfacet
  facet normal 0.707107 -0.707107 0
    outer loop
      vertex 4 2.49 0
      vertex 8.5 6.99 0
      vertex 4 2.49 2
    endloop
  endfacet
  facet normal -2.96059e-16 -1 -0
    outer loop
      vertex 17.5 6.99 0
      vertex 17.5 6.99 2
      vertex 8.5 6.99 2
    endloop
  endfacet
  facet normal -2.96059e-16 -1 -0
    outer loop
      vertex 8.5 6.99 0
      vertex 17.5 6.99 0
      vertex 8.5 6.99 2
    endloop
  endfacet
  facet normal -0.707107 -0.707107 0
    outer loop
      vertex 22 2.49 2
      vertex 17.5 6.99 2
      vertex 22 2.49 0
    endloop
  endfacet
  facet normal -0.707107 -0.707107 0
    outer loop
      vertex 22 2.49 0
      vertex 17.5 6.99 2
      vertex 17.5 6.99 0
    endloop
  endfacet
  facet normal 0 1 0
    outer loop
      vertex 26 4 2
      vertex 26 4 0
      vertex 23.51 4 2
    endloop
  endfacet
  facet normal 0 1 -0
    outer loop
      vertex 23.51 4 2
      vertex 26 4 0
      vertex 23.51 4 0
    endloop
  endfacet
  facet normal 0.707107 0.707107 0
    outer loop
      vertex 19.01 8.5 2
      vertex 23.51 4 2
      vertex 23.51 4 0
    endloop
  endfacet
  facet normal 0.707107 0.707107 0
    outer loop
      vertex 19.01 8.5 0
      vertex 19.01 8.5 2
      vertex 23.51 4 0
    endloop
  endfacet
  facet normal 1 0 0
    outer loop
      vertex 19.01 17.5 0
      vertex 19.01 17.5 2
      vertex 19.01 8.5 2
    endloop
  endfacet
  facet normal 1 0 0
    outer loop
      vertex 19.01 8.5 0
      vertex 19.01 17.5 0
      vertex 19.01 8.5 2
    endloop
  endfacet
  facet normal 0.707107 -0.707107 0
    outer loop
      vertex 23.51 22 0
      vertex 23.51 22 2
      vertex 19.01 17.5 2
    endloop
  endfacet
  facet normal 0.707107 -0.707107 0
    outer loop
      vertex 19.01 17.5 0
      vertex 23.51 22 0
      vertex 19.01 17.5 2
    endloop
  endfacet
  facet normal 0 -1 0
    outer loop
      vertex 26 22 0
      vertex 26 22 2
      vertex 23.51 22 2
    endloop
  endfacet
  facet normal -0 -1 -0
    outer loop
      vertex 23.51 22 0
      vertex 26 22 0
      vertex 23.51 22 2
    endloop
  endfacet
  facet normal -1 0 0
    outer loop
      vertex 22 26 2
      vertex 22 26 0
      vertex 22 23.51 2
    endloop
  endfacet
  facet normal -1 0 0
    outer loop
      vertex 22 23.51 2
      vertex 22 26 0
      vertex 22 23.51 0
    endloop
  endfacet
  facet normal -0.707107 0.707107 0
    outer loop
      vertex 22 23.51 2
      vertex 22 23.51 0
      vertex 17.5 19.01 2
    endloop
  endfacet
  facet normal -0.707107 0.707107 0
    outer loop
      vertex 17.5 19.01 2
      vertex 22 23.51 0
      vertex 17.5 19.01 0
    endloop
  endfacet
  facet normal 0 1 0
    outer loop
      vertex 17.5 19.01 2
      vertex 17.5 19.01 0
      vertex 8.5 19.01 2
    endloop
  endfacet
  facet normal 0 1 -0
    outer loop
      vertex 8.5 19.01 2
      vertex 17.5 19.01 0
      vertex 8.5 19.01 0
    endloop
  endfacet
  facet normal 0.707107 0.707107 0
    outer loop
      vertex 4 23.51 2
      vertex 8.5 19.01 2
      vertex 8.5 19.01 0
    endloop
  endfacet
  facet normal 0.707107 0.707107 0
    outer loop
      vertex 4 23.51 0
      vertex 4 23.51 2
      vertex 8.5 19.01 0
    endloop
  endfacet
  facet normal 1 -1.78349e-16 0
    outer loop
      vertex 4 26 0
      vertex 4 26 2
      vertex 4 23.51 2
    endloop
  endfacet
  facet normal 1 -1.78349e-16 0
    outer loop
      vertex 4 23.51 0
      vertex 4 26 0
      vertex 4 23.51 2
    endloop
  endfacet
  facet normal -0.707107 -0.707107 -0
    outer loop
      vertex 6.99 17.5 0
      vertex 6.99 17.5 2
      vertex 2.49 22 2
    endloop
  endfacet
  facet normal -0.707107 -0.707107 -0
    outer loop
      vertex 2.49 22 0
      vertex 6.99 17.5 0
      vertex 2.49 22 2
    endloop
  endfacet
  facet normal -1 0 0
    outer loop
      vertex 6.99 17.5 2
      vertex 6.99 17.5 0
      vertex 6.99 8.5 2
    endloop
  endfacet
  facet normal -1 0 0
    outer loop
      vertex 6.99 8.5 2
      vertex 6.99 17.5 0
      vertex 6.99 8.5 0
    endloop
  endfacet
  facet normal -0.707107 0.707107 0
    outer loop
      vertex 6.99 8.5 2
      vertex 6.99 8.5 0
      vertex 2.49 4 2
    endloop
  endfacet
  facet normal -0.707107 0.707107 0
    outer loop
      vertex 2.49 4 2
      vertex 6.99 8.5 0
      vertex 2.49 4 0
    endloop
  endfacet
  facet normal 0.923879 0.382684 0
    outer loop
      vertex 10.75 13 2
      vertex 11.409 11.409 2
      vertex 11.409 11.409 0
    endloop
  endfacet
  facet normal 0.923879 0.382684 0
    outer loop
      vertex 10.75 13 0
      vertex 10.75 13 2
      vertex 11.409 11.409 0
    endloop
  endfacet
  facet normal 0.923879 -0.382684 0
    outer loop
      vertex 11.409 14.591 0
      vertex 11.409 14.591 2
      vertex 10.75 13 2
    endloop
  endfacet
  facet normal 0.923879 -0.382684 0
    outer loop
      vertex 10.75 13 0
      vertex 11.409 14.591 0
      vertex 10.75 13 2
    endloop
  endfacet
  facet normal 0.382684 -0.923879 0
    outer loop
      vertex 13 15.25 0
      vertex 13 15.25 2
      vertex 11.409 14.591 2
    endloop
  endfacet
  facet normal 0.382684 -0.923879 0
    outer loop
      vertex 11.409 14.591 0
      vertex 13 15.25 0
      vertex 11.409 14.591 2
    endloop
  endfacet
  facet normal -0.382684 -0.923879 -0
    outer loop
      vertex 14.591 14.591 0
      vertex 14.591 14.591 2
      vertex 13 15.25 2
    endloop
  endfacet
  facet normal -0.382684 -0.923879 -0
    outer loop
      vertex 13 15.25 0
      vertex 14.591 14.591 0
      vertex 13 15.25 2
    endloop
  endfacet
  facet normal -0.923879 -0.382684 0
    outer loop
      vertex 15.25 13 2
      vertex 14.591 14.591 2
      vertex 15.25 13 0
    endloop
  endfacet
  facet normal -0.923879 -0.382684 0
    outer loop
      vertex 15.25 13 0
      vertex 14.591 14.591 2
      vertex 14.591 14.591 0
    endloop
  endfacet
  facet normal -0.923879 0.382684 0
    outer loop
      vertex 15.25 13 2
      vertex 15.25 13 0
      vertex 14.591 11.409 2
    endloop
  endfacet
  facet normal -0.923879 0.382684 0
    outer loop
      vertex 14.591 11.409 2
      vertex 15.25 13 0
      vertex 14.591 11.409 0
    endloop
  endfacet
  facet normal -0.382684 0.923879 0
    outer loop
      vertex 14.591 11.409 2
      vertex 14.591 11.409 0
      vertex 13 10.75 2
    endloop
  endfacet
  facet normal -0.382684 0.923879 0
    outer loop
      vertex 13 10.75 2
      vertex 14.591 11.409 0
      vertex 13 10.75 0
    endloop
  endfacet
  facet normal 0.382684 0.923879 -0
    outer loop
      vertex 13 10.75 2
      vertex 13 10.75 0
      vertex 11.409 11.409 2
    endloop
  endfacet
  facet normal 0.382684 0.923879 -0
    outer loop
      vertex 11.409 11.409 2
      vertex 13 10.75 0
      vertex 11.409 11.409 0
    endloop
  endfacet
  facet normal 0.707107 0.707107 -0
    outer loop
      vertex 3.99 16.2574 2
      vertex 3.99 16.2574 0
      vertex 1.24736 19 2
    endloop
  endfacet
  facet normal 0.707107 0.707107 -0
    outer loop
      vertex 1.24736 19 2
      vertex 3.99 16.2574 0
      vertex 1.24736 19 0
    endloop
  endfacet
  facet normal 1 0 0
    outer loop
      vertex 3.99 16.2574 0
      vertex 3.99 16.2574 2
      vertex 3.99 9.74264 2
    endloop
  endfacet
  facet normal 1 0 0
    outer loop
      vertex 3.99 9.74264 0
      vertex 3.99 16.2574 0
      vertex 3.99 9.74264 2
    endloop
  endfacet
  facet normal 0.707107 -0.707107 0
    outer loop
      vertex 3.99 9.74264 0
      vertex 3.99 9.74264 2
      vertex 1.24736 7 2
    endloop
  endfacet
  facet normal 0.707107 -0.707107 0
    outer loop
      vertex 1.24736 7 0
      vertex 3.99 9.74264 0
      vertex 1.24736 7 2
    endloop
  endfacet
  facet normal 0 0 -1
    outer loop
      vertex 7 26 2
      vertex 7 24.7526 2
      vertex 4 26 2
    endloop
  endfacet
  facet normal 0 0 -1
    outer loop
      vertex 4 26 2
      vertex 7 24.7526 2
      vertex 9.74264 22.01 2
    endloop
  endfacet
  facet normal 0 -0 -1
    outer loop
      vertex 19 24.7526 2
      vertex 19 26 2
      vertex 22 26 2
    endloop
  endfacet
  facet normal -0 0 -1
    outer loop
      vertex 19 24.7526 2
      vertex 22 26 2
      vertex 16.2574 22.01 2
    endloop
  endfacet
  facet normal 0 0 -1
    outer loop
      vertex 16.2574 22.01 2
      vertex 22 26 2
      vertex 22 23.51 2
    endloop
  endfacet
  facet normal -0 0 -1
    outer loop
      vertex 16.2574 22.01 2
      vertex 22 23.51 2
      vertex 17.5 19.01 2
    endloop
  endfacet
  facet normal 0 0 -1
    outer loop
      vertex 16.2574 22.01 2
      vertex 17.5 19.01 2
      vertex 9.74264 22.01 2
    endloop
  endfacet
  facet normal 0 0 -1
    outer loop
      vertex 9.74264 22.01 2
      vertex 17.5 19.01 2
      vertex 8.5 19.01 2
    endloop
  endfacet
  facet normal 0 0 -1
    outer loop
      vertex 9.74264 22.01 2
      vertex 8.5 19.01 2
      vertex 4 26 2
    endloop
  endfacet
  facet normal 0 0 -1
    outer loop
      vertex 4 26 2
      vertex 8.5 19.01 2
      vertex 4 23.51 2
    endloop
  endfacet
  facet normal -1 0 0
    outer loop
      vertex 7 26 2
      vertex 7 26 0
      vertex 7 24.7526 2
    endloop
  endfacet
  facet normal -1 0 0
    outer loop
      vertex 7 24.7526 2
      vertex 7 26 0
      vertex 7 24.7526 0
    endloop
  endfacet
  facet normal -0 -0 -1
    outer loop
      vertex 7 24.7526 0
      vertex 7 26 0
      vertex 9.74264 22.01 0
    endloop
  endfacet
  facet normal 0 -0 -1
    outer loop
      vertex 9.74264 22.01 0
      vertex 7 26 0
      vertex 19 26 0
    endloop
  endfacet
  facet normal 0 0 -1
    outer loop
      vertex 9.74264 22.01 0
      vertex 19 26 0
      vertex 19 24.7526 0
    endloop
  endfacet
  facet normal -0 0 -1
    outer loop
      vertex 9.74264 22.01 0
      vertex 19 24.7526 0
      vertex 16.2574 22.01 0
    endloop
  endfacet
  facet normal 1 0 0
    outer loop
      vertex 19 26 0
      vertex 19 26 2
      vertex 19 24.7526 2
    endloop
  endfacet
  facet normal 1 0 0
    outer loop
      vertex 19 24.7526 0
      vertex 19 26 0
      vertex 19 24.7526 2
    endloop
  endfacet
  facet normal -0.309017 -0.951057 0
    outer loop
      vertex 25.41 0.0714254 3.6
      vertex 25.41 0.0714254 3.5
      vertex 25.5545 0.024472 3.5
    endloop
  endfacet
  facet normal -0.309017 -0.951057 0
    outer loop
      vertex 25.5545 0.024472 3.6
      vertex 25.41 0.0714254 3.6
      vertex 25.5545 0.024472 3.5
    endloop
  endfacet
  facet normal 0.809016 -0.587786 0
    outer loop
      vertex 25.5545 0.024472 3.6
      vertex 25.5545 0.024472 3.5
      vertex 25.9 0.5 3.5
    endloop
  endfacet
  facet normal 0.809016 -0.587786 0
    outer loop
      vertex 25.9 0.5 3.6
      vertex 25.5545 0.024472 3.6
      vertex 25.9 0.5 3.5
    endloop
  endfacet
  facet normal 1 0 -0
    outer loop
      vertex 25.9 0.5 3.6
      vertex 25.9 0.5 3.5
      vertex 25.9 25.4 3.5
    endloop
  endfacet
  facet normal 1 0 0
    outer loop
      vertex 25.9 25.4 3.6
      vertex 25.9 0.5 3.6
      vertex 25.9 25.4 3.5
    endloop
  endfacet
  facet normal 0.809016 0.587786 0
    outer loop
      vertex 25.9 25.4 3.5
      vertex 25.5545 25.8755 3.5
      vertex 25.5545 25.8755 3.6
    endloop
  endfacet
  facet normal 0.809016 0.587786 -0
    outer loop
      vertex 25.9 25.4 3.6
      vertex 25.9 25.4 3.5
      vertex 25.5545 25.8755 3.6
    endloop
  endfacet
  facet normal -0.309017 0.951057 0
    outer loop
      vertex 25.41 25.8286 3.5
      vertex 25.41 25.8286 3.6
      vertex 25.5545 25.8755 3.5
    endloop
  endfacet
  facet normal -0.309017 0.951057 0
    outer loop
      vertex 25.5545 25.8755 3.5
      vertex 25.41 25.8286 3.6
      vertex 25.5545 25.8755 3.6
    endloop
  endfacet
  facet normal 1 0 -0
    outer loop
      vertex 25.41 25.8286 3.6
      vertex 25.41 25.8286 3.5
      vertex 25.41 25.9 3.5
    endloop
  endfacet
  facet normal 1 0 0
    outer loop
      vertex 25.41 25.9 3.6
      vertex 25.41 25.8286 3.6
      vertex 25.41 25.9 3.5
    endloop
  endfacet
  facet normal 0 1 0
    outer loop
      vertex 0.49 25.9 3.5
      vertex 0.49 25.9 3.6
      vertex 25.41 25.9 3.5
    endloop
  endfacet
  facet normal 0 1 0
    outer loop
      vertex 25.41 25.9 3.5
      vertex 0.49 25.9 3.6
      vertex 25.41 25.9 3.6
    endloop
  endfacet
  facet normal -1 -0 -0
    outer loop
      vertex 0.49 25.8221 3.5
      vertex 0.49 25.8221 3.6
      vertex 0.49 25.9 3.5
    endloop
  endfacet
  facet normal -1 0 0
    outer loop
      vertex 0.49 25.9 3.5
      vertex 0.49 25.8221 3.6
      vertex 0.49 25.9 3.6
    endloop
  endfacet
  facet normal -0.309017 0.951057 0
    outer loop
      vertex 0.095492 25.6939 3.5
      vertex 0.095492 25.6939 3.6
      vertex 0.49 25.8221 3.5
    endloop
  endfacet
  facet normal -0.309017 0.951057 0
    outer loop
      vertex 0.49 25.8221 3.5
      vertex 0.095492 25.6939 3.6
      vertex 0.49 25.8221 3.6
    endloop
  endfacet
  facet normal -1 -0 0
    outer loop
      vertex 0.095492 0.5 3.89389
      vertex 0.095492 25.4 3.89389
      vertex 0.095492 0.5 3.6
    endloop
  endfacet
  facet normal -1 -0 0
    outer loop
      vertex 0.095492 0.5 3.6
      vertex 0.095492 25.4 3.89389
      vertex 0.095492 25.4 3.6
    endloop
  endfacet
  facet normal -1 0 0
    outer loop
      vertex 0.095492 25.4 3.6
      vertex 0.095492 25.6939 3.6
      vertex 0.095492 25.6939 3.5
    endloop
  endfacet
  facet normal -1 0 0
    outer loop
      vertex 0.095492 25.4 3.6
      vertex 0.095492 25.6939 3.5
      vertex 0.095492 25.4 3.5
    endloop
  endfacet
  facet normal -0.906038 0 0.423197
    outer loop
      vertex 0.095492 0.206107 3.6
      vertex 0.297746 0.353054 4.03301
      vertex 0.095492 0.5 3.6
    endloop
  endfacet
  facet normal -0.906038 0 0.423197
    outer loop
      vertex 0.257326 0.5 3.94648
      vertex 0.297746 0.353054 4.03301
      vertex 0.297746 0.646946 4.03301
    endloop
  endfacet
  facet normal -0.906038 -5.55672e-16 0.423197
    outer loop
      vertex 0.095492 0.5 3.6
      vertex 0.297746 0.353054 4.03301
      vertex 0.257326 0.5 3.94648
    endloop
  endfacet
  facet normal -0.906038 0 0.423197
    outer loop
      vertex 0.257326 0.5 3.94648
      vertex 0.297746 0.646946 4.03301
      vertex 0.257326 0.676313 3.94648
    endloop
  endfacet
  facet normal -1 -0 -0
    outer loop
      vertex 0.095492 0.206107 3.5
      vertex 0.095492 0.206107 3.6
      vertex 0.095492 0.5 3.5
    endloop
  endfacet
  facet normal -1 0 0
    outer loop
      vertex 0.095492 0.5 3.5
      vertex 0.095492 0.206107 3.6
      vertex 0.095492 0.5 3.6
    endloop
  endfacet
  facet normal 1.22743e-16 -1 -3.77764e-16
    outer loop
      vertex 0.257326 0.5 3.94648
      vertex 0.095492 0.5 3.89389
      vertex 0.095492 0.5 3.6
    endloop
  endfacet
  facet normal -0.309017 -0.951057 0
    outer loop
      vertex 0.095492 0.206107 3.6
      vertex 0.095492 0.206107 3.5
      vertex 0.49 0.0779238 3.5
    endloop
  endfacet
  facet normal -0.309017 -0.951057 0
    outer loop
      vertex 0.49 0.0779238 3.6
      vertex 0.095492 0.206107 3.6
      vertex 0.49 0.0779238 3.5
    endloop
  endfacet
  facet normal -0.27998 -0.861693 0.423198
    outer loop
      vertex 0.297746 0.353054 4.03301
      vertex 0.095492 0.206107 3.6
      vertex 0.49 0.0779238 3.6
    endloop
  endfacet
  facet normal -0.27998 -0.861693 0.423198
    outer loop
      vertex 0.5 0.166776 3.78753
      vertex 0.297746 0.353054 4.03301
      vertex 0.5 0.0746746 3.6
    endloop
  endfacet
  facet normal -0.27998 -0.861693 0.423198
    outer loop
      vertex 0.5 0.0746746 3.6
      vertex 0.297746 0.353054 4.03301
      vertex 0.49 0.0779238 3.6
    endloop
  endfacet
  facet normal -1 -0 -2.74463e-16
    outer loop
      vertex 0.5 0.206107 4.00451
      vertex 0.5 0.273338 4.00451
      vertex 0.5 0.0746746 3.6
    endloop
  endfacet
  facet normal -3.6651e-07 -9.98962e-18 4.90604e-18
    outer loop
      vertex 0.5 0.0746746 3.6
      vertex 0.5 0.273338 4.00451
      vertex 0.5 0.166776 3.78753
    endloop
  endfacet
  facet normal 7.35773e-16 -0.951057 0.309017
    outer loop
      vertex 0.559183 0.112267 3.7157
      vertex 0.5 0.206107 4.00451
      vertex 0.5 0.0746746 3.6
    endloop
  endfacet
  facet normal -1.26799e-15 -0.951057 0.309017
    outer loop
      vertex 0.614554 0.147439 3.82395
      vertex 0.5 0.206107 4.00451
      vertex 0.559183 0.112267 3.7157
    endloop
  endfacet
  facet normal -6.61354e-17 -0.951057 0.309017
    outer loop
      vertex 25.4 0.206107 4.00451
      vertex 0.5 0.206107 4.00451
      vertex 0.614554 0.147439 3.82395
    endloop
  endfacet
  facet normal -6.89066e-17 -0.951057 0.309017
    outer loop
      vertex 25.4 0.0746746 3.6
      vertex 25.4 0.206107 4.00451
      vertex 0.690982 0.0746746 3.6
    endloop
  endfacet
  facet normal -6.15443e-17 -0.951057 0.309017
    outer loop
      vertex 0.614554 0.147439 3.82395
      vertex 0.690982 0.0746746 3.6
      vertex 25.4 0.206107 4.00451
    endloop
  endfacet
  facet normal -0.27998 -0.861693 0.423198
    outer loop
      vertex 0.559183 0.112267 3.7157
      vertex 0.5 0.0746746 3.6
      vertex 0.654508 0.024472 3.6
    endloop
  endfacet
  facet normal -0.279982 -0.861693 0.423197
    outer loop
      vertex 0.614554 0.147439 3.82395
      vertex 0.559183 0.112267 3.7157
      vertex 0.654508 0.024472 3.6
    endloop
  endfacet
  facet normal 0.732999 -0.532556 0.423197
    outer loop
      vertex 0.690982 0.0746746 3.6
      vertex 0.614554 0.147439 3.82395
      vertex 0.654508 0.024472 3.6
    endloop
  endfacet
  facet normal 1 -0 8.7828e-15
    outer loop
      vertex 25.4 0.273338 4.00451
      vertex 25.4 0.206107 4.00451
      vertex 25.4 0.0746746 3.6
    endloop
  endfacet
  facet normal 1 1.28539e-08 -6.31282e-09
    outer loop
      vertex 25.4 0.166776 3.78753
      vertex 25.4 0.273338 4.00451
      vertex 25.4 0.0746746 3.6
    endloop
  endfacet
  facet normal -0.27998 -0.861693 0.423198
    outer loop
      vertex 25.41 0.0714254 3.6
      vertex 25.4 0.166776 3.78753
      vertex 25.4 0.0746746 3.6
    endloop
  endfacet
  facet normal -0.27998 -0.861693 0.423198
    outer loop
      vertex 25.5545 0.024472 3.6
      vertex 25.4 0.166776 3.78753
      vertex 25.41 0.0714254 3.6
    endloop
  endfacet
  facet normal 0 0 -1
    outer loop
      vertex 19.01 17.5 2
      vertex 23.51 22 2
      vertex 26 22 2
    endloop
  endfacet
  facet normal -0 0 -1
    outer loop
      vertex 24.7526 19 2
      vertex 26 22 2
      vertex 26 19 2
    endloop
  endfacet
  facet normal 0 0 -1
    outer loop
      vertex 19.01 17.5 2
      vertex 26 22 2
      vertex 24.7526 19 2
    endloop
  endfacet
  facet normal 0 0 -1
    outer loop
      vertex 23.51 4 2
      vertex 19.01 17.5 2
      vertex 22.01 9.74264 2
    endloop
  endfacet
  facet normal 0 0 -1
    outer loop
      vertex 22.01 16.2574 2
      vertex 22.01 9.74264 2
      vertex 19.01 17.5 2
    endloop
  endfacet
  facet normal 0 0 -1
    outer loop
      vertex 26 4 2
      vertex 22.01 9.74264 2
      vertex 24.7526 7 2
    endloop
  endfacet
  facet normal 0 0 -1
    outer loop
      vertex 26 7 2
      vertex 26 4 2
      vertex 24.7526 7 2
    endloop
  endfacet
  facet normal 0 0 -1
    outer loop
      vertex 26 4 2
      vertex 23.51 4 2
      vertex 22.01 9.74264 2
    endloop
  endfacet
  facet normal 0 0 -1
    outer loop
      vertex 23.51 4 2
      vertex 19.01 8.5 2
      vertex 19.01 17.5 2
    endloop
  endfacet
  facet normal 0 -0 -1
    outer loop
      vertex 22.01 16.2574 2
      vertex 19.01 17.5 2
      vertex 24.7526 19 2
    endloop
  endfacet
  facet normal 0 1 0
    outer loop
      vertex 26 19 2
      vertex 26 19 0
      vertex 24.7526 19 2
    endloop
  endfacet
  facet normal 0 1 -0
    outer loop
      vertex 24.7526 19 2
      vertex 26 19 0
      vertex 24.7526 19 0
    endloop
  endfacet
  facet normal -0 -0 -1
    outer loop
      vertex 22.01 9.74264 0
      vertex 22.01 16.2574 0
      vertex 24.7526 7 0
    endloop
  endfacet
  facet normal 0 -0 -1
    outer loop
      vertex 24.7526 7 0
      vertex 22.01 16.2574 0
      vertex 24.7526 19 0
    endloop
  endfacet
  facet normal 0 0 -1
    outer loop
      vertex 24.7526 7 0
      vertex 24.7526 19 0
      vertex 26 19 0
    endloop
  endfacet
  facet normal -0 0 -1
    outer loop
      vertex 24.7526 7 0
      vertex 26 19 0
      vertex 26 7 0
    endloop
  endfacet
  facet normal 0 -1 0
    outer loop
      vertex 26 7 0
      vertex 26 7 2
      vertex 24.7526 7 2
    endloop
  endfacet
  facet normal -0 -1 -0
    outer loop
      vertex 24.7526 7 0
      vertex 26 7 0
      vertex 24.7526 7 2
    endloop
  endfacet
  facet normal -0.707107 0.707107 0
    outer loop
      vertex 9.74264 3.99 2
      vertex 9.74264 3.99 0
      vertex 7 1.24736 2
    endloop
  endfacet
  facet normal -0.707107 0.707107 0
    outer loop
      vertex 7 1.24736 2
      vertex 9.74264 3.99 0
      vertex 7 1.24736 0
    endloop
  endfacet
  facet normal 2.04501e-16 1 -0
    outer loop
      vertex 16.2574 3.99 2
      vertex 16.2574 3.99 0
      vertex 9.74264 3.99 2
    endloop
  endfacet
  facet normal 2.04501e-16 1 -0
    outer loop
      vertex 9.74264 3.99 2
      vertex 16.2574 3.99 0
      vertex 9.74264 3.99 0
    endloop
  endfacet
  facet normal 0.707107 0.707107 0
    outer loop
      vertex 16.2574 3.99 2
      vertex 19 1.24736 2
      vertex 19 1.24736 0
    endloop
  endfacet
  facet normal 0.707107 0.707107 0
    outer loop
      vertex 16.2574 3.99 0
      vertex 16.2574 3.99 2
      vertex 19 1.24736 0
    endloop
  endfacet
  facet normal 0 0 -1
    outer loop
      vertex 13 15.25 2
      vertex 14.591 14.591 2
      vertex 11.409 14.591 2
    endloop
  endfacet
  facet normal 0 0 -1
    outer loop
      vertex 11.409 14.591 2
      vertex 14.591 14.591 2
      vertex 15.25 13 2
    endloop
  endfacet
  facet normal 0 0 -1
    outer loop
      vertex 11.409 14.591 2
      vertex 15.25 13 2
      vertex 14.591 11.409 2
    endloop
  endfacet
  facet normal 0 0 -1
    outer loop
      vertex 11.409 14.591 2
      vertex 14.591 11.409 2
      vertex 13 10.75 2
    endloop
  endfacet
  facet normal 0 0 -1
    outer loop
      vertex 11.409 14.591 2
      vertex 13 10.75 2
      vertex 11.409 11.409 2
    endloop
  endfacet
  facet normal 0 0 -1
    outer loop
      vertex 11.409 14.591 2
      vertex 11.409 11.409 2
      vertex 10.75 13 2
    endloop
  endfacet
  facet normal 0.707107 -0.707107 0
    outer loop
      vertex 19 24.7526 0
      vertex 19 24.7526 2
      vertex 16.2574 22.01 2
    endloop
  endfacet
  facet normal 0.707107 -0.707107 0
    outer loop
      vertex 16.2574 22.01 0
      vertex 19 24.7526 0
      vertex 16.2574 22.01 2
    endloop
  endfacet
  facet normal 0 -1 0
    outer loop
      vertex 16.2574 22.01 0
      vertex 16.2574 22.01 2
      vertex 9.74264 22.01 2
    endloop
  endfacet
  facet normal -0 -1 -0
    outer loop
      vertex 9.74264 22.01 0
      vertex 16.2574 22.01 0
      vertex 9.74264 22.01 2
    endloop
  endfacet
  facet normal -0.707107 -0.707107 0
    outer loop
      vertex 9.74264 22.01 2
      vertex 7 24.7526 2
      vertex 9.74264 22.01 0
    endloop
  endfacet
  facet normal -0.707107 -0.707107 0
    outer loop
      vertex 9.74264 22.01 0
      vertex 7 24.7526 2
      vertex 7 24.7526 0
    endloop
  endfacet
  facet normal -0.279982 -0.861693 0.423197
    outer loop
      vertex 25.4773 0.262236 4.03301
      vertex 25.1977 0.353054 4.03301
      vertex 25.2212 0.331424 4.00451
    endloop
  endfacet
  facet normal -0.279982 -0.861693 0.423197
    outer loop
      vertex 25.4 0.166776 3.78753
      vertex 25.4773 0.262236 4.03301
      vertex 25.4 0.273338 4.00451
    endloop
  endfacet
  facet normal -0.279982 -0.861693 0.423197
    outer loop
      vertex 25.4 0.273338 4.00451
      vertex 25.4773 0.262236 4.03301
      vertex 25.2212 0.331424 4.00451
    endloop
  endfacet
  facet normal -0.279982 -0.861693 0.423197
    outer loop
      vertex 25.5545 0.024472 3.6
      vertex 25.4773 0.262236 4.03301
      vertex 25.4 0.166776 3.78753
    endloop
  endfacet
  facet normal 0.732999 -0.532556 0.423197
    outer loop
      vertex 25.65 0.5 4.03301
      vertex 25.4773 0.262236 4.03301
      vertex 25.5545 0.024472 3.6
    endloop
  endfacet
  facet normal 0.732999 -0.532556 0.423197
    outer loop
      vertex 25.9 0.5 3.6
      vertex 25.65 0.5 4.03301
      vertex 25.5545 0.024472 3.6
    endloop
  endfacet
  facet normal 0.732999 0.532556 0.423197
    outer loop
      vertex 25.9 0.5 3.6
      vertex 25.5854 0.588918 4.03301
      vertex 25.65 0.5 4.03301
    endloop
  endfacet
  facet normal 0.809016 -1.25797e-16 0.587786
    outer loop
      vertex 25.5545 25.4 4.07553
      vertex 25.5545 0.5 4.07553
      vertex 25.5854 0.5 4.03301
    endloop
  endfacet
  facet normal 0.809016 -2.32933e-16 0.587786
    outer loop
      vertex 25.9 0.5 3.6
      vertex 25.5545 25.4 4.07553
      vertex 25.5854 0.588918 4.03301
    endloop
  endfacet
  facet normal 0.809016 -0 0.587786
    outer loop
      vertex 25.5854 0.588918 4.03301
      vertex 25.5545 25.4 4.07553
      vertex 25.5854 0.5 4.03301
    endloop
  endfacet
  facet normal 0.809016 -2.25792e-16 0.587786
    outer loop
      vertex 25.5854 25.3111 4.03301
      vertex 25.5545 25.4 4.07553
      vertex 25.9 0.5 3.6
    endloop
  endfacet
  facet normal 0.809016 -5.18372e-17 0.587786
    outer loop
      vertex 25.9 25.4 3.6
      vertex 25.5854 25.3111 4.03301
      vertex 25.9 0.5 3.6
    endloop
  endfacet
  facet normal 0.809016 -0 0.587786
    outer loop
      vertex 25.5854 25.4 4.03301
      vertex 25.5545 25.4 4.07553
      vertex 25.5854 25.3111 4.03301
    endloop
  endfacet
  facet normal 0.732999 0.532556 0.423197
    outer loop
      vertex 25.5545 25.8755 3.6
      vertex 25.4773 25.6378 4.03301
      vertex 25.65 25.4 4.03301
    endloop
  endfacet
  facet normal 0.732999 0.532556 0.423197
    outer loop
      vertex 25.9 25.4 3.6
      vertex 25.5545 25.8755 3.6
      vertex 25.65 25.4 4.03301
    endloop
  endfacet
  facet normal -0.279981 0.861693 0.423197
    outer loop
      vertex 25.4 25.6468 3.96358
      vertex 25.4773 25.6378 4.03301
      vertex 25.4 25.8253 3.6
    endloop
  endfacet
  facet normal -0.279981 0.861693 0.423197
    outer loop
      vertex 25.41 25.8286 3.6
      vertex 25.4773 25.6378 4.03301
      vertex 25.5545 25.8755 3.6
    endloop
  endfacet
  facet normal -0.279981 0.861693 0.423197
    outer loop
      vertex 25.4 25.8253 3.6
      vertex 25.4773 25.6378 4.03301
      vertex 25.41 25.8286 3.6
    endloop
  endfacet
  facet normal 0 0 1
    outer loop
      vertex 25.4 25.8253 3.6
      vertex 25.41 25.8286 3.6
      vertex 0.49 25.9 3.6
    endloop
  endfacet
  facet normal 0 -0 1
    outer loop
      vertex 0.49 25.9 3.6
      vertex 0.49 25.8221 3.6
      vertex 0.5 25.8253 3.6
    endloop
  endfacet
  facet normal 0 0 1
    outer loop
      vertex 25.4 25.8253 3.6
      vertex 0.49 25.9 3.6
      vertex 0.654508 25.8755 3.6
    endloop
  endfacet
  facet normal -0 0 1
    outer loop
      vertex 0.654508 25.8755 3.6
      vertex 0.49 25.9 3.6
      vertex 0.5 25.8253 3.6
    endloop
  endfacet
  facet normal -0 0 1
    outer loop
      vertex 25.4 25.8253 3.6
      vertex 0.654508 25.8755 3.6
      vertex 0.690982 25.8253 3.6
    endloop
  endfacet
  facet normal 0 0 1
    outer loop
      vertex 25.41 25.8286 3.6
      vertex 25.41 25.9 3.6
      vertex 0.49 25.9 3.6
    endloop
  endfacet
  facet normal -0.279981 0.861693 0.423197
    outer loop
      vertex 0.095492 25.6939 3.6
      vertex 0.5 25.6468 3.96358
      vertex 0.49 25.8221 3.6
    endloop
  endfacet
  facet normal -0.279981 0.861693 0.423197
    outer loop
      vertex 0.49 25.8221 3.6
      vertex 0.5 25.6468 3.96358
      vertex 0.5 25.8253 3.6
    endloop
  endfacet
  facet normal -0.906038 0 0.423197
    outer loop
      vertex 0.095492 25.4 3.6
      vertex 0.257326 25.4 3.94648
      vertex 0.095492 25.6939 3.6
    endloop
  endfacet
  facet normal -0.906038 0 0.423197
    outer loop
      vertex 0.297746 25.2531 4.03301
      vertex 0.257326 25.4 3.94648
      vertex 0.257326 25.2237 3.94648
    endloop
  endfacet
  facet normal -0.906038 0 0.423197
    outer loop
      vertex 0.297746 25.5469 4.03301
      vertex 0.257326 25.4 3.94648
      vertex 0.297746 25.2531 4.03301
    endloop
  endfacet
  facet normal -0.906038 8.64651e-16 0.423197
    outer loop
      vertex 0.095492 25.6939 3.6
      vertex 0.257326 25.4 3.94648
      vertex 0.297746 25.5469 4.03301
    endloop
  endfacet
  facet normal -0.279982 0.861692 0.423199
    outer loop
      vertex 0.095492 25.6939 3.6
      vertex 0.297746 25.5469 4.03301
      vertex 0.5 25.6468 3.96358
    endloop
  endfacet
  facet normal -0.279982 0.861692 0.423199
    outer loop
      vertex 0.54554 25.6415 4.00451
      vertex 0.297746 25.5469 4.03301
      vertex 0.577254 25.6378 4.03301
    endloop
  endfacet
  facet normal -0.279982 0.861692 0.423199
    outer loop
      vertex 0.5 25.6267 4.00451
      vertex 0.297746 25.5469 4.03301
      vertex 0.54554 25.6415 4.00451
    endloop
  endfacet
  facet normal -0.279982 0.861692 0.423199
    outer loop
      vertex 0.5 25.6468 3.96358
      vertex 0.297746 25.5469 4.03301
      vertex 0.5 25.6267 4.00451
    endloop
  endfacet
  facet normal -3.92777e-15 1 1.20885e-14
    outer loop
      vertex 0.095492 25.4 3.6
      vertex 0.095492 25.4 3.89389
      vertex 0.257326 25.4 3.94648
    endloop
  endfacet
  facet normal -0.309017 -2.03544e-16 0.951057
    outer loop
      vertex 0.095492 25.4 3.89389
      vertex 0.095492 0.5 3.89389
      vertex 0.257326 0.5 3.94648
    endloop
  endfacet
  facet normal -0.309017 -2.18349e-16 0.951057
    outer loop
      vertex 0.5 0.716438 4.02533
      vertex 0.095492 25.4 3.89389
      vertex 0.257326 0.676313 3.94648
    endloop
  endfacet
  facet normal -0.309017 0 0.951057
    outer loop
      vertex 0.257326 0.676313 3.94648
      vertex 0.095492 25.4 3.89389
      vertex 0.257326 0.5 3.94648
    endloop
  endfacet
  facet normal -0.309017 -2.24447e-16 0.951057
    outer loop
      vertex 0.257326 25.2237 3.94648
      vertex 0.095492 25.4 3.89389
      vertex 0.5 0.716438 4.02533
    endloop
  endfacet
  facet normal -0.309017 -2.07145e-16 0.951057
    outer loop
      vertex 0.5 25.1836 4.02533
      vertex 0.345453 25.2091 3.97511
      vertex 0.5 0.716438 4.02533
    endloop
  endfacet
  facet normal -0.309017 -1.80868e-16 0.951057
    outer loop
      vertex 0.345453 25.2091 3.97511
      vertex 0.257326 25.2237 3.94648
      vertex 0.5 0.716438 4.02533
    endloop
  endfacet
  facet normal -0.309017 0 0.951057
    outer loop
      vertex 0.257326 25.2237 3.94648
      vertex 0.257326 25.4 3.94648
      vertex 0.095492 25.4 3.89389
    endloop
  endfacet
  facet normal -0.279982 0.861692 0.423199
    outer loop
      vertex 0.257326 0.676313 3.94648
      vertex 0.297746 0.646946 4.03301
      vertex 0.5 0.716438 4.02533
    endloop
  endfacet
  facet normal -0.279982 0.861692 0.423199
    outer loop
      vertex 0.5 0.716438 4.02533
      vertex 0.297746 0.646946 4.03301
      vertex 0.5 0.712663 4.03301
    endloop
  endfacet
  facet normal 0 -0 1
    outer loop
      vertex 0.297746 0.646946 4.03301
      vertex 0.297746 0.353054 4.03301
      vertex 0.577254 0.262236 4.03301
    endloop
  endfacet
  facet normal -0 -0 1
    outer loop
      vertex 0.5 0.5 4.03301
      vertex 0.297746 0.646946 4.03301
      vertex 0.577254 0.262236 4.03301
    endloop
  endfacet
  facet normal 0 0 1
    outer loop
      vertex 0.75 0.5 4.03301
      vertex 0.685397 0.5 4.03301
      vertex 0.577254 0.262236 4.03301
    endloop
  endfacet
  facet normal -0 -0 1
    outer loop
      vertex 0.52366 0.5 4.03301
      vertex 0.5 0.5 4.03301
      vertex 0.577254 0.262236 4.03301
    endloop
  endfacet
  facet normal 0 0 1
    outer loop
      vertex 0.685397 0.5 4.03301
      vertex 0.52366 0.5 4.03301
      vertex 0.577254 0.262236 4.03301
    endloop
  endfacet
  facet normal 0 0 1
    outer loop
      vertex 0.5 0.5 4.03301
      vertex 0.5 0.712663 4.03301
      vertex 0.297746 0.646946 4.03301
    endloop
  endfacet
  facet normal -0.279982 -0.861693 0.423197
    outer loop
      vertex 0.5 0.273338 4.00451
      vertex 0.297746 0.353054 4.03301
      vertex 0.5 0.166776 3.78753
    endloop
  endfacet
  facet normal -0.279982 -0.861693 0.423197
    outer loop
      vertex 0.577254 0.262236 4.03301
      vertex 0.297746 0.353054 4.03301
      vertex 0.5 0.273338 4.00451
    endloop
  endfacet
  facet normal -0.279982 -0.861693 0.423197
    outer loop
      vertex 0.5 0.273338 4.00451
      vertex 0.58234 0.246584 4.00451
      vertex 0.577254 0.262236 4.03301
    endloop
  endfacet
  facet normal -2.14019e-16 4.35363e-16 1
    outer loop
      vertex 0.58234 0.246584 4.00451
      vertex 0.5 0.206107 4.00451
      vertex 25.4 0.206107 4.00451
    endloop
  endfacet
  facet normal 0 -0 1
    outer loop
      vertex 0.5 0.273338 4.00451
      vertex 0.5 0.206107 4.00451
      vertex 0.58234 0.246584 4.00451
    endloop
  endfacet
  facet normal -2.18244e-16 0 1
    outer loop
      vertex 0.766457 0.5 4.00451
      vertex 25.1844 0.343381 4.00451
      vertex 25.1844 0.5 4.00451
    endloop
  endfacet
  facet normal -2.22639e-16 -6.85213e-16 1
    outer loop
      vertex 0.766457 0.5 4.00451
      vertex 25.2212 0.331424 4.00451
      vertex 25.1844 0.343381 4.00451
    endloop
  endfacet
  facet normal -2.22639e-16 -6.85209e-16 1
    outer loop
      vertex 0.766457 0.5 4.00451
      vertex 25.4 0.273338 4.00451
      vertex 25.2212 0.331424 4.00451
    endloop
  endfacet
  facet normal -2.16334e-16 0 1
    outer loop
      vertex 0.766457 0.5 4.00451
      vertex 25.4 0.206107 4.00451
      vertex 25.4 0.273338 4.00451
    endloop
  endfacet
  facet normal -2.14475e-16 1.55825e-16 1
    outer loop
      vertex 0.766457 0.5 4.00451
      vertex 0.58234 0.246584 4.00451
      vertex 25.4 0.206107 4.00451
    endloop
  endfacet
  facet normal -0.707107 -0.707107 0
    outer loop
      vertex 24.7526 7 2
      vertex 22.01 9.74264 2
      vertex 24.7526 7 0
    endloop
  endfacet
  facet normal -0.707107 -0.707107 0
    outer loop
      vertex 24.7526 7 0
      vertex 22.01 9.74264 2
      vertex 22.01 9.74264 0
    endloop
  endfacet
  facet normal -1 0 0
    outer loop
      vertex 22.01 16.2574 2
      vertex 22.01 16.2574 0
      vertex 22.01 9.74264 2
    endloop
  endfacet
  facet normal -1 0 0
    outer loop
      vertex 22.01 9.74264 2
      vertex 22.01 16.2574 0
      vertex 22.01 9.74264 0
    endloop
  endfacet
  facet normal -0.707107 0.707107 0
    outer loop
      vertex 24.7526 19 2
      vertex 24.7526 19 0
      vertex 22.01 16.2574 2
    endloop
  endfacet
  facet normal -0.707107 0.707107 0
    outer loop
      vertex 22.01 16.2574 2
      vertex 24.7526 19 0
      vertex 22.01 16.2574 0
    endloop
  endfacet
  facet normal 0 -0 1
    outer loop
      vertex 25.1977 0.5 4.03301
      vertex 25.1977 0.353054 4.03301
      vertex 25.4773 0.262236 4.03301
    endloop
  endfacet
  facet normal -0 -0 1
    outer loop
      vertex 25.4237 0.5 4.03301
      vertex 25.1977 0.5 4.03301
      vertex 25.4773 0.262236 4.03301
    endloop
  endfacet
  facet normal 0 0 1
    outer loop
      vertex 25.65 0.5 4.03301
      vertex 25.5854 0.5 4.03301
      vertex 25.4773 0.262236 4.03301
    endloop
  endfacet
  facet normal 0 0 1
    outer loop
      vertex 25.5854 0.5 4.03301
      vertex 25.4237 0.5 4.03301
      vertex 25.4773 0.262236 4.03301
    endloop
  endfacet
  facet normal 0 -0 1
    outer loop
      vertex 25.4 0.712663 4.03301
      vertex 25.4 0.5 4.03301
      vertex 25.4237 0.72035 4.03301
    endloop
  endfacet
  facet normal 0 -0 1
    outer loop
      vertex 25.5854 0.588918 4.03301
      vertex 25.5854 0.5 4.03301
      vertex 25.65 0.5 4.03301
    endloop
  endfacet
  facet normal 0 0 4.39968e-16
    outer loop
      vertex 25.4237 0.5 4.03301
      vertex 25.4 0.5 4.03301
      vertex 25.1977 0.5 4.03301
    endloop
  endfacet
  facet normal 0 0 1
    outer loop
      vertex 25.4237 0.5 4.03301
      vertex 25.4237 0.72035 4.03301
      vertex 25.4 0.5 4.03301
    endloop
  endfacet
  facet normal -0.27998 -0.861693 0.423198
    outer loop
      vertex 25.1977 0.353054 4.03301
      vertex 25.1844 0.343381 4.00451
      vertex 25.2212 0.331424 4.00451
    endloop
  endfacet
  facet normal -0.906038 0 0.423197
    outer loop
      vertex 25.1844 0.343381 4.00451
      vertex 25.1977 0.353054 4.03301
      vertex 25.1844 0.5 4.00451
    endloop
  endfacet
  facet normal -0.906038 0 0.423197
    outer loop
      vertex 25.1844 0.5 4.00451
      vertex 25.1977 0.353054 4.03301
      vertex 25.1977 0.5 4.03301
    endloop
  endfacet
  facet normal -0 1 0
    outer loop
      vertex 25.5854 25.4 4.03301
      vertex 25.4237 25.4 4.03301
      vertex 25.5545 25.4 4.07553
    endloop
  endfacet
  facet normal -0.309017 -2.07145e-16 0.951057
    outer loop
      vertex 25.4 25.1836 4.02533
      vertex 25.4 0.716438 4.02533
      vertex 25.4237 0.72035 4.03301
    endloop
  endfacet
  facet normal -0.309017 -2.19934e-16 0.951057
    outer loop
      vertex 25.5545 0.5 4.07553
      vertex 25.4 25.1836 4.02533
      vertex 25.4237 0.72035 4.03301
    endloop
  endfacet
  facet normal -0.309017 0 0.951057
    outer loop
      vertex 25.4237 0.5 4.03301
      vertex 25.5545 0.5 4.07553
      vertex 25.4237 0.72035 4.03301
    endloop
  endfacet
  facet normal -0.309017 -2.49023e-16 0.951057
    outer loop
      vertex 25.5545 0.5 4.07553
      vertex 25.4237 25.1796 4.03301
      vertex 25.4 25.1836 4.02533
    endloop
  endfacet
  facet normal -0.309017 -2.03544e-16 0.951057
    outer loop
      vertex 25.5545 0.5 4.07553
      vertex 25.5545 25.4 4.07553
      vertex 25.4237 25.1796 4.03301
    endloop
  endfacet
  facet normal -0.309017 0 0.951057
    outer loop
      vertex 25.4237 25.4 4.03301
      vertex 25.4237 25.1796 4.03301
      vertex 25.5545 25.4 4.07553
    endloop
  endfacet
  facet normal 0 0 1
    outer loop
      vertex 25.5854 25.4 4.03301
      vertex 25.65 25.4 4.03301
      vertex 25.1977 25.5469 4.03301
    endloop
  endfacet
  facet normal 0 -0 1
    outer loop
      vertex 25.1977 25.5469 4.03301
      vertex 25.1977 25.4 4.03301
      vertex 25.4 25.4 4.03301
    endloop
  endfacet
  facet normal 0 0 1
    outer loop
      vertex 25.4237 25.4 4.03301
      vertex 25.1977 25.5469 4.03301
      vertex 25.4 25.4 4.03301
    endloop
  endfacet
  facet normal 0 0 1
    outer loop
      vertex 25.4 25.1873 4.03301
      vertex 25.4237 25.1796 4.03301
      vertex 25.4 25.4 4.03301
    endloop
  endfacet
  facet normal 0 0 1
    outer loop
      vertex 25.4237 25.1796 4.03301
      vertex 25.4237 25.4 4.03301
      vertex 25.4 25.4 4.03301
    endloop
  endfacet
  facet normal 0 0 1
    outer loop
      vertex 25.4237 25.4 4.03301
      vertex 25.5854 25.4 4.03301
      vertex 25.1977 25.5469 4.03301
    endloop
  endfacet
  facet normal 0 0 1
    outer loop
      vertex 25.5854 25.3111 4.03301
      vertex 25.65 25.4 4.03301
      vertex 25.5854 25.4 4.03301
    endloop
  endfacet
  facet normal 0 0 1
    outer loop
      vertex 25.65 25.4 4.03301
      vertex 25.4773 25.6378 4.03301
      vertex 25.1977 25.5469 4.03301
    endloop
  endfacet
  facet normal 0.732999 -0.532556 0.423197
    outer loop
      vertex 25.65 25.4 4.03301
      vertex 25.5854 25.3111 4.03301
      vertex 25.9 25.4 3.6
    endloop
  endfacet
  facet normal 0 -1 0
    outer loop
      vertex 25.5545 0.5 4.07553
      vertex 25.4237 0.5 4.03301
      vertex 25.5854 0.5 4.03301
    endloop
  endfacet
  facet normal -0.279982 0.861692 0.423199
    outer loop
      vertex 25.1844 25.5566 4.00451
      vertex 25.1977 25.5469 4.03301
      vertex 25.4 25.6267 4.00451
    endloop
  endfacet
  facet normal -0.279982 0.861692 0.423199
    outer loop
      vertex 25.4 25.6267 4.00451
      vertex 25.1977 25.5469 4.03301
      vertex 25.4773 25.6378 4.03301
    endloop
  endfacet
  facet normal -0.279982 0.861692 0.423199
    outer loop
      vertex 25.4 25.6267 4.00451
      vertex 25.4773 25.6378 4.03301
      vertex 25.4 25.6468 3.96358
    endloop
  endfacet
  facet normal 1 0 0
    outer loop
      vertex 25.4 25.6939 4.00451
      vertex 25.4 25.6267 4.00451
      vertex 25.4 25.6468 3.96358
    endloop
  endfacet
  facet normal 1 -5.94917e-15 6.8498e-15
    outer loop
      vertex 25.4 25.8253 3.6
      vertex 25.4 25.6939 4.00451
      vertex 25.4 25.6468 3.96358
    endloop
  endfacet
  facet normal -1.36745e-16 0.951057 0.309017
    outer loop
      vertex 0.690982 25.8253 3.6
      vertex 25.4 25.6939 4.00451
      vertex 25.4 25.8253 3.6
    endloop
  endfacet
  facet normal -6.61354e-17 0.951057 0.309017
    outer loop
      vertex 0.5 25.6939 4.00451
      vertex 25.4 25.6939 4.00451
      vertex 0.614554 25.7526 3.82395
    endloop
  endfacet
  facet normal 4.28778e-15 0.951057 0.309017
    outer loop
      vertex 0.5 25.6939 4.00451
      vertex 0.614554 25.7526 3.82395
      vertex 0.5 25.8253 3.6
    endloop
  endfacet
  facet normal -1.01744e-16 0.951057 0.309017
    outer loop
      vertex 0.614554 25.7526 3.82395
      vertex 25.4 25.6939 4.00451
      vertex 0.690982 25.8253 3.6
    endloop
  endfacet
  facet normal 0.732999 0.532556 0.423197
    outer loop
      vertex 0.654508 25.8755 3.6
      vertex 0.614554 25.7526 3.82395
      vertex 0.690982 25.8253 3.6
    endloop
  endfacet
  facet normal -0.279981 0.861693 0.423197
    outer loop
      vertex 0.654508 25.8755 3.6
      vertex 0.5 25.8253 3.6
      vertex 0.614554 25.7526 3.82395
    endloop
  endfacet
  facet normal -1 0 0
    outer loop
      vertex 0.5 25.6267 4.00451
      vertex 0.5 25.6939 4.00451
      vertex 0.5 25.6468 3.96358
    endloop
  endfacet
  facet normal -1 1.85912e-16 -2.14056e-16
    outer loop
      vertex 0.5 25.6468 3.96358
      vertex 0.5 25.6939 4.00451
      vertex 0.5 25.8253 3.6
    endloop
  endfacet
  facet normal 0 -0 1
    outer loop
      vertex 0.297746 25.5469 4.03301
      vertex 0.297746 25.2531 4.03301
      vertex 0.5 25.1873 4.03301
    endloop
  endfacet
  facet normal -0 0 1
    outer loop
      vertex 0.75 25.4 4.03301
      vertex 0.297746 25.5469 4.03301
      vertex 0.5 25.4 4.03301
    endloop
  endfacet
  facet normal -0 0 1
    outer loop
      vertex 0.5 25.4 4.03301
      vertex 0.297746 25.5469 4.03301
      vertex 0.5 25.1873 4.03301
    endloop
  endfacet
  facet normal 0 -0 1
    outer loop
      vertex 0.577254 25.6378 4.03301
      vertex 0.297746 25.5469 4.03301
      vertex 0.75 25.4 4.03301
    endloop
  endfacet
  facet normal -0.279982 -0.861693 0.423197
    outer loop
      vertex 0.5 25.1873 4.03301
      vertex 0.297746 25.2531 4.03301
      vertex 0.345453 25.2091 3.97511
    endloop
  endfacet
  facet normal -0.279982 -0.861693 0.423197
    outer loop
      vertex 0.5 25.1836 4.02533
      vertex 0.5 25.1873 4.03301
      vertex 0.345453 25.2091 3.97511
    endloop
  endfacet
  facet normal -0.27998 -0.861693 0.423198
    outer loop
      vertex 0.297746 25.2531 4.03301
      vertex 0.257326 25.2237 3.94648
      vertex 0.345453 25.2091 3.97511
    endloop
  endfacet
  facet normal -2.21246e-16 -4.50065e-16 1
    outer loop
      vertex 0.58234 25.6534 4.00451
      vertex 25.1844 25.4 4.00451
      vertex 0.5 25.6939 4.00451
    endloop
  endfacet
  facet normal 0 -0 1
    outer loop
      vertex 0.5 25.6939 4.00451
      vertex 0.5 25.6267 4.00451
      vertex 0.54554 25.6415 4.00451
    endloop
  endfacet
  facet normal -2.12255e-16 6.53252e-16 1
    outer loop
      vertex 25.1844 25.5566 4.00451
      vertex 25.4 25.6267 4.00451
      vertex 0.5 25.6939 4.00451
    endloop
  endfacet
  facet normal -0 0 1
    outer loop
      vertex 0.58234 25.6534 4.00451
      vertex 0.5 25.6939 4.00451
      vertex 0.54554 25.6415 4.00451
    endloop
  endfacet
  facet normal -2.18244e-16 -1.58564e-16 1
    outer loop
      vertex 0.766457 25.4 4.00451
      vertex 25.1844 25.4 4.00451
      vertex 0.58234 25.6534 4.00451
    endloop
  endfacet
  facet normal -2.15888e-16 0 1
    outer loop
      vertex 25.1844 25.4 4.00451
      vertex 25.1844 25.5566 4.00451
      vertex 0.5 25.6939 4.00451
    endloop
  endfacet
  facet normal -2.14019e-16 0 1
    outer loop
      vertex 25.4 25.6267 4.00451
      vertex 25.4 25.6939 4.00451
      vertex 0.5 25.6939 4.00451
    endloop
  endfacet
  facet normal -0.279981 0.861693 0.423197
    outer loop
      vertex 0.58234 25.6534 4.00451
      vertex 0.54554 25.6415 4.00451
      vertex 0.577254 25.6378 4.03301
    endloop
  endfacet
  facet normal 0.732999 0.532556 0.423197
    outer loop
      vertex 0.58234 25.6534 4.00451
      vertex 0.577254 25.6378 4.03301
      vertex 0.75 25.4 4.03301
    endloop
  endfacet
  facet normal 0.732999 0.532556 0.423197
    outer loop
      vertex 0.766457 25.4 4.00451
      vertex 0.58234 25.6534 4.00451
      vertex 0.75 25.4 4.03301
    endloop
  endfacet
  facet normal -1 -0 -0
    outer loop
      vertex 0.5 0.5 4.03301
      vertex 0.5 0.5 4.1
      vertex 0.5 0.712663 4.03301
    endloop
  endfacet
  facet normal -1 0 -0
    outer loop
      vertex 0.5 0.712663 4.03301
      vertex 0.5 0.5 4.1
      vertex 0.5 25.4 4.1
    endloop
  endfacet
  facet normal -1 -0 0
    outer loop
      vertex 0.5 25.1873 4.03301
      vertex 0.5 25.4 4.1
      vertex 0.5 25.4 4.03301
    endloop
  endfacet
  facet normal -1 -0 0
    outer loop
      vertex 0.5 0.712663 4.03301
      vertex 0.5 25.4 4.1
      vertex 0.5 25.1873 4.03301
    endloop
  endfacet
  facet normal -1 0 0
    outer loop
      vertex 0.5 25.1873 4.03301
      vertex 0.5 25.1836 4.02533
      vertex 0.5 0.712663 4.03301
    endloop
  endfacet
  facet normal -1 0 0
    outer loop
      vertex 0.5 0.712663 4.03301
      vertex 0.5 25.1836 4.02533
      vertex 0.5 0.716438 4.02533
    endloop
  endfacet
  facet normal 0 -1 0
    outer loop
      vertex 0.5 0.5 4.1
      vertex 0.5 0.5 4.03301
      vertex 0.52366 0.5 4.03301
    endloop
  endfacet
  facet normal 0 -1 0
    outer loop
      vertex 25.1844 0.5 4.00451
      vertex 0.5 0.5 4.1
      vertex 0.654508 0.5 4.07553
    endloop
  endfacet
  facet normal 0 -1 0
    outer loop
      vertex 0.654508 0.5 4.07553
      vertex 0.5 0.5 4.1
      vertex 0.52366 0.5 4.03301
    endloop
  endfacet
  facet normal 0 -1 0
    outer loop
      vertex 0.75 0.5 4.03301
      vertex 0.654508 0.5 4.07553
      vertex 0.685397 0.5 4.03301
    endloop
  endfacet
  facet normal 0 -1 0
    outer loop
      vertex 25.1844 0.5 4.00451
      vertex 0.654508 0.5 4.07553
      vertex 0.75 0.5 4.03301
    endloop
  endfacet
  facet normal 0 -1 0
    outer loop
      vertex 25.1844 0.5 4.00451
      vertex 0.75 0.5 4.03301
      vertex 0.766457 0.5 4.00451
    endloop
  endfacet
  facet normal 0 -1 0
    outer loop
      vertex 25.1977 0.5 4.03301
      vertex 0.5 0.5 4.1
      vertex 25.1844 0.5 4.00451
    endloop
  endfacet
  facet normal 0 -1 0
    outer loop
      vertex 25.4 0.5 4.03301
      vertex 0.5 0.5 4.1
      vertex 25.1977 0.5 4.03301
    endloop
  endfacet
  facet normal 0 -1 0
    outer loop
      vertex 25.4 0.5 4.1
      vertex 0.5 0.5 4.1
      vertex 25.4 0.5 4.03301
    endloop
  endfacet
  facet normal 0 -1 0
    outer loop
      vertex 0.654508 0.5 4.07553
      vertex 0.52366 0.5 4.03301
      vertex 0.685397 0.5 4.03301
    endloop
  endfacet
  facet normal 0.732999 -0.532556 0.423197
    outer loop
      vertex 0.75 0.5 4.03301
      vertex 0.577254 0.262236 4.03301
      vertex 0.58234 0.246584 4.00451
    endloop
  endfacet
  facet normal 0.732999 -0.532556 0.423197
    outer loop
      vertex 0.766457 0.5 4.00451
      vertex 0.75 0.5 4.03301
      vertex 0.58234 0.246584 4.00451
    endloop
  endfacet
  facet normal 1 0 0
    outer loop
      vertex 25.4 25.1873 4.03301
      vertex 25.4 25.4 4.03301
      vertex 25.4 0.5 4.1
    endloop
  endfacet
  facet normal 1 0 -0
    outer loop
      vertex 25.4 0.5 4.1
      vertex 25.4 0.5 4.03301
      vertex 25.4 0.712663 4.03301
    endloop
  endfacet
  facet normal 1 0 0
    outer loop
      vertex 25.4 25.1836 4.02533
      vertex 25.4 0.5 4.1
      vertex 25.4 0.712663 4.03301
    endloop
  endfacet
  facet normal 1 0 0
    outer loop
      vertex 25.4 0.716438 4.02533
      vertex 25.4 25.1836 4.02533
      vertex 25.4 0.712663 4.03301
    endloop
  endfacet
  facet normal 1 0 0
    outer loop
      vertex 25.4 25.1836 4.02533
      vertex 25.4 25.1873 4.03301
      vertex 25.4 0.5 4.1
    endloop
  endfacet
  facet normal 1 0 0
    outer loop
      vertex 25.4 25.4 4.03301
      vertex 25.4 25.4 4.1
      vertex 25.4 0.5 4.1
    endloop
  endfacet
  facet normal -0.279982 0.861692 0.423199
    outer loop
      vertex 25.4 0.716438 4.02533
      vertex 25.4 0.712663 4.03301
      vertex 25.4237 0.72035 4.03301
    endloop
  endfacet
  facet normal -0.279982 -0.861693 0.423197
    outer loop
      vertex 25.4 25.1873 4.03301
      vertex 25.4 25.1836 4.02533
      vertex 25.4237 25.1796 4.03301
    endloop
  endfacet
  facet normal -0.906038 0 0.423197
    outer loop
      vertex 25.1844 25.4 4.00451
      vertex 25.1977 25.4 4.03301
      vertex 25.1844 25.5566 4.00451
    endloop
  endfacet
  facet normal -0.906038 0 0.423197
    outer loop
      vertex 25.1844 25.5566 4.00451
      vertex 25.1977 25.4 4.03301
      vertex 25.1977 25.5469 4.03301
    endloop
  endfacet
  facet normal 0 1 0
    outer loop
      vertex 0.5 25.4 4.03301
      vertex 0.5 25.4 4.1
      vertex 0.75 25.4 4.03301
    endloop
  endfacet
  facet normal 0 1 0
    outer loop
      vertex 0.75 25.4 4.03301
      vertex 0.5 25.4 4.1
      vertex 25.4 25.4 4.1
    endloop
  endfacet
  facet normal 0 1 0
    outer loop
      vertex 25.1977 25.4 4.03301
      vertex 25.4 25.4 4.1
      vertex 25.4 25.4 4.03301
    endloop
  endfacet
  facet normal 0 1 0
    outer loop
      vertex 0.75 25.4 4.03301
      vertex 25.4 25.4 4.1
      vertex 25.1977 25.4 4.03301
    endloop
  endfacet
  facet normal 0 1 0
    outer loop
      vertex 25.1977 25.4 4.03301
      vertex 25.1844 25.4 4.00451
      vertex 0.75 25.4 4.03301
    endloop
  endfacet
  facet normal 0 1 0
    outer loop
      vertex 0.75 25.4 4.03301
      vertex 25.1844 25.4 4.00451
      vertex 0.766457 25.4 4.00451
    endloop
  endfacet
  facet normal 0 -0 1
    outer loop
      vertex 0.5 25.4 4.1
      vertex 0.5 0.5 4.1
      vertex 25.4 0.5 4.1
    endloop
  endfacet
  facet normal 0 0 1
    outer loop
      vertex 25.4 25.4 4.1
      vertex 0.5 25.4 4.1
      vertex 25.4 0.5 4.1
    endloop
  endfacet
endsolid OpenSCAD_Model
