solid OpenSCAD_Model
  facet normal -0 0 -1
    outer loop
      vertex -6.8 17.5 0
      vertex -2.5 21.8 0
      vertex -6.8 8.5 0
    endloop
  endfacet
  facet normal 0 0 -1
    outer loop
      vertex -4.2 16.423 0
      vertex -2.5 21.8 0
      vertex -0.1 21.8 0
    endloop
  endfacet
  facet normal 0 -0 -1
    outer loop
      vertex -0.1 21.8 0
      vertex -0.1 26 0
      vertex 2.25 26 0
    endloop
  endfacet
  facet normal -0 0 -1
    outer loop
      vertex 1.75 24.01 0
      vertex 2.25 26 0
      vertex 2.25 24.01 0
    endloop
  endfacet
  facet normal 0 0 -1
    outer loop
      vertex 3.75 26 0
      vertex 4.25 24.01 0
      vertex 3.75 24.01 0
    endloop
  endfacet
  facet normal 0 0 -1
    outer loop
      vertex -0.1 19.2 0
      vertex 1.75 22.51 0
      vertex 4.25 22.51 0
    endloop
  endfacet
  facet normal -0 -0 -1
    outer loop
      vertex -2.5 4.2 0
      vertex -6.8 8.5 0
      vertex -0.1 4.2 0
    endloop
  endfacet
  facet normal 0 0 -1
    outer loop
      vertex 3.75 1.99 0
      vertex 5.92 0 0
      vertex 3.75 0 0
    endloop
  endfacet
  facet normal 0 -0 -1
    outer loop
      vertex 4.25 24.01 0
      vertex 3.75 26 0
      vertex 5.92 26 0
    endloop
  endfacet
  facet normal -0 0 -1
    outer loop
      vertex 4.25 24.01 0
      vertex 5.92 26 0
      vertex 4.25 22.51 0
    endloop
  endfacet
  facet normal -0 0 -1
    outer loop
      vertex 4.25 22.51 0
      vertex 5.92 26 0
      vertex 5.92 0 0
    endloop
  endfacet
  facet normal 0 0 -1
    outer loop
      vertex 4.25 1.99 0
      vertex 5.92 0 0
      vertex 3.75 1.99 0
    endloop
  endfacet
  facet normal -0 0 -1
    outer loop
      vertex -1.42304 19.2 0
      vertex 1.75 22.51 0
      vertex -0.1 19.2 0
    endloop
  endfacet
  facet normal 0 0 -1
    outer loop
      vertex 4.25 3.49 0
      vertex 5.92 0 0
      vertex 4.25 1.99 0
    endloop
  endfacet
  facet normal -0 -0 -1
    outer loop
      vertex -0.1 4.2 0
      vertex -6.8 8.5 0
      vertex 1.75 3.49 0
    endloop
  endfacet
  facet normal 0 0 -1
    outer loop
      vertex 4.25 22.51 0
      vertex 5.92 0 0
      vertex 4.25 3.49 0
    endloop
  endfacet
  facet normal 0 -0 -1
    outer loop
      vertex 1.75 1.99 0
      vertex -0.1 4.2 0
      vertex 1.75 3.49 0
    endloop
  endfacet
  facet normal 0 -0 -1
    outer loop
      vertex -4.2 9.57696 0
      vertex -6.8 8.5 0
      vertex -4.2 16.423 0
    endloop
  endfacet
  facet normal 0 0 -1
    outer loop
      vertex -4.2 9.57696 0
      vertex 1.75 3.49 0
      vertex -6.8 8.5 0
    endloop
  endfacet
  facet normal 0 -0 -1
    outer loop
      vertex 2.25 0 0
      vertex 1.75 1.99 0
      vertex 2.25 1.99 0
    endloop
  endfacet
  facet normal -0 0 -1
    outer loop
      vertex 1.75 3.49 0
      vertex 4.25 22.51 0
      vertex 4.25 3.49 0
    endloop
  endfacet
  facet normal 0 0 -1
    outer loop
      vertex -1.42304 19.2 0
      vertex 1.75 24.01 0
      vertex 1.75 22.51 0
    endloop
  endfacet
  facet normal 0 0 -1
    outer loop
      vertex -6.8 8.5 0
      vertex -2.5 21.8 0
      vertex -4.2 16.423 0
    endloop
  endfacet
  facet normal 0 -0 -1
    outer loop
      vertex -1.42304 19.2 0
      vertex -4.2 16.423 0
      vertex -0.1 21.8 0
    endloop
  endfacet
  facet normal 0 0 -1
    outer loop
      vertex -1.42304 6.8 0
      vertex 1.75 3.49 0
      vertex -4.2 9.57696 0
    endloop
  endfacet
  facet normal -0 0 -1
    outer loop
      vertex -0.1 19.2 0
      vertex 4.25 22.51 0
      vertex -0.1 6.8 0
    endloop
  endfacet
  facet normal 0 0 -1
    outer loop
      vertex -0.1 6.8 0
      vertex 1.75 3.49 0
      vertex -1.42304 6.8 0
    endloop
  endfacet
  facet normal 0 0 -1
    outer loop
      vertex 4.25 22.51 0
      vertex 1.75 3.49 0
      vertex -0.1 6.8 0
    endloop
  endfacet
  facet normal 0 0 -1
    outer loop
      vertex -1.42304 19.2 0
      vertex -0.1 21.8 0
      vertex 2.25 26 0
    endloop
  endfacet
  facet normal 0 0 -1
    outer loop
      vertex -0.1 4.2 0
      vertex 2.25 0 0
      vertex -0.1 0 0
    endloop
  endfacet
  facet normal 0 0 -1
    outer loop
      vertex -0.1 4.2 0
      vertex 1.75 1.99 0
      vertex 2.25 0 0
    endloop
  endfacet
  facet normal 0 0 -1
    outer loop
      vertex -1.42304 19.2 0
      vertex 2.25 26 0
      vertex 1.75 24.01 0
    endloop
  endfacet
  facet normal -1 9.86865e-17 0
    outer loop
      vertex -6.8 8.5 0
      vertex -6.8 8.5 2
      vertex -6.8 17.5 0
    endloop
  endfacet
  facet normal -1 9.86865e-17 0
    outer loop
      vertex -6.8 17.5 0
      vertex -6.8 8.5 2
      vertex -6.8 17.5 2
    endloop
  endfacet
  facet normal 0 0 1
    outer loop
      vertex -2.5 4.2 2
      vertex -6.8 17.5 2
      vertex -6.8 8.5 2
    endloop
  endfacet
  facet normal 0 0 1
    outer loop
      vertex -2.5 4.2 2
      vertex -0.1 4.2 2
      vertex -1.42304 6.8 2
    endloop
  endfacet
  facet normal 0 0 1
    outer loop
      vertex -2.5 4.2 2
      vertex -4.2 9.57696 2
      vertex -6.8 17.5 2
    endloop
  endfacet
  facet normal 0 0 1
    outer loop
      vertex -2.5 4.2 2
      vertex -1.42304 6.8 2
      vertex -4.2 9.57696 2
    endloop
  endfacet
  facet normal -0 0 1
    outer loop
      vertex -0.1 19.2 2
      vertex -0.1 21.8 2
      vertex -1.42304 19.2 2
    endloop
  endfacet
  facet normal 0 0 1
    outer loop
      vertex -0.1 21.8 2
      vertex -2.5 21.8 2
      vertex -6.8 17.5 2
    endloop
  endfacet
  facet normal 0 0 1
    outer loop
      vertex -4.2 16.423 2
      vertex -1.42304 19.2 2
      vertex -6.8 17.5 2
    endloop
  endfacet
  facet normal 0 0 1
    outer loop
      vertex -6.8 17.5 2
      vertex -1.42304 19.2 2
      vertex -0.1 21.8 2
    endloop
  endfacet
  facet normal 0 0 1
    outer loop
      vertex -0.1 6.8 2
      vertex -1.42304 6.8 2
      vertex -0.1 4.2 2
    endloop
  endfacet
  facet normal 0 0 1
    outer loop
      vertex -4.2 9.57696 2
      vertex -4.2 16.423 2
      vertex -6.8 17.5 2
    endloop
  endfacet
  facet normal -0.707107 -0.707107 -0
    outer loop
      vertex -6.8 8.5 0
      vertex -2.5 4.2 0
      vertex -6.8 8.5 2
    endloop
  endfacet
  facet normal -0.707107 -0.707107 0
    outer loop
      vertex -6.8 8.5 2
      vertex -2.5 4.2 0
      vertex -2.5 4.2 2
    endloop
  endfacet
  facet normal 0 -1 0
    outer loop
      vertex -2.5 4.2 2
      vertex -2.5 4.2 0
      vertex -0.1 4.2 0
    endloop
  endfacet
  facet normal 0 -1 0
    outer loop
      vertex -0.1 4.2 2
      vertex -2.5 4.2 2
      vertex -0.1 4.2 0
    endloop
  endfacet
  facet normal -1 0 0
    outer loop
      vertex -0.1 25.1836 4.17467
      vertex -0.1 6.8 2
      vertex -0.1 4.2 2
    endloop
  endfacet
  facet normal -1 0 -0
    outer loop
      vertex -0.1 0.812663 29.333
      vertex -0.1 0 29.5
      vertex -0.1 26 29.5
    endloop
  endfacet
  facet normal -1 -0 0
    outer loop
      vertex -0.1 25.9 4.6
      vertex -0.1 26 29.5
      vertex -0.1 26 0
    endloop
  endfacet
  facet normal -1 0 0
    outer loop
      vertex -0.1 6.8 2
      vertex -0.1 19.2 2
      vertex -0.1 6.8 0
    endloop
  endfacet
  facet normal -1 0 0
    outer loop
      vertex -0.1 4.2 2
      vertex -0.1 4.2 0
      vertex -0.1 0.816438 4.17467
    endloop
  endfacet
  facet normal -1 0 0
    outer loop
      vertex -0.1 25.1836 4.17467
      vertex -0.1 4.2 2
      vertex -0.1 0.816438 4.17467
    endloop
  endfacet
  facet normal -1 0 -0
    outer loop
      vertex -0.1 0 0
      vertex -0.1 0 29.5
      vertex -0.1 0.1 4.6
    endloop
  endfacet
  facet normal -1 0 0
    outer loop
      vertex -0.1 0.812663 4.16699
      vertex -0.1 4.2 0
      vertex -0.1 0.387337 4.16699
    endloop
  endfacet
  facet normal -1 0 0
    outer loop
      vertex -0.1 0.353235 4.23642
      vertex -0.1 0.1 4.6
      vertex -0.1 0.174675 4.6
    endloop
  endfacet
  facet normal -1 0 0
    outer loop
      vertex -0.1 0 0
      vertex -0.1 0.1 4.6
      vertex -0.1 0.353235 4.23642
    endloop
  endfacet
  facet normal -1 0 0
    outer loop
      vertex -0.1 25.1836 4.17467
      vertex -0.1 19.2 2
      vertex -0.1 6.8 2
    endloop
  endfacet
  facet normal -1 0 0
    outer loop
      vertex -0.1 0 0
      vertex -0.1 0.353235 4.23642
      vertex -0.1 0.387337 4.16699
    endloop
  endfacet
  facet normal -1 -0 0
    outer loop
      vertex -0.1 0 0
      vertex -0.1 0.387337 4.16699
      vertex -0.1 4.2 0
    endloop
  endfacet
  facet normal -1 0 0
    outer loop
      vertex -0.1 25.1836 4.17467
      vertex -0.1 21.8 2
      vertex -0.1 19.2 2
    endloop
  endfacet
  facet normal -1 0 0
    outer loop
      vertex -0.1 25.1836 4.17467
      vertex -0.1 21.8 0
      vertex -0.1 21.8 2
    endloop
  endfacet
  facet normal -1 -0 0
    outer loop
      vertex -0.1 0.812663 4.16699
      vertex -0.1 0.816438 4.17467
      vertex -0.1 4.2 0
    endloop
  endfacet
  facet normal -1 -0 0
    outer loop
      vertex -0.1 25.9 28.9
      vertex -0.1 26 29.5
      vertex -0.1 25.9 4.6
    endloop
  endfacet
  facet normal -1 -0 0
    outer loop
      vertex -0.1 21.8 0
      vertex -0.1 25.1836 4.17467
      vertex -0.1 26 0
    endloop
  endfacet
  facet normal -1 0 0
    outer loop
      vertex -0.1 25.7639 29.025
      vertex -0.1 25.7847 29.025
      vertex -0.1 25.8253 28.9
    endloop
  endfacet
  facet normal -1 0 0
    outer loop
      vertex -0.1 25.1836 4.17467
      vertex -0.1 25.1873 4.16699
      vertex -0.1 26 0
    endloop
  endfacet
  facet normal -1 0 0
    outer loop
      vertex -0.1 25.1873 4.16699
      vertex -0.1 25.6127 4.16699
      vertex -0.1 26 0
    endloop
  endfacet
  facet normal -1 -0 0
    outer loop
      vertex -0.1 25.6127 4.16699
      vertex -0.1 25.7332 4.41247
      vertex -0.1 26 0
    endloop
  endfacet
  facet normal -1 -0 0
    outer loop
      vertex -0.1 25.7332 4.41247
      vertex -0.1 25.8253 4.6
      vertex -0.1 26 0
    endloop
  endfacet
  facet normal -1 0 0
    outer loop
      vertex -0.1 25.8253 4.6
      vertex -0.1 25.9 4.6
      vertex -0.1 26 0
    endloop
  endfacet
  facet normal -1 -0 0
    outer loop
      vertex -0.1 25.6939 29.3045
      vertex -0.1 26 29.5
      vertex -0.1 25.7847 29.025
    endloop
  endfacet
  facet normal -1 0 -0
    outer loop
      vertex -0.1 25.6939 29.3045
      vertex -0.1 25.6267 29.3045
      vertex -0.1 26 29.5
    endloop
  endfacet
  facet normal -1 0 0
    outer loop
      vertex -0.1 0.816438 29.3253
      vertex -0.1 26 29.5
      vertex -0.1 25.1873 29.333
    endloop
  endfacet
  facet normal -1 0 -0
    outer loop
      vertex -0.1 25.6267 29.3045
      vertex -0.1 25.6127 29.333
      vertex -0.1 26 29.5
    endloop
  endfacet
  facet normal -1 0 0
    outer loop
      vertex -0.1 0.816438 29.3253
      vertex -0.1 25.1873 29.333
      vertex -0.1 25.1836 29.3253
    endloop
  endfacet
  facet normal -1 0 -0
    outer loop
      vertex -0.1 25.6127 29.333
      vertex -0.1 25.1873 29.333
      vertex -0.1 26 29.5
    endloop
  endfacet
  facet normal -1 -0 0
    outer loop
      vertex -0.1 0.306107 29.3045
      vertex -0.1 0.387337 29.333
      vertex -0.1 0.373338 29.3045
    endloop
  endfacet
  facet normal -1 -0 -0
    outer loop
      vertex -0.1 0.387337 29.333
      vertex -0.1 0 29.5
      vertex -0.1 0.812663 29.333
    endloop
  endfacet
  facet normal -1 0 -0
    outer loop
      vertex -0.1 0.816438 29.3253
      vertex -0.1 0.812663 29.333
      vertex -0.1 26 29.5
    endloop
  endfacet
  facet normal -1 0 -0
    outer loop
      vertex -0.1 0.306107 29.3045
      vertex -0.1 0 29.5
      vertex -0.1 0.387337 29.333
    endloop
  endfacet
  facet normal -1 0 -0
    outer loop
      vertex -0.1 0.1 28.9
      vertex -0.1 0 29.5
      vertex -0.1 0.306107 29.3045
    endloop
  endfacet
  facet normal -1 0 -0
    outer loop
      vertex -0.1 0.21529 29.025
      vertex -0.1 0.1 28.9
      vertex -0.1 0.306107 29.3045
    endloop
  endfacet
  facet normal -1 0 -0
    outer loop
      vertex -0.1 0.174675 28.9
      vertex -0.1 0.1 28.9
      vertex -0.1 0.236065 29.025
    endloop
  endfacet
  facet normal -1 0 0
    outer loop
      vertex -0.1 0.1 28.9
      vertex -0.1 0.21529 29.025
      vertex -0.1 0.236065 29.025
    endloop
  endfacet
  facet normal -1 0 0
    outer loop
      vertex -0.1 0.1 4.6
      vertex -0.1 0 29.5
      vertex -0.1 0.1 28.9
    endloop
  endfacet
  facet normal -1 0 0
    outer loop
      vertex -0.1 19.2 0
      vertex -0.1 6.8 0
      vertex -0.1 19.2 2
    endloop
  endfacet
  facet normal -1 -0 0
    outer loop
      vertex -0.1 25.8253 28.9
      vertex -0.1 26 29.5
      vertex -0.1 25.9 28.9
    endloop
  endfacet
  facet normal -1 -0 0
    outer loop
      vertex -0.1 25.7847 29.025
      vertex -0.1 26 29.5
      vertex -0.1 25.8253 28.9
    endloop
  endfacet
  facet normal 0 -1 0
    outer loop
      vertex -0.1 0 29.5
      vertex -0.1 0 0
      vertex 2.25 0 0
    endloop
  endfacet
  facet normal 0 -1 0
    outer loop
      vertex 3.75 0 4
      vertex -0.1 0 29.5
      vertex 2.25 0 4
    endloop
  endfacet
  facet normal 0 -1 0
    outer loop
      vertex 2.25 0 4
      vertex -0.1 0 29.5
      vertex 2.25 0 0
    endloop
  endfacet
  facet normal 0 -1 0
    outer loop
      vertex 5.92 0 0
      vertex -0.1 0 29.5
      vertex 3.75 0 4
    endloop
  endfacet
  facet normal 0 -1 0
    outer loop
      vertex 5.92 0 0
      vertex 3.75 0 4
      vertex 3.75 0 0
    endloop
  endfacet
  facet normal 0 -1 0
    outer loop
      vertex 5.92 0 29.5
      vertex -0.1 0 29.5
      vertex 5.92 0 0
    endloop
  endfacet
  facet normal 1 -2.2316e-16 0
    outer loop
      vertex 2.25 1.99 0
      vertex 2.25 1.99 4
      vertex 2.25 0 4
    endloop
  endfacet
  facet normal 1 -2.2316e-16 0
    outer loop
      vertex 2.25 0 0
      vertex 2.25 1.99 0
      vertex 2.25 0 4
    endloop
  endfacet
  facet normal 0 1 0
    outer loop
      vertex 1.75 1.99 0
      vertex 1.75 1.99 4
      vertex 2.25 1.99 0
    endloop
  endfacet
  facet normal 0 1 0
    outer loop
      vertex 2.25 1.99 0
      vertex 1.75 1.99 4
      vertex 2.25 1.99 4
    endloop
  endfacet
  facet normal 1 -1.4803e-16 0
    outer loop
      vertex 1.75 3.49 0
      vertex 1.75 3.49 4
      vertex 1.75 1.99 4
    endloop
  endfacet
  facet normal 1 -1.4803e-16 0
    outer loop
      vertex 1.75 1.99 0
      vertex 1.75 3.49 0
      vertex 1.75 1.99 4
    endloop
  endfacet
  facet normal -1.77636e-16 -1 -0
    outer loop
      vertex 4.25 3.49 0
      vertex 4.25 3.49 4
      vertex 1.75 3.49 4
    endloop
  endfacet
  facet normal -1.77636e-16 -1 -0
    outer loop
      vertex 1.75 3.49 0
      vertex 4.25 3.49 0
      vertex 1.75 3.49 4
    endloop
  endfacet
  facet normal -1 0 0
    outer loop
      vertex 4.25 3.49 4
      vertex 4.25 3.49 0
      vertex 4.25 1.99 4
    endloop
  endfacet
  facet normal -1 0 0
    outer loop
      vertex 4.25 1.99 4
      vertex 4.25 3.49 0
      vertex 4.25 1.99 0
    endloop
  endfacet
  facet normal 0 1 0
    outer loop
      vertex 3.75 1.99 0
      vertex 3.75 1.99 4
      vertex 4.25 1.99 0
    endloop
  endfacet
  facet normal 0 1 0
    outer loop
      vertex 4.25 1.99 0
      vertex 3.75 1.99 4
      vertex 4.25 1.99 4
    endloop
  endfacet
  facet normal -1 2.2316e-16 0
    outer loop
      vertex 3.75 1.99 4
      vertex 3.75 1.99 0
      vertex 3.75 0 4
    endloop
  endfacet
  facet normal -1 2.2316e-16 0
    outer loop
      vertex 3.75 0 4
      vertex 3.75 1.99 0
      vertex 3.75 0 0
    endloop
  endfacet
  facet normal 1 0 -0
    outer loop
      vertex 5.92 0.819745 4.16818
      vertex 5.92 0 0
      vertex 5.92 26 0
    endloop
  endfacet
  facet normal 1 0 -0
    outer loop
      vertex 5.92 0 29.5
      vertex 5.92 0 0
      vertex 5.92 0.168176 4.6
    endloop
  endfacet
  facet normal 1 0 0
    outer loop
      vertex 5.92 0 29.5
      vertex 5.92 0.168176 4.6
      vertex 5.92 0.168176 28.9
    endloop
  endfacet
  facet normal 1 0 0
    outer loop
      vertex 5.92 0.248355 29.0633
      vertex 5.92 0.380839 29.333
      vertex 5.92 0 29.5
    endloop
  endfacet
  facet normal 1 0 0
    outer loop
      vertex 5.92 26 29.5
      vertex 5.92 0 29.5
      vertex 5.92 0.380839 29.333
    endloop
  endfacet
  facet normal 1 0 0
    outer loop
      vertex 5.92 26 29.5
      vertex 5.92 0.380839 29.333
      vertex 5.92 0.819161 29.333
    endloop
  endfacet
  facet normal 1 0 -0
    outer loop
      vertex 5.92 25.1803 4.16818
      vertex 5.92 0.819745 4.16818
      vertex 5.92 26 0
    endloop
  endfacet
  facet normal 1 0 0
    outer loop
      vertex 5.92 25.1808 29.333
      vertex 5.92 0.819161 29.333
      vertex 5.92 25.1803 29.3318
    endloop
  endfacet
  facet normal 1 0 0
    outer loop
      vertex 5.92 26 29.5
      vertex 5.92 0.819161 29.333
      vertex 5.92 25.1808 29.333
    endloop
  endfacet
  facet normal 1 0 0
    outer loop
      vertex 5.92 26 29.5
      vertex 5.92 25.6192 29.333
      vertex 5.92 25.6444 29.2816
    endloop
  endfacet
  facet normal 1 0 0
    outer loop
      vertex 5.92 26 29.5
      vertex 5.92 25.8318 28.9
      vertex 5.92 26 0
    endloop
  endfacet
  facet normal 1 0 0
    outer loop
      vertex 5.92 26 29.5
      vertex 5.92 25.6444 29.2816
      vertex 5.92 25.8318 28.9
    endloop
  endfacet
  facet normal 1 0 -0
    outer loop
      vertex 5.92 25.8318 4.6
      vertex 5.92 25.7516 4.43674
      vertex 5.92 26 0
    endloop
  endfacet
  facet normal 1 0 0
    outer loop
      vertex 5.92 25.1808 29.333
      vertex 5.92 25.6192 29.333
      vertex 5.92 26 29.5
    endloop
  endfacet
  facet normal 1 0 -0
    outer loop
      vertex 5.92 25.7516 4.43674
      vertex 5.92 25.6192 4.16699
      vertex 5.92 26 0
    endloop
  endfacet
  facet normal 1 0 -0
    outer loop
      vertex 5.92 25.6192 4.16699
      vertex 5.92 25.1808 4.16699
      vertex 5.92 26 0
    endloop
  endfacet
  facet normal 1 0 -0
    outer loop
      vertex 5.92 25.8318 28.9
      vertex 5.92 25.8318 4.6
      vertex 5.92 26 0
    endloop
  endfacet
  facet normal 1 0 -0
    outer loop
      vertex 5.92 0.819161 4.16699
      vertex 5.92 0 0
      vertex 5.92 0.819745 4.16818
    endloop
  endfacet
  facet normal 1 0 -0
    outer loop
      vertex 5.92 0.380839 4.16699
      vertex 5.92 0 0
      vertex 5.92 0.819161 4.16699
    endloop
  endfacet
  facet normal 1 0 -0
    outer loop
      vertex 5.92 0.355565 4.21845
      vertex 5.92 0 0
      vertex 5.92 0.380839 4.16699
    endloop
  endfacet
  facet normal 1 0 -0
    outer loop
      vertex 5.92 0.168176 4.6
      vertex 5.92 0 0
      vertex 5.92 0.355565 4.21845
    endloop
  endfacet
  facet normal 1 0 0
    outer loop
      vertex 5.92 0.168176 28.9
      vertex 5.92 0.248355 29.0633
      vertex 5.92 0 29.5
    endloop
  endfacet
  facet normal 1 0 0
    outer loop
      vertex 5.92 25.1803 4.16818
      vertex 5.92 26 0
      vertex 5.92 25.1808 4.16699
    endloop
  endfacet
  facet normal 1 0 0
    outer loop
      vertex 5.92 0.819745 29.3318
      vertex 5.92 25.1803 29.3318
      vertex 5.92 0.819161 29.333
    endloop
  endfacet
  facet normal 0 1 0
    outer loop
      vertex -0.1 26 0
      vertex -0.1 26 29.5
      vertex 2.25 26 0
    endloop
  endfacet
  facet normal 0 1 0
    outer loop
      vertex 2.25 26 4
      vertex -0.1 26 29.5
      vertex 5.92 26 29.5
    endloop
  endfacet
  facet normal 0 1 0
    outer loop
      vertex 3.75 26 0
      vertex 5.92 26 29.5
      vertex 5.92 26 0
    endloop
  endfacet
  facet normal 0 1 -0
    outer loop
      vertex 3.75 26 4
      vertex 5.92 26 29.5
      vertex 3.75 26 0
    endloop
  endfacet
  facet normal 0 1 0
    outer loop
      vertex 2.25 26 0
      vertex -0.1 26 29.5
      vertex 2.25 26 4
    endloop
  endfacet
  facet normal 0 1 0
    outer loop
      vertex 2.25 26 4
      vertex 5.92 26 29.5
      vertex 3.75 26 4
    endloop
  endfacet
  facet normal -1 0 0
    outer loop
      vertex 3.75 26 4
      vertex 3.75 26 0
      vertex 3.75 24.01 4
    endloop
  endfacet
  facet normal -1 0 0
    outer loop
      vertex 3.75 24.01 4
      vertex 3.75 26 0
      vertex 3.75 24.01 0
    endloop
  endfacet
  facet normal 0 -1 0
    outer loop
      vertex 3.75 24.01 4
      vertex 3.75 24.01 0
      vertex 4.25 24.01 0
    endloop
  endfacet
  facet normal 0 -1 0
    outer loop
      vertex 4.25 24.01 4
      vertex 3.75 24.01 4
      vertex 4.25 24.01 0
    endloop
  endfacet
  facet normal -1 0 0
    outer loop
      vertex 4.25 24.01 4
      vertex 4.25 24.01 0
      vertex 4.25 22.51 4
    endloop
  endfacet
  facet normal -1 0 0
    outer loop
      vertex 4.25 22.51 4
      vertex 4.25 24.01 0
      vertex 4.25 22.51 0
    endloop
  endfacet
  facet normal 1.42109e-15 1 -0
    outer loop
      vertex 4.25 22.51 4
      vertex 4.25 22.51 0
      vertex 1.75 22.51 4
    endloop
  endfacet
  facet normal 1.42109e-15 1 -0
    outer loop
      vertex 1.75 22.51 4
      vertex 4.25 22.51 0
      vertex 1.75 22.51 0
    endloop
  endfacet
  facet normal 1 -2.96059e-16 0
    outer loop
      vertex 1.75 24.01 0
      vertex 1.75 24.01 4
      vertex 1.75 22.51 4
    endloop
  endfacet
  facet normal 1 -2.96059e-16 0
    outer loop
      vertex 1.75 22.51 0
      vertex 1.75 24.01 0
      vertex 1.75 22.51 4
    endloop
  endfacet
  facet normal -7.10543e-15 -1 0
    outer loop
      vertex 1.75 24.01 4
      vertex 1.75 24.01 0
      vertex 2.25 24.01 0
    endloop
  endfacet
  facet normal -7.10543e-15 -1 0
    outer loop
      vertex 2.25 24.01 4
      vertex 1.75 24.01 4
      vertex 2.25 24.01 0
    endloop
  endfacet
  facet normal 1 0 0
    outer loop
      vertex 2.25 26 0
      vertex 2.25 26 4
      vertex 2.25 24.01 4
    endloop
  endfacet
  facet normal 1 0 0
    outer loop
      vertex 2.25 24.01 0
      vertex 2.25 26 0
      vertex 2.25 24.01 4
    endloop
  endfacet
  facet normal 0 1 0
    outer loop
      vertex -2.5 21.8 0
      vertex -2.5 21.8 2
      vertex -0.1 21.8 0
    endloop
  endfacet
  facet normal 0 1 0
    outer loop
      vertex -0.1 21.8 0
      vertex -2.5 21.8 2
      vertex -0.1 21.8 2
    endloop
  endfacet
  facet normal -0.707107 0.707107 0
    outer loop
      vertex -6.8 17.5 0
      vertex -6.8 17.5 2
      vertex -2.5 21.8 0
    endloop
  endfacet
  facet normal -0.707107 0.707107 0
    outer loop
      vertex -2.5 21.8 0
      vertex -6.8 17.5 2
      vertex -2.5 21.8 2
    endloop
  endfacet
  facet normal 1 -1.29735e-16 0
    outer loop
      vertex -4.2 9.57696 2
      vertex -4.2 9.57696 0
      vertex -4.2 16.423 0
    endloop
  endfacet
  facet normal 1 -1.29735e-16 0
    outer loop
      vertex -4.2 16.423 2
      vertex -4.2 9.57696 2
      vertex -4.2 16.423 0
    endloop
  endfacet
  facet normal 0.707107 -0.707107 0
    outer loop
      vertex -4.2 16.423 2
      vertex -4.2 16.423 0
      vertex -1.42304 19.2 0
    endloop
  endfacet
  facet normal 0.707107 -0.707107 0
    outer loop
      vertex -1.42304 19.2 2
      vertex -4.2 16.423 2
      vertex -1.42304 19.2 0
    endloop
  endfacet
  facet normal 0 -1 0
    outer loop
      vertex -1.42304 19.2 2
      vertex -1.42304 19.2 0
      vertex -0.1 19.2 0
    endloop
  endfacet
  facet normal 0 -1 0
    outer loop
      vertex -0.1 19.2 2
      vertex -1.42304 19.2 2
      vertex -0.1 19.2 0
    endloop
  endfacet
  facet normal 0 1 0
    outer loop
      vertex -1.42304 6.8 0
      vertex -1.42304 6.8 2
      vertex -0.1 6.8 0
    endloop
  endfacet
  facet normal 0 1 0
    outer loop
      vertex -0.1 6.8 0
      vertex -1.42304 6.8 2
      vertex -0.1 6.8 2
    endloop
  endfacet
  facet normal 0.707107 0.707107 0
    outer loop
      vertex -1.42304 6.8 0
      vertex -4.2 9.57696 0
      vertex -4.2 9.57696 2
    endloop
  endfacet
  facet normal 0.707107 0.707107 -0
    outer loop
      vertex -1.42304 6.8 2
      vertex -1.42304 6.8 0
      vertex -4.2 9.57696 2
    endloop
  endfacet
  facet normal 0 -0 1
    outer loop
      vertex -0.1 26 29.5
      vertex -0.1 0 29.5
      vertex 5.92 0 29.5
    endloop
  endfacet
  facet normal 0 0 1
    outer loop
      vertex 5.92 26 29.5
      vertex -0.1 26 29.5
      vertex 5.92 0 29.5
    endloop
  endfacet
  facet normal 0 -1 0
    outer loop
      vertex -0.11 0.1 28.9
      vertex -0.11 0.1 4.6
      vertex -0.1 0.1 4.6
    endloop
  endfacet
  facet normal 0 -1 0
    outer loop
      vertex -0.1 0.1 28.9
      vertex -0.11 0.1 28.9
      vertex -0.1 0.1 4.6
    endloop
  endfacet
  facet normal 0 -0 1
    outer loop
      vertex -0.6 25.4 28.9
      vertex -0.6 0.6 28.9
      vertex -0.504508 0.6 28.9
    endloop
  endfacet
  facet normal 0 0 1
    outer loop
      vertex -0.11 0.1 28.9
      vertex -0.1 0.1 28.9
      vertex -0.11 0.177924 28.9
    endloop
  endfacet
  facet normal 0 0 1
    outer loop
      vertex -0.504508 0.6 28.9
      vertex -0.504508 25.4 28.9
      vertex -0.6 25.4 28.9
    endloop
  endfacet
  facet normal -0 0 1
    outer loop
      vertex -0.1 0.174675 28.9
      vertex -0.11 0.177924 28.9
      vertex -0.1 0.1 28.9
    endloop
  endfacet
  facet normal 0 0 4.34201e-15
    outer loop
      vertex -0.1 0.174675 28.9
      vertex -0.504508 0.306107 28.9
      vertex -0.11 0.177924 28.9
    endloop
  endfacet
  facet normal -0.27998 -0.861693 0.423198
    outer loop
      vertex -0.302254 0.453054 29.333
      vertex -0.504508 0.306107 28.9
      vertex -0.1 0.174675 28.9
    endloop
  endfacet
  facet normal -0.27998 -0.861693 0.423198
    outer loop
      vertex -0.1 0.266776 29.0875
      vertex -0.302254 0.453054 29.333
      vertex -0.1 0.236065 29.025
    endloop
  endfacet
  facet normal -0.27998 -0.861693 0.423198
    outer loop
      vertex -0.1 0.236065 29.025
      vertex -0.302254 0.453054 29.333
      vertex -0.1 0.174675 28.9
    endloop
  endfacet
  facet normal -1 -0 -1.98603e-16
    outer loop
      vertex -0.1 0.306107 29.3045
      vertex -0.1 0.373338 29.3045
      vertex -0.1 0.21529 29.025
    endloop
  endfacet
  facet normal -1 -9.04597e-17 -1.47452e-16
    outer loop
      vertex -0.1 0.21529 29.025
      vertex -0.1 0.373338 29.3045
      vertex -0.1 0.266776 29.0875
    endloop
  endfacet
  facet normal -1 -0 -2.21934e-16
    outer loop
      vertex -0.1 0.21529 29.025
      vertex -0.1 0.266776 29.0875
      vertex -0.1 0.236065 29.025
    endloop
  endfacet
  facet normal -0.279982 -0.861693 0.423197
    outer loop
      vertex -0.1 0.373338 29.3045
      vertex -0.302254 0.453054 29.333
      vertex -0.1 0.266776 29.0875
    endloop
  endfacet
  facet normal -0.279982 -0.861693 0.423197
    outer loop
      vertex -0.1 0.387337 29.333
      vertex -0.302254 0.453054 29.333
      vertex -0.1 0.373338 29.3045
    endloop
  endfacet
  facet normal 0 -0 1
    outer loop
      vertex -0.302254 0.746946 29.333
      vertex -0.302254 0.453054 29.333
      vertex -0.1 0.387337 29.333
    endloop
  endfacet
  facet normal 0 0 1
    outer loop
      vertex -0.1 0.812663 29.333
      vertex -0.302254 0.746946 29.333
      vertex -0.1 0.387337 29.333
    endloop
  endfacet
  facet normal -0.279982 0.861692 0.423199
    outer loop
      vertex -0.342674 0.776313 29.2465
      vertex -0.302254 0.746946 29.333
      vertex -0.1 0.816438 29.3253
    endloop
  endfacet
  facet normal -0.279982 0.861692 0.423199
    outer loop
      vertex -0.1 0.816438 29.3253
      vertex -0.302254 0.746946 29.333
      vertex -0.1 0.812663 29.333
    endloop
  endfacet
  facet normal -0.309017 -1.36243e-16 0.951057
    outer loop
      vertex -0.504508 25.4 29.1939
      vertex -0.504508 0.6 29.1939
      vertex -0.342674 0.6 29.2465
    endloop
  endfacet
  facet normal -0.309017 -1.9207e-16 0.951057
    outer loop
      vertex -0.1 0.816438 29.3253
      vertex -0.504508 25.4 29.1939
      vertex -0.342674 0.776313 29.2465
    endloop
  endfacet
  facet normal -0.309017 0 0.951057
    outer loop
      vertex -0.342674 0.776313 29.2465
      vertex -0.504508 25.4 29.1939
      vertex -0.342674 0.6 29.2465
    endloop
  endfacet
  facet normal -0.309017 -3.10501e-16 0.951057
    outer loop
      vertex -0.342674 25.2237 29.2465
      vertex -0.504508 25.4 29.1939
      vertex -0.1 0.816438 29.3253
    endloop
  endfacet
  facet normal -0.309017 -1.38664e-16 0.951057
    outer loop
      vertex -0.1 25.1836 29.3253
      vertex -0.254547 25.2091 29.2751
      vertex -0.1 0.816438 29.3253
    endloop
  endfacet
  facet normal -0.309017 -1.6272e-16 0.951057
    outer loop
      vertex -0.254547 25.2091 29.2751
      vertex -0.342674 25.2237 29.2465
      vertex -0.1 0.816438 29.3253
    endloop
  endfacet
  facet normal -0.309017 0 0.951057
    outer loop
      vertex -0.342674 25.2237 29.2465
      vertex -0.342674 25.4 29.2465
      vertex -0.504508 25.4 29.1939
    endloop
  endfacet
  facet normal -0.279982 -0.861693 0.423197
    outer loop
      vertex -0.1 25.1873 29.333
      vertex -0.302254 25.2531 29.333
      vertex -0.254547 25.2091 29.2751
    endloop
  endfacet
  facet normal -0.279982 -0.861693 0.423197
    outer loop
      vertex -0.1 25.1836 29.3253
      vertex -0.1 25.1873 29.333
      vertex -0.254547 25.2091 29.2751
    endloop
  endfacet
  facet normal 0 -0 1
    outer loop
      vertex -0.302254 25.5469 29.333
      vertex -0.302254 25.2531 29.333
      vertex -0.1 25.1873 29.333
    endloop
  endfacet
  facet normal 0 0 1
    outer loop
      vertex -0.1 25.6127 29.333
      vertex -0.302254 25.5469 29.333
      vertex -0.1 25.1873 29.333
    endloop
  endfacet
  facet normal -0.279982 0.861692 0.423199
    outer loop
      vertex -0.504508 25.6939 28.9
      vertex -0.302254 25.5469 29.333
      vertex -0.1 25.6468 29.2636
    endloop
  endfacet
  facet normal -0.279982 0.861692 0.423199
    outer loop
      vertex -0.1 25.6267 29.3045
      vertex -0.302254 25.5469 29.333
      vertex -0.1 25.6127 29.333
    endloop
  endfacet
  facet normal -0.279982 0.861692 0.423199
    outer loop
      vertex -0.1 25.6468 29.2636
      vertex -0.302254 25.5469 29.333
      vertex -0.1 25.6267 29.3045
    endloop
  endfacet
  facet normal -1 -0 -3.39047e-16
    outer loop
      vertex -0.1 25.6267 29.3045
      vertex -0.1 25.6939 29.3045
      vertex -0.1 25.6468 29.2636
    endloop
  endfacet
  facet normal -1 -9.5132e-17 -2.29513e-16
    outer loop
      vertex -0.1 25.6468 29.2636
      vertex -0.1 25.6939 29.3045
      vertex -0.1 25.7847 29.025
    endloop
  endfacet
  facet normal -1 0 -1.74508e-16
    outer loop
      vertex -0.1 25.6468 29.2636
      vertex -0.1 25.7847 29.025
      vertex -0.1 25.7639 29.025
    endloop
  endfacet
  facet normal -0.279981 0.861693 0.423197
    outer loop
      vertex -0.504508 25.6939 28.9
      vertex -0.1 25.6468 29.2636
      vertex -0.1 25.8253 28.9
    endloop
  endfacet
  facet normal 7.10543e-15 3.93696e-17 1.93353e-17
    outer loop
      vertex -0.1 25.8253 28.9
      vertex -0.1 25.6468 29.2636
      vertex -0.1 25.7639 29.025
    endloop
  endfacet
  facet normal 0 -0 7.41247e-15
    outer loop
      vertex -0.11 25.8221 28.9
      vertex -0.504508 25.6939 28.9
      vertex -0.1 25.8253 28.9
    endloop
  endfacet
  facet normal 0 0 1
    outer loop
      vertex -0.1 25.9 28.9
      vertex -0.11 25.8221 28.9
      vertex -0.1 25.8253 28.9
    endloop
  endfacet
  facet normal 0 -0 1
    outer loop
      vertex -0.11 25.9 28.9
      vertex -0.11 25.8221 28.9
      vertex -0.1 25.9 28.9
    endloop
  endfacet
  facet normal 0 1 0
    outer loop
      vertex -0.11 25.9 4.6
      vertex -0.11 25.9 28.9
      vertex -0.1 25.9 4.6
    endloop
  endfacet
  facet normal 0 1 0
    outer loop
      vertex -0.1 25.9 4.6
      vertex -0.11 25.9 28.9
      vertex -0.1 25.9 28.9
    endloop
  endfacet
  facet normal 0 -0 -1
    outer loop
      vertex -0.11 25.8221 4.6
      vertex -0.11 25.9 4.6
      vertex -0.1 25.8253 4.6
    endloop
  endfacet
  facet normal 0 0 -1
    outer loop
      vertex -0.1 25.8253 4.6
      vertex -0.11 25.9 4.6
      vertex -0.1 25.9 4.6
    endloop
  endfacet
  facet normal -0.27998 0.861693 -0.423198
    outer loop
      vertex -0.504508 25.6939 4.6
      vertex -0.11 25.8221 4.6
      vertex -0.302254 25.5469 4.16699
    endloop
  endfacet
  facet normal -0.27998 0.861693 -0.423198
    outer loop
      vertex -0.302254 25.5469 4.16699
      vertex -0.11 25.8221 4.6
      vertex -0.1 25.8253 4.6
    endloop
  endfacet
  facet normal -0.27998 0.861693 -0.423198
    outer loop
      vertex -0.302254 25.5469 4.16699
      vertex -0.1 25.8253 4.6
      vertex -0.1 25.7332 4.41247
    endloop
  endfacet
  facet normal -0.279982 0.861693 -0.423197
    outer loop
      vertex -0.1 25.6127 4.16699
      vertex -0.302254 25.5469 4.16699
      vertex -0.1 25.7332 4.41247
    endloop
  endfacet
  facet normal -0 -0 -1
    outer loop
      vertex -0.302254 25.2531 4.16699
      vertex -0.302254 25.5469 4.16699
      vertex -0.1 25.1873 4.16699
    endloop
  endfacet
  facet normal 0 0 -1
    outer loop
      vertex -0.1 25.1873 4.16699
      vertex -0.302254 25.5469 4.16699
      vertex -0.1 25.6127 4.16699
    endloop
  endfacet
  facet normal -0.279982 -0.861692 -0.423199
    outer loop
      vertex -0.1 25.1836 4.17467
      vertex -0.342674 25.2237 4.25352
      vertex -0.302254 25.2531 4.16699
    endloop
  endfacet
  facet normal -0.279982 -0.861692 -0.423199
    outer loop
      vertex -0.1 25.1873 4.16699
      vertex -0.1 25.1836 4.17467
      vertex -0.302254 25.2531 4.16699
    endloop
  endfacet
  facet normal -0.309017 2.04365e-16 -0.951057
    outer loop
      vertex -0.504508 0.6 4.30611
      vertex -0.504508 25.4 4.30611
      vertex -0.342674 0.6 4.25352
    endloop
  endfacet
  facet normal -0.309017 -0 -0.951057
    outer loop
      vertex -0.342674 25.2237 4.25352
      vertex -0.504508 25.4 4.30611
      vertex -0.342674 25.4 4.25352
    endloop
  endfacet
  facet normal -0.309017 -9.7292e-17 -0.951057
    outer loop
      vertex -0.342674 0.6 4.25352
      vertex -0.504508 25.4 4.30611
      vertex -0.342674 0.776313 4.25352
    endloop
  endfacet
  facet normal -0.309017 2.0823e-16 -0.951057
    outer loop
      vertex -0.254547 0.790884 4.22489
      vertex -0.1 25.1836 4.17467
      vertex -0.1 0.816438 4.17467
    endloop
  endfacet
  facet normal -0.309017 2.03975e-16 -0.951057
    outer loop
      vertex -0.342674 25.2237 4.25352
      vertex -0.1 25.1836 4.17467
      vertex -0.342674 0.776313 4.25352
    endloop
  endfacet
  facet normal -0.309017 2.03975e-16 -0.951057
    outer loop
      vertex -0.342674 25.2237 4.25352
      vertex -0.342674 0.776313 4.25352
      vertex -0.504508 25.4 4.30611
    endloop
  endfacet
  facet normal -0.309017 2.22136e-16 -0.951057
    outer loop
      vertex -0.342674 0.776313 4.25352
      vertex -0.1 25.1836 4.17467
      vertex -0.254547 0.790884 4.22489
    endloop
  endfacet
  facet normal -0.279982 0.861693 -0.423197
    outer loop
      vertex -0.302254 0.746946 4.16699
      vertex -0.254547 0.790884 4.22489
      vertex -0.1 0.812663 4.16699
    endloop
  endfacet
  facet normal -0.279982 0.861693 -0.423197
    outer loop
      vertex -0.1 0.812663 4.16699
      vertex -0.254547 0.790884 4.22489
      vertex -0.1 0.816438 4.17467
    endloop
  endfacet
  facet normal -0 -0 -1
    outer loop
      vertex -0.302254 0.453054 4.16699
      vertex -0.302254 0.746946 4.16699
      vertex -0.1 0.387337 4.16699
    endloop
  endfacet
  facet normal 0 0 -1
    outer loop
      vertex -0.1 0.387337 4.16699
      vertex -0.302254 0.746946 4.16699
      vertex -0.1 0.812663 4.16699
    endloop
  endfacet
  facet normal -0.279982 -0.861692 -0.423199
    outer loop
      vertex -0.1 0.353235 4.23642
      vertex -0.504508 0.306107 4.6
      vertex -0.302254 0.453054 4.16699
    endloop
  endfacet
  facet normal -0.279982 -0.861692 -0.423199
    outer loop
      vertex -0.1 0.387337 4.16699
      vertex -0.1 0.353235 4.23642
      vertex -0.302254 0.453054 4.16699
    endloop
  endfacet
  facet normal -0.279981 -0.861693 -0.423197
    outer loop
      vertex -0.11 0.177924 4.6
      vertex -0.504508 0.306107 4.6
      vertex -0.1 0.353235 4.23642
    endloop
  endfacet
  facet normal -0.279981 -0.861693 -0.423197
    outer loop
      vertex -0.1 0.174675 4.6
      vertex -0.11 0.177924 4.6
      vertex -0.1 0.353235 4.23642
    endloop
  endfacet
  facet normal -0 -0 -1
    outer loop
      vertex -0.11 0.1 4.6
      vertex -0.11 0.177924 4.6
      vertex -0.1 0.1 4.6
    endloop
  endfacet
  facet normal 0 0 -1
    outer loop
      vertex -0.1 0.1 4.6
      vertex -0.11 0.177924 4.6
      vertex -0.1 0.174675 4.6
    endloop
  endfacet
  facet normal 0 0 -1
    outer loop
      vertex 4.25 3.49 4
      vertex 4.25 1.99 4
      vertex 1.75 3.49 4
    endloop
  endfacet
  facet normal 0 0 -1
    outer loop
      vertex 1.75 3.49 4
      vertex 4.25 1.99 4
      vertex 3.75 1.99 4
    endloop
  endfacet
  facet normal 0 0 -1
    outer loop
      vertex 1.75 3.49 4
      vertex 3.75 1.99 4
      vertex 3.75 0 4
    endloop
  endfacet
  facet normal 0 0 -1
    outer loop
      vertex 2.25 1.99 4
      vertex 3.75 0 4
      vertex 2.25 0 4
    endloop
  endfacet
  facet normal 0 0 -1
    outer loop
      vertex 1.75 3.49 4
      vertex 3.75 0 4
      vertex 2.25 1.99 4
    endloop
  endfacet
  facet normal -0 0 -1
    outer loop
      vertex 1.75 1.99 4
      vertex 1.75 3.49 4
      vertex 2.25 1.99 4
    endloop
  endfacet
  facet normal -0.279981 -0.861693 -0.423197
    outer loop
      vertex 6.05451 0.124472 4.6
      vertex 5.92 0.168176 4.6
      vertex 5.92 0.355565 4.21845
    endloop
  endfacet
  facet normal -0.279981 -0.861693 -0.423197
    outer loop
      vertex 5.97725 0.362236 4.16699
      vertex 6.05451 0.124472 4.6
      vertex 5.92 0.355565 4.21845
    endloop
  endfacet
  facet normal -0.309017 -0.951057 0
    outer loop
      vertex 5.92 0.168176 28.9
      vertex 5.92 0.168176 4.6
      vertex 6.05451 0.124472 4.6
    endloop
  endfacet
  facet normal -0.309017 -0.951057 0
    outer loop
      vertex 6.05451 0.124472 28.9
      vertex 5.92 0.168176 28.9
      vertex 6.05451 0.124472 4.6
    endloop
  endfacet
  facet normal -0.279982 -0.861692 -0.423199
    outer loop
      vertex 5.97725 0.362236 4.16699
      vertex 5.92 0.355565 4.21845
      vertex 5.92 0.380839 4.16699
    endloop
  endfacet
  facet normal 0 0 -1
    outer loop
      vertex 6.0854 0.6 4.16699
      vertex 5.97725 0.362236 4.16699
      vertex 5.92366 0.6 4.16699
    endloop
  endfacet
  facet normal 0 -0 -1
    outer loop
      vertex 5.92 0.380839 4.16699
      vertex 5.92 0.819161 4.16699
      vertex 5.92366 0.6 4.16699
    endloop
  endfacet
  facet normal -0 0 -1
    outer loop
      vertex 5.92 0.380839 4.16699
      vertex 5.92366 0.6 4.16699
      vertex 5.97725 0.362236 4.16699
    endloop
  endfacet
  facet normal -0 -0 -1
    outer loop
      vertex 6.0854 0.6 4.16699
      vertex 6.0854 0.688918 4.16699
      vertex 6.15 0.6 4.16699
    endloop
  endfacet
  facet normal 0 0 -1
    outer loop
      vertex 6.0854 0.6 4.16699
      vertex 6.15 0.6 4.16699
      vertex 5.97725 0.362236 4.16699
    endloop
  endfacet
  facet normal 0 0 -1
    outer loop
      vertex 5.92366 0.6 4.16699
      vertex 5.92 0.819161 4.16699
      vertex 5.92366 0.82035 4.16699
    endloop
  endfacet
  facet normal -0.279982 0.861693 -0.423197
    outer loop
      vertex 5.92366 0.82035 4.16699
      vertex 5.92 0.819161 4.16699
      vertex 5.92 0.819745 4.16818
    endloop
  endfacet
  facet normal -0.309017 2.08052e-16 -0.951057
    outer loop
      vertex 5.92 0.819745 4.16818
      vertex 5.92 25.1803 4.16818
      vertex 5.92366 0.82035 4.16699
    endloop
  endfacet
  facet normal -0.309017 2.14077e-16 -0.951057
    outer loop
      vertex 5.92366 0.82035 4.16699
      vertex 5.92 25.1803 4.16818
      vertex 5.92366 25.1796 4.16699
    endloop
  endfacet
  facet normal -0.309017 -0 -0.951057
    outer loop
      vertex 5.92366 25.1796 4.16699
      vertex 5.92366 25.4 4.16699
      vertex 6.05451 25.4 4.12447
    endloop
  endfacet
  facet normal -0.309017 2.14077e-16 -0.951057
    outer loop
      vertex 5.92366 25.1796 4.16699
      vertex 6.05451 25.4 4.12447
      vertex 5.92366 0.82035 4.16699
    endloop
  endfacet
  facet normal -0.309017 2.04276e-16 -0.951057
    outer loop
      vertex 5.92366 0.82035 4.16699
      vertex 6.05451 25.4 4.12447
      vertex 6.05451 0.6 4.12447
    endloop
  endfacet
  facet normal -0.309017 0 -0.951057
    outer loop
      vertex 5.92366 0.82035 4.16699
      vertex 6.05451 0.6 4.12447
      vertex 5.92366 0.6 4.16699
    endloop
  endfacet
  facet normal -0.279982 -0.861692 -0.423199
    outer loop
      vertex 5.92366 25.1796 4.16699
      vertex 5.92 25.1803 4.16818
      vertex 5.92 25.1808 4.16699
    endloop
  endfacet
  facet normal -0 -0 -1
    outer loop
      vertex 5.92 25.1808 4.16699
      vertex 5.92 25.6192 4.16699
      vertex 5.92366 25.1796 4.16699
    endloop
  endfacet
  facet normal 0 -0 -1
    outer loop
      vertex 5.92366 25.4 4.16699
      vertex 5.92 25.6192 4.16699
      vertex 5.97725 25.6378 4.16699
    endloop
  endfacet
  facet normal 0 -0 -1
    outer loop
      vertex 6.0854 25.4 4.16699
      vertex 5.97725 25.6378 4.16699
      vertex 6.15 25.4 4.16699
    endloop
  endfacet
  facet normal -0 0 -1
    outer loop
      vertex 5.92366 25.4 4.16699
      vertex 5.97725 25.6378 4.16699
      vertex 6.0854 25.4 4.16699
    endloop
  endfacet
  facet normal 0 0 -1
    outer loop
      vertex 5.92366 25.1796 4.16699
      vertex 5.92 25.6192 4.16699
      vertex 5.92366 25.4 4.16699
    endloop
  endfacet
  facet normal -0 0 -1
    outer loop
      vertex 6.0854 25.4 4.16699
      vertex 6.15 25.4 4.16699
      vertex 6.0854 25.3111 4.16699
    endloop
  endfacet
  facet normal -0.279982 0.861693 -0.423197
    outer loop
      vertex 5.92 25.6192 4.16699
      vertex 5.92 25.7516 4.43674
      vertex 5.97725 25.6378 4.16699
    endloop
  endfacet
  facet normal -0.279982 0.861693 -0.423197
    outer loop
      vertex 5.97725 25.6378 4.16699
      vertex 5.92 25.7516 4.43674
      vertex 6.05451 25.8755 4.6
    endloop
  endfacet
  facet normal -0.27998 0.861693 -0.423198
    outer loop
      vertex 6.05451 25.8755 4.6
      vertex 5.92 25.7516 4.43674
      vertex 5.92 25.8318 4.6
    endloop
  endfacet
  facet normal -0.309017 0.951057 0
    outer loop
      vertex 5.92 25.8318 4.6
      vertex 5.92 25.8318 28.9
      vertex 6.05451 25.8755 4.6
    endloop
  endfacet
  facet normal -0.309017 0.951057 0
    outer loop
      vertex 6.05451 25.8755 4.6
      vertex 5.92 25.8318 28.9
      vertex 6.05451 25.8755 28.9
    endloop
  endfacet
  facet normal -0.279981 0.861693 0.423197
    outer loop
      vertex 5.92 25.6444 29.2816
      vertex 5.97725 25.6378 29.333
      vertex 5.92 25.8318 28.9
    endloop
  endfacet
  facet normal -0.279981 0.861693 0.423197
    outer loop
      vertex 5.92 25.8318 28.9
      vertex 5.97725 25.6378 29.333
      vertex 6.05451 25.8755 28.9
    endloop
  endfacet
  facet normal -0.279982 0.861692 0.423199
    outer loop
      vertex 5.92 25.6444 29.2816
      vertex 5.92 25.6192 29.333
      vertex 5.97725 25.6378 29.333
    endloop
  endfacet
  facet normal 0 -0 1
    outer loop
      vertex 5.92 25.6192 29.333
      vertex 5.92 25.1808 29.333
      vertex 5.92366 25.1796 29.333
    endloop
  endfacet
  facet normal -0 0 1
    outer loop
      vertex 6.0854 25.4 29.333
      vertex 5.92 25.6192 29.333
      vertex 5.92366 25.4 29.333
    endloop
  endfacet
  facet normal -0 0 1
    outer loop
      vertex 5.92366 25.4 29.333
      vertex 5.92 25.6192 29.333
      vertex 5.92366 25.1796 29.333
    endloop
  endfacet
  facet normal -0 0 1
    outer loop
      vertex 6.15 25.4 29.333
      vertex 5.92 25.6192 29.333
      vertex 6.0854 25.4 29.333
    endloop
  endfacet
  facet normal 0 0 1
    outer loop
      vertex 6.15 25.4 29.333
      vertex 6.0854 25.4 29.333
      vertex 6.0854 25.3111 29.333
    endloop
  endfacet
  facet normal 0 -0 1
    outer loop
      vertex 5.97725 25.6378 29.333
      vertex 5.92 25.6192 29.333
      vertex 6.15 25.4 29.333
    endloop
  endfacet
  facet normal -0.279982 -0.861693 0.423197
    outer loop
      vertex 5.92 25.1808 29.333
      vertex 5.92 25.1803 29.3318
      vertex 5.92366 25.1796 29.333
    endloop
  endfacet
  facet normal -0.309017 -2.77402e-16 0.951057
    outer loop
      vertex 5.92 25.1803 29.3318
      vertex 5.92 0.819745 29.3318
      vertex 5.92366 0.82035 29.333
    endloop
  endfacet
  facet normal -0.309017 -2.89897e-16 0.951057
    outer loop
      vertex 6.05451 0.6 29.3755
      vertex 5.92 25.1803 29.3318
      vertex 5.92366 0.82035 29.333
    endloop
  endfacet
  facet normal -0.309017 0 0.951057
    outer loop
      vertex 5.92366 0.6 29.333
      vertex 6.05451 0.6 29.3755
      vertex 5.92366 0.82035 29.333
    endloop
  endfacet
  facet normal -0.309017 2.48007e-15 0.951057
    outer loop
      vertex 6.05451 0.6 29.3755
      vertex 5.92366 25.1796 29.333
      vertex 5.92 25.1803 29.3318
    endloop
  endfacet
  facet normal -0.309017 -1.36243e-16 0.951057
    outer loop
      vertex 6.05451 0.6 29.3755
      vertex 6.05451 25.4 29.3755
      vertex 5.92366 25.1796 29.333
    endloop
  endfacet
  facet normal -0.309017 0 0.951057
    outer loop
      vertex 5.92366 25.4 29.333
      vertex 5.92366 25.1796 29.333
      vertex 6.05451 25.4 29.3755
    endloop
  endfacet
  facet normal -0.279982 0.861692 0.423199
    outer loop
      vertex 5.92 0.819745 29.3318
      vertex 5.92 0.819161 29.333
      vertex 5.92366 0.82035 29.333
    endloop
  endfacet
  facet normal 0 -0 1
    outer loop
      vertex 5.92366 0.6 29.333
      vertex 5.92 0.380839 29.333
      vertex 5.97725 0.362236 29.333
    endloop
  endfacet
  facet normal 0 0 1
    outer loop
      vertex 6.0854 0.6 29.333
      vertex 5.92366 0.6 29.333
      vertex 5.97725 0.362236 29.333
    endloop
  endfacet
  facet normal 0 0 1
    outer loop
      vertex 6.15 0.6 29.333
      vertex 6.0854 0.6 29.333
      vertex 5.97725 0.362236 29.333
    endloop
  endfacet
  facet normal 0 -0 1
    outer loop
      vertex 5.92 0.819161 29.333
      vertex 5.92 0.380839 29.333
      vertex 5.92366 0.6 29.333
    endloop
  endfacet
  facet normal 0 -0 1
    outer loop
      vertex 6.0854 0.688918 29.333
      vertex 6.0854 0.6 29.333
      vertex 6.15 0.6 29.333
    endloop
  endfacet
  facet normal 0 0 1
    outer loop
      vertex 5.92366 0.6 29.333
      vertex 5.92366 0.82035 29.333
      vertex 5.92 0.819161 29.333
    endloop
  endfacet
  facet normal -0.279982 -0.861693 0.423197
    outer loop
      vertex 5.92 0.380839 29.333
      vertex 5.92 0.248355 29.0633
      vertex 6.05451 0.124472 28.9
    endloop
  endfacet
  facet normal -0.279982 -0.861693 0.423197
    outer loop
      vertex 5.97725 0.362236 29.333
      vertex 5.92 0.380839 29.333
      vertex 6.05451 0.124472 28.9
    endloop
  endfacet
  facet normal -0.27998 -0.861693 0.423198
    outer loop
      vertex 5.92 0.248355 29.0633
      vertex 5.92 0.168176 28.9
      vertex 6.05451 0.124472 28.9
    endloop
  endfacet
  facet normal 0 -0 -1
    outer loop
      vertex 2.25 24.01 4
      vertex 2.25 26 4
      vertex 3.75 26 4
    endloop
  endfacet
  facet normal -0 0 -1
    outer loop
      vertex 2.25 24.01 4
      vertex 3.75 26 4
      vertex 3.75 24.01 4
    endloop
  endfacet
  facet normal 0 0 -1
    outer loop
      vertex 2.25 24.01 4
      vertex 4.25 22.51 4
      vertex 1.75 24.01 4
    endloop
  endfacet
  facet normal 0 0 -1
    outer loop
      vertex 3.75 24.01 4
      vertex 4.25 24.01 4
      vertex 4.25 22.51 4
    endloop
  endfacet
  facet normal 0 0 -1
    outer loop
      vertex 3.75 24.01 4
      vertex 4.25 22.51 4
      vertex 2.25 24.01 4
    endloop
  endfacet
  facet normal 0 0 -1
    outer loop
      vertex 4.25 22.51 4
      vertex 1.75 22.51 4
      vertex 1.75 24.01 4
    endloop
  endfacet
  facet normal -1 -0 -0
    outer loop
      vertex -0.11 0.1 4.6
      vertex -0.11 0.1 28.9
      vertex -0.11 0.177924 4.6
    endloop
  endfacet
  facet normal -1 0 0
    outer loop
      vertex -0.11 0.177924 4.6
      vertex -0.11 0.1 28.9
      vertex -0.11 0.177924 28.9
    endloop
  endfacet
  facet normal -1 -0 -0
    outer loop
      vertex -0.6 0.6 4.6
      vertex -0.6 0.6 28.9
      vertex -0.6 25.4 4.6
    endloop
  endfacet
  facet normal -1 0 0
    outer loop
      vertex -0.6 25.4 4.6
      vertex -0.6 0.6 28.9
      vertex -0.6 25.4 28.9
    endloop
  endfacet
  facet normal 0 1 0
    outer loop
      vertex -0.6 25.4 4.6
      vertex -0.6 25.4 28.9
      vertex -0.504508 25.4 4.6
    endloop
  endfacet
  facet normal 0 1 0
    outer loop
      vertex -0.504508 25.4 4.6
      vertex -0.6 25.4 28.9
      vertex -0.504508 25.4 28.9
    endloop
  endfacet
  facet normal -1 -0 0
    outer loop
      vertex -0.504508 0.6 29.1939
      vertex -0.504508 25.4 29.1939
      vertex -0.504508 0.6 28.9
    endloop
  endfacet
  facet normal -1 -0 0
    outer loop
      vertex -0.504508 0.6 28.9
      vertex -0.504508 25.4 29.1939
      vertex -0.504508 25.4 28.9
    endloop
  endfacet
  facet normal -1 0 0
    outer loop
      vertex -0.504508 25.4 28.9
      vertex -0.504508 25.6939 28.9
      vertex -0.504508 25.6939 4.6
    endloop
  endfacet
  facet normal -1 0 0
    outer loop
      vertex -0.504508 25.4 28.9
      vertex -0.504508 25.6939 4.6
      vertex -0.504508 25.4 4.6
    endloop
  endfacet
  facet normal -1 0 0
    outer loop
      vertex -0.504508 25.4 4.6
      vertex -0.504508 25.4 4.30611
      vertex -0.504508 0.6 4.30611
    endloop
  endfacet
  facet normal -1 0 0
    outer loop
      vertex -0.504508 25.4 4.6
      vertex -0.504508 0.6 4.30611
      vertex -0.504508 0.6 4.6
    endloop
  endfacet
  facet normal -0.309017 -0.951057 0
    outer loop
      vertex -0.504508 0.306107 28.9
      vertex -0.504508 0.306107 4.6
      vertex -0.11 0.177924 4.6
    endloop
  endfacet
  facet normal -0.309017 -0.951057 0
    outer loop
      vertex -0.11 0.177924 28.9
      vertex -0.504508 0.306107 28.9
      vertex -0.11 0.177924 4.6
    endloop
  endfacet
  facet normal -1 -0 -0
    outer loop
      vertex -0.504508 0.306107 4.6
      vertex -0.504508 0.306107 28.9
      vertex -0.504508 0.6 4.6
    endloop
  endfacet
  facet normal -1 0 0
    outer loop
      vertex -0.504508 0.6 4.6
      vertex -0.504508 0.306107 28.9
      vertex -0.504508 0.6 28.9
    endloop
  endfacet
  facet normal 0 -1 0
    outer loop
      vertex -0.6 0.6 28.9
      vertex -0.6 0.6 4.6
      vertex -0.504508 0.6 4.6
    endloop
  endfacet
  facet normal 0 -1 0
    outer loop
      vertex -0.504508 0.6 28.9
      vertex -0.6 0.6 28.9
      vertex -0.504508 0.6 4.6
    endloop
  endfacet
  facet normal -0.906038 0 0.423197
    outer loop
      vertex -0.504508 0.306107 28.9
      vertex -0.302254 0.453054 29.333
      vertex -0.504508 0.6 28.9
    endloop
  endfacet
  facet normal -0.906038 0 0.423197
    outer loop
      vertex -0.342674 0.6 29.2465
      vertex -0.302254 0.453054 29.333
      vertex -0.302254 0.746946 29.333
    endloop
  endfacet
  facet normal -0.906038 -2.77836e-15 0.423197
    outer loop
      vertex -0.504508 0.6 28.9
      vertex -0.302254 0.453054 29.333
      vertex -0.342674 0.6 29.2465
    endloop
  endfacet
  facet normal -0.906038 0 0.423197
    outer loop
      vertex -0.342674 0.6 29.2465
      vertex -0.302254 0.746946 29.333
      vertex -0.342674 0.776313 29.2465
    endloop
  endfacet
  facet normal 0 1 0
    outer loop
      vertex -0.504508 25.4 28.9
      vertex -0.504508 25.4 29.1939
      vertex -0.342674 25.4 29.2465
    endloop
  endfacet
  facet normal -0.906038 0 0.423197
    outer loop
      vertex -0.504508 25.4 28.9
      vertex -0.342674 25.4 29.2465
      vertex -0.504508 25.6939 28.9
    endloop
  endfacet
  facet normal -0.906038 0 0.423197
    outer loop
      vertex -0.302254 25.2531 29.333
      vertex -0.342674 25.4 29.2465
      vertex -0.342674 25.2237 29.2465
    endloop
  endfacet
  facet normal -0.906038 0 0.423197
    outer loop
      vertex -0.302254 25.5469 29.333
      vertex -0.342674 25.4 29.2465
      vertex -0.302254 25.2531 29.333
    endloop
  endfacet
  facet normal -0.906038 3.58212e-15 0.423197
    outer loop
      vertex -0.504508 25.6939 28.9
      vertex -0.342674 25.4 29.2465
      vertex -0.302254 25.5469 29.333
    endloop
  endfacet
  facet normal -0.27998 -0.861693 0.423198
    outer loop
      vertex -0.302254 25.2531 29.333
      vertex -0.342674 25.2237 29.2465
      vertex -0.254547 25.2091 29.2751
    endloop
  endfacet
  facet normal 1.22743e-16 -1 -3.77764e-16
    outer loop
      vertex -0.342674 0.6 29.2465
      vertex -0.504508 0.6 29.1939
      vertex -0.504508 0.6 28.9
    endloop
  endfacet
  facet normal -0.309017 0.951057 0
    outer loop
      vertex -0.504508 25.6939 4.6
      vertex -0.504508 25.6939 28.9
      vertex -0.11 25.8221 4.6
    endloop
  endfacet
  facet normal -0.309017 0.951057 0
    outer loop
      vertex -0.11 25.8221 4.6
      vertex -0.504508 25.6939 28.9
      vertex -0.11 25.8221 28.9
    endloop
  endfacet
  facet normal -1 -0 -0
    outer loop
      vertex -0.11 25.8221 4.6
      vertex -0.11 25.8221 28.9
      vertex -0.11 25.9 4.6
    endloop
  endfacet
  facet normal -1 0 0
    outer loop
      vertex -0.11 25.9 4.6
      vertex -0.11 25.8221 28.9
      vertex -0.11 25.9 28.9
    endloop
  endfacet
  facet normal -0.906038 -0 -0.423197
    outer loop
      vertex -0.504508 25.4 4.6
      vertex -0.504508 25.6939 4.6
      vertex -0.342674 25.4 4.25352
    endloop
  endfacet
  facet normal -0.906038 -6.91982e-16 -0.423197
    outer loop
      vertex -0.342674 25.4 4.25352
      vertex -0.504508 25.6939 4.6
      vertex -0.302254 25.5469 4.16699
    endloop
  endfacet
  facet normal -0.906038 0 -0.423197
    outer loop
      vertex -0.342674 25.4 4.25352
      vertex -0.302254 25.5469 4.16699
      vertex -0.302254 25.2531 4.16699
    endloop
  endfacet
  facet normal -0.906038 0 -0.423197
    outer loop
      vertex -0.342674 25.4 4.25352
      vertex -0.302254 25.2531 4.16699
      vertex -0.342674 25.2237 4.25352
    endloop
  endfacet
  facet normal 0 -1 0
    outer loop
      vertex -0.342674 0.6 4.25352
      vertex -0.504508 0.6 4.6
      vertex -0.504508 0.6 4.30611
    endloop
  endfacet
  facet normal -0.906038 -0 -0.423197
    outer loop
      vertex -0.504508 0.306107 4.6
      vertex -0.504508 0.6 4.6
      vertex -0.302254 0.453054 4.16699
    endloop
  endfacet
  facet normal -0.906038 2.22269e-15 -0.423197
    outer loop
      vertex -0.302254 0.453054 4.16699
      vertex -0.504508 0.6 4.6
      vertex -0.342674 0.6 4.25352
    endloop
  endfacet
  facet normal -0.906038 -2.58346e-16 -0.423197
    outer loop
      vertex -0.302254 0.453054 4.16699
      vertex -0.342674 0.6 4.25352
      vertex -0.342674 0.776313 4.25352
    endloop
  endfacet
  facet normal -0.906038 -0 -0.423197
    outer loop
      vertex -0.302254 0.453054 4.16699
      vertex -0.342674 0.776313 4.25352
      vertex -0.302254 0.746946 4.16699
    endloop
  endfacet
  facet normal -0.27998 0.861693 -0.423198
    outer loop
      vertex -0.302254 0.746946 4.16699
      vertex -0.342674 0.776313 4.25352
      vertex -0.254547 0.790884 4.22489
    endloop
  endfacet
  facet normal 0 1 0
    outer loop
      vertex -0.504508 25.4 4.30611
      vertex -0.504508 25.4 4.6
      vertex -0.342674 25.4 4.25352
    endloop
  endfacet
  facet normal 0.809016 -0.587786 0
    outer loop
      vertex 6.05451 0.124472 28.9
      vertex 6.05451 0.124472 4.6
      vertex 6.4 0.6 4.6
    endloop
  endfacet
  facet normal 0.809016 -0.587786 0
    outer loop
      vertex 6.4 0.6 28.9
      vertex 6.05451 0.124472 28.9
      vertex 6.4 0.6 4.6
    endloop
  endfacet
  facet normal 0.732999 -0.532556 -0.423197
    outer loop
      vertex 6.05451 0.124472 4.6
      vertex 5.97725 0.362236 4.16699
      vertex 6.15 0.6 4.16699
    endloop
  endfacet
  facet normal 0.732999 -0.532556 -0.423197
    outer loop
      vertex 6.4 0.6 4.6
      vertex 6.05451 0.124472 4.6
      vertex 6.15 0.6 4.16699
    endloop
  endfacet
  facet normal 0.732999 0.532556 -0.423197
    outer loop
      vertex 6.15 0.6 4.16699
      vertex 6.0854 0.688918 4.16699
      vertex 6.4 0.6 4.6
    endloop
  endfacet
  facet normal 0.809016 1.26315e-16 -0.587786
    outer loop
      vertex 6.0854 0.6 4.16699
      vertex 6.05451 0.6 4.12447
      vertex 6.05451 25.4 4.12447
    endloop
  endfacet
  facet normal 0.809016 0 -0.587786
    outer loop
      vertex 6.0854 0.688918 4.16699
      vertex 6.0854 0.6 4.16699
      vertex 6.05451 25.4 4.12447
    endloop
  endfacet
  facet normal 0.809016 1.45915e-16 -0.587786
    outer loop
      vertex 6.0854 25.3111 4.16699
      vertex 6.0854 0.688918 4.16699
      vertex 6.05451 25.4 4.12447
    endloop
  endfacet
  facet normal 0.809016 0 -0.587786
    outer loop
      vertex 6.0854 25.4 4.16699
      vertex 6.0854 25.3111 4.16699
      vertex 6.05451 25.4 4.12447
    endloop
  endfacet
  facet normal 0.809016 1.45687e-16 -0.587786
    outer loop
      vertex 6.4 25.4 4.6
      vertex 6.0854 0.688918 4.16699
      vertex 6.0854 25.3111 4.16699
    endloop
  endfacet
  facet normal 0.809016 1.15895e-16 -0.587786
    outer loop
      vertex 6.4 0.6 4.6
      vertex 6.0854 0.688918 4.16699
      vertex 6.4 25.4 4.6
    endloop
  endfacet
  facet normal 0 -1 0
    outer loop
      vertex 6.0854 0.6 4.16699
      vertex 5.92366 0.6 4.16699
      vertex 6.05451 0.6 4.12447
    endloop
  endfacet
  facet normal 0 1 0
    outer loop
      vertex 6.05451 25.4 4.12447
      vertex 5.92366 25.4 4.16699
      vertex 6.0854 25.4 4.16699
    endloop
  endfacet
  facet normal 0.732999 -0.532556 -0.423197
    outer loop
      vertex 6.4 25.4 4.6
      vertex 6.0854 25.3111 4.16699
      vertex 6.15 25.4 4.16699
    endloop
  endfacet
  facet normal 0.732999 0.532556 -0.423197
    outer loop
      vertex 6.15 25.4 4.16699
      vertex 5.97725 25.6378 4.16699
      vertex 6.05451 25.8755 4.6
    endloop
  endfacet
  facet normal 0.732999 0.532556 -0.423197
    outer loop
      vertex 6.4 25.4 4.6
      vertex 6.15 25.4 4.16699
      vertex 6.05451 25.8755 4.6
    endloop
  endfacet
  facet normal 0.809016 0.587786 0
    outer loop
      vertex 6.4 25.4 4.6
      vertex 6.05451 25.8755 4.6
      vertex 6.05451 25.8755 28.9
    endloop
  endfacet
  facet normal 0.809016 0.587786 -0
    outer loop
      vertex 6.4 25.4 28.9
      vertex 6.4 25.4 4.6
      vertex 6.05451 25.8755 28.9
    endloop
  endfacet
  facet normal 1 0 -0
    outer loop
      vertex 6.4 0.6 28.9
      vertex 6.4 0.6 4.6
      vertex 6.4 25.4 4.6
    endloop
  endfacet
  facet normal 1 0 0
    outer loop
      vertex 6.4 25.4 28.9
      vertex 6.4 0.6 28.9
      vertex 6.4 25.4 4.6
    endloop
  endfacet
  facet normal 0.732999 0.532556 0.423197
    outer loop
      vertex 6.05451 25.8755 28.9
      vertex 5.97725 25.6378 29.333
      vertex 6.15 25.4 29.333
    endloop
  endfacet
  facet normal 0.732999 0.532556 0.423197
    outer loop
      vertex 6.4 25.4 28.9
      vertex 6.05451 25.8755 28.9
      vertex 6.15 25.4 29.333
    endloop
  endfacet
  facet normal 0.732999 -0.532556 0.423197
    outer loop
      vertex 6.15 25.4 29.333
      vertex 6.0854 25.3111 29.333
      vertex 6.4 25.4 28.9
    endloop
  endfacet
  facet normal 0.809016 -8.4203e-17 0.587786
    outer loop
      vertex 6.05451 25.4 29.3755
      vertex 6.05451 0.6 29.3755
      vertex 6.0854 0.6 29.333
    endloop
  endfacet
  facet normal 0.809016 -1.07174e-16 0.587786
    outer loop
      vertex 6.4 0.6 28.9
      vertex 6.05451 25.4 29.3755
      vertex 6.0854 0.688918 29.333
    endloop
  endfacet
  facet normal 0.809016 -0 0.587786
    outer loop
      vertex 6.0854 0.688918 29.333
      vertex 6.05451 25.4 29.3755
      vertex 6.0854 0.6 29.333
    endloop
  endfacet
  facet normal 0.809016 -2.14994e-16 0.587786
    outer loop
      vertex 6.0854 25.3111 29.333
      vertex 6.05451 25.4 29.3755
      vertex 6.4 0.6 28.9
    endloop
  endfacet
  facet normal 0.809016 -1.12248e-16 0.587786
    outer loop
      vertex 6.4 25.4 28.9
      vertex 6.0854 25.3111 29.333
      vertex 6.4 0.6 28.9
    endloop
  endfacet
  facet normal 0.809016 -0 0.587786
    outer loop
      vertex 6.0854 25.4 29.333
      vertex 6.05451 25.4 29.3755
      vertex 6.0854 25.3111 29.333
    endloop
  endfacet
  facet normal -0 1 0
    outer loop
      vertex 6.0854 25.4 29.333
      vertex 5.92366 25.4 29.333
      vertex 6.05451 25.4 29.3755
    endloop
  endfacet
  facet normal 0 -1 0
    outer loop
      vertex 6.05451 0.6 29.3755
      vertex 5.92366 0.6 29.333
      vertex 6.0854 0.6 29.333
    endloop
  endfacet
  facet normal 0.732999 0.532556 0.423197
    outer loop
      vertex 6.4 0.6 28.9
      vertex 6.0854 0.688918 29.333
      vertex 6.15 0.6 29.333
    endloop
  endfacet
  facet normal 0.732999 -0.532556 0.423197
    outer loop
      vertex 6.15 0.6 29.333
      vertex 5.97725 0.362236 29.333
      vertex 6.05451 0.124472 28.9
    endloop
  endfacet
  facet normal 0.732999 -0.532556 0.423197
    outer loop
      vertex 6.4 0.6 28.9
      vertex 6.15 0.6 29.333
      vertex 6.05451 0.124472 28.9
    endloop
  endfacet
  facet normal -0 -0 -1
    outer loop
      vertex -0.6 0.6 4.6
      vertex -0.6 25.4 4.6
      vertex -0.504508 0.6 4.6
    endloop
  endfacet
  facet normal 0 0 -1
    outer loop
      vertex -0.504508 0.6 4.6
      vertex -0.6 25.4 4.6
      vertex -0.504508 25.4 4.6
    endloop
  endfacet
  facet normal -1 -0 -0
    outer loop
      vertex 6 4.2 0
      vertex 6 4.2 2
      vertex 6 6.8 0
    endloop
  endfacet
  facet normal -1 0 0
    outer loop
      vertex 6 6.8 0
      vertex 6 4.2 2
      vertex 6 6.8 2
    endloop
  endfacet
  facet normal 0 -1 0
    outer loop
      vertex 6 4.2 2
      vertex 6 4.2 0
      vertex 8.5 4.2 0
    endloop
  endfacet
  facet normal 0 -1 0
    outer loop
      vertex 8.5 4.2 2
      vertex 6 4.2 2
      vertex 8.5 4.2 0
    endloop
  endfacet
  facet normal -0 -0 -1
    outer loop
      vertex 6 4.2 0
      vertex 6 6.8 0
      vertex 8.5 4.2 0
    endloop
  endfacet
  facet normal 0 0 -1
    outer loop
      vertex 8.5 4.2 0
      vertex 6 6.8 0
      vertex 7.42304 6.8 0
    endloop
  endfacet
  facet normal 0 -0 -1
    outer loop
      vertex 8.5 4.2 0
      vertex 7.42304 6.8 0
      vertex 10.2 9.57696 0
    endloop
  endfacet
  facet normal 0 0 -1
    outer loop
      vertex 7.42304 19.2 0
      vertex 6 19.2 0
      vertex 6 21.8 0
    endloop
  endfacet
  facet normal -0 -0 -1
    outer loop
      vertex 7.42304 19.2 0
      vertex 6 21.8 0
      vertex 10.2 16.423 0
    endloop
  endfacet
  facet normal 0 0 -1
    outer loop
      vertex 10.2 16.423 0
      vertex 6 21.8 0
      vertex 8.5 21.8 0
    endloop
  endfacet
  facet normal 0 -0 -1
    outer loop
      vertex 10.2 16.423 0
      vertex 8.5 21.8 0
      vertex 12.8 17.5 0
    endloop
  endfacet
  facet normal -0 0 -1
    outer loop
      vertex 10.2 16.423 0
      vertex 12.8 17.5 0
      vertex 10.2 9.57696 0
    endloop
  endfacet
  facet normal 0 0 -1
    outer loop
      vertex 8.5 4.2 0
      vertex 12.8 17.5 0
      vertex 12.8 8.5 0
    endloop
  endfacet
  facet normal 0 0 -1
    outer loop
      vertex 12.8 17.5 0
      vertex 8.5 4.2 0
      vertex 10.2 9.57696 0
    endloop
  endfacet
  facet normal 0 1 0
    outer loop
      vertex 6 6.8 0
      vertex 6 6.8 2
      vertex 7.42304 6.8 0
    endloop
  endfacet
  facet normal 0 1 0
    outer loop
      vertex 7.42304 6.8 0
      vertex 6 6.8 2
      vertex 7.42304 6.8 2
    endloop
  endfacet
  facet normal 0 -0 1
    outer loop
      vertex 6 6.8 2
      vertex 6 4.2 2
      vertex 8.5 4.2 2
    endloop
  endfacet
  facet normal 0 -0 1
    outer loop
      vertex 7.42304 6.8 2
      vertex 6 6.8 2
      vertex 8.5 4.2 2
    endloop
  endfacet
  facet normal 0 -0 1
    outer loop
      vertex 10.2 9.57696 2
      vertex 7.42304 6.8 2
      vertex 12.8 8.5 2
    endloop
  endfacet
  facet normal 0 -0 1
    outer loop
      vertex 10.2 16.423 2
      vertex 10.2 9.57696 2
      vertex 12.8 17.5 2
    endloop
  endfacet
  facet normal 0 -0 1
    outer loop
      vertex 6 21.8 2
      vertex 6 19.2 2
      vertex 8.5 21.8 2
    endloop
  endfacet
  facet normal 0 0 1
    outer loop
      vertex 6 19.2 2
      vertex 7.42304 19.2 2
      vertex 8.5 21.8 2
    endloop
  endfacet
  facet normal 0 0 1
    outer loop
      vertex 8.5 21.8 2
      vertex 10.2 16.423 2
      vertex 12.8 17.5 2
    endloop
  endfacet
  facet normal 0 0 1
    outer loop
      vertex 12.8 17.5 2
      vertex 10.2 9.57696 2
      vertex 12.8 8.5 2
    endloop
  endfacet
  facet normal 0 0 1
    outer loop
      vertex 12.8 8.5 2
      vertex 7.42304 6.8 2
      vertex 8.5 4.2 2
    endloop
  endfacet
  facet normal 0 0 1
    outer loop
      vertex 7.42304 19.2 2
      vertex 10.2 16.423 2
      vertex 8.5 21.8 2
    endloop
  endfacet
  facet normal 0.707107 -0.707107 0
    outer loop
      vertex 8.5 4.2 2
      vertex 8.5 4.2 0
      vertex 12.8 8.5 0
    endloop
  endfacet
  facet normal 0.707107 -0.707107 0
    outer loop
      vertex 12.8 8.5 2
      vertex 8.5 4.2 2
      vertex 12.8 8.5 0
    endloop
  endfacet
  facet normal 1 0 -0
    outer loop
      vertex 12.8 8.5 2
      vertex 12.8 8.5 0
      vertex 12.8 17.5 0
    endloop
  endfacet
  facet normal 1 0 0
    outer loop
      vertex 12.8 17.5 2
      vertex 12.8 8.5 2
      vertex 12.8 17.5 0
    endloop
  endfacet
  facet normal 0.707107 0.707107 0
    outer loop
      vertex 8.5 21.8 0
      vertex 8.5 21.8 2
      vertex 12.8 17.5 0
    endloop
  endfacet
  facet normal 0.707107 0.707107 0
    outer loop
      vertex 12.8 17.5 0
      vertex 8.5 21.8 2
      vertex 12.8 17.5 2
    endloop
  endfacet
  facet normal 0 1 0
    outer loop
      vertex 6 21.8 0
      vertex 6 21.8 2
      vertex 8.5 21.8 0
    endloop
  endfacet
  facet normal 0 1 0
    outer loop
      vertex 8.5 21.8 0
      vertex 6 21.8 2
      vertex 8.5 21.8 2
    endloop
  endfacet
  facet normal -1 -0 -0
    outer loop
      vertex 6 19.2 0
      vertex 6 19.2 2
      vertex 6 21.8 0
    endloop
  endfacet
  facet normal -1 0 0
    outer loop
      vertex 6 21.8 0
      vertex 6 19.2 2
      vertex 6 21.8 2
    endloop
  endfacet
  facet normal 0 -1 0
    outer loop
      vertex 6 19.2 2
      vertex 6 19.2 0
      vertex 7.42304 19.2 0
    endloop
  endfacet
  facet normal 0 -1 0
    outer loop
      vertex 7.42304 19.2 2
      vertex 6 19.2 2
      vertex 7.42304 19.2 0
    endloop
  endfacet
  facet normal -0.707107 -0.707107 0
    outer loop
      vertex 7.42304 19.2 2
      vertex 7.42304 19.2 0
      vertex 10.2 16.423 0
    endloop
  endfacet
  facet normal -0.707107 -0.707107 0
    outer loop
      vertex 10.2 16.423 2
      vertex 7.42304 19.2 2
      vertex 10.2 16.423 0
    endloop
  endfacet
  facet normal -1 -0 -0
    outer loop
      vertex 10.2 9.57696 0
      vertex 10.2 9.57696 2
      vertex 10.2 16.423 0
    endloop
  endfacet
  facet normal -1 0 0
    outer loop
      vertex 10.2 16.423 0
      vertex 10.2 9.57696 2
      vertex 10.2 16.423 2
    endloop
  endfacet
  facet normal -0.707107 0.707107 0
    outer loop
      vertex 7.42304 6.8 0
      vertex 7.42304 6.8 2
      vertex 10.2 9.57696 0
    endloop
  endfacet
  facet normal -0.707107 0.707107 0
    outer loop
      vertex 10.2 9.57696 0
      vertex 7.42304 6.8 2
      vertex 10.2 9.57696 2
    endloop
  endfacet
endsolid OpenSCAD_Model
