solid OpenSCAD_Model
  facet normal -1 -0 -0
    outer loop
      vertex 0 0 0
      vertex 0 0 4
      vertex 0 4 0
    endloop
  endfacet
  facet normal -1 0 0
    outer loop
      vertex 0 1.55563 3.5
      vertex 0 0 4
      vertex 0 1.55563 4
    endloop
  endfacet
  facet normal -1 0 0
    outer loop
      vertex 0 4 0
      vertex 0 0 4
      vertex 0 1.55563 3.5
    endloop
  endfacet
  facet normal -1 0 0
    outer loop
      vertex 0 4 0
      vertex 0 1.55563 3.5
      vertex 0 1.83848 3.5
    endloop
  endfacet
  facet normal -1 0 0
    outer loop
      vertex 0 3.67696 3.5
      vertex 0 4 0
      vertex 0 3.39411 3.5
    endloop
  endfacet
  facet normal -1 0 0
    outer loop
      vertex 0 3.39411 3.5
      vertex 0 1.83848 4
      vertex 0 3.39411 4
    endloop
  endfacet
  facet normal -1 0 0
    outer loop
      vertex 0 4 0
      vertex 0 1.83848 4
      vertex 0 3.39411 3.5
    endloop
  endfacet
  facet normal -1 0 0
    outer loop
      vertex 0 19 0
      vertex 0 7 0
      vertex 0 19 2
    endloop
  endfacet
  facet normal -1 0 0
    outer loop
      vertex 0 4 0
      vertex 0 3.67696 3.5
      vertex 0 3.67696 4
    endloop
  endfacet
  facet normal -1 0 -0
    outer loop
      vertex 0 4 2
      vertex 0 3.67696 4
      vertex 0 5.23259 4
    endloop
  endfacet
  facet normal -1 0 -0
    outer loop
      vertex 0 5.51543 3.5
      vertex 0 5.51543 4
      vertex 0 7.07107 4
    endloop
  endfacet
  facet normal -1 0 -0
    outer loop
      vertex 0 7.35391 3.5
      vertex 0 7.35391 4
      vertex 0 8.90955 4
    endloop
  endfacet
  facet normal -1 0 -0
    outer loop
      vertex 0 9.19239 3.5
      vertex 0 9.19239 4
      vertex 0 10.748 4
    endloop
  endfacet
  facet normal -1 0 0
    outer loop
      vertex 0 4 2
      vertex 0 5.23259 4
      vertex 0 5.23259 3.5
    endloop
  endfacet
  facet normal -1 0 0
    outer loop
      vertex 0 4 2
      vertex 0 5.23259 3.5
      vertex 0 5.51543 3.5
    endloop
  endfacet
  facet normal -1 0 0
    outer loop
      vertex 0 4 2
      vertex 0 5.51543 3.5
      vertex 0 7.07107 4
    endloop
  endfacet
  facet normal -1 0 -0
    outer loop
      vertex 0 11.0309 3.5
      vertex 0 11.0309 4
      vertex 0 12.5865 4
    endloop
  endfacet
  facet normal -1 0 0
    outer loop
      vertex 0 4 2
      vertex 0 7.07107 4
      vertex 0 7.07107 3.5
    endloop
  endfacet
  facet normal -1 0 0
    outer loop
      vertex 0 4 2
      vertex 0 7.07107 3.5
      vertex 0 7.35391 3.5
    endloop
  endfacet
  facet normal -1 0 0
    outer loop
      vertex 0 4 2
      vertex 0 7.35391 3.5
      vertex 0 8.90955 4
    endloop
  endfacet
  facet normal -1 0 -0
    outer loop
      vertex 0 12.8693 3.5
      vertex 0 12.8693 4
      vertex 0 14.425 4
    endloop
  endfacet
  facet normal -1 0 0
    outer loop
      vertex 0 4 2
      vertex 0 8.90955 4
      vertex 0 8.90955 3.5
    endloop
  endfacet
  facet normal -1 0 0
    outer loop
      vertex 0 4 2
      vertex 0 8.90955 3.5
      vertex 0 9.19239 3.5
    endloop
  endfacet
  facet normal -1 -0 0
    outer loop
      vertex 0 4 2
      vertex 0 9.19239 3.5
      vertex 0 7 2
    endloop
  endfacet
  facet normal -1 0 -0
    outer loop
      vertex 0 14.7078 3.5
      vertex 0 14.7078 4
      vertex 0 16.2635 4
    endloop
  endfacet
  facet normal -1 0 -0
    outer loop
      vertex 0 16.5463 3.5
      vertex 0 16.5463 4
      vertex 0 18.1019 4
    endloop
  endfacet
  facet normal -1 -0 0
    outer loop
      vertex 0 16.5463 3.5
      vertex 0 18.1019 4
      vertex 0 18.1019 3.5
    endloop
  endfacet
  facet normal -1 0 -0
    outer loop
      vertex 0 18.3848 3.5
      vertex 0 18.3848 4
      vertex 0 19.9404 4
    endloop
  endfacet
  facet normal -1 -0 0
    outer loop
      vertex 0 18.3848 3.5
      vertex 0 19.9404 4
      vertex 0 19.9404 3.5
    endloop
  endfacet
  facet normal -1 0 -0
    outer loop
      vertex 0 20.2233 3.5
      vertex 0 20.2233 4
      vertex 0 21.7789 4
    endloop
  endfacet
  facet normal -1 -0 0
    outer loop
      vertex 0 20.2233 3.5
      vertex 0 21.7789 4
      vertex 0 21.7789 3.5
    endloop
  endfacet
  facet normal -1 0 -0
    outer loop
      vertex 0 22.0617 3.5
      vertex 0 22.0617 4
      vertex 0 23.6174 4
    endloop
  endfacet
  facet normal -1 -0 0
    outer loop
      vertex 0 22.0617 3.5
      vertex 0 23.6174 4
      vertex 0 23.6174 3.5
    endloop
  endfacet
  facet normal -1 0 -0
    outer loop
      vertex 0 23.9002 3.5
      vertex 0 23.9002 4
      vertex 0 25.4558 4
    endloop
  endfacet
  facet normal -1 -0 0
    outer loop
      vertex 0 23.9002 3.5
      vertex 0 25.4558 4
      vertex 0 25.4558 3.5
    endloop
  endfacet
  facet normal -1 0 -0
    outer loop
      vertex 0 25.7387 3.5
      vertex 0 25.7387 4
      vertex 0 26 4
    endloop
  endfacet
  facet normal -1 -0 0
    outer loop
      vertex 0 25.7387 3.5
      vertex 0 26 4
      vertex 0 26 0
    endloop
  endfacet
  facet normal -1 0 0
    outer loop
      vertex 0 25.7387 3.5
      vertex 0 26 0
      vertex 0 22 0
    endloop
  endfacet
  facet normal -1 0 0
    outer loop
      vertex 0 25.7387 3.5
      vertex 0 22 0
      vertex 0 22 2
    endloop
  endfacet
  facet normal -1 0 0
    outer loop
      vertex 0 7 2
      vertex 0 11.0309 3.5
      vertex 0 12.5865 4
    endloop
  endfacet
  facet normal -1 0 0
    outer loop
      vertex 0 25.7387 3.5
      vertex 0 22 2
      vertex 0 19 2
    endloop
  endfacet
  facet normal -1 0 0
    outer loop
      vertex 0 7 2
      vertex 0 10.748 4
      vertex 0 10.748 3.5
    endloop
  endfacet
  facet normal -1 0 0
    outer loop
      vertex 0 7 2
      vertex 0 10.748 3.5
      vertex 0 11.0309 3.5
    endloop
  endfacet
  facet normal -1 -0 0
    outer loop
      vertex 0 9.19239 3.5
      vertex 0 10.748 4
      vertex 0 7 2
    endloop
  endfacet
  facet normal -1 0 0
    outer loop
      vertex 0 4 0
      vertex 0 3.67696 4
      vertex 0 4 2
    endloop
  endfacet
  facet normal -1 0 0
    outer loop
      vertex 0 1.83848 4
      vertex 0 4 0
      vertex 0 1.83848 3.5
    endloop
  endfacet
  facet normal -1 0 0
    outer loop
      vertex 0 7 2
      vertex 0 12.5865 4
      vertex 0 12.5865 3.5
    endloop
  endfacet
  facet normal -1 0 0
    outer loop
      vertex 0 7 2
      vertex 0 12.5865 3.5
      vertex 0 12.8693 3.5
    endloop
  endfacet
  facet normal -1 -0 0
    outer loop
      vertex 0 12.8693 3.5
      vertex 0 14.425 4
      vertex 0 14.425 3.5
    endloop
  endfacet
  facet normal -1 0 0
    outer loop
      vertex 0 7 2
      vertex 0 12.8693 3.5
      vertex 0 14.425 3.5
    endloop
  endfacet
  facet normal -1 0 0
    outer loop
      vertex 0 7 2
      vertex 0 14.425 3.5
      vertex 0 14.7078 3.5
    endloop
  endfacet
  facet normal -1 -0 0
    outer loop
      vertex 0 14.7078 3.5
      vertex 0 16.2635 4
      vertex 0 16.2635 3.5
    endloop
  endfacet
  facet normal -1 0 0
    outer loop
      vertex 0 7 2
      vertex 0 14.7078 3.5
      vertex 0 16.2635 3.5
    endloop
  endfacet
  facet normal -1 0 0
    outer loop
      vertex 0 7 2
      vertex 0 16.2635 3.5
      vertex 0 16.5463 3.5
    endloop
  endfacet
  facet normal -1 0 0
    outer loop
      vertex 0 7 2
      vertex 0 16.5463 3.5
      vertex 0 18.1019 3.5
    endloop
  endfacet
  facet normal -1 0 0
    outer loop
      vertex 0 7 2
      vertex 0 18.1019 3.5
      vertex 0 18.3848 3.5
    endloop
  endfacet
  facet normal -1 0 0
    outer loop
      vertex 0 7 2
      vertex 0 18.3848 3.5
      vertex 0 19.9404 3.5
    endloop
  endfacet
  facet normal -1 0 0
    outer loop
      vertex 0 7 2
      vertex 0 19.9404 3.5
      vertex 0 20.2233 3.5
    endloop
  endfacet
  facet normal -1 0 0
    outer loop
      vertex 0 7 2
      vertex 0 20.2233 3.5
      vertex 0 21.7789 3.5
    endloop
  endfacet
  facet normal -1 0 0
    outer loop
      vertex 0 7 2
      vertex 0 21.7789 3.5
      vertex 0 22.0617 3.5
    endloop
  endfacet
  facet normal -1 0 0
    outer loop
      vertex 0 7 2
      vertex 0 22.0617 3.5
      vertex 0 23.6174 3.5
    endloop
  endfacet
  facet normal -1 0 0
    outer loop
      vertex 0 7 2
      vertex 0 23.6174 3.5
      vertex 0 23.9002 3.5
    endloop
  endfacet
  facet normal -1 0 0
    outer loop
      vertex 0 7 2
      vertex 0 23.9002 3.5
      vertex 0 25.4558 3.5
    endloop
  endfacet
  facet normal -1 0 0
    outer loop
      vertex 0 7 2
      vertex 0 25.4558 3.5
      vertex 0 25.7387 3.5
    endloop
  endfacet
  facet normal -1 -0 0
    outer loop
      vertex 0 7 2
      vertex 0 25.7387 3.5
      vertex 0 19 2
    endloop
  endfacet
  facet normal -1 0 0
    outer loop
      vertex 0 7 2
      vertex 0 19 2
      vertex 0 7 0
    endloop
  endfacet
  facet normal 0 -1 0
    outer loop
      vertex 0 0 4
      vertex 0 0 0
      vertex 4 0 0
    endloop
  endfacet
  facet normal 0 -1 0
    outer loop
      vertex 1.55563 0 3.5
      vertex 0 0 4
      vertex 4 0 2
    endloop
  endfacet
  facet normal 0 -1 0
    outer loop
      vertex 4 0 2
      vertex 0 0 4
      vertex 4 0 0
    endloop
  endfacet
  facet normal 0 -1 0
    outer loop
      vertex 1.55563 0 3.5
      vertex 1.55563 0 4
      vertex 0 0 4
    endloop
  endfacet
  facet normal 0 -1 0
    outer loop
      vertex 19 0 0
      vertex 7 0 2
      vertex 7 0 0
    endloop
  endfacet
  facet normal 0 -1 0
    outer loop
      vertex 1.83848 0 3.5
      vertex 1.55563 0 3.5
      vertex 7 0 2
    endloop
  endfacet
  facet normal 0 -1 0
    outer loop
      vertex 26 0 0
      vertex 22 0 2
      vertex 22 0 0
    endloop
  endfacet
  facet normal 0 -1 0
    outer loop
      vertex 25.7387 0 3.5
      vertex 22 0 2
      vertex 26 0 0
    endloop
  endfacet
  facet normal 0 -1 0
    outer loop
      vertex 14.7078 0 4
      vertex 14.7078 0 3.5
      vertex 16.2635 0 3.5
    endloop
  endfacet
  facet normal 0 -1 0
    outer loop
      vertex 26 0 4
      vertex 25.7387 0 3.5
      vertex 26 0 0
    endloop
  endfacet
  facet normal 0 -1 0
    outer loop
      vertex 25.4558 0 3.5
      vertex 22 0 2
      vertex 25.7387 0 3.5
    endloop
  endfacet
  facet normal 0 -1 0
    outer loop
      vertex 25.4558 0 3.5
      vertex 25.4558 0 4
      vertex 22 0 2
    endloop
  endfacet
  facet normal 0 -1 0
    outer loop
      vertex 22.0617 0 3.5
      vertex 21.7789 0 3.5
      vertex 22 0 2
    endloop
  endfacet
  facet normal 0 -1 0
    outer loop
      vertex 25.4558 0 4
      vertex 23.9002 0 3.5
      vertex 22 0 2
    endloop
  endfacet
  facet normal 0 -1 0
    outer loop
      vertex 25.4558 0 4
      vertex 23.9002 0 4
      vertex 23.9002 0 3.5
    endloop
  endfacet
  facet normal 0 -1 0
    outer loop
      vertex 23.9002 0 3.5
      vertex 23.6174 0 3.5
      vertex 22 0 2
    endloop
  endfacet
  facet normal 0 -1 0
    outer loop
      vertex 23.6174 0 4
      vertex 22.0617 0 3.5
      vertex 22 0 2
    endloop
  endfacet
  facet normal 0 -1 0
    outer loop
      vertex 23.6174 0 4
      vertex 22.0617 0 4
      vertex 22.0617 0 3.5
    endloop
  endfacet
  facet normal 0 -1 0
    outer loop
      vertex 18.3848 0 4
      vertex 18.3848 0 3.5
      vertex 19.9404 0 3.5
    endloop
  endfacet
  facet normal 0 -1 0
    outer loop
      vertex 5.51543 0 3.5
      vertex 5.23259 0 3.5
      vertex 22 0 2
    endloop
  endfacet
  facet normal 0 -1 0
    outer loop
      vertex 21.7789 0 4
      vertex 20.2233 0 4
      vertex 21.7789 0 3.5
    endloop
  endfacet
  facet normal 0 -1 0
    outer loop
      vertex 21.7789 0 3.5
      vertex 20.2233 0 3.5
      vertex 22 0 2
    endloop
  endfacet
  facet normal 0 -1 0
    outer loop
      vertex 20.2233 0 3.5
      vertex 19.9404 0 3.5
      vertex 22 0 2
    endloop
  endfacet
  facet normal 0 -1 0
    outer loop
      vertex 19.9404 0 3.5
      vertex 19.9404 0 4
      vertex 18.3848 0 4
    endloop
  endfacet
  facet normal 0 -1 0
    outer loop
      vertex 19.9404 0 3.5
      vertex 18.3848 0 3.5
      vertex 22 0 2
    endloop
  endfacet
  facet normal 0 -1 0
    outer loop
      vertex 18.3848 0 3.5
      vertex 18.1019 0 3.5
      vertex 22 0 2
    endloop
  endfacet
  facet normal 0 -1 0
    outer loop
      vertex 18.1019 0 3.5
      vertex 18.1019 0 4
      vertex 16.5463 0 4
    endloop
  endfacet
  facet normal 0 -1 0
    outer loop
      vertex 18.1019 0 3.5
      vertex 16.5463 0 3.5
      vertex 22 0 2
    endloop
  endfacet
  facet normal 0 -1 0
    outer loop
      vertex 16.5463 0 3.5
      vertex 16.2635 0 3.5
      vertex 22 0 2
    endloop
  endfacet
  facet normal 0 -1 0
    outer loop
      vertex 16.2635 0 3.5
      vertex 16.2635 0 4
      vertex 14.7078 0 4
    endloop
  endfacet
  facet normal 0 -1 0
    outer loop
      vertex 16.2635 0 3.5
      vertex 14.7078 0 3.5
      vertex 22 0 2
    endloop
  endfacet
  facet normal 0 -1 0
    outer loop
      vertex 14.7078 0 3.5
      vertex 14.425 0 3.5
      vertex 22 0 2
    endloop
  endfacet
  facet normal 0 -1 0
    outer loop
      vertex 14.425 0 3.5
      vertex 14.425 0 4
      vertex 12.8693 0 4
    endloop
  endfacet
  facet normal 0 -1 0
    outer loop
      vertex 14.425 0 3.5
      vertex 12.8693 0 3.5
      vertex 22 0 2
    endloop
  endfacet
  facet normal 0 -1 0
    outer loop
      vertex 12.8693 0 3.5
      vertex 12.5865 0 3.5
      vertex 22 0 2
    endloop
  endfacet
  facet normal 0 -1 0
    outer loop
      vertex 12.5865 0 3.5
      vertex 12.5865 0 4
      vertex 11.0309 0 4
    endloop
  endfacet
  facet normal 0 -1 0
    outer loop
      vertex 12.5865 0 3.5
      vertex 11.0309 0 3.5
      vertex 22 0 2
    endloop
  endfacet
  facet normal 0 -1 0
    outer loop
      vertex 11.0309 0 3.5
      vertex 10.748 0 3.5
      vertex 22 0 2
    endloop
  endfacet
  facet normal 0 -1 0
    outer loop
      vertex 10.748 0 3.5
      vertex 10.748 0 4
      vertex 9.19239 0 4
    endloop
  endfacet
  facet normal 0 -1 0
    outer loop
      vertex 10.748 0 3.5
      vertex 9.19239 0 3.5
      vertex 22 0 2
    endloop
  endfacet
  facet normal 0 -1 0
    outer loop
      vertex 9.19239 0 3.5
      vertex 8.90955 0 3.5
      vertex 22 0 2
    endloop
  endfacet
  facet normal 0 -1 0
    outer loop
      vertex 8.90955 0 3.5
      vertex 8.90955 0 4
      vertex 7.35391 0 4
    endloop
  endfacet
  facet normal 0 -1 0
    outer loop
      vertex 8.90955 0 3.5
      vertex 7.35391 0 3.5
      vertex 22 0 2
    endloop
  endfacet
  facet normal 0 -1 0
    outer loop
      vertex 7.35391 0 3.5
      vertex 7.07107 0 3.5
      vertex 22 0 2
    endloop
  endfacet
  facet normal 0 -1 0
    outer loop
      vertex 7.07107 0 3.5
      vertex 7.07107 0 4
      vertex 5.51543 0 4
    endloop
  endfacet
  facet normal 0 -1 0
    outer loop
      vertex 7.07107 0 3.5
      vertex 5.51543 0 3.5
      vertex 22 0 2
    endloop
  endfacet
  facet normal 0 -1 0
    outer loop
      vertex 3.67696 0 4
      vertex 3.67696 0 3.5
      vertex 5.23259 0 3.5
    endloop
  endfacet
  facet normal 0 -1 0
    outer loop
      vertex 22 0 2
      vertex 5.23259 0 3.5
      vertex 19 0 2
    endloop
  endfacet
  facet normal 0 -1 0
    outer loop
      vertex 5.23259 0 3.5
      vertex 5.23259 0 4
      vertex 3.67696 0 4
    endloop
  endfacet
  facet normal 0 -1 0
    outer loop
      vertex 19 0 2
      vertex 3.67696 0 3.5
      vertex 19 0 0
    endloop
  endfacet
  facet normal 0 -1 0
    outer loop
      vertex 3.67696 0 3.5
      vertex 3.39411 0 3.5
      vertex 19 0 0
    endloop
  endfacet
  facet normal 0 -1 0
    outer loop
      vertex 1.83848 0 4
      vertex 1.83848 0 3.5
      vertex 3.39411 0 3.5
    endloop
  endfacet
  facet normal 0 -1 0
    outer loop
      vertex 19 0 0
      vertex 1.83848 0 3.5
      vertex 7 0 2
    endloop
  endfacet
  facet normal 0 -1 0
    outer loop
      vertex 7 0 2
      vertex 1.55563 0 3.5
      vertex 4 0 2
    endloop
  endfacet
  facet normal 0 -1 0
    outer loop
      vertex 3.39411 0 3.5
      vertex 3.39411 0 4
      vertex 1.83848 0 4
    endloop
  endfacet
  facet normal 0 -1 0
    outer loop
      vertex 23.6174 0 3.5
      vertex 23.6174 0 4
      vertex 22 0 2
    endloop
  endfacet
  facet normal 0 -1 0
    outer loop
      vertex 25.7387 0 4
      vertex 25.7387 0 3.5
      vertex 26 0 4
    endloop
  endfacet
  facet normal 0 -1 0
    outer loop
      vertex 11.0309 0 4
      vertex 11.0309 0 3.5
      vertex 12.5865 0 3.5
    endloop
  endfacet
  facet normal 0 -1 0
    outer loop
      vertex 7.35391 0 4
      vertex 7.35391 0 3.5
      vertex 8.90955 0 3.5
    endloop
  endfacet
  facet normal 0 -1 0
    outer loop
      vertex 5.23259 0 3.5
      vertex 3.67696 0 3.5
      vertex 19 0 2
    endloop
  endfacet
  facet normal 0 -1 0
    outer loop
      vertex 3.39411 0 3.5
      vertex 1.83848 0 3.5
      vertex 19 0 0
    endloop
  endfacet
  facet normal 0 -1 0
    outer loop
      vertex 5.51543 0 4
      vertex 5.51543 0 3.5
      vertex 7.07107 0 3.5
    endloop
  endfacet
  facet normal 0 -1 0
    outer loop
      vertex 9.19239 0 4
      vertex 9.19239 0 3.5
      vertex 10.748 0 3.5
    endloop
  endfacet
  facet normal 0 -1 0
    outer loop
      vertex 12.8693 0 4
      vertex 12.8693 0 3.5
      vertex 14.425 0 3.5
    endloop
  endfacet
  facet normal 0 -1 0
    outer loop
      vertex 16.5463 0 4
      vertex 16.5463 0 3.5
      vertex 18.1019 0 3.5
    endloop
  endfacet
  facet normal 0 -1 0
    outer loop
      vertex 20.2233 0 4
      vertex 20.2233 0 3.5
      vertex 21.7789 0 3.5
    endloop
  endfacet
  facet normal -0 -0 -1
    outer loop
      vertex 0 0 0
      vertex 0 4 0
      vertex 4 0 0
    endloop
  endfacet
  facet normal 0 0 -1
    outer loop
      vertex 4 0 0
      vertex 0 4 0
      vertex 2.49 4 0
    endloop
  endfacet
  facet normal 0 -0 -1
    outer loop
      vertex 4 2.49 0
      vertex 2.49 4 0
      vertex 6.99 8.5 0
    endloop
  endfacet
  facet normal 0 0 -1
    outer loop
      vertex 2.49 22 0
      vertex 0 22 0
      vertex 0 26 0
    endloop
  endfacet
  facet normal -0 -0 -1
    outer loop
      vertex 2.49 22 0
      vertex 0 26 0
      vertex 6.99 17.5 0
    endloop
  endfacet
  facet normal 0 -0 -1
    outer loop
      vertex 4 23.51 0
      vertex 0 26 0
      vertex 4 26 0
    endloop
  endfacet
  facet normal 0 0 -1
    outer loop
      vertex 6.99 17.5 0
      vertex 0 26 0
      vertex 4 23.51 0
    endloop
  endfacet
  facet normal 0 0 -1
    outer loop
      vertex 8.5 6.99 0
      vertex 13 10.75 0
      vertex 14.591 11.409 0
    endloop
  endfacet
  facet normal -0 0 -1
    outer loop
      vertex 6.99 17.5 0
      vertex 8.5 19.01 0
      vertex 6.99 8.5 0
    endloop
  endfacet
  facet normal 0 -0 -1
    outer loop
      vertex 13 15.25 0
      vertex 8.5 19.01 0
      vertex 17.5 19.01 0
    endloop
  endfacet
  facet normal 0 -0 -1
    outer loop
      vertex 22 23.51 0
      vertex 22 26 0
      vertex 26 26 0
    endloop
  endfacet
  facet normal -0 0 -1
    outer loop
      vertex 23.51 22 0
      vertex 26 26 0
      vertex 26 22 0
    endloop
  endfacet
  facet normal 0 0 -1
    outer loop
      vertex 19.01 17.5 0
      vertex 26 26 0
      vertex 23.51 22 0
    endloop
  endfacet
  facet normal 0 0 -1
    outer loop
      vertex 23.51 4 0
      vertex 26 4 0
      vertex 22 2.49 0
    endloop
  endfacet
  facet normal -0 0 -1
    outer loop
      vertex 17.5 6.99 0
      vertex 19.01 8.5 0
      vertex 23.51 4 0
    endloop
  endfacet
  facet normal 0 0 -1
    outer loop
      vertex 14.591 14.591 0
      vertex 26 26 0
      vertex 19.01 17.5 0
    endloop
  endfacet
  facet normal -0 0 -1
    outer loop
      vertex 22 0 0
      vertex 26 4 0
      vertex 26 0 0
    endloop
  endfacet
  facet normal -0 0 -1
    outer loop
      vertex 22 2.49 0
      vertex 26 4 0
      vertex 22 0 0
    endloop
  endfacet
  facet normal 0 0 -1
    outer loop
      vertex 14.591 14.591 0
      vertex 22 23.51 0
      vertex 26 26 0
    endloop
  endfacet
  facet normal -0 0 -1
    outer loop
      vertex 14.591 14.591 0
      vertex 19.01 17.5 0
      vertex 15.25 13 0
    endloop
  endfacet
  facet normal 0 0 -1
    outer loop
      vertex 4 2.49 0
      vertex 6.99 8.5 0
      vertex 8.5 6.99 0
    endloop
  endfacet
  facet normal 0 0 -1
    outer loop
      vertex 4 0 0
      vertex 2.49 4 0
      vertex 4 2.49 0
    endloop
  endfacet
  facet normal 0 0 -1
    outer loop
      vertex 11.409 11.409 0
      vertex 6.99 8.5 0
      vertex 10.75 13 0
    endloop
  endfacet
  facet normal 0 0 -1
    outer loop
      vertex 6.99 8.5 0
      vertex 8.5 19.01 0
      vertex 10.75 13 0
    endloop
  endfacet
  facet normal 0 0 -1
    outer loop
      vertex 13 10.75 0
      vertex 8.5 6.99 0
      vertex 11.409 11.409 0
    endloop
  endfacet
  facet normal -0 0 -1
    outer loop
      vertex 6.99 8.5 0
      vertex 11.409 11.409 0
      vertex 8.5 6.99 0
    endloop
  endfacet
  facet normal -0 0 -1
    outer loop
      vertex 13 15.25 0
      vertex 17.5 19.01 0
      vertex 14.591 14.591 0
    endloop
  endfacet
  facet normal 0 0 -1
    outer loop
      vertex 17.5 6.99 0
      vertex 23.51 4 0
      vertex 22 2.49 0
    endloop
  endfacet
  facet normal -0 0 -1
    outer loop
      vertex 17.5 19.01 0
      vertex 22 23.51 0
      vertex 14.591 14.591 0
    endloop
  endfacet
  facet normal 0 -0 -1
    outer loop
      vertex 11.409 14.591 0
      vertex 8.5 19.01 0
      vertex 13 15.25 0
    endloop
  endfacet
  facet normal 0 -0 -1
    outer loop
      vertex 10.75 13 0
      vertex 8.5 19.01 0
      vertex 11.409 14.591 0
    endloop
  endfacet
  facet normal 0 0 -1
    outer loop
      vertex 8.5 19.01 0
      vertex 6.99 17.5 0
      vertex 4 23.51 0
    endloop
  endfacet
  facet normal 0 0 -1
    outer loop
      vertex 19.01 8.5 0
      vertex 14.591 11.409 0
      vertex 15.25 13 0
    endloop
  endfacet
  facet normal 0 0 -1
    outer loop
      vertex 19.01 8.5 0
      vertex 15.25 13 0
      vertex 19.01 17.5 0
    endloop
  endfacet
  facet normal 0 0 -1
    outer loop
      vertex 8.5 6.99 0
      vertex 14.591 11.409 0
      vertex 19.01 8.5 0
    endloop
  endfacet
  facet normal -0 0 -1
    outer loop
      vertex 8.5 6.99 0
      vertex 19.01 8.5 0
      vertex 17.5 6.99 0
    endloop
  endfacet
  facet normal 0 1 0
    outer loop
      vertex 2.49 4 2
      vertex 2.49 4 0
      vertex 0 4 2
    endloop
  endfacet
  facet normal 0 1 -0
    outer loop
      vertex 0 4 2
      vertex 2.49 4 0
      vertex 0 4 0
    endloop
  endfacet
  facet normal 0 0 -1
    outer loop
      vertex 2.49 22 2
      vertex 3.99 16.2574 2
      vertex 0 22 2
    endloop
  endfacet
  facet normal 0 0 -1
    outer loop
      vertex 0 22 2
      vertex 1.24736 19 2
      vertex 0 19 2
    endloop
  endfacet
  facet normal 0 0 -1
    outer loop
      vertex 3.99 16.2574 2
      vertex 1.24736 19 2
      vertex 0 22 2
    endloop
  endfacet
  facet normal 0 0 -1
    outer loop
      vertex 6.99 17.5 2
      vertex 3.99 16.2574 2
      vertex 2.49 22 2
    endloop
  endfacet
  facet normal 0 -0 -1
    outer loop
      vertex 3.99 9.74264 2
      vertex 3.99 16.2574 2
      vertex 6.99 17.5 2
    endloop
  endfacet
  facet normal 0 0 -1
    outer loop
      vertex 6.99 8.5 2
      vertex 3.99 9.74264 2
      vertex 6.99 17.5 2
    endloop
  endfacet
  facet normal 0 0 -1
    outer loop
      vertex 1.24736 7 2
      vertex 3.99 9.74264 2
      vertex 6.99 8.5 2
    endloop
  endfacet
  facet normal -0 0 -1
    outer loop
      vertex 1.24736 7 2
      vertex 6.99 8.5 2
      vertex 2.49 4 2
    endloop
  endfacet
  facet normal 0 0 -1
    outer loop
      vertex 1.24736 7 2
      vertex 2.49 4 2
      vertex 0 7 2
    endloop
  endfacet
  facet normal 0 0 -1
    outer loop
      vertex 2.49 4 2
      vertex 0 4 2
      vertex 0 7 2
    endloop
  endfacet
  facet normal 0 -1 0
    outer loop
      vertex 1.24736 7 0
      vertex 1.24736 7 2
      vertex 0 7 2
    endloop
  endfacet
  facet normal -0 -1 -0
    outer loop
      vertex 0 7 0
      vertex 1.24736 7 0
      vertex 0 7 2
    endloop
  endfacet
  facet normal -0 -0 -1
    outer loop
      vertex 0 7 0
      vertex 0 19 0
      vertex 1.24736 7 0
    endloop
  endfacet
  facet normal 0 -0 -1
    outer loop
      vertex 1.24736 7 0
      vertex 0 19 0
      vertex 1.24736 19 0
    endloop
  endfacet
  facet normal 0 0 -1
    outer loop
      vertex 1.24736 7 0
      vertex 1.24736 19 0
      vertex 3.99 16.2574 0
    endloop
  endfacet
  facet normal 0 0 -1
    outer loop
      vertex 1.24736 7 0
      vertex 3.99 16.2574 0
      vertex 3.99 9.74264 0
    endloop
  endfacet
  facet normal 0 1 0
    outer loop
      vertex 1.24736 19 2
      vertex 1.24736 19 0
      vertex 0 19 2
    endloop
  endfacet
  facet normal 0 1 -0
    outer loop
      vertex 0 19 2
      vertex 1.24736 19 0
      vertex 0 19 0
    endloop
  endfacet
  facet normal 0 -1 0
    outer loop
      vertex 2.49 22 0
      vertex 2.49 22 2
      vertex 0 22 2
    endloop
  endfacet
  facet normal -0 -1 -0
    outer loop
      vertex 0 22 0
      vertex 2.49 22 0
      vertex 0 22 2
    endloop
  endfacet
  facet normal 0 1 0
    outer loop
      vertex 0 26 0
      vertex 0 26 4
      vertex 4 26 0
    endloop
  endfacet
  facet normal 0 1 0
    outer loop
      vertex 1.29432 26 3.5
      vertex 0 26 4
      vertex 1.29432 26 4
    endloop
  endfacet
  facet normal 0 1 0
    outer loop
      vertex 4 26 0
      vertex 0 26 4
      vertex 1.29432 26 3.5
    endloop
  endfacet
  facet normal 0 1 0
    outer loop
      vertex 4 26 0
      vertex 1.29432 26 3.5
      vertex 1.57716 26 3.5
    endloop
  endfacet
  facet normal 0 1 -0
    outer loop
      vertex 3.41564 26 3.5
      vertex 4 26 0
      vertex 3.1328 26 3.5
    endloop
  endfacet
  facet normal 0 1 0
    outer loop
      vertex 3.1328 26 3.5
      vertex 1.57716 26 4
      vertex 3.1328 26 4
    endloop
  endfacet
  facet normal 0 1 0
    outer loop
      vertex 4 26 0
      vertex 1.57716 26 4
      vertex 3.1328 26 3.5
    endloop
  endfacet
  facet normal -0 1 0
    outer loop
      vertex 19 26 0
      vertex 7 26 0
      vertex 19 26 2
    endloop
  endfacet
  facet normal 0 1 0
    outer loop
      vertex 4 26 0
      vertex 3.41564 26 3.5
      vertex 3.41564 26 4
    endloop
  endfacet
  facet normal 0 1 0
    outer loop
      vertex 4 26 2
      vertex 3.41564 26 4
      vertex 4.97128 26 4
    endloop
  endfacet
  facet normal 0 1 0
    outer loop
      vertex 5.25412 26 3.5
      vertex 5.25412 26 4
      vertex 6.80975 26 4
    endloop
  endfacet
  facet normal 0 1 0
    outer loop
      vertex 7.0926 26 3.5
      vertex 7.0926 26 4
      vertex 8.64823 26 4
    endloop
  endfacet
  facet normal 0 1 0
    outer loop
      vertex 8.93107 26 3.5
      vertex 8.93107 26 4
      vertex 10.4867 26 4
    endloop
  endfacet
  facet normal 0 1 0
    outer loop
      vertex 4 26 2
      vertex 4.97128 26 4
      vertex 4.97128 26 3.5
    endloop
  endfacet
  facet normal 0 1 0
    outer loop
      vertex 4 26 2
      vertex 4.97128 26 3.5
      vertex 5.25412 26 3.5
    endloop
  endfacet
  facet normal 0 1 0
    outer loop
      vertex 4 26 2
      vertex 5.25412 26 3.5
      vertex 6.80975 26 4
    endloop
  endfacet
  facet normal 0 1 0
    outer loop
      vertex 10.7696 26 3.5
      vertex 10.7696 26 4
      vertex 12.3252 26 4
    endloop
  endfacet
  facet normal 0 1 0
    outer loop
      vertex 4 26 2
      vertex 6.80975 26 4
      vertex 6.80975 26 3.5
    endloop
  endfacet
  facet normal 0 1 0
    outer loop
      vertex 4 26 2
      vertex 6.80975 26 3.5
      vertex 7.0926 26 3.5
    endloop
  endfacet
  facet normal 0 1 0
    outer loop
      vertex 4 26 2
      vertex 7.0926 26 3.5
      vertex 8.64823 26 4
    endloop
  endfacet
  facet normal 0 1 0
    outer loop
      vertex 12.608 26 3.5
      vertex 12.608 26 4
      vertex 14.1637 26 4
    endloop
  endfacet
  facet normal 0 1 0
    outer loop
      vertex 4 26 2
      vertex 8.64823 26 4
      vertex 8.64823 26 3.5
    endloop
  endfacet
  facet normal 0 1 0
    outer loop
      vertex 4 26 2
      vertex 8.64823 26 3.5
      vertex 8.93107 26 3.5
    endloop
  endfacet
  facet normal 0 1 0
    outer loop
      vertex 4 26 2
      vertex 8.93107 26 3.5
      vertex 7 26 2
    endloop
  endfacet
  facet normal 0 1 0
    outer loop
      vertex 14.4465 26 3.5
      vertex 14.4465 26 4
      vertex 16.0021 26 4
    endloop
  endfacet
  facet normal 0 1 0
    outer loop
      vertex 16.285 26 3.5
      vertex 16.285 26 4
      vertex 17.8406 26 4
    endloop
  endfacet
  facet normal 0 1 0
    outer loop
      vertex 16.285 26 3.5
      vertex 17.8406 26 4
      vertex 17.8406 26 3.5
    endloop
  endfacet
  facet normal 0 1 0
    outer loop
      vertex 18.1235 26 3.5
      vertex 18.1235 26 4
      vertex 19.6791 26 4
    endloop
  endfacet
  facet normal 0 1 0
    outer loop
      vertex 18.1235 26 3.5
      vertex 19.6791 26 4
      vertex 19.6791 26 3.5
    endloop
  endfacet
  facet normal 0 1 0
    outer loop
      vertex 19.9619 26 3.5
      vertex 19.9619 26 4
      vertex 21.5176 26 4
    endloop
  endfacet
  facet normal 0 1 0
    outer loop
      vertex 19.9619 26 3.5
      vertex 21.5176 26 4
      vertex 21.5176 26 3.5
    endloop
  endfacet
  facet normal 0 1 0
    outer loop
      vertex 21.8004 26 3.5
      vertex 21.8004 26 4
      vertex 23.3561 26 4
    endloop
  endfacet
  facet normal 0 1 0
    outer loop
      vertex 21.8004 26 3.5
      vertex 23.3561 26 4
      vertex 23.3561 26 3.5
    endloop
  endfacet
  facet normal 0 1 0
    outer loop
      vertex 23.6389 26 3.5
      vertex 23.6389 26 4
      vertex 25.1945 26 4
    endloop
  endfacet
  facet normal 0 1 0
    outer loop
      vertex 23.6389 26 3.5
      vertex 25.1945 26 4
      vertex 25.1945 26 3.5
    endloop
  endfacet
  facet normal 0 1 0
    outer loop
      vertex 25.4774 26 3.5
      vertex 25.4774 26 4
      vertex 26 26 4
    endloop
  endfacet
  facet normal 0 1 0
    outer loop
      vertex 25.4774 26 3.5
      vertex 26 26 4
      vertex 26 26 0
    endloop
  endfacet
  facet normal 0 1 -0
    outer loop
      vertex 25.4774 26 3.5
      vertex 26 26 0
      vertex 22 26 0
    endloop
  endfacet
  facet normal 0 1 0
    outer loop
      vertex 25.4774 26 3.5
      vertex 22 26 0
      vertex 22 26 2
    endloop
  endfacet
  facet normal 0 1 0
    outer loop
      vertex 7 26 2
      vertex 10.7696 26 3.5
      vertex 12.3252 26 4
    endloop
  endfacet
  facet normal 0 1 0
    outer loop
      vertex 25.4774 26 3.5
      vertex 22 26 2
      vertex 19 26 2
    endloop
  endfacet
  facet normal 0 1 0
    outer loop
      vertex 7 26 2
      vertex 10.4867 26 4
      vertex 10.4867 26 3.5
    endloop
  endfacet
  facet normal 0 1 0
    outer loop
      vertex 7 26 2
      vertex 10.4867 26 3.5
      vertex 10.7696 26 3.5
    endloop
  endfacet
  facet normal 0 1 -0
    outer loop
      vertex 8.93107 26 3.5
      vertex 10.4867 26 4
      vertex 7 26 2
    endloop
  endfacet
  facet normal 0 1 0
    outer loop
      vertex 4 26 0
      vertex 3.41564 26 4
      vertex 4 26 2
    endloop
  endfacet
  facet normal 0 1 -0
    outer loop
      vertex 1.57716 26 4
      vertex 4 26 0
      vertex 1.57716 26 3.5
    endloop
  endfacet
  facet normal 0 1 0
    outer loop
      vertex 7 26 2
      vertex 12.3252 26 4
      vertex 12.3252 26 3.5
    endloop
  endfacet
  facet normal 0 1 0
    outer loop
      vertex 7 26 2
      vertex 12.3252 26 3.5
      vertex 12.608 26 3.5
    endloop
  endfacet
  facet normal 0 1 0
    outer loop
      vertex 12.608 26 3.5
      vertex 14.1637 26 4
      vertex 14.1637 26 3.5
    endloop
  endfacet
  facet normal 0 1 0
    outer loop
      vertex 7 26 2
      vertex 12.608 26 3.5
      vertex 14.1637 26 3.5
    endloop
  endfacet
  facet normal 0 1 0
    outer loop
      vertex 7 26 2
      vertex 14.1637 26 3.5
      vertex 14.4465 26 3.5
    endloop
  endfacet
  facet normal 0 1 0
    outer loop
      vertex 14.4465 26 3.5
      vertex 16.0021 26 4
      vertex 16.0021 26 3.5
    endloop
  endfacet
  facet normal 0 1 0
    outer loop
      vertex 7 26 2
      vertex 14.4465 26 3.5
      vertex 16.0021 26 3.5
    endloop
  endfacet
  facet normal 0 1 0
    outer loop
      vertex 7 26 2
      vertex 16.0021 26 3.5
      vertex 16.285 26 3.5
    endloop
  endfacet
  facet normal 0 1 0
    outer loop
      vertex 7 26 2
      vertex 16.285 26 3.5
      vertex 17.8406 26 3.5
    endloop
  endfacet
  facet normal 0 1 0
    outer loop
      vertex 7 26 2
      vertex 17.8406 26 3.5
      vertex 18.1235 26 3.5
    endloop
  endfacet
  facet normal 0 1 0
    outer loop
      vertex 7 26 2
      vertex 18.1235 26 3.5
      vertex 19.6791 26 3.5
    endloop
  endfacet
  facet normal 0 1 0
    outer loop
      vertex 7 26 2
      vertex 19.6791 26 3.5
      vertex 19.9619 26 3.5
    endloop
  endfacet
  facet normal 0 1 0
    outer loop
      vertex 7 26 2
      vertex 19.9619 26 3.5
      vertex 21.5176 26 3.5
    endloop
  endfacet
  facet normal 0 1 0
    outer loop
      vertex 7 26 2
      vertex 21.5176 26 3.5
      vertex 21.8004 26 3.5
    endloop
  endfacet
  facet normal 0 1 0
    outer loop
      vertex 7 26 2
      vertex 21.8004 26 3.5
      vertex 23.3561 26 3.5
    endloop
  endfacet
  facet normal 0 1 0
    outer loop
      vertex 7 26 2
      vertex 23.3561 26 3.5
      vertex 23.6389 26 3.5
    endloop
  endfacet
  facet normal 0 1 0
    outer loop
      vertex 7 26 2
      vertex 23.6389 26 3.5
      vertex 25.1945 26 3.5
    endloop
  endfacet
  facet normal 0 1 0
    outer loop
      vertex 7 26 2
      vertex 25.1945 26 3.5
      vertex 25.4774 26 3.5
    endloop
  endfacet
  facet normal 0 1 0
    outer loop
      vertex 7 26 2
      vertex 25.4774 26 3.5
      vertex 19 26 2
    endloop
  endfacet
  facet normal 0 1 -0
    outer loop
      vertex 7 26 2
      vertex 19 26 2
      vertex 7 26 0
    endloop
  endfacet
  facet normal 0 -0 1
    outer loop
      vertex 0 26 4
      vertex 0 25.7387 4
      vertex 25.7387 0 4
    endloop
  endfacet
  facet normal -0 0 1
    outer loop
      vertex 26 1.29432 4
      vertex 0 26 4
      vertex 26 0 4
    endloop
  endfacet
  facet normal -0 0 1
    outer loop
      vertex 26 0 4
      vertex 0 26 4
      vertex 25.7387 0 4
    endloop
  endfacet
  facet normal 0 -0 1
    outer loop
      vertex 1.29432 26 4
      vertex 0 26 4
      vertex 26 1.29432 4
    endloop
  endfacet
  facet normal -0.707107 -0.707107 0
    outer loop
      vertex 0 25.7387 4
      vertex 0 25.7387 3.5
      vertex 25.7387 0 3.5
    endloop
  endfacet
  facet normal -0.707107 -0.707107 0
    outer loop
      vertex 25.7387 0 4
      vertex 0 25.7387 4
      vertex 25.7387 0 3.5
    endloop
  endfacet
  facet normal 0 -0 1
    outer loop
      vertex 0 25.7387 3.5
      vertex 0 25.4558 3.5
      vertex 25.4558 0 3.5
    endloop
  endfacet
  facet normal -0 0 1
    outer loop
      vertex 25.7387 0 3.5
      vertex 0 25.7387 3.5
      vertex 25.4558 0 3.5
    endloop
  endfacet
  facet normal 0.707107 0.707107 0
    outer loop
      vertex 0 25.4558 3.5
      vertex 0 25.4558 4
      vertex 25.4558 0 3.5
    endloop
  endfacet
  facet normal 0.707107 0.707107 0
    outer loop
      vertex 25.4558 0 3.5
      vertex 0 25.4558 4
      vertex 25.4558 0 4
    endloop
  endfacet
  facet normal 0 -0 1
    outer loop
      vertex 0 25.4558 4
      vertex 0 23.9002 4
      vertex 23.9002 0 4
    endloop
  endfacet
  facet normal -0 0 1
    outer loop
      vertex 25.4558 0 4
      vertex 0 25.4558 4
      vertex 23.9002 0 4
    endloop
  endfacet
  facet normal -0.707107 -0.707107 0
    outer loop
      vertex 0 23.9002 4
      vertex 0 23.9002 3.5
      vertex 23.9002 0 3.5
    endloop
  endfacet
  facet normal -0.707107 -0.707107 0
    outer loop
      vertex 23.9002 0 4
      vertex 0 23.9002 4
      vertex 23.9002 0 3.5
    endloop
  endfacet
  facet normal 0 -0 1
    outer loop
      vertex 0 23.9002 3.5
      vertex 0 23.6174 3.5
      vertex 23.6174 0 3.5
    endloop
  endfacet
  facet normal -0 0 1
    outer loop
      vertex 23.9002 0 3.5
      vertex 0 23.9002 3.5
      vertex 23.6174 0 3.5
    endloop
  endfacet
  facet normal 0.707107 0.707107 0
    outer loop
      vertex 0 23.6174 3.5
      vertex 0 23.6174 4
      vertex 23.6174 0 3.5
    endloop
  endfacet
  facet normal 0.707107 0.707107 0
    outer loop
      vertex 23.6174 0 3.5
      vertex 0 23.6174 4
      vertex 23.6174 0 4
    endloop
  endfacet
  facet normal 0 -0 1
    outer loop
      vertex 0 23.6174 4
      vertex 0 22.0617 4
      vertex 22.0617 0 4
    endloop
  endfacet
  facet normal -0 0 1
    outer loop
      vertex 23.6174 0 4
      vertex 0 23.6174 4
      vertex 22.0617 0 4
    endloop
  endfacet
  facet normal -0.707107 -0.707107 0
    outer loop
      vertex 0 22.0617 4
      vertex 0 22.0617 3.5
      vertex 22.0617 0 3.5
    endloop
  endfacet
  facet normal -0.707107 -0.707107 0
    outer loop
      vertex 22.0617 0 4
      vertex 0 22.0617 4
      vertex 22.0617 0 3.5
    endloop
  endfacet
  facet normal 0 -0 1
    outer loop
      vertex 0 22.0617 3.5
      vertex 0 21.7789 3.5
      vertex 21.7789 0 3.5
    endloop
  endfacet
  facet normal -0 0 1
    outer loop
      vertex 22.0617 0 3.5
      vertex 0 22.0617 3.5
      vertex 21.7789 0 3.5
    endloop
  endfacet
  facet normal 0.707107 0.707107 0
    outer loop
      vertex 0 21.7789 3.5
      vertex 0 21.7789 4
      vertex 21.7789 0 3.5
    endloop
  endfacet
  facet normal 0.707107 0.707107 0
    outer loop
      vertex 21.7789 0 3.5
      vertex 0 21.7789 4
      vertex 21.7789 0 4
    endloop
  endfacet
  facet normal 0 -0 1
    outer loop
      vertex 0 21.7789 4
      vertex 0 20.2233 4
      vertex 20.2233 0 4
    endloop
  endfacet
  facet normal -0 0 1
    outer loop
      vertex 21.7789 0 4
      vertex 0 21.7789 4
      vertex 20.2233 0 4
    endloop
  endfacet
  facet normal -0.707107 -0.707107 0
    outer loop
      vertex 0 20.2233 4
      vertex 0 20.2233 3.5
      vertex 20.2233 0 3.5
    endloop
  endfacet
  facet normal -0.707107 -0.707107 0
    outer loop
      vertex 20.2233 0 4
      vertex 0 20.2233 4
      vertex 20.2233 0 3.5
    endloop
  endfacet
  facet normal 0 -0 1
    outer loop
      vertex 0 20.2233 3.5
      vertex 0 19.9404 3.5
      vertex 19.9404 0 3.5
    endloop
  endfacet
  facet normal -0 0 1
    outer loop
      vertex 20.2233 0 3.5
      vertex 0 20.2233 3.5
      vertex 19.9404 0 3.5
    endloop
  endfacet
  facet normal 0.707107 0.707107 0
    outer loop
      vertex 0 19.9404 3.5
      vertex 0 19.9404 4
      vertex 19.9404 0 3.5
    endloop
  endfacet
  facet normal 0.707107 0.707107 0
    outer loop
      vertex 19.9404 0 3.5
      vertex 0 19.9404 4
      vertex 19.9404 0 4
    endloop
  endfacet
  facet normal 0 -0 1
    outer loop
      vertex 0 19.9404 4
      vertex 0 18.3848 4
      vertex 18.3848 0 4
    endloop
  endfacet
  facet normal -0 0 1
    outer loop
      vertex 19.9404 0 4
      vertex 0 19.9404 4
      vertex 18.3848 0 4
    endloop
  endfacet
  facet normal -0.707107 -0.707107 0
    outer loop
      vertex 0 18.3848 4
      vertex 0 18.3848 3.5
      vertex 18.3848 0 3.5
    endloop
  endfacet
  facet normal -0.707107 -0.707107 0
    outer loop
      vertex 18.3848 0 4
      vertex 0 18.3848 4
      vertex 18.3848 0 3.5
    endloop
  endfacet
  facet normal 0 -0 1
    outer loop
      vertex 0 18.3848 3.5
      vertex 0 18.1019 3.5
      vertex 18.1019 0 3.5
    endloop
  endfacet
  facet normal -0 0 1
    outer loop
      vertex 18.3848 0 3.5
      vertex 0 18.3848 3.5
      vertex 18.1019 0 3.5
    endloop
  endfacet
  facet normal 0.707107 0.707107 0
    outer loop
      vertex 0 18.1019 3.5
      vertex 0 18.1019 4
      vertex 18.1019 0 3.5
    endloop
  endfacet
  facet normal 0.707107 0.707107 0
    outer loop
      vertex 18.1019 0 3.5
      vertex 0 18.1019 4
      vertex 18.1019 0 4
    endloop
  endfacet
  facet normal 0 -0 1
    outer loop
      vertex 0 18.1019 4
      vertex 0 16.5463 4
      vertex 16.5463 0 4
    endloop
  endfacet
  facet normal -0 0 1
    outer loop
      vertex 18.1019 0 4
      vertex 0 18.1019 4
      vertex 16.5463 0 4
    endloop
  endfacet
  facet normal -0.707107 -0.707107 0
    outer loop
      vertex 0 16.5463 4
      vertex 0 16.5463 3.5
      vertex 16.5463 0 3.5
    endloop
  endfacet
  facet normal -0.707107 -0.707107 0
    outer loop
      vertex 16.5463 0 4
      vertex 0 16.5463 4
      vertex 16.5463 0 3.5
    endloop
  endfacet
  facet normal 0 -0 1
    outer loop
      vertex 0 16.5463 3.5
      vertex 0 16.2635 3.5
      vertex 16.2635 0 3.5
    endloop
  endfacet
  facet normal -0 0 1
    outer loop
      vertex 16.5463 0 3.5
      vertex 0 16.5463 3.5
      vertex 16.2635 0 3.5
    endloop
  endfacet
  facet normal 0.707107 0.707107 0
    outer loop
      vertex 0 16.2635 3.5
      vertex 0 16.2635 4
      vertex 16.2635 0 3.5
    endloop
  endfacet
  facet normal 0.707107 0.707107 0
    outer loop
      vertex 16.2635 0 3.5
      vertex 0 16.2635 4
      vertex 16.2635 0 4
    endloop
  endfacet
  facet normal 0 -0 1
    outer loop
      vertex 0 16.2635 4
      vertex 0 14.7078 4
      vertex 14.7078 0 4
    endloop
  endfacet
  facet normal -0 0 1
    outer loop
      vertex 16.2635 0 4
      vertex 0 16.2635 4
      vertex 14.7078 0 4
    endloop
  endfacet
  facet normal -0.707107 -0.707107 0
    outer loop
      vertex 0 14.7078 4
      vertex 0 14.7078 3.5
      vertex 14.7078 0 3.5
    endloop
  endfacet
  facet normal -0.707107 -0.707107 0
    outer loop
      vertex 14.7078 0 4
      vertex 0 14.7078 4
      vertex 14.7078 0 3.5
    endloop
  endfacet
  facet normal 0 -0 1
    outer loop
      vertex 0 14.7078 3.5
      vertex 0 14.425 3.5
      vertex 14.425 0 3.5
    endloop
  endfacet
  facet normal -0 0 1
    outer loop
      vertex 14.7078 0 3.5
      vertex 0 14.7078 3.5
      vertex 14.425 0 3.5
    endloop
  endfacet
  facet normal 0.707107 0.707107 0
    outer loop
      vertex 0 14.425 3.5
      vertex 0 14.425 4
      vertex 14.425 0 3.5
    endloop
  endfacet
  facet normal 0.707107 0.707107 0
    outer loop
      vertex 14.425 0 3.5
      vertex 0 14.425 4
      vertex 14.425 0 4
    endloop
  endfacet
  facet normal 0 -0 1
    outer loop
      vertex 0 14.425 4
      vertex 0 12.8693 4
      vertex 12.8693 0 4
    endloop
  endfacet
  facet normal -0 0 1
    outer loop
      vertex 14.425 0 4
      vertex 0 14.425 4
      vertex 12.8693 0 4
    endloop
  endfacet
  facet normal -0.707107 -0.707107 0
    outer loop
      vertex 0 12.8693 4
      vertex 0 12.8693 3.5
      vertex 12.8693 0 3.5
    endloop
  endfacet
  facet normal -0.707107 -0.707107 0
    outer loop
      vertex 12.8693 0 4
      vertex 0 12.8693 4
      vertex 12.8693 0 3.5
    endloop
  endfacet
  facet normal 0 -0 1
    outer loop
      vertex 0 12.8693 3.5
      vertex 0 12.5865 3.5
      vertex 12.5865 0 3.5
    endloop
  endfacet
  facet normal -0 0 1
    outer loop
      vertex 12.8693 0 3.5
      vertex 0 12.8693 3.5
      vertex 12.5865 0 3.5
    endloop
  endfacet
  facet normal 0.707107 0.707107 0
    outer loop
      vertex 0 12.5865 3.5
      vertex 0 12.5865 4
      vertex 12.5865 0 3.5
    endloop
  endfacet
  facet normal 0.707107 0.707107 0
    outer loop
      vertex 12.5865 0 3.5
      vertex 0 12.5865 4
      vertex 12.5865 0 4
    endloop
  endfacet
  facet normal 0 -0 1
    outer loop
      vertex 0 12.5865 4
      vertex 0 11.0309 4
      vertex 11.0309 0 4
    endloop
  endfacet
  facet normal -0 0 1
    outer loop
      vertex 12.5865 0 4
      vertex 0 12.5865 4
      vertex 11.0309 0 4
    endloop
  endfacet
  facet normal -0.707107 -0.707107 0
    outer loop
      vertex 0 11.0309 4
      vertex 0 11.0309 3.5
      vertex 11.0309 0 3.5
    endloop
  endfacet
  facet normal -0.707107 -0.707107 0
    outer loop
      vertex 11.0309 0 4
      vertex 0 11.0309 4
      vertex 11.0309 0 3.5
    endloop
  endfacet
  facet normal 0 -0 1
    outer loop
      vertex 0 11.0309 3.5
      vertex 0 10.748 3.5
      vertex 10.748 0 3.5
    endloop
  endfacet
  facet normal -0 0 1
    outer loop
      vertex 11.0309 0 3.5
      vertex 0 11.0309 3.5
      vertex 10.748 0 3.5
    endloop
  endfacet
  facet normal 0.707107 0.707107 0
    outer loop
      vertex 0 10.748 3.5
      vertex 0 10.748 4
      vertex 10.748 0 3.5
    endloop
  endfacet
  facet normal 0.707107 0.707107 0
    outer loop
      vertex 10.748 0 3.5
      vertex 0 10.748 4
      vertex 10.748 0 4
    endloop
  endfacet
  facet normal 0 -0 1
    outer loop
      vertex 0 10.748 4
      vertex 0 9.19239 4
      vertex 9.19239 0 4
    endloop
  endfacet
  facet normal -0 0 1
    outer loop
      vertex 10.748 0 4
      vertex 0 10.748 4
      vertex 9.19239 0 4
    endloop
  endfacet
  facet normal -0.707107 -0.707107 0
    outer loop
      vertex 0 9.19239 4
      vertex 0 9.19239 3.5
      vertex 9.19239 0 3.5
    endloop
  endfacet
  facet normal -0.707107 -0.707107 0
    outer loop
      vertex 9.19239 0 4
      vertex 0 9.19239 4
      vertex 9.19239 0 3.5
    endloop
  endfacet
  facet normal 0 -0 1
    outer loop
      vertex 0 9.19239 3.5
      vertex 0 8.90955 3.5
      vertex 8.90955 0 3.5
    endloop
  endfacet
  facet normal -0 0 1
    outer loop
      vertex 9.19239 0 3.5
      vertex 0 9.19239 3.5
      vertex 8.90955 0 3.5
    endloop
  endfacet
  facet normal 0.707107 0.707107 0
    outer loop
      vertex 0 8.90955 3.5
      vertex 0 8.90955 4
      vertex 8.90955 0 3.5
    endloop
  endfacet
  facet normal 0.707107 0.707107 0
    outer loop
      vertex 8.90955 0 3.5
      vertex 0 8.90955 4
      vertex 8.90955 0 4
    endloop
  endfacet
  facet normal 0 -0 1
    outer loop
      vertex 0 8.90955 4
      vertex 0 7.35391 4
      vertex 7.35391 0 4
    endloop
  endfacet
  facet normal -0 0 1
    outer loop
      vertex 8.90955 0 4
      vertex 0 8.90955 4
      vertex 7.35391 0 4
    endloop
  endfacet
  facet normal -0.707107 -0.707107 0
    outer loop
      vertex 0 7.35391 4
      vertex 0 7.35391 3.5
      vertex 7.35391 0 3.5
    endloop
  endfacet
  facet normal -0.707107 -0.707107 0
    outer loop
      vertex 7.35391 0 4
      vertex 0 7.35391 4
      vertex 7.35391 0 3.5
    endloop
  endfacet
  facet normal 0 -0 1
    outer loop
      vertex 0 7.35391 3.5
      vertex 0 7.07107 3.5
      vertex 7.07107 0 3.5
    endloop
  endfacet
  facet normal -0 0 1
    outer loop
      vertex 7.35391 0 3.5
      vertex 0 7.35391 3.5
      vertex 7.07107 0 3.5
    endloop
  endfacet
  facet normal 0.707107 0.707107 0
    outer loop
      vertex 0 7.07107 3.5
      vertex 0 7.07107 4
      vertex 7.07107 0 3.5
    endloop
  endfacet
  facet normal 0.707107 0.707107 0
    outer loop
      vertex 7.07107 0 3.5
      vertex 0 7.07107 4
      vertex 7.07107 0 4
    endloop
  endfacet
  facet normal 0 -0 1
    outer loop
      vertex 0 7.07107 4
      vertex 0 5.51543 4
      vertex 5.51543 0 4
    endloop
  endfacet
  facet normal -0 0 1
    outer loop
      vertex 7.07107 0 4
      vertex 0 7.07107 4
      vertex 5.51543 0 4
    endloop
  endfacet
  facet normal -0.707107 -0.707107 0
    outer loop
      vertex 0 5.51543 4
      vertex 0 5.51543 3.5
      vertex 5.51543 0 3.5
    endloop
  endfacet
  facet normal -0.707107 -0.707107 0
    outer loop
      vertex 5.51543 0 4
      vertex 0 5.51543 4
      vertex 5.51543 0 3.5
    endloop
  endfacet
  facet normal 0 -0 1
    outer loop
      vertex 0 5.51543 3.5
      vertex 0 5.23259 3.5
      vertex 5.23259 0 3.5
    endloop
  endfacet
  facet normal -0 0 1
    outer loop
      vertex 5.51543 0 3.5
      vertex 0 5.51543 3.5
      vertex 5.23259 0 3.5
    endloop
  endfacet
  facet normal 0.707107 0.707107 0
    outer loop
      vertex 0 5.23259 3.5
      vertex 0 5.23259 4
      vertex 5.23259 0 3.5
    endloop
  endfacet
  facet normal 0.707107 0.707107 0
    outer loop
      vertex 5.23259 0 3.5
      vertex 0 5.23259 4
      vertex 5.23259 0 4
    endloop
  endfacet
  facet normal 0 -0 1
    outer loop
      vertex 0 5.23259 4
      vertex 0 3.67696 4
      vertex 3.67696 0 4
    endloop
  endfacet
  facet normal -0 0 1
    outer loop
      vertex 5.23259 0 4
      vertex 0 5.23259 4
      vertex 3.67696 0 4
    endloop
  endfacet
  facet normal -0.707107 -0.707107 0
    outer loop
      vertex 0 3.67696 4
      vertex 0 3.67696 3.5
      vertex 3.67696 0 3.5
    endloop
  endfacet
  facet normal -0.707107 -0.707107 0
    outer loop
      vertex 3.67696 0 4
      vertex 0 3.67696 4
      vertex 3.67696 0 3.5
    endloop
  endfacet
  facet normal 0 -0 1
    outer loop
      vertex 0 3.67696 3.5
      vertex 0 3.39411 3.5
      vertex 3.39411 0 3.5
    endloop
  endfacet
  facet normal -0 0 1
    outer loop
      vertex 3.67696 0 3.5
      vertex 0 3.67696 3.5
      vertex 3.39411 0 3.5
    endloop
  endfacet
  facet normal 0.707107 0.707107 0
    outer loop
      vertex 0 3.39411 3.5
      vertex 0 3.39411 4
      vertex 3.39411 0 3.5
    endloop
  endfacet
  facet normal 0.707107 0.707107 0
    outer loop
      vertex 3.39411 0 3.5
      vertex 0 3.39411 4
      vertex 3.39411 0 4
    endloop
  endfacet
  facet normal 0 -0 1
    outer loop
      vertex 0 3.39411 4
      vertex 0 1.83848 4
      vertex 1.83848 0 4
    endloop
  endfacet
  facet normal -0 0 1
    outer loop
      vertex 3.39411 0 4
      vertex 0 3.39411 4
      vertex 1.83848 0 4
    endloop
  endfacet
  facet normal -0.707107 -0.707107 0
    outer loop
      vertex 0 1.83848 4
      vertex 0 1.83848 3.5
      vertex 1.83848 0 3.5
    endloop
  endfacet
  facet normal -0.707107 -0.707107 0
    outer loop
      vertex 1.83848 0 4
      vertex 0 1.83848 4
      vertex 1.83848 0 3.5
    endloop
  endfacet
  facet normal 0 -0 1
    outer loop
      vertex 0 1.83848 3.5
      vertex 0 1.55563 3.5
      vertex 1.55563 0 3.5
    endloop
  endfacet
  facet normal -0 0 1
    outer loop
      vertex 1.83848 0 3.5
      vertex 0 1.83848 3.5
      vertex 1.55563 0 3.5
    endloop
  endfacet
  facet normal 0.707107 0.707107 0
    outer loop
      vertex 0 1.55563 3.5
      vertex 0 1.55563 4
      vertex 1.55563 0 3.5
    endloop
  endfacet
  facet normal 0.707107 0.707107 0
    outer loop
      vertex 1.55563 0 3.5
      vertex 0 1.55563 4
      vertex 1.55563 0 4
    endloop
  endfacet
  facet normal 0 -0 1
    outer loop
      vertex 0 1.55563 4
      vertex 0 0 4
      vertex 1.55563 0 4
    endloop
  endfacet
  facet normal 1 0 -0
    outer loop
      vertex 26 0 4
      vertex 26 0 0
      vertex 26 4 0
    endloop
  endfacet
  facet normal 1 -0 -0
    outer loop
      vertex 26 1.29432 3.5
      vertex 26 0 4
      vertex 26 4 2
    endloop
  endfacet
  facet normal 1 -0 0
    outer loop
      vertex 26 4 2
      vertex 26 0 4
      vertex 26 4 0
    endloop
  endfacet
  facet normal 1 0 0
    outer loop
      vertex 26 1.29432 3.5
      vertex 26 1.29432 4
      vertex 26 0 4
    endloop
  endfacet
  facet normal 1 -0 0
    outer loop
      vertex 26 19 0
      vertex 26 7 2
      vertex 26 7 0
    endloop
  endfacet
  facet normal 1 -0 0
    outer loop
      vertex 26 26 0
      vertex 26 22 2
      vertex 26 22 0
    endloop
  endfacet
  facet normal 1 0 -0
    outer loop
      vertex 26 25.4774 3.5
      vertex 26 22 2
      vertex 26 26 0
    endloop
  endfacet
  facet normal 1 0 -0
    outer loop
      vertex 26 1.57716 4
      vertex 26 1.57716 3.5
      vertex 26 7 2
    endloop
  endfacet
  facet normal 1 0 0
    outer loop
      vertex 26 26 4
      vertex 26 25.4774 3.5
      vertex 26 26 0
    endloop
  endfacet
  facet normal 1 0 -0
    outer loop
      vertex 26 25.1945 3.5
      vertex 26 22 2
      vertex 26 25.4774 3.5
    endloop
  endfacet
  facet normal 1 -0 0
    outer loop
      vertex 26 25.1945 3.5
      vertex 26 25.1945 4
      vertex 26 22 2
    endloop
  endfacet
  facet normal 1 0 0
    outer loop
      vertex 26 3.1328 3.5
      vertex 26 3.1328 4
      vertex 26 1.57716 4
    endloop
  endfacet
  facet normal 1 0 0
    outer loop
      vertex 26 25.1945 4
      vertex 26 23.6389 3.5
      vertex 26 22 2
    endloop
  endfacet
  facet normal 1 0 0
    outer loop
      vertex 26 25.1945 4
      vertex 26 23.6389 4
      vertex 26 23.6389 3.5
    endloop
  endfacet
  facet normal 1 0 0
    outer loop
      vertex 26 23.6389 3.5
      vertex 26 23.3561 3.5
      vertex 26 22 2
    endloop
  endfacet
  facet normal 1 0 0
    outer loop
      vertex 26 23.3561 4
      vertex 26 21.8004 4
      vertex 26 22 2
    endloop
  endfacet
  facet normal 1 0 -0
    outer loop
      vertex 26 21.8004 4
      vertex 26 21.8004 3.5
      vertex 26 22 2
    endloop
  endfacet
  facet normal 1 0 -0
    outer loop
      vertex 26 19.9619 4
      vertex 26 19.9619 3.5
      vertex 26 21.5176 3.5
    endloop
  endfacet
  facet normal 1 0 -0
    outer loop
      vertex 26 21.8004 3.5
      vertex 26 21.5176 3.5
      vertex 26 22 2
    endloop
  endfacet
  facet normal 1 0 -0
    outer loop
      vertex 26 18.1235 4
      vertex 26 18.1235 3.5
      vertex 26 19.6791 3.5
    endloop
  endfacet
  facet normal 1 0 -0
    outer loop
      vertex 26 21.5176 3.5
      vertex 26 19.9619 3.5
      vertex 26 22 2
    endloop
  endfacet
  facet normal 1 0 -0
    outer loop
      vertex 26 19.9619 3.5
      vertex 26 19.6791 3.5
      vertex 26 22 2
    endloop
  endfacet
  facet normal 1 0 -0
    outer loop
      vertex 26 14.4465 4
      vertex 26 14.4465 3.5
      vertex 26 16.0021 3.5
    endloop
  endfacet
  facet normal 1 0 -0
    outer loop
      vertex 26 19.6791 3.5
      vertex 26 18.1235 3.5
      vertex 26 22 2
    endloop
  endfacet
  facet normal 1 0 -0
    outer loop
      vertex 26 18.1235 3.5
      vertex 26 17.8406 3.5
      vertex 26 22 2
    endloop
  endfacet
  facet normal 1 0 -0
    outer loop
      vertex 26 10.7696 4
      vertex 26 10.7696 3.5
      vertex 26 12.3252 3.5
    endloop
  endfacet
  facet normal 1 0 -0
    outer loop
      vertex 26 17.8406 3.5
      vertex 26 16.285 3.5
      vertex 26 22 2
    endloop
  endfacet
  facet normal 1 0 -0
    outer loop
      vertex 26 16.285 3.5
      vertex 26 16.0021 3.5
      vertex 26 22 2
    endloop
  endfacet
  facet normal 1 0 -0
    outer loop
      vertex 26 7.0926 4
      vertex 26 7.0926 3.5
      vertex 26 8.64823 3.5
    endloop
  endfacet
  facet normal 1 0 -0
    outer loop
      vertex 26 16.0021 3.5
      vertex 26 14.4465 3.5
      vertex 26 22 2
    endloop
  endfacet
  facet normal 1 0 -0
    outer loop
      vertex 26 14.4465 3.5
      vertex 26 14.1637 3.5
      vertex 26 22 2
    endloop
  endfacet
  facet normal 1 0 -0
    outer loop
      vertex 26 4.97128 3.5
      vertex 26 3.41564 3.5
      vertex 26 19 2
    endloop
  endfacet
  facet normal 1 0 -0
    outer loop
      vertex 26 14.1637 3.5
      vertex 26 12.608 3.5
      vertex 26 22 2
    endloop
  endfacet
  facet normal 1 0 -0
    outer loop
      vertex 26 12.608 3.5
      vertex 26 12.3252 3.5
      vertex 26 22 2
    endloop
  endfacet
  facet normal 1 0 -0
    outer loop
      vertex 26 12.3252 3.5
      vertex 26 10.7696 3.5
      vertex 26 22 2
    endloop
  endfacet
  facet normal 1 0 -0
    outer loop
      vertex 26 10.7696 3.5
      vertex 26 10.4867 3.5
      vertex 26 22 2
    endloop
  endfacet
  facet normal 1 0 0
    outer loop
      vertex 26 3.1328 3.5
      vertex 26 7 2
      vertex 26 19 0
    endloop
  endfacet
  facet normal 1 0 -0
    outer loop
      vertex 26 10.4867 3.5
      vertex 26 8.93107 3.5
      vertex 26 22 2
    endloop
  endfacet
  facet normal 1 0 -0
    outer loop
      vertex 26 8.93107 3.5
      vertex 26 8.64823 3.5
      vertex 26 22 2
    endloop
  endfacet
  facet normal 1 0 -0
    outer loop
      vertex 26 6.80975 3.5
      vertex 26 5.25412 3.5
      vertex 26 22 2
    endloop
  endfacet
  facet normal 1 0 -0
    outer loop
      vertex 26 8.64823 3.5
      vertex 26 7.0926 3.5
      vertex 26 22 2
    endloop
  endfacet
  facet normal 1 0 -0
    outer loop
      vertex 26 7.0926 3.5
      vertex 26 6.80975 3.5
      vertex 26 22 2
    endloop
  endfacet
  facet normal 1 0 -0
    outer loop
      vertex 26 5.25412 4
      vertex 26 5.25412 3.5
      vertex 26 6.80975 3.5
    endloop
  endfacet
  facet normal 1 0 -0
    outer loop
      vertex 26 8.93107 4
      vertex 26 8.93107 3.5
      vertex 26 10.4867 3.5
    endloop
  endfacet
  facet normal 1 -0 0
    outer loop
      vertex 26 22 2
      vertex 26 5.25412 3.5
      vertex 26 19 2
    endloop
  endfacet
  facet normal 1 0 -0
    outer loop
      vertex 26 5.25412 3.5
      vertex 26 4.97128 3.5
      vertex 26 19 2
    endloop
  endfacet
  facet normal 1 0 -0
    outer loop
      vertex 26 3.41564 4
      vertex 26 3.41564 3.5
      vertex 26 4.97128 3.5
    endloop
  endfacet
  facet normal 1 0 -0
    outer loop
      vertex 26 12.608 4
      vertex 26 12.608 3.5
      vertex 26 14.1637 3.5
    endloop
  endfacet
  facet normal 1 -0 0
    outer loop
      vertex 26 19 2
      vertex 26 3.41564 3.5
      vertex 26 19 0
    endloop
  endfacet
  facet normal 1 0 -0
    outer loop
      vertex 26 3.41564 3.5
      vertex 26 3.1328 3.5
      vertex 26 19 0
    endloop
  endfacet
  facet normal 1 0 0
    outer loop
      vertex 26 1.57716 4
      vertex 26 7 2
      vertex 26 3.1328 3.5
    endloop
  endfacet
  facet normal 1 0 -0
    outer loop
      vertex 26 16.285 4
      vertex 26 16.285 3.5
      vertex 26 17.8406 3.5
    endloop
  endfacet
  facet normal 1 -0 0
    outer loop
      vertex 26 7 2
      vertex 26 1.57716 3.5
      vertex 26 4 2
    endloop
  endfacet
  facet normal 1 0 -0
    outer loop
      vertex 26 1.57716 3.5
      vertex 26 1.29432 3.5
      vertex 26 4 2
    endloop
  endfacet
  facet normal 1 -0 0
    outer loop
      vertex 26 23.3561 3.5
      vertex 26 23.3561 4
      vertex 26 22 2
    endloop
  endfacet
  facet normal 1 0 -0
    outer loop
      vertex 26 25.4774 4
      vertex 26 25.4774 3.5
      vertex 26 26 4
    endloop
  endfacet
  facet normal 1 0 0
    outer loop
      vertex 26 4.97128 3.5
      vertex 26 4.97128 4
      vertex 26 3.41564 4
    endloop
  endfacet
  facet normal 1 0 0
    outer loop
      vertex 26 6.80975 3.5
      vertex 26 6.80975 4
      vertex 26 5.25412 4
    endloop
  endfacet
  facet normal 1 0 0
    outer loop
      vertex 26 8.64823 3.5
      vertex 26 8.64823 4
      vertex 26 7.0926 4
    endloop
  endfacet
  facet normal 1 0 0
    outer loop
      vertex 26 10.4867 3.5
      vertex 26 10.4867 4
      vertex 26 8.93107 4
    endloop
  endfacet
  facet normal 1 0 0
    outer loop
      vertex 26 12.3252 3.5
      vertex 26 12.3252 4
      vertex 26 10.7696 4
    endloop
  endfacet
  facet normal 1 0 0
    outer loop
      vertex 26 14.1637 3.5
      vertex 26 14.1637 4
      vertex 26 12.608 4
    endloop
  endfacet
  facet normal 1 0 0
    outer loop
      vertex 26 16.0021 3.5
      vertex 26 16.0021 4
      vertex 26 14.4465 4
    endloop
  endfacet
  facet normal 1 0 0
    outer loop
      vertex 26 17.8406 3.5
      vertex 26 17.8406 4
      vertex 26 16.285 4
    endloop
  endfacet
  facet normal 1 0 0
    outer loop
      vertex 26 19.6791 3.5
      vertex 26 19.6791 4
      vertex 26 18.1235 4
    endloop
  endfacet
  facet normal 1 0 0
    outer loop
      vertex 26 21.5176 3.5
      vertex 26 21.5176 4
      vertex 26 19.9619 4
    endloop
  endfacet
  facet normal -1 0 0
    outer loop
      vertex 22 2.49 2
      vertex 22 2.49 0
      vertex 22 0 2
    endloop
  endfacet
  facet normal -1 0 0
    outer loop
      vertex 22 0 2
      vertex 22 2.49 0
      vertex 22 0 0
    endloop
  endfacet
  facet normal 0 0 -1
    outer loop
      vertex 4 2.49 2
      vertex 8.5 6.99 2
      vertex 17.5 6.99 2
    endloop
  endfacet
  facet normal 0 -0 -1
    outer loop
      vertex 7 1.24736 2
      vertex 4 2.49 2
      vertex 9.74264 3.99 2
    endloop
  endfacet
  facet normal -0 0 -1
    outer loop
      vertex 19 1.24736 2
      vertex 22 2.49 2
      vertex 22 0 2
    endloop
  endfacet
  facet normal 0 0 -1
    outer loop
      vertex 16.2574 3.99 2
      vertex 22 2.49 2
      vertex 19 1.24736 2
    endloop
  endfacet
  facet normal 0 0 -1
    outer loop
      vertex 17.5 6.99 2
      vertex 22 2.49 2
      vertex 16.2574 3.99 2
    endloop
  endfacet
  facet normal 0 0 -1
    outer loop
      vertex 17.5 6.99 2
      vertex 16.2574 3.99 2
      vertex 9.74264 3.99 2
    endloop
  endfacet
  facet normal 0 0 -1
    outer loop
      vertex 17.5 6.99 2
      vertex 9.74264 3.99 2
      vertex 4 2.49 2
    endloop
  endfacet
  facet normal 0 0 -1
    outer loop
      vertex 4 2.49 2
      vertex 7 1.24736 2
      vertex 7 0 2
    endloop
  endfacet
  facet normal 0 0 -1
    outer loop
      vertex 4 2.49 2
      vertex 7 0 2
      vertex 4 0 2
    endloop
  endfacet
  facet normal 0 0 -1
    outer loop
      vertex 19 1.24736 2
      vertex 22 0 2
      vertex 19 0 2
    endloop
  endfacet
  facet normal 1 0 0
    outer loop
      vertex 19 1.24736 0
      vertex 19 1.24736 2
      vertex 19 0 2
    endloop
  endfacet
  facet normal 1 0 0
    outer loop
      vertex 19 0 0
      vertex 19 1.24736 0
      vertex 19 0 2
    endloop
  endfacet
  facet normal -0 -0 -1
    outer loop
      vertex 7 0 0
      vertex 7 1.24736 0
      vertex 19 0 0
    endloop
  endfacet
  facet normal 0 0 -1
    outer loop
      vertex 19 0 0
      vertex 7 1.24736 0
      vertex 9.74264 3.99 0
    endloop
  endfacet
  facet normal 0 0 -1
    outer loop
      vertex 19 0 0
      vertex 9.74264 3.99 0
      vertex 16.2574 3.99 0
    endloop
  endfacet
  facet normal 0 0 -1
    outer loop
      vertex 19 0 0
      vertex 16.2574 3.99 0
      vertex 19 1.24736 0
    endloop
  endfacet
  facet normal -1 0 0
    outer loop
      vertex 7 1.24736 2
      vertex 7 1.24736 0
      vertex 7 0 2
    endloop
  endfacet
  facet normal -1 0 0
    outer loop
      vertex 7 0 2
      vertex 7 1.24736 0
      vertex 7 0 0
    endloop
  endfacet
  facet normal 1 0 0
    outer loop
      vertex 4 2.49 0
      vertex 4 2.49 2
      vertex 4 0 2
    endloop
  endfacet
  facet normal 1 0 0
    outer loop
      vertex 4 0 0
      vertex 4 2.49 0
      vertex 4 0 2
    endloop
  endfacet
  facet normal 0.707107 -0.707107 0
    outer loop
      vertex 8.5 6.99 0
      vertex 8.5 6.99 2
      vertex 4 2.49 2
    endloop
  endfacet
  facet normal 0.707107 -0.707107 0
    outer loop
      vertex 4 2.49 0
      vertex 8.5 6.99 0
      vertex 4 2.49 2
    endloop
  endfacet
  facet normal -2.96059e-16 -1 -0
    outer loop
      vertex 17.5 6.99 0
      vertex 17.5 6.99 2
      vertex 8.5 6.99 2
    endloop
  endfacet
  facet normal -2.96059e-16 -1 -0
    outer loop
      vertex 8.5 6.99 0
      vertex 17.5 6.99 0
      vertex 8.5 6.99 2
    endloop
  endfacet
  facet normal -0.707107 -0.707107 0
    outer loop
      vertex 22 2.49 2
      vertex 17.5 6.99 2
      vertex 22 2.49 0
    endloop
  endfacet
  facet normal -0.707107 -0.707107 0
    outer loop
      vertex 22 2.49 0
      vertex 17.5 6.99 2
      vertex 17.5 6.99 0
    endloop
  endfacet
  facet normal 0 1 0
    outer loop
      vertex 26 4 2
      vertex 26 4 0
      vertex 23.51 4 2
    endloop
  endfacet
  facet normal 0 1 -0
    outer loop
      vertex 23.51 4 2
      vertex 26 4 0
      vertex 23.51 4 0
    endloop
  endfacet
  facet normal 0.707107 0.707107 0
    outer loop
      vertex 19.01 8.5 2
      vertex 23.51 4 2
      vertex 23.51 4 0
    endloop
  endfacet
  facet normal 0.707107 0.707107 0
    outer loop
      vertex 19.01 8.5 0
      vertex 19.01 8.5 2
      vertex 23.51 4 0
    endloop
  endfacet
  facet normal 1 0 0
    outer loop
      vertex 19.01 17.5 0
      vertex 19.01 17.5 2
      vertex 19.01 8.5 2
    endloop
  endfacet
  facet normal 1 0 0
    outer loop
      vertex 19.01 8.5 0
      vertex 19.01 17.5 0
      vertex 19.01 8.5 2
    endloop
  endfacet
  facet normal 0.707107 -0.707107 0
    outer loop
      vertex 23.51 22 0
      vertex 23.51 22 2
      vertex 19.01 17.5 2
    endloop
  endfacet
  facet normal 0.707107 -0.707107 0
    outer loop
      vertex 19.01 17.5 0
      vertex 23.51 22 0
      vertex 19.01 17.5 2
    endloop
  endfacet
  facet normal 0 -1 0
    outer loop
      vertex 26 22 0
      vertex 26 22 2
      vertex 23.51 22 2
    endloop
  endfacet
  facet normal -0 -1 -0
    outer loop
      vertex 23.51 22 0
      vertex 26 22 0
      vertex 23.51 22 2
    endloop
  endfacet
  facet normal -1 0 0
    outer loop
      vertex 22 26 2
      vertex 22 26 0
      vertex 22 23.51 2
    endloop
  endfacet
  facet normal -1 0 0
    outer loop
      vertex 22 23.51 2
      vertex 22 26 0
      vertex 22 23.51 0
    endloop
  endfacet
  facet normal -0.707107 0.707107 0
    outer loop
      vertex 22 23.51 2
      vertex 22 23.51 0
      vertex 17.5 19.01 2
    endloop
  endfacet
  facet normal -0.707107 0.707107 0
    outer loop
      vertex 17.5 19.01 2
      vertex 22 23.51 0
      vertex 17.5 19.01 0
    endloop
  endfacet
  facet normal 0 1 0
    outer loop
      vertex 17.5 19.01 2
      vertex 17.5 19.01 0
      vertex 8.5 19.01 2
    endloop
  endfacet
  facet normal 0 1 -0
    outer loop
      vertex 8.5 19.01 2
      vertex 17.5 19.01 0
      vertex 8.5 19.01 0
    endloop
  endfacet
  facet normal 0.707107 0.707107 0
    outer loop
      vertex 4 23.51 2
      vertex 8.5 19.01 2
      vertex 8.5 19.01 0
    endloop
  endfacet
  facet normal 0.707107 0.707107 0
    outer loop
      vertex 4 23.51 0
      vertex 4 23.51 2
      vertex 8.5 19.01 0
    endloop
  endfacet
  facet normal 1 -1.78349e-16 0
    outer loop
      vertex 4 26 0
      vertex 4 26 2
      vertex 4 23.51 2
    endloop
  endfacet
  facet normal 1 -1.78349e-16 0
    outer loop
      vertex 4 23.51 0
      vertex 4 26 0
      vertex 4 23.51 2
    endloop
  endfacet
  facet normal -0.707107 -0.707107 -0
    outer loop
      vertex 6.99 17.5 0
      vertex 6.99 17.5 2
      vertex 2.49 22 2
    endloop
  endfacet
  facet normal -0.707107 -0.707107 -0
    outer loop
      vertex 2.49 22 0
      vertex 6.99 17.5 0
      vertex 2.49 22 2
    endloop
  endfacet
  facet normal -1 0 0
    outer loop
      vertex 6.99 17.5 2
      vertex 6.99 17.5 0
      vertex 6.99 8.5 2
    endloop
  endfacet
  facet normal -1 0 0
    outer loop
      vertex 6.99 8.5 2
      vertex 6.99 17.5 0
      vertex 6.99 8.5 0
    endloop
  endfacet
  facet normal -0.707107 0.707107 0
    outer loop
      vertex 6.99 8.5 2
      vertex 6.99 8.5 0
      vertex 2.49 4 2
    endloop
  endfacet
  facet normal -0.707107 0.707107 0
    outer loop
      vertex 2.49 4 2
      vertex 6.99 8.5 0
      vertex 2.49 4 0
    endloop
  endfacet
  facet normal 0.923879 -0.382684 0
    outer loop
      vertex 11.409 14.591 0
      vertex 11.409 14.591 2
      vertex 10.75 13 2
    endloop
  endfacet
  facet normal 0.923879 -0.382684 0
    outer loop
      vertex 10.75 13 0
      vertex 11.409 14.591 0
      vertex 10.75 13 2
    endloop
  endfacet
  facet normal 0.923879 0.382684 0
    outer loop
      vertex 10.75 13 2
      vertex 11.409 11.409 2
      vertex 11.409 11.409 0
    endloop
  endfacet
  facet normal 0.923879 0.382684 0
    outer loop
      vertex 10.75 13 0
      vertex 10.75 13 2
      vertex 11.409 11.409 0
    endloop
  endfacet
  facet normal 0.382684 -0.923879 0
    outer loop
      vertex 13 15.25 0
      vertex 13 15.25 2
      vertex 11.409 14.591 2
    endloop
  endfacet
  facet normal 0.382684 -0.923879 0
    outer loop
      vertex 11.409 14.591 0
      vertex 13 15.25 0
      vertex 11.409 14.591 2
    endloop
  endfacet
  facet normal -0.382684 -0.923879 -0
    outer loop
      vertex 14.591 14.591 0
      vertex 14.591 14.591 2
      vertex 13 15.25 2
    endloop
  endfacet
  facet normal -0.382684 -0.923879 -0
    outer loop
      vertex 13 15.25 0
      vertex 14.591 14.591 0
      vertex 13 15.25 2
    endloop
  endfacet
  facet normal -0.923879 -0.382684 0
    outer loop
      vertex 15.25 13 2
      vertex 14.591 14.591 2
      vertex 15.25 13 0
    endloop
  endfacet
  facet normal -0.923879 -0.382684 0
    outer loop
      vertex 15.25 13 0
      vertex 14.591 14.591 2
      vertex 14.591 14.591 0
    endloop
  endfacet
  facet normal -0.923879 0.382684 0
    outer loop
      vertex 15.25 13 2
      vertex 15.25 13 0
      vertex 14.591 11.409 2
    endloop
  endfacet
  facet normal -0.923879 0.382684 0
    outer loop
      vertex 14.591 11.409 2
      vertex 15.25 13 0
      vertex 14.591 11.409 0
    endloop
  endfacet
  facet normal -0.382684 0.923879 0
    outer loop
      vertex 14.591 11.409 2
      vertex 14.591 11.409 0
      vertex 13 10.75 2
    endloop
  endfacet
  facet normal -0.382684 0.923879 0
    outer loop
      vertex 13 10.75 2
      vertex 14.591 11.409 0
      vertex 13 10.75 0
    endloop
  endfacet
  facet normal 0.382684 0.923879 -0
    outer loop
      vertex 13 10.75 2
      vertex 13 10.75 0
      vertex 11.409 11.409 2
    endloop
  endfacet
  facet normal 0.382684 0.923879 -0
    outer loop
      vertex 11.409 11.409 2
      vertex 13 10.75 0
      vertex 11.409 11.409 0
    endloop
  endfacet
  facet normal 0.707107 0.707107 -0
    outer loop
      vertex 3.99 16.2574 2
      vertex 3.99 16.2574 0
      vertex 1.24736 19 2
    endloop
  endfacet
  facet normal 0.707107 0.707107 -0
    outer loop
      vertex 1.24736 19 2
      vertex 3.99 16.2574 0
      vertex 1.24736 19 0
    endloop
  endfacet
  facet normal 1 0 0
    outer loop
      vertex 3.99 16.2574 0
      vertex 3.99 16.2574 2
      vertex 3.99 9.74264 2
    endloop
  endfacet
  facet normal 1 0 0
    outer loop
      vertex 3.99 9.74264 0
      vertex 3.99 16.2574 0
      vertex 3.99 9.74264 2
    endloop
  endfacet
  facet normal 0.707107 -0.707107 0
    outer loop
      vertex 3.99 9.74264 0
      vertex 3.99 9.74264 2
      vertex 1.24736 7 2
    endloop
  endfacet
  facet normal 0.707107 -0.707107 0
    outer loop
      vertex 1.24736 7 0
      vertex 3.99 9.74264 0
      vertex 1.24736 7 2
    endloop
  endfacet
  facet normal 0 0 -1
    outer loop
      vertex 7 26 2
      vertex 7 24.7526 2
      vertex 4 26 2
    endloop
  endfacet
  facet normal 0 0 -1
    outer loop
      vertex 4 26 2
      vertex 7 24.7526 2
      vertex 9.74264 22.01 2
    endloop
  endfacet
  facet normal 0 -0 -1
    outer loop
      vertex 19 24.7526 2
      vertex 19 26 2
      vertex 22 26 2
    endloop
  endfacet
  facet normal -0 0 -1
    outer loop
      vertex 19 24.7526 2
      vertex 22 26 2
      vertex 16.2574 22.01 2
    endloop
  endfacet
  facet normal 0 0 -1
    outer loop
      vertex 16.2574 22.01 2
      vertex 22 26 2
      vertex 22 23.51 2
    endloop
  endfacet
  facet normal -0 0 -1
    outer loop
      vertex 16.2574 22.01 2
      vertex 22 23.51 2
      vertex 17.5 19.01 2
    endloop
  endfacet
  facet normal 0 0 -1
    outer loop
      vertex 16.2574 22.01 2
      vertex 17.5 19.01 2
      vertex 9.74264 22.01 2
    endloop
  endfacet
  facet normal 0 0 -1
    outer loop
      vertex 9.74264 22.01 2
      vertex 17.5 19.01 2
      vertex 8.5 19.01 2
    endloop
  endfacet
  facet normal 0 0 -1
    outer loop
      vertex 9.74264 22.01 2
      vertex 8.5 19.01 2
      vertex 4 26 2
    endloop
  endfacet
  facet normal 0 0 -1
    outer loop
      vertex 4 26 2
      vertex 8.5 19.01 2
      vertex 4 23.51 2
    endloop
  endfacet
  facet normal -1 0 0
    outer loop
      vertex 7 26 2
      vertex 7 26 0
      vertex 7 24.7526 2
    endloop
  endfacet
  facet normal -1 0 0
    outer loop
      vertex 7 24.7526 2
      vertex 7 26 0
      vertex 7 24.7526 0
    endloop
  endfacet
  facet normal -0 -0 -1
    outer loop
      vertex 7 24.7526 0
      vertex 7 26 0
      vertex 9.74264 22.01 0
    endloop
  endfacet
  facet normal 0 -0 -1
    outer loop
      vertex 9.74264 22.01 0
      vertex 7 26 0
      vertex 19 26 0
    endloop
  endfacet
  facet normal 0 0 -1
    outer loop
      vertex 9.74264 22.01 0
      vertex 19 26 0
      vertex 19 24.7526 0
    endloop
  endfacet
  facet normal -0 0 -1
    outer loop
      vertex 9.74264 22.01 0
      vertex 19 24.7526 0
      vertex 16.2574 22.01 0
    endloop
  endfacet
  facet normal 1 0 0
    outer loop
      vertex 19 26 0
      vertex 19 26 2
      vertex 19 24.7526 2
    endloop
  endfacet
  facet normal 1 0 0
    outer loop
      vertex 19 24.7526 0
      vertex 19 26 0
      vertex 19 24.7526 2
    endloop
  endfacet
  facet normal 0 0 1
    outer loop
      vertex 26 26 4
      vertex 25.4774 26 4
      vertex 26 25.4774 4
    endloop
  endfacet
  facet normal -0.707107 -0.707107 0
    outer loop
      vertex 25.4774 26 4
      vertex 25.4774 26 3.5
      vertex 26 25.4774 3.5
    endloop
  endfacet
  facet normal -0.707107 -0.707107 0
    outer loop
      vertex 26 25.4774 4
      vertex 25.4774 26 4
      vertex 26 25.4774 3.5
    endloop
  endfacet
  facet normal 0 -0 1
    outer loop
      vertex 25.4774 26 3.5
      vertex 25.1945 26 3.5
      vertex 26 25.1945 3.5
    endloop
  endfacet
  facet normal -0 0 1
    outer loop
      vertex 26 25.4774 3.5
      vertex 25.4774 26 3.5
      vertex 26 25.1945 3.5
    endloop
  endfacet
  facet normal 0.707107 0.707107 0
    outer loop
      vertex 25.1945 26 3.5
      vertex 25.1945 26 4
      vertex 26 25.1945 3.5
    endloop
  endfacet
  facet normal 0.707107 0.707107 0
    outer loop
      vertex 26 25.1945 3.5
      vertex 25.1945 26 4
      vertex 26 25.1945 4
    endloop
  endfacet
  facet normal 0 -0 1
    outer loop
      vertex 25.1945 26 4
      vertex 23.6389 26 4
      vertex 26 23.6389 4
    endloop
  endfacet
  facet normal -0 0 1
    outer loop
      vertex 26 25.1945 4
      vertex 25.1945 26 4
      vertex 26 23.6389 4
    endloop
  endfacet
  facet normal -0.707107 -0.707107 0
    outer loop
      vertex 23.6389 26 4
      vertex 23.6389 26 3.5
      vertex 26 23.6389 3.5
    endloop
  endfacet
  facet normal -0.707107 -0.707107 0
    outer loop
      vertex 26 23.6389 4
      vertex 23.6389 26 4
      vertex 26 23.6389 3.5
    endloop
  endfacet
  facet normal 0 -0 1
    outer loop
      vertex 23.6389 26 3.5
      vertex 23.3561 26 3.5
      vertex 26 23.3561 3.5
    endloop
  endfacet
  facet normal -0 0 1
    outer loop
      vertex 26 23.6389 3.5
      vertex 23.6389 26 3.5
      vertex 26 23.3561 3.5
    endloop
  endfacet
  facet normal 0.707107 0.707107 0
    outer loop
      vertex 23.3561 26 3.5
      vertex 23.3561 26 4
      vertex 26 23.3561 3.5
    endloop
  endfacet
  facet normal 0.707107 0.707107 0
    outer loop
      vertex 26 23.3561 3.5
      vertex 23.3561 26 4
      vertex 26 23.3561 4
    endloop
  endfacet
  facet normal 0 -0 1
    outer loop
      vertex 23.3561 26 4
      vertex 21.8004 26 4
      vertex 26 21.8004 4
    endloop
  endfacet
  facet normal -0 0 1
    outer loop
      vertex 26 23.3561 4
      vertex 23.3561 26 4
      vertex 26 21.8004 4
    endloop
  endfacet
  facet normal -0.707107 -0.707107 0
    outer loop
      vertex 21.8004 26 4
      vertex 21.8004 26 3.5
      vertex 26 21.8004 3.5
    endloop
  endfacet
  facet normal -0.707107 -0.707107 0
    outer loop
      vertex 26 21.8004 4
      vertex 21.8004 26 4
      vertex 26 21.8004 3.5
    endloop
  endfacet
  facet normal 0 -0 1
    outer loop
      vertex 21.8004 26 3.5
      vertex 21.5176 26 3.5
      vertex 26 21.5176 3.5
    endloop
  endfacet
  facet normal -0 0 1
    outer loop
      vertex 26 21.8004 3.5
      vertex 21.8004 26 3.5
      vertex 26 21.5176 3.5
    endloop
  endfacet
  facet normal 0.707107 0.707107 0
    outer loop
      vertex 21.5176 26 3.5
      vertex 21.5176 26 4
      vertex 26 21.5176 3.5
    endloop
  endfacet
  facet normal 0.707107 0.707107 0
    outer loop
      vertex 26 21.5176 3.5
      vertex 21.5176 26 4
      vertex 26 21.5176 4
    endloop
  endfacet
  facet normal 0 -0 1
    outer loop
      vertex 21.5176 26 4
      vertex 19.9619 26 4
      vertex 26 19.9619 4
    endloop
  endfacet
  facet normal -0 0 1
    outer loop
      vertex 26 21.5176 4
      vertex 21.5176 26 4
      vertex 26 19.9619 4
    endloop
  endfacet
  facet normal -0.707107 -0.707107 0
    outer loop
      vertex 19.9619 26 4
      vertex 19.9619 26 3.5
      vertex 26 19.9619 3.5
    endloop
  endfacet
  facet normal -0.707107 -0.707107 0
    outer loop
      vertex 26 19.9619 4
      vertex 19.9619 26 4
      vertex 26 19.9619 3.5
    endloop
  endfacet
  facet normal 0 -0 1
    outer loop
      vertex 19.9619 26 3.5
      vertex 19.6791 26 3.5
      vertex 26 19.6791 3.5
    endloop
  endfacet
  facet normal -0 0 1
    outer loop
      vertex 26 19.9619 3.5
      vertex 19.9619 26 3.5
      vertex 26 19.6791 3.5
    endloop
  endfacet
  facet normal 0.707107 0.707107 0
    outer loop
      vertex 19.6791 26 3.5
      vertex 19.6791 26 4
      vertex 26 19.6791 3.5
    endloop
  endfacet
  facet normal 0.707107 0.707107 0
    outer loop
      vertex 26 19.6791 3.5
      vertex 19.6791 26 4
      vertex 26 19.6791 4
    endloop
  endfacet
  facet normal 0 -0 1
    outer loop
      vertex 19.6791 26 4
      vertex 18.1235 26 4
      vertex 26 18.1235 4
    endloop
  endfacet
  facet normal -0 0 1
    outer loop
      vertex 26 19.6791 4
      vertex 19.6791 26 4
      vertex 26 18.1235 4
    endloop
  endfacet
  facet normal -0.707107 -0.707107 0
    outer loop
      vertex 18.1235 26 4
      vertex 18.1235 26 3.5
      vertex 26 18.1235 3.5
    endloop
  endfacet
  facet normal -0.707107 -0.707107 0
    outer loop
      vertex 26 18.1235 4
      vertex 18.1235 26 4
      vertex 26 18.1235 3.5
    endloop
  endfacet
  facet normal 0 -0 1
    outer loop
      vertex 18.1235 26 3.5
      vertex 17.8406 26 3.5
      vertex 26 17.8406 3.5
    endloop
  endfacet
  facet normal -0 0 1
    outer loop
      vertex 26 18.1235 3.5
      vertex 18.1235 26 3.5
      vertex 26 17.8406 3.5
    endloop
  endfacet
  facet normal 0.707107 0.707107 0
    outer loop
      vertex 17.8406 26 3.5
      vertex 17.8406 26 4
      vertex 26 17.8406 3.5
    endloop
  endfacet
  facet normal 0.707107 0.707107 0
    outer loop
      vertex 26 17.8406 3.5
      vertex 17.8406 26 4
      vertex 26 17.8406 4
    endloop
  endfacet
  facet normal 0 -0 1
    outer loop
      vertex 17.8406 26 4
      vertex 16.285 26 4
      vertex 26 16.285 4
    endloop
  endfacet
  facet normal -0 0 1
    outer loop
      vertex 26 17.8406 4
      vertex 17.8406 26 4
      vertex 26 16.285 4
    endloop
  endfacet
  facet normal -0.707107 -0.707107 0
    outer loop
      vertex 16.285 26 4
      vertex 16.285 26 3.5
      vertex 26 16.285 3.5
    endloop
  endfacet
  facet normal -0.707107 -0.707107 0
    outer loop
      vertex 26 16.285 4
      vertex 16.285 26 4
      vertex 26 16.285 3.5
    endloop
  endfacet
  facet normal 0 -0 1
    outer loop
      vertex 16.285 26 3.5
      vertex 16.0021 26 3.5
      vertex 26 16.0021 3.5
    endloop
  endfacet
  facet normal -0 0 1
    outer loop
      vertex 26 16.285 3.5
      vertex 16.285 26 3.5
      vertex 26 16.0021 3.5
    endloop
  endfacet
  facet normal 0.707107 0.707107 0
    outer loop
      vertex 16.0021 26 3.5
      vertex 16.0021 26 4
      vertex 26 16.0021 3.5
    endloop
  endfacet
  facet normal 0.707107 0.707107 0
    outer loop
      vertex 26 16.0021 3.5
      vertex 16.0021 26 4
      vertex 26 16.0021 4
    endloop
  endfacet
  facet normal 0 -0 1
    outer loop
      vertex 16.0021 26 4
      vertex 14.4465 26 4
      vertex 26 14.4465 4
    endloop
  endfacet
  facet normal -0 0 1
    outer loop
      vertex 26 16.0021 4
      vertex 16.0021 26 4
      vertex 26 14.4465 4
    endloop
  endfacet
  facet normal -0.707107 -0.707107 0
    outer loop
      vertex 14.4465 26 4
      vertex 14.4465 26 3.5
      vertex 26 14.4465 3.5
    endloop
  endfacet
  facet normal -0.707107 -0.707107 0
    outer loop
      vertex 26 14.4465 4
      vertex 14.4465 26 4
      vertex 26 14.4465 3.5
    endloop
  endfacet
  facet normal 0 -0 1
    outer loop
      vertex 14.4465 26 3.5
      vertex 14.1637 26 3.5
      vertex 26 14.1637 3.5
    endloop
  endfacet
  facet normal -0 0 1
    outer loop
      vertex 26 14.4465 3.5
      vertex 14.4465 26 3.5
      vertex 26 14.1637 3.5
    endloop
  endfacet
  facet normal 0.707107 0.707107 0
    outer loop
      vertex 14.1637 26 3.5
      vertex 14.1637 26 4
      vertex 26 14.1637 3.5
    endloop
  endfacet
  facet normal 0.707107 0.707107 0
    outer loop
      vertex 26 14.1637 3.5
      vertex 14.1637 26 4
      vertex 26 14.1637 4
    endloop
  endfacet
  facet normal 0 -0 1
    outer loop
      vertex 14.1637 26 4
      vertex 12.608 26 4
      vertex 26 12.608 4
    endloop
  endfacet
  facet normal -0 0 1
    outer loop
      vertex 26 14.1637 4
      vertex 14.1637 26 4
      vertex 26 12.608 4
    endloop
  endfacet
  facet normal -0.707107 -0.707107 0
    outer loop
      vertex 12.608 26 4
      vertex 12.608 26 3.5
      vertex 26 12.608 3.5
    endloop
  endfacet
  facet normal -0.707107 -0.707107 0
    outer loop
      vertex 26 12.608 4
      vertex 12.608 26 4
      vertex 26 12.608 3.5
    endloop
  endfacet
  facet normal 0 -0 1
    outer loop
      vertex 12.608 26 3.5
      vertex 12.3252 26 3.5
      vertex 26 12.3252 3.5
    endloop
  endfacet
  facet normal -0 0 1
    outer loop
      vertex 26 12.608 3.5
      vertex 12.608 26 3.5
      vertex 26 12.3252 3.5
    endloop
  endfacet
  facet normal 0.707107 0.707107 0
    outer loop
      vertex 12.3252 26 3.5
      vertex 12.3252 26 4
      vertex 26 12.3252 3.5
    endloop
  endfacet
  facet normal 0.707107 0.707107 0
    outer loop
      vertex 26 12.3252 3.5
      vertex 12.3252 26 4
      vertex 26 12.3252 4
    endloop
  endfacet
  facet normal 0 -0 1
    outer loop
      vertex 12.3252 26 4
      vertex 10.7696 26 4
      vertex 26 10.7696 4
    endloop
  endfacet
  facet normal -0 0 1
    outer loop
      vertex 26 12.3252 4
      vertex 12.3252 26 4
      vertex 26 10.7696 4
    endloop
  endfacet
  facet normal -0.707107 -0.707107 0
    outer loop
      vertex 10.7696 26 4
      vertex 10.7696 26 3.5
      vertex 26 10.7696 3.5
    endloop
  endfacet
  facet normal -0.707107 -0.707107 0
    outer loop
      vertex 26 10.7696 4
      vertex 10.7696 26 4
      vertex 26 10.7696 3.5
    endloop
  endfacet
  facet normal 0 -0 1
    outer loop
      vertex 10.7696 26 3.5
      vertex 10.4867 26 3.5
      vertex 26 10.4867 3.5
    endloop
  endfacet
  facet normal -0 0 1
    outer loop
      vertex 26 10.7696 3.5
      vertex 10.7696 26 3.5
      vertex 26 10.4867 3.5
    endloop
  endfacet
  facet normal 0.707107 0.707107 0
    outer loop
      vertex 10.4867 26 3.5
      vertex 10.4867 26 4
      vertex 26 10.4867 3.5
    endloop
  endfacet
  facet normal 0.707107 0.707107 0
    outer loop
      vertex 26 10.4867 3.5
      vertex 10.4867 26 4
      vertex 26 10.4867 4
    endloop
  endfacet
  facet normal 0 -0 1
    outer loop
      vertex 10.4867 26 4
      vertex 8.93107 26 4
      vertex 26 8.93107 4
    endloop
  endfacet
  facet normal -0 0 1
    outer loop
      vertex 26 10.4867 4
      vertex 10.4867 26 4
      vertex 26 8.93107 4
    endloop
  endfacet
  facet normal -0.707107 -0.707107 0
    outer loop
      vertex 8.93107 26 4
      vertex 8.93107 26 3.5
      vertex 26 8.93107 3.5
    endloop
  endfacet
  facet normal -0.707107 -0.707107 0
    outer loop
      vertex 26 8.93107 4
      vertex 8.93107 26 4
      vertex 26 8.93107 3.5
    endloop
  endfacet
  facet normal 0 -0 1
    outer loop
      vertex 8.93107 26 3.5
      vertex 8.64823 26 3.5
      vertex 26 8.64823 3.5
    endloop
  endfacet
  facet normal -0 0 1
    outer loop
      vertex 26 8.93107 3.5
      vertex 8.93107 26 3.5
      vertex 26 8.64823 3.5
    endloop
  endfacet
  facet normal 0.707107 0.707107 0
    outer loop
      vertex 8.64823 26 3.5
      vertex 8.64823 26 4
      vertex 26 8.64823 3.5
    endloop
  endfacet
  facet normal 0.707107 0.707107 0
    outer loop
      vertex 26 8.64823 3.5
      vertex 8.64823 26 4
      vertex 26 8.64823 4
    endloop
  endfacet
  facet normal 0 -0 1
    outer loop
      vertex 8.64823 26 4
      vertex 7.0926 26 4
      vertex 26 7.0926 4
    endloop
  endfacet
  facet normal -0 0 1
    outer loop
      vertex 26 8.64823 4
      vertex 8.64823 26 4
      vertex 26 7.0926 4
    endloop
  endfacet
  facet normal -0.707107 -0.707107 0
    outer loop
      vertex 7.0926 26 4
      vertex 7.0926 26 3.5
      vertex 26 7.0926 3.5
    endloop
  endfacet
  facet normal -0.707107 -0.707107 0
    outer loop
      vertex 26 7.0926 4
      vertex 7.0926 26 4
      vertex 26 7.0926 3.5
    endloop
  endfacet
  facet normal 0 -0 1
    outer loop
      vertex 7.0926 26 3.5
      vertex 6.80975 26 3.5
      vertex 26 6.80975 3.5
    endloop
  endfacet
  facet normal -0 0 1
    outer loop
      vertex 26 7.0926 3.5
      vertex 7.0926 26 3.5
      vertex 26 6.80975 3.5
    endloop
  endfacet
  facet normal 0.707107 0.707107 0
    outer loop
      vertex 6.80975 26 3.5
      vertex 6.80975 26 4
      vertex 26 6.80975 3.5
    endloop
  endfacet
  facet normal 0.707107 0.707107 0
    outer loop
      vertex 26 6.80975 3.5
      vertex 6.80975 26 4
      vertex 26 6.80975 4
    endloop
  endfacet
  facet normal 0 -0 1
    outer loop
      vertex 6.80975 26 4
      vertex 5.25412 26 4
      vertex 26 5.25412 4
    endloop
  endfacet
  facet normal -0 0 1
    outer loop
      vertex 26 6.80975 4
      vertex 6.80975 26 4
      vertex 26 5.25412 4
    endloop
  endfacet
  facet normal -0.707107 -0.707107 0
    outer loop
      vertex 5.25412 26 4
      vertex 5.25412 26 3.5
      vertex 26 5.25412 3.5
    endloop
  endfacet
  facet normal -0.707107 -0.707107 0
    outer loop
      vertex 26 5.25412 4
      vertex 5.25412 26 4
      vertex 26 5.25412 3.5
    endloop
  endfacet
  facet normal 0 -0 1
    outer loop
      vertex 5.25412 26 3.5
      vertex 4.97128 26 3.5
      vertex 26 4.97128 3.5
    endloop
  endfacet
  facet normal -0 0 1
    outer loop
      vertex 26 5.25412 3.5
      vertex 5.25412 26 3.5
      vertex 26 4.97128 3.5
    endloop
  endfacet
  facet normal 0.707107 0.707107 0
    outer loop
      vertex 4.97128 26 3.5
      vertex 4.97128 26 4
      vertex 26 4.97128 3.5
    endloop
  endfacet
  facet normal 0.707107 0.707107 0
    outer loop
      vertex 26 4.97128 3.5
      vertex 4.97128 26 4
      vertex 26 4.97128 4
    endloop
  endfacet
  facet normal 0 -0 1
    outer loop
      vertex 4.97128 26 4
      vertex 3.41564 26 4
      vertex 26 3.41564 4
    endloop
  endfacet
  facet normal -0 0 1
    outer loop
      vertex 26 4.97128 4
      vertex 4.97128 26 4
      vertex 26 3.41564 4
    endloop
  endfacet
  facet normal -0.707107 -0.707107 0
    outer loop
      vertex 3.41564 26 4
      vertex 3.41564 26 3.5
      vertex 26 3.41564 3.5
    endloop
  endfacet
  facet normal -0.707107 -0.707107 0
    outer loop
      vertex 26 3.41564 4
      vertex 3.41564 26 4
      vertex 26 3.41564 3.5
    endloop
  endfacet
  facet normal 0 -0 1
    outer loop
      vertex 3.41564 26 3.5
      vertex 3.1328 26 3.5
      vertex 26 3.1328 3.5
    endloop
  endfacet
  facet normal -0 0 1
    outer loop
      vertex 26 3.41564 3.5
      vertex 3.41564 26 3.5
      vertex 26 3.1328 3.5
    endloop
  endfacet
  facet normal 0.707107 0.707107 0
    outer loop
      vertex 3.1328 26 3.5
      vertex 3.1328 26 4
      vertex 26 3.1328 3.5
    endloop
  endfacet
  facet normal 0.707107 0.707107 0
    outer loop
      vertex 26 3.1328 3.5
      vertex 3.1328 26 4
      vertex 26 3.1328 4
    endloop
  endfacet
  facet normal 0 -0 1
    outer loop
      vertex 3.1328 26 4
      vertex 1.57716 26 4
      vertex 26 1.57716 4
    endloop
  endfacet
  facet normal -0 0 1
    outer loop
      vertex 26 3.1328 4
      vertex 3.1328 26 4
      vertex 26 1.57716 4
    endloop
  endfacet
  facet normal -0.707107 -0.707107 0
    outer loop
      vertex 1.57716 26 4
      vertex 1.57716 26 3.5
      vertex 26 1.57716 3.5
    endloop
  endfacet
  facet normal -0.707107 -0.707107 0
    outer loop
      vertex 26 1.57716 4
      vertex 1.57716 26 4
      vertex 26 1.57716 3.5
    endloop
  endfacet
  facet normal 0 -0 1
    outer loop
      vertex 1.57716 26 3.5
      vertex 1.29432 26 3.5
      vertex 26 1.29432 3.5
    endloop
  endfacet
  facet normal -0 0 1
    outer loop
      vertex 26 1.57716 3.5
      vertex 1.57716 26 3.5
      vertex 26 1.29432 3.5
    endloop
  endfacet
  facet normal 0.707107 0.707107 0
    outer loop
      vertex 1.29432 26 3.5
      vertex 1.29432 26 4
      vertex 26 1.29432 3.5
    endloop
  endfacet
  facet normal 0.707107 0.707107 0
    outer loop
      vertex 26 1.29432 3.5
      vertex 1.29432 26 4
      vertex 26 1.29432 4
    endloop
  endfacet
  facet normal 0 0 -1
    outer loop
      vertex 19.01 17.5 2
      vertex 23.51 22 2
      vertex 26 22 2
    endloop
  endfacet
  facet normal -0 0 -1
    outer loop
      vertex 24.7526 19 2
      vertex 26 22 2
      vertex 26 19 2
    endloop
  endfacet
  facet normal 0 0 -1
    outer loop
      vertex 19.01 17.5 2
      vertex 26 22 2
      vertex 24.7526 19 2
    endloop
  endfacet
  facet normal 0 0 -1
    outer loop
      vertex 23.51 4 2
      vertex 19.01 17.5 2
      vertex 22.01 9.74264 2
    endloop
  endfacet
  facet normal 0 0 -1
    outer loop
      vertex 22.01 16.2574 2
      vertex 22.01 9.74264 2
      vertex 19.01 17.5 2
    endloop
  endfacet
  facet normal 0 0 -1
    outer loop
      vertex 26 4 2
      vertex 22.01 9.74264 2
      vertex 24.7526 7 2
    endloop
  endfacet
  facet normal 0 0 -1
    outer loop
      vertex 26 7 2
      vertex 26 4 2
      vertex 24.7526 7 2
    endloop
  endfacet
  facet normal 0 0 -1
    outer loop
      vertex 26 4 2
      vertex 23.51 4 2
      vertex 22.01 9.74264 2
    endloop
  endfacet
  facet normal 0 0 -1
    outer loop
      vertex 23.51 4 2
      vertex 19.01 8.5 2
      vertex 19.01 17.5 2
    endloop
  endfacet
  facet normal 0 -0 -1
    outer loop
      vertex 22.01 16.2574 2
      vertex 19.01 17.5 2
      vertex 24.7526 19 2
    endloop
  endfacet
  facet normal 0 1 0
    outer loop
      vertex 26 19 2
      vertex 26 19 0
      vertex 24.7526 19 2
    endloop
  endfacet
  facet normal 0 1 -0
    outer loop
      vertex 24.7526 19 2
      vertex 26 19 0
      vertex 24.7526 19 0
    endloop
  endfacet
  facet normal -0 -0 -1
    outer loop
      vertex 22.01 9.74264 0
      vertex 22.01 16.2574 0
      vertex 24.7526 7 0
    endloop
  endfacet
  facet normal 0 -0 -1
    outer loop
      vertex 24.7526 7 0
      vertex 22.01 16.2574 0
      vertex 24.7526 19 0
    endloop
  endfacet
  facet normal 0 0 -1
    outer loop
      vertex 24.7526 7 0
      vertex 24.7526 19 0
      vertex 26 19 0
    endloop
  endfacet
  facet normal -0 0 -1
    outer loop
      vertex 24.7526 7 0
      vertex 26 19 0
      vertex 26 7 0
    endloop
  endfacet
  facet normal 0 -1 0
    outer loop
      vertex 26 7 0
      vertex 26 7 2
      vertex 24.7526 7 2
    endloop
  endfacet
  facet normal -0 -1 -0
    outer loop
      vertex 24.7526 7 0
      vertex 26 7 0
      vertex 24.7526 7 2
    endloop
  endfacet
  facet normal -0.707107 0.707107 0
    outer loop
      vertex 9.74264 3.99 2
      vertex 9.74264 3.99 0
      vertex 7 1.24736 2
    endloop
  endfacet
  facet normal -0.707107 0.707107 0
    outer loop
      vertex 7 1.24736 2
      vertex 9.74264 3.99 0
      vertex 7 1.24736 0
    endloop
  endfacet
  facet normal 2.04501e-16 1 -0
    outer loop
      vertex 16.2574 3.99 2
      vertex 16.2574 3.99 0
      vertex 9.74264 3.99 2
    endloop
  endfacet
  facet normal 2.04501e-16 1 -0
    outer loop
      vertex 9.74264 3.99 2
      vertex 16.2574 3.99 0
      vertex 9.74264 3.99 0
    endloop
  endfacet
  facet normal 0.707107 0.707107 0
    outer loop
      vertex 16.2574 3.99 2
      vertex 19 1.24736 2
      vertex 19 1.24736 0
    endloop
  endfacet
  facet normal 0.707107 0.707107 0
    outer loop
      vertex 16.2574 3.99 0
      vertex 16.2574 3.99 2
      vertex 19 1.24736 0
    endloop
  endfacet
  facet normal 0 0 -1
    outer loop
      vertex 13 15.25 2
      vertex 14.591 14.591 2
      vertex 11.409 14.591 2
    endloop
  endfacet
  facet normal 0 0 -1
    outer loop
      vertex 11.409 14.591 2
      vertex 14.591 14.591 2
      vertex 15.25 13 2
    endloop
  endfacet
  facet normal 0 0 -1
    outer loop
      vertex 11.409 14.591 2
      vertex 15.25 13 2
      vertex 14.591 11.409 2
    endloop
  endfacet
  facet normal 0 0 -1
    outer loop
      vertex 11.409 14.591 2
      vertex 14.591 11.409 2
      vertex 13 10.75 2
    endloop
  endfacet
  facet normal 0 0 -1
    outer loop
      vertex 11.409 14.591 2
      vertex 13 10.75 2
      vertex 11.409 11.409 2
    endloop
  endfacet
  facet normal 0 0 -1
    outer loop
      vertex 11.409 14.591 2
      vertex 11.409 11.409 2
      vertex 10.75 13 2
    endloop
  endfacet
  facet normal 0.707107 -0.707107 0
    outer loop
      vertex 19 24.7526 0
      vertex 19 24.7526 2
      vertex 16.2574 22.01 2
    endloop
  endfacet
  facet normal 0.707107 -0.707107 0
    outer loop
      vertex 16.2574 22.01 0
      vertex 19 24.7526 0
      vertex 16.2574 22.01 2
    endloop
  endfacet
  facet normal 0 -1 0
    outer loop
      vertex 16.2574 22.01 0
      vertex 16.2574 22.01 2
      vertex 9.74264 22.01 2
    endloop
  endfacet
  facet normal -0 -1 -0
    outer loop
      vertex 9.74264 22.01 0
      vertex 16.2574 22.01 0
      vertex 9.74264 22.01 2
    endloop
  endfacet
  facet normal -0.707107 -0.707107 0
    outer loop
      vertex 9.74264 22.01 2
      vertex 7 24.7526 2
      vertex 9.74264 22.01 0
    endloop
  endfacet
  facet normal -0.707107 -0.707107 0
    outer loop
      vertex 9.74264 22.01 0
      vertex 7 24.7526 2
      vertex 7 24.7526 0
    endloop
  endfacet
  facet normal -0.707107 -0.707107 0
    outer loop
      vertex 24.7526 7 2
      vertex 22.01 9.74264 2
      vertex 24.7526 7 0
    endloop
  endfacet
  facet normal -0.707107 -0.707107 0
    outer loop
      vertex 24.7526 7 0
      vertex 22.01 9.74264 2
      vertex 22.01 9.74264 0
    endloop
  endfacet
  facet normal -1 0 0
    outer loop
      vertex 22.01 16.2574 2
      vertex 22.01 16.2574 0
      vertex 22.01 9.74264 2
    endloop
  endfacet
  facet normal -1 0 0
    outer loop
      vertex 22.01 9.74264 2
      vertex 22.01 16.2574 0
      vertex 22.01 9.74264 0
    endloop
  endfacet
  facet normal -0.707107 0.707107 0
    outer loop
      vertex 24.7526 19 2
      vertex 24.7526 19 0
      vertex 22.01 16.2574 2
    endloop
  endfacet
  facet normal -0.707107 0.707107 0
    outer loop
      vertex 22.01 16.2574 2
      vertex 24.7526 19 0
      vertex 22.01 16.2574 0
    endloop
  endfacet
endsolid OpenSCAD_Model
