solid OpenSCAD_Model
  facet normal -1 -0 -0
    outer loop
      vertex 0 0 0
      vertex 0 0 4
      vertex 0 4 0
    endloop
  endfacet
  facet normal -1 0 -0
    outer loop
      vertex 0 7 2
      vertex 0 0 4
      vertex 0 26 4
    endloop
  endfacet
  facet normal -1 -0 0
    outer loop
      vertex 0 22 0
      vertex 0 26 4
      vertex 0 26 0
    endloop
  endfacet
  facet normal -1 -0 0
    outer loop
      vertex 0 22 2
      vertex 0 26 4
      vertex 0 22 0
    endloop
  endfacet
  facet normal -1 -0 0
    outer loop
      vertex 0 19 2
      vertex 0 26 4
      vertex 0 22 2
    endloop
  endfacet
  facet normal -1 -0 0
    outer loop
      vertex 0 7 2
      vertex 0 26 4
      vertex 0 19 2
    endloop
  endfacet
  facet normal -1 0 0
    outer loop
      vertex 0 7 2
      vertex 0 19 2
      vertex 0 7 0
    endloop
  endfacet
  facet normal -1 -0 -0
    outer loop
      vertex 0 4 2
      vertex 0 0 4
      vertex 0 7 2
    endloop
  endfacet
  facet normal -1 0 0
    outer loop
      vertex 0 4 0
      vertex 0 0 4
      vertex 0 4 2
    endloop
  endfacet
  facet normal -1 0 0
    outer loop
      vertex 0 19 0
      vertex 0 7 0
      vertex 0 19 2
    endloop
  endfacet
  facet normal 0 -1 0
    outer loop
      vertex 0 0 4
      vertex 0 0 0
      vertex 4 0 0
    endloop
  endfacet
  facet normal 0 -1 0
    outer loop
      vertex 1.1 0 3.5
      vertex 0 0 4
      vertex 4 0 2
    endloop
  endfacet
  facet normal 0 -1 0
    outer loop
      vertex 4 0 2
      vertex 0 0 4
      vertex 4 0 0
    endloop
  endfacet
  facet normal 0 -1 0
    outer loop
      vertex 1.1 0 3.5
      vertex 1.1 0 4
      vertex 0 0 4
    endloop
  endfacet
  facet normal 0 -1 0
    outer loop
      vertex 19 0 0
      vertex 7 0 2
      vertex 7 0 0
    endloop
  endfacet
  facet normal 0 -1 0
    outer loop
      vertex 26 0 0
      vertex 22 0 2
      vertex 22 0 0
    endloop
  endfacet
  facet normal 0 -1 0
    outer loop
      vertex 26 0 3.5
      vertex 22 0 2
      vertex 26 0 0
    endloop
  endfacet
  facet normal 0 -1 0
    outer loop
      vertex 24.7 0 4
      vertex 24.7 0 3.5
      vertex 25.8 0 3.5
    endloop
  endfacet
  facet normal 0 -1 0
    outer loop
      vertex 26 0 3.5
      vertex 25.8 0 3.5
      vertex 22 0 2
    endloop
  endfacet
  facet normal 0 -1 0
    outer loop
      vertex 23.4 0 4
      vertex 23.4 0 3.5
      vertex 24.5 0 3.5
    endloop
  endfacet
  facet normal 0 -1 0
    outer loop
      vertex 25.8 0 3.5
      vertex 24.7 0 3.5
      vertex 22 0 2
    endloop
  endfacet
  facet normal 0 -1 0
    outer loop
      vertex 24.7 0 3.5
      vertex 24.5 0 3.5
      vertex 22 0 2
    endloop
  endfacet
  facet normal 0 -1 0
    outer loop
      vertex 20.8 0 4
      vertex 20.8 0 3.5
      vertex 21.9 0 3.5
    endloop
  endfacet
  facet normal 0 -1 0
    outer loop
      vertex 24.5 0 3.5
      vertex 23.4 0 3.5
      vertex 22 0 2
    endloop
  endfacet
  facet normal 0 -1 0
    outer loop
      vertex 23.4 0 3.5
      vertex 23.2 0 3.5
      vertex 22 0 2
    endloop
  endfacet
  facet normal 0 -1 0
    outer loop
      vertex 18.2 0 4
      vertex 18.2 0 3.5
      vertex 19.3 0 3.5
    endloop
  endfacet
  facet normal 0 -1 0
    outer loop
      vertex 23.2 0 3.5
      vertex 22.1 0 3.5
      vertex 22 0 2
    endloop
  endfacet
  facet normal 0 -1 0
    outer loop
      vertex 22.1 0 3.5
      vertex 21.9 0 3.5
      vertex 22 0 2
    endloop
  endfacet
  facet normal 0 -1 0
    outer loop
      vertex 15.6 0 4
      vertex 15.6 0 3.5
      vertex 16.7 0 3.5
    endloop
  endfacet
  facet normal 0 -1 0
    outer loop
      vertex 21.9 0 3.5
      vertex 20.8 0 3.5
      vertex 22 0 2
    endloop
  endfacet
  facet normal 0 -1 0
    outer loop
      vertex 20.8 0 3.5
      vertex 20.6 0 3.5
      vertex 22 0 2
    endloop
  endfacet
  facet normal 0 -1 0
    outer loop
      vertex 13 0 4
      vertex 13 0 3.5
      vertex 14.1 0 3.5
    endloop
  endfacet
  facet normal 0 -1 0
    outer loop
      vertex 20.6 0 3.5
      vertex 19.5 0 3.5
      vertex 22 0 2
    endloop
  endfacet
  facet normal 0 -1 0
    outer loop
      vertex 19.5 0 3.5
      vertex 19.3 0 3.5
      vertex 22 0 2
    endloop
  endfacet
  facet normal 0 -1 0
    outer loop
      vertex 10.4 0 4
      vertex 10.4 0 3.5
      vertex 11.5 0 3.5
    endloop
  endfacet
  facet normal 0 -1 0
    outer loop
      vertex 19.3 0 3.5
      vertex 18.2 0 3.5
      vertex 22 0 2
    endloop
  endfacet
  facet normal 0 -1 0
    outer loop
      vertex 18.2 0 3.5
      vertex 18 0 3.5
      vertex 22 0 2
    endloop
  endfacet
  facet normal 0 -1 0
    outer loop
      vertex 7.8 0 4
      vertex 7.8 0 3.5
      vertex 8.9 0 3.5
    endloop
  endfacet
  facet normal 0 -1 0
    outer loop
      vertex 18 0 3.5
      vertex 16.9 0 3.5
      vertex 22 0 2
    endloop
  endfacet
  facet normal 0 -1 0
    outer loop
      vertex 16.9 0 3.5
      vertex 16.7 0 3.5
      vertex 22 0 2
    endloop
  endfacet
  facet normal 0 -1 0
    outer loop
      vertex 6.3 0 3.5
      vertex 5.2 0 3.5
      vertex 22 0 2
    endloop
  endfacet
  facet normal 0 -1 0
    outer loop
      vertex 16.7 0 3.5
      vertex 15.6 0 3.5
      vertex 22 0 2
    endloop
  endfacet
  facet normal 0 -1 0
    outer loop
      vertex 15.6 0 3.5
      vertex 15.4 0 3.5
      vertex 22 0 2
    endloop
  endfacet
  facet normal 0 -1 0
    outer loop
      vertex 2.6 0 4
      vertex 2.6 0 3.5
      vertex 3.7 0 3.5
    endloop
  endfacet
  facet normal 0 -1 0
    outer loop
      vertex 15.4 0 3.5
      vertex 14.3 0 3.5
      vertex 22 0 2
    endloop
  endfacet
  facet normal 0 -1 0
    outer loop
      vertex 14.3 0 3.5
      vertex 14.1 0 3.5
      vertex 22 0 2
    endloop
  endfacet
  facet normal 0 -1 0
    outer loop
      vertex 14.1 0 3.5
      vertex 13 0 3.5
      vertex 22 0 2
    endloop
  endfacet
  facet normal 0 -1 0
    outer loop
      vertex 13 0 3.5
      vertex 12.8 0 3.5
      vertex 22 0 2
    endloop
  endfacet
  facet normal 0 -1 0
    outer loop
      vertex 2.4 0 3.5
      vertex 7 0 2
      vertex 19 0 0
    endloop
  endfacet
  facet normal 0 -1 0
    outer loop
      vertex 12.8 0 3.5
      vertex 11.7 0 3.5
      vertex 22 0 2
    endloop
  endfacet
  facet normal 0 -1 0
    outer loop
      vertex 11.7 0 3.5
      vertex 11.5 0 3.5
      vertex 22 0 2
    endloop
  endfacet
  facet normal 0 -1 0
    outer loop
      vertex 5 0 3.5
      vertex 3.9 0 3.5
      vertex 19 0 2
    endloop
  endfacet
  facet normal 0 -1 0
    outer loop
      vertex 11.5 0 3.5
      vertex 10.4 0 3.5
      vertex 22 0 2
    endloop
  endfacet
  facet normal 0 -1 0
    outer loop
      vertex 10.4 0 3.5
      vertex 10.2 0 3.5
      vertex 22 0 2
    endloop
  endfacet
  facet normal 0 -1 0
    outer loop
      vertex 6.5 0 4
      vertex 6.5 0 3.5
      vertex 7.6 0 3.5
    endloop
  endfacet
  facet normal 0 -1 0
    outer loop
      vertex 10.2 0 3.5
      vertex 9.1 0 3.5
      vertex 22 0 2
    endloop
  endfacet
  facet normal 0 -1 0
    outer loop
      vertex 9.1 0 3.5
      vertex 8.9 0 3.5
      vertex 22 0 2
    endloop
  endfacet
  facet normal 0 -1 0
    outer loop
      vertex 9.1 0 4
      vertex 9.1 0 3.5
      vertex 10.2 0 3.5
    endloop
  endfacet
  facet normal 0 -1 0
    outer loop
      vertex 8.9 0 3.5
      vertex 7.8 0 3.5
      vertex 22 0 2
    endloop
  endfacet
  facet normal 0 -1 0
    outer loop
      vertex 7.8 0 3.5
      vertex 7.6 0 3.5
      vertex 22 0 2
    endloop
  endfacet
  facet normal 0 -1 0
    outer loop
      vertex 11.7 0 4
      vertex 11.7 0 3.5
      vertex 12.8 0 3.5
    endloop
  endfacet
  facet normal 0 -1 0
    outer loop
      vertex 7.6 0 3.5
      vertex 6.5 0 3.5
      vertex 22 0 2
    endloop
  endfacet
  facet normal 0 -1 0
    outer loop
      vertex 6.5 0 3.5
      vertex 6.3 0 3.5
      vertex 22 0 2
    endloop
  endfacet
  facet normal 0 -1 0
    outer loop
      vertex 5.2 0 4
      vertex 5.2 0 3.5
      vertex 6.3 0 3.5
    endloop
  endfacet
  facet normal 0 -1 0
    outer loop
      vertex 14.3 0 4
      vertex 14.3 0 3.5
      vertex 15.4 0 3.5
    endloop
  endfacet
  facet normal 0 -1 0
    outer loop
      vertex 22 0 2
      vertex 5.2 0 3.5
      vertex 19 0 2
    endloop
  endfacet
  facet normal 0 -1 0
    outer loop
      vertex 5.2 0 3.5
      vertex 5 0 3.5
      vertex 19 0 2
    endloop
  endfacet
  facet normal 0 -1 0
    outer loop
      vertex 3.9 0 4
      vertex 3.9 0 3.5
      vertex 5 0 3.5
    endloop
  endfacet
  facet normal 0 -1 0
    outer loop
      vertex 16.9 0 4
      vertex 16.9 0 3.5
      vertex 18 0 3.5
    endloop
  endfacet
  facet normal 0 -1 0
    outer loop
      vertex 19 0 2
      vertex 3.9 0 3.5
      vertex 19 0 0
    endloop
  endfacet
  facet normal 0 -1 0
    outer loop
      vertex 3.9 0 3.5
      vertex 3.7 0 3.5
      vertex 19 0 0
    endloop
  endfacet
  facet normal 0 -1 0
    outer loop
      vertex 19.5 0 4
      vertex 19.5 0 3.5
      vertex 20.6 0 3.5
    endloop
  endfacet
  facet normal 0 -1 0
    outer loop
      vertex 3.7 0 3.5
      vertex 2.6 0 3.5
      vertex 19 0 0
    endloop
  endfacet
  facet normal 0 -1 0
    outer loop
      vertex 2.6 0 3.5
      vertex 2.4 0 3.5
      vertex 19 0 0
    endloop
  endfacet
  facet normal 0 -1 0
    outer loop
      vertex 2.4 0 3.5
      vertex 1.3 0 3.5
      vertex 7 0 2
    endloop
  endfacet
  facet normal 0 -1 0
    outer loop
      vertex 22.1 0 4
      vertex 22.1 0 3.5
      vertex 23.2 0 3.5
    endloop
  endfacet
  facet normal 0 -1 0
    outer loop
      vertex 7 0 2
      vertex 1.3 0 3.5
      vertex 4 0 2
    endloop
  endfacet
  facet normal 0 -1 0
    outer loop
      vertex 1.3 0 3.5
      vertex 1.1 0 3.5
      vertex 4 0 2
    endloop
  endfacet
  facet normal 0 -1 0
    outer loop
      vertex 2.4 0 3.5
      vertex 2.4 0 4
      vertex 1.3 0 4
    endloop
  endfacet
  facet normal 0 -1 0
    outer loop
      vertex 1.3 0 4
      vertex 1.3 0 3.5
      vertex 2.4 0 3.5
    endloop
  endfacet
  facet normal 0 -1 0
    outer loop
      vertex 3.7 0 3.5
      vertex 3.7 0 4
      vertex 2.6 0 4
    endloop
  endfacet
  facet normal 0 -1 0
    outer loop
      vertex 5 0 3.5
      vertex 5 0 4
      vertex 3.9 0 4
    endloop
  endfacet
  facet normal 0 -1 0
    outer loop
      vertex 6.3 0 3.5
      vertex 6.3 0 4
      vertex 5.2 0 4
    endloop
  endfacet
  facet normal 0 -1 0
    outer loop
      vertex 7.6 0 3.5
      vertex 7.6 0 4
      vertex 6.5 0 4
    endloop
  endfacet
  facet normal 0 -1 0
    outer loop
      vertex 8.9 0 3.5
      vertex 8.9 0 4
      vertex 7.8 0 4
    endloop
  endfacet
  facet normal 0 -1 0
    outer loop
      vertex 10.2 0 3.5
      vertex 10.2 0 4
      vertex 9.1 0 4
    endloop
  endfacet
  facet normal 0 -1 0
    outer loop
      vertex 11.5 0 3.5
      vertex 11.5 0 4
      vertex 10.4 0 4
    endloop
  endfacet
  facet normal 0 -1 0
    outer loop
      vertex 12.8 0 3.5
      vertex 12.8 0 4
      vertex 11.7 0 4
    endloop
  endfacet
  facet normal 0 -1 0
    outer loop
      vertex 14.1 0 3.5
      vertex 14.1 0 4
      vertex 13 0 4
    endloop
  endfacet
  facet normal 0 -1 0
    outer loop
      vertex 15.4 0 3.5
      vertex 15.4 0 4
      vertex 14.3 0 4
    endloop
  endfacet
  facet normal 0 -1 0
    outer loop
      vertex 16.7 0 3.5
      vertex 16.7 0 4
      vertex 15.6 0 4
    endloop
  endfacet
  facet normal 0 -1 0
    outer loop
      vertex 18 0 3.5
      vertex 18 0 4
      vertex 16.9 0 4
    endloop
  endfacet
  facet normal 0 -1 0
    outer loop
      vertex 19.3 0 3.5
      vertex 19.3 0 4
      vertex 18.2 0 4
    endloop
  endfacet
  facet normal 0 -1 0
    outer loop
      vertex 20.6 0 3.5
      vertex 20.6 0 4
      vertex 19.5 0 4
    endloop
  endfacet
  facet normal 0 -1 0
    outer loop
      vertex 21.9 0 3.5
      vertex 21.9 0 4
      vertex 20.8 0 4
    endloop
  endfacet
  facet normal 0 -1 0
    outer loop
      vertex 23.2 0 3.5
      vertex 23.2 0 4
      vertex 22.1 0 4
    endloop
  endfacet
  facet normal 0 -1 0
    outer loop
      vertex 24.5 0 3.5
      vertex 24.5 0 4
      vertex 23.4 0 4
    endloop
  endfacet
  facet normal 0 -1 0
    outer loop
      vertex 25.8 0 3.5
      vertex 25.8 0 4
      vertex 24.7 0 4
    endloop
  endfacet
  facet normal -0 -0 -1
    outer loop
      vertex 0 0 0
      vertex 0 4 0
      vertex 4 0 0
    endloop
  endfacet
  facet normal 0 0 -1
    outer loop
      vertex 4 0 0
      vertex 0 4 0
      vertex 2.49 4 0
    endloop
  endfacet
  facet normal 0 -0 -1
    outer loop
      vertex 4 2.49 0
      vertex 2.49 4 0
      vertex 6.99 8.5 0
    endloop
  endfacet
  facet normal 0 0 -1
    outer loop
      vertex 2.49 22 0
      vertex 0 22 0
      vertex 0 26 0
    endloop
  endfacet
  facet normal -0 -0 -1
    outer loop
      vertex 2.49 22 0
      vertex 0 26 0
      vertex 6.99 17.5 0
    endloop
  endfacet
  facet normal 0 -0 -1
    outer loop
      vertex 4 23.51 0
      vertex 0 26 0
      vertex 4 26 0
    endloop
  endfacet
  facet normal 0 0 -1
    outer loop
      vertex 6.99 17.5 0
      vertex 0 26 0
      vertex 4 23.51 0
    endloop
  endfacet
  facet normal 0 0 -1
    outer loop
      vertex 8.5 6.99 0
      vertex 13 10.75 0
      vertex 14.591 11.409 0
    endloop
  endfacet
  facet normal -0 0 -1
    outer loop
      vertex 6.99 17.5 0
      vertex 8.5 19.01 0
      vertex 6.99 8.5 0
    endloop
  endfacet
  facet normal 0 -0 -1
    outer loop
      vertex 13 15.25 0
      vertex 8.5 19.01 0
      vertex 17.5 19.01 0
    endloop
  endfacet
  facet normal 0 -0 -1
    outer loop
      vertex 22 23.51 0
      vertex 22 26 0
      vertex 26 26 0
    endloop
  endfacet
  facet normal -0 0 -1
    outer loop
      vertex 23.51 22 0
      vertex 26 26 0
      vertex 26 22 0
    endloop
  endfacet
  facet normal 0 0 -1
    outer loop
      vertex 19.01 17.5 0
      vertex 26 26 0
      vertex 23.51 22 0
    endloop
  endfacet
  facet normal 0 0 -1
    outer loop
      vertex 23.51 4 0
      vertex 26 4 0
      vertex 22 2.49 0
    endloop
  endfacet
  facet normal -0 0 -1
    outer loop
      vertex 17.5 6.99 0
      vertex 19.01 8.5 0
      vertex 23.51 4 0
    endloop
  endfacet
  facet normal 0 0 -1
    outer loop
      vertex 14.591 14.591 0
      vertex 26 26 0
      vertex 19.01 17.5 0
    endloop
  endfacet
  facet normal -0 0 -1
    outer loop
      vertex 22 0 0
      vertex 26 4 0
      vertex 26 0 0
    endloop
  endfacet
  facet normal -0 0 -1
    outer loop
      vertex 22 2.49 0
      vertex 26 4 0
      vertex 22 0 0
    endloop
  endfacet
  facet normal 0 0 -1
    outer loop
      vertex 14.591 14.591 0
      vertex 22 23.51 0
      vertex 26 26 0
    endloop
  endfacet
  facet normal -0 0 -1
    outer loop
      vertex 14.591 14.591 0
      vertex 19.01 17.5 0
      vertex 15.25 13 0
    endloop
  endfacet
  facet normal 0 0 -1
    outer loop
      vertex 4 2.49 0
      vertex 6.99 8.5 0
      vertex 8.5 6.99 0
    endloop
  endfacet
  facet normal 0 0 -1
    outer loop
      vertex 4 0 0
      vertex 2.49 4 0
      vertex 4 2.49 0
    endloop
  endfacet
  facet normal 0 0 -1
    outer loop
      vertex 11.409 11.409 0
      vertex 6.99 8.5 0
      vertex 10.75 13 0
    endloop
  endfacet
  facet normal 0 0 -1
    outer loop
      vertex 6.99 8.5 0
      vertex 8.5 19.01 0
      vertex 10.75 13 0
    endloop
  endfacet
  facet normal 0 0 -1
    outer loop
      vertex 13 10.75 0
      vertex 8.5 6.99 0
      vertex 11.409 11.409 0
    endloop
  endfacet
  facet normal -0 0 -1
    outer loop
      vertex 6.99 8.5 0
      vertex 11.409 11.409 0
      vertex 8.5 6.99 0
    endloop
  endfacet
  facet normal -0 0 -1
    outer loop
      vertex 13 15.25 0
      vertex 17.5 19.01 0
      vertex 14.591 14.591 0
    endloop
  endfacet
  facet normal 0 0 -1
    outer loop
      vertex 17.5 6.99 0
      vertex 23.51 4 0
      vertex 22 2.49 0
    endloop
  endfacet
  facet normal -0 0 -1
    outer loop
      vertex 17.5 19.01 0
      vertex 22 23.51 0
      vertex 14.591 14.591 0
    endloop
  endfacet
  facet normal 0 -0 -1
    outer loop
      vertex 11.409 14.591 0
      vertex 8.5 19.01 0
      vertex 13 15.25 0
    endloop
  endfacet
  facet normal 0 -0 -1
    outer loop
      vertex 10.75 13 0
      vertex 8.5 19.01 0
      vertex 11.409 14.591 0
    endloop
  endfacet
  facet normal 0 0 -1
    outer loop
      vertex 8.5 19.01 0
      vertex 6.99 17.5 0
      vertex 4 23.51 0
    endloop
  endfacet
  facet normal 0 0 -1
    outer loop
      vertex 19.01 8.5 0
      vertex 14.591 11.409 0
      vertex 15.25 13 0
    endloop
  endfacet
  facet normal 0 0 -1
    outer loop
      vertex 19.01 8.5 0
      vertex 15.25 13 0
      vertex 19.01 17.5 0
    endloop
  endfacet
  facet normal 0 0 -1
    outer loop
      vertex 8.5 6.99 0
      vertex 14.591 11.409 0
      vertex 19.01 8.5 0
    endloop
  endfacet
  facet normal -0 0 -1
    outer loop
      vertex 8.5 6.99 0
      vertex 19.01 8.5 0
      vertex 17.5 6.99 0
    endloop
  endfacet
  facet normal 0 1 0
    outer loop
      vertex 2.49 4 2
      vertex 2.49 4 0
      vertex 0 4 2
    endloop
  endfacet
  facet normal 0 1 -0
    outer loop
      vertex 0 4 2
      vertex 2.49 4 0
      vertex 0 4 0
    endloop
  endfacet
  facet normal 0 0 -1
    outer loop
      vertex 2.49 22 2
      vertex 3.99 16.2574 2
      vertex 0 22 2
    endloop
  endfacet
  facet normal 0 0 -1
    outer loop
      vertex 0 22 2
      vertex 1.24736 19 2
      vertex 0 19 2
    endloop
  endfacet
  facet normal 0 0 -1
    outer loop
      vertex 3.99 16.2574 2
      vertex 1.24736 19 2
      vertex 0 22 2
    endloop
  endfacet
  facet normal 0 0 -1
    outer loop
      vertex 6.99 17.5 2
      vertex 3.99 16.2574 2
      vertex 2.49 22 2
    endloop
  endfacet
  facet normal 0 -0 -1
    outer loop
      vertex 3.99 9.74264 2
      vertex 3.99 16.2574 2
      vertex 6.99 17.5 2
    endloop
  endfacet
  facet normal 0 0 -1
    outer loop
      vertex 6.99 8.5 2
      vertex 3.99 9.74264 2
      vertex 6.99 17.5 2
    endloop
  endfacet
  facet normal 0 0 -1
    outer loop
      vertex 1.24736 7 2
      vertex 3.99 9.74264 2
      vertex 6.99 8.5 2
    endloop
  endfacet
  facet normal -0 0 -1
    outer loop
      vertex 1.24736 7 2
      vertex 6.99 8.5 2
      vertex 2.49 4 2
    endloop
  endfacet
  facet normal 0 0 -1
    outer loop
      vertex 1.24736 7 2
      vertex 2.49 4 2
      vertex 0 7 2
    endloop
  endfacet
  facet normal 0 0 -1
    outer loop
      vertex 2.49 4 2
      vertex 0 4 2
      vertex 0 7 2
    endloop
  endfacet
  facet normal 0 -1 0
    outer loop
      vertex 1.24736 7 0
      vertex 1.24736 7 2
      vertex 0 7 2
    endloop
  endfacet
  facet normal -0 -1 -0
    outer loop
      vertex 0 7 0
      vertex 1.24736 7 0
      vertex 0 7 2
    endloop
  endfacet
  facet normal -0 -0 -1
    outer loop
      vertex 0 7 0
      vertex 0 19 0
      vertex 1.24736 7 0
    endloop
  endfacet
  facet normal 0 -0 -1
    outer loop
      vertex 1.24736 7 0
      vertex 0 19 0
      vertex 1.24736 19 0
    endloop
  endfacet
  facet normal 0 0 -1
    outer loop
      vertex 1.24736 7 0
      vertex 1.24736 19 0
      vertex 3.99 16.2574 0
    endloop
  endfacet
  facet normal 0 0 -1
    outer loop
      vertex 1.24736 7 0
      vertex 3.99 16.2574 0
      vertex 3.99 9.74264 0
    endloop
  endfacet
  facet normal 0 1 0
    outer loop
      vertex 1.24736 19 2
      vertex 1.24736 19 0
      vertex 0 19 2
    endloop
  endfacet
  facet normal 0 1 -0
    outer loop
      vertex 0 19 2
      vertex 1.24736 19 0
      vertex 0 19 0
    endloop
  endfacet
  facet normal 0 -1 0
    outer loop
      vertex 2.49 22 0
      vertex 2.49 22 2
      vertex 0 22 2
    endloop
  endfacet
  facet normal -0 -1 -0
    outer loop
      vertex 0 22 0
      vertex 2.49 22 0
      vertex 0 22 2
    endloop
  endfacet
  facet normal 0 1 0
    outer loop
      vertex 0 26 0
      vertex 0 26 4
      vertex 4 26 0
    endloop
  endfacet
  facet normal 0 1 0
    outer loop
      vertex 1.1 26 3.5
      vertex 0 26 4
      vertex 1.1 26 4
    endloop
  endfacet
  facet normal 0 1 0
    outer loop
      vertex 4 26 0
      vertex 0 26 4
      vertex 1.1 26 3.5
    endloop
  endfacet
  facet normal 0 1 0
    outer loop
      vertex 4 26 0
      vertex 1.1 26 3.5
      vertex 1.3 26 3.5
    endloop
  endfacet
  facet normal 0 1 -0
    outer loop
      vertex 2.6 26 3.5
      vertex 4 26 0
      vertex 2.4 26 3.5
    endloop
  endfacet
  facet normal 0 1 0
    outer loop
      vertex 2.4 26 3.5
      vertex 1.3 26 4
      vertex 2.4 26 4
    endloop
  endfacet
  facet normal 0 1 0
    outer loop
      vertex 4 26 0
      vertex 1.3 26 4
      vertex 2.4 26 3.5
    endloop
  endfacet
  facet normal 0 1 -0
    outer loop
      vertex 3.9 26 3.5
      vertex 4 26 0
      vertex 3.7 26 3.5
    endloop
  endfacet
  facet normal 0 1 0
    outer loop
      vertex 4 26 0
      vertex 2.6 26 3.5
      vertex 2.6 26 4
    endloop
  endfacet
  facet normal 0 1 0
    outer loop
      vertex 3.7 26 3.5
      vertex 2.6 26 4
      vertex 3.7 26 4
    endloop
  endfacet
  facet normal 0 1 0
    outer loop
      vertex 4 26 0
      vertex 2.6 26 4
      vertex 3.7 26 3.5
    endloop
  endfacet
  facet normal -0 1 0
    outer loop
      vertex 19 26 0
      vertex 7 26 0
      vertex 19 26 2
    endloop
  endfacet
  facet normal 0 1 0
    outer loop
      vertex 4 26 0
      vertex 3.9 26 3.5
      vertex 3.9 26 4
    endloop
  endfacet
  facet normal 0 1 0
    outer loop
      vertex 4 26 2
      vertex 3.9 26 4
      vertex 5 26 4
    endloop
  endfacet
  facet normal 0 1 0
    outer loop
      vertex 5.2 26 3.5
      vertex 5.2 26 4
      vertex 6.3 26 4
    endloop
  endfacet
  facet normal 0 1 0
    outer loop
      vertex 6.5 26 3.5
      vertex 6.5 26 4
      vertex 7.6 26 4
    endloop
  endfacet
  facet normal 0 1 0
    outer loop
      vertex 7.8 26 3.5
      vertex 7.8 26 4
      vertex 8.9 26 4
    endloop
  endfacet
  facet normal 0 1 0
    outer loop
      vertex 9.1 26 3.5
      vertex 9.1 26 4
      vertex 10.2 26 4
    endloop
  endfacet
  facet normal 0 1 0
    outer loop
      vertex 4 26 2
      vertex 5 26 4
      vertex 5 26 3.5
    endloop
  endfacet
  facet normal 0 1 0
    outer loop
      vertex 4 26 2
      vertex 5 26 3.5
      vertex 5.2 26 3.5
    endloop
  endfacet
  facet normal 0 1 0
    outer loop
      vertex 4 26 2
      vertex 5.2 26 3.5
      vertex 6.3 26 4
    endloop
  endfacet
  facet normal 0 1 0
    outer loop
      vertex 10.4 26 3.5
      vertex 10.4 26 4
      vertex 11.5 26 4
    endloop
  endfacet
  facet normal 0 1 0
    outer loop
      vertex 4 26 2
      vertex 6.3 26 4
      vertex 6.3 26 3.5
    endloop
  endfacet
  facet normal 0 1 0
    outer loop
      vertex 4 26 2
      vertex 6.3 26 3.5
      vertex 6.5 26 3.5
    endloop
  endfacet
  facet normal 0 1 0
    outer loop
      vertex 4 26 2
      vertex 6.5 26 3.5
      vertex 7.6 26 4
    endloop
  endfacet
  facet normal 0 1 0
    outer loop
      vertex 11.7 26 3.5
      vertex 11.7 26 4
      vertex 12.8 26 4
    endloop
  endfacet
  facet normal 0 1 0
    outer loop
      vertex 11.7 26 3.5
      vertex 12.8 26 4
      vertex 12.8 26 3.5
    endloop
  endfacet
  facet normal 0 1 0
    outer loop
      vertex 4 26 2
      vertex 7.6 26 4
      vertex 7.6 26 3.5
    endloop
  endfacet
  facet normal 0 1 0
    outer loop
      vertex 4 26 2
      vertex 7.6 26 3.5
      vertex 7.8 26 3.5
    endloop
  endfacet
  facet normal 0 1 0
    outer loop
      vertex 13 26 3.5
      vertex 13 26 4
      vertex 14.1 26 4
    endloop
  endfacet
  facet normal 0 1 0
    outer loop
      vertex 13 26 3.5
      vertex 14.1 26 4
      vertex 14.1 26 3.5
    endloop
  endfacet
  facet normal 0 1 0
    outer loop
      vertex 7.8 26 3.5
      vertex 8.9 26 4
      vertex 8.9 26 3.5
    endloop
  endfacet
  facet normal 0 1 0
    outer loop
      vertex 4 26 2
      vertex 7.8 26 3.5
      vertex 8.9 26 3.5
    endloop
  endfacet
  facet normal 0 1 0
    outer loop
      vertex 14.3 26 3.5
      vertex 14.3 26 4
      vertex 15.4 26 4
    endloop
  endfacet
  facet normal 0 1 0
    outer loop
      vertex 14.3 26 3.5
      vertex 15.4 26 4
      vertex 15.4 26 3.5
    endloop
  endfacet
  facet normal 0 1 0
    outer loop
      vertex 4 26 2
      vertex 8.9 26 3.5
      vertex 9.1 26 3.5
    endloop
  endfacet
  facet normal 0 1 0
    outer loop
      vertex 4 26 2
      vertex 9.1 26 3.5
      vertex 7 26 2
    endloop
  endfacet
  facet normal 0 1 0
    outer loop
      vertex 15.6 26 3.5
      vertex 15.6 26 4
      vertex 16.7 26 4
    endloop
  endfacet
  facet normal 0 1 0
    outer loop
      vertex 15.6 26 3.5
      vertex 16.7 26 4
      vertex 16.7 26 3.5
    endloop
  endfacet
  facet normal 0 1 0
    outer loop
      vertex 16.9 26 3.5
      vertex 16.9 26 4
      vertex 18 26 4
    endloop
  endfacet
  facet normal 0 1 0
    outer loop
      vertex 16.9 26 3.5
      vertex 18 26 4
      vertex 18 26 3.5
    endloop
  endfacet
  facet normal 0 1 0
    outer loop
      vertex 18.2 26 3.5
      vertex 18.2 26 4
      vertex 19.3 26 4
    endloop
  endfacet
  facet normal 0 1 0
    outer loop
      vertex 18.2 26 3.5
      vertex 19.3 26 4
      vertex 19.3 26 3.5
    endloop
  endfacet
  facet normal 0 1 0
    outer loop
      vertex 19.5 26 3.5
      vertex 19.5 26 4
      vertex 20.6 26 4
    endloop
  endfacet
  facet normal 0 1 0
    outer loop
      vertex 19.5 26 3.5
      vertex 20.6 26 4
      vertex 20.6 26 3.5
    endloop
  endfacet
  facet normal 0 1 0
    outer loop
      vertex 20.8 26 3.5
      vertex 20.8 26 4
      vertex 21.9 26 4
    endloop
  endfacet
  facet normal 0 1 0
    outer loop
      vertex 20.8 26 3.5
      vertex 21.9 26 4
      vertex 21.9 26 3.5
    endloop
  endfacet
  facet normal 0 1 0
    outer loop
      vertex 22.1 26 3.5
      vertex 22.1 26 4
      vertex 23.2 26 4
    endloop
  endfacet
  facet normal 0 1 0
    outer loop
      vertex 22.1 26 3.5
      vertex 23.2 26 4
      vertex 23.2 26 3.5
    endloop
  endfacet
  facet normal 0 1 0
    outer loop
      vertex 23.4 26 3.5
      vertex 23.4 26 4
      vertex 24.5 26 4
    endloop
  endfacet
  facet normal 0 1 0
    outer loop
      vertex 23.4 26 3.5
      vertex 24.5 26 4
      vertex 24.5 26 3.5
    endloop
  endfacet
  facet normal 0 1 0
    outer loop
      vertex 24.7 26 3.5
      vertex 24.7 26 4
      vertex 25.8 26 4
    endloop
  endfacet
  facet normal 0 1 0
    outer loop
      vertex 24.7 26 3.5
      vertex 25.8 26 4
      vertex 25.8 26 3.5
    endloop
  endfacet
  facet normal 0 1 0
    outer loop
      vertex 22 26 0
      vertex 26 26 3.5
      vertex 26 26 0
    endloop
  endfacet
  facet normal 0 1 -0
    outer loop
      vertex 22 26 2
      vertex 26 26 3.5
      vertex 22 26 0
    endloop
  endfacet
  facet normal 0 1 0
    outer loop
      vertex 19 26 2
      vertex 26 26 3.5
      vertex 22 26 2
    endloop
  endfacet
  facet normal 0 1 0
    outer loop
      vertex 10.4 26 3.5
      vertex 11.5 26 4
      vertex 11.5 26 3.5
    endloop
  endfacet
  facet normal 0 1 0
    outer loop
      vertex 7 26 2
      vertex 10.2 26 4
      vertex 10.2 26 3.5
    endloop
  endfacet
  facet normal 0 1 0
    outer loop
      vertex 7 26 2
      vertex 10.2 26 3.5
      vertex 10.4 26 3.5
    endloop
  endfacet
  facet normal 0 1 -0
    outer loop
      vertex 9.1 26 3.5
      vertex 10.2 26 4
      vertex 7 26 2
    endloop
  endfacet
  facet normal 0 1 0
    outer loop
      vertex 4 26 0
      vertex 3.9 26 4
      vertex 4 26 2
    endloop
  endfacet
  facet normal 0 1 -0
    outer loop
      vertex 1.3 26 4
      vertex 4 26 0
      vertex 1.3 26 3.5
    endloop
  endfacet
  facet normal 0 1 0
    outer loop
      vertex 7 26 2
      vertex 10.4 26 3.5
      vertex 11.5 26 3.5
    endloop
  endfacet
  facet normal 0 1 0
    outer loop
      vertex 7 26 2
      vertex 11.5 26 3.5
      vertex 11.7 26 3.5
    endloop
  endfacet
  facet normal 0 1 0
    outer loop
      vertex 7 26 2
      vertex 11.7 26 3.5
      vertex 12.8 26 3.5
    endloop
  endfacet
  facet normal 0 1 0
    outer loop
      vertex 7 26 2
      vertex 12.8 26 3.5
      vertex 13 26 3.5
    endloop
  endfacet
  facet normal 0 1 0
    outer loop
      vertex 7 26 2
      vertex 13 26 3.5
      vertex 14.1 26 3.5
    endloop
  endfacet
  facet normal 0 1 0
    outer loop
      vertex 7 26 2
      vertex 14.1 26 3.5
      vertex 14.3 26 3.5
    endloop
  endfacet
  facet normal 0 1 0
    outer loop
      vertex 7 26 2
      vertex 14.3 26 3.5
      vertex 15.4 26 3.5
    endloop
  endfacet
  facet normal 0 1 0
    outer loop
      vertex 7 26 2
      vertex 15.4 26 3.5
      vertex 15.6 26 3.5
    endloop
  endfacet
  facet normal 0 1 0
    outer loop
      vertex 7 26 2
      vertex 15.6 26 3.5
      vertex 16.7 26 3.5
    endloop
  endfacet
  facet normal 0 1 0
    outer loop
      vertex 7 26 2
      vertex 16.7 26 3.5
      vertex 16.9 26 3.5
    endloop
  endfacet
  facet normal 0 1 0
    outer loop
      vertex 7 26 2
      vertex 16.9 26 3.5
      vertex 18 26 3.5
    endloop
  endfacet
  facet normal 0 1 0
    outer loop
      vertex 7 26 2
      vertex 18 26 3.5
      vertex 18.2 26 3.5
    endloop
  endfacet
  facet normal 0 1 0
    outer loop
      vertex 7 26 2
      vertex 18.2 26 3.5
      vertex 19.3 26 3.5
    endloop
  endfacet
  facet normal 0 1 0
    outer loop
      vertex 7 26 2
      vertex 19.3 26 3.5
      vertex 19.5 26 3.5
    endloop
  endfacet
  facet normal 0 1 0
    outer loop
      vertex 7 26 2
      vertex 19.5 26 3.5
      vertex 20.6 26 3.5
    endloop
  endfacet
  facet normal 0 1 0
    outer loop
      vertex 7 26 2
      vertex 20.6 26 3.5
      vertex 20.8 26 3.5
    endloop
  endfacet
  facet normal 0 1 0
    outer loop
      vertex 7 26 2
      vertex 20.8 26 3.5
      vertex 21.9 26 3.5
    endloop
  endfacet
  facet normal 0 1 0
    outer loop
      vertex 7 26 2
      vertex 21.9 26 3.5
      vertex 22.1 26 3.5
    endloop
  endfacet
  facet normal 0 1 0
    outer loop
      vertex 7 26 2
      vertex 22.1 26 3.5
      vertex 23.2 26 3.5
    endloop
  endfacet
  facet normal 0 1 0
    outer loop
      vertex 7 26 2
      vertex 23.2 26 3.5
      vertex 23.4 26 3.5
    endloop
  endfacet
  facet normal 0 1 0
    outer loop
      vertex 7 26 2
      vertex 23.4 26 3.5
      vertex 24.5 26 3.5
    endloop
  endfacet
  facet normal 0 1 0
    outer loop
      vertex 7 26 2
      vertex 24.5 26 3.5
      vertex 24.7 26 3.5
    endloop
  endfacet
  facet normal 0 1 0
    outer loop
      vertex 7 26 2
      vertex 24.7 26 3.5
      vertex 25.8 26 3.5
    endloop
  endfacet
  facet normal 0 1 0
    outer loop
      vertex 7 26 2
      vertex 25.8 26 3.5
      vertex 26 26 3.5
    endloop
  endfacet
  facet normal 0 1 0
    outer loop
      vertex 7 26 2
      vertex 26 26 3.5
      vertex 19 26 2
    endloop
  endfacet
  facet normal 0 1 -0
    outer loop
      vertex 7 26 2
      vertex 19 26 2
      vertex 7 26 0
    endloop
  endfacet
  facet normal 0 -0 1
    outer loop
      vertex 0 26 4
      vertex 0 0 4
      vertex 1.1 0 4
    endloop
  endfacet
  facet normal 0 0 1
    outer loop
      vertex 1.1 26 4
      vertex 0 26 4
      vertex 1.1 0 4
    endloop
  endfacet
  facet normal 1 0 -0
    outer loop
      vertex 1.1 0 4
      vertex 1.1 0 3.5
      vertex 1.1 26 3.5
    endloop
  endfacet
  facet normal 1 0 0
    outer loop
      vertex 1.1 26 4
      vertex 1.1 0 4
      vertex 1.1 26 3.5
    endloop
  endfacet
  facet normal 0 -0 1
    outer loop
      vertex 1.1 26 3.5
      vertex 1.1 0 3.5
      vertex 1.3 0 3.5
    endloop
  endfacet
  facet normal 0 0 1
    outer loop
      vertex 1.3 26 3.5
      vertex 1.1 26 3.5
      vertex 1.3 0 3.5
    endloop
  endfacet
  facet normal -1 -0 -0
    outer loop
      vertex 1.3 0 3.5
      vertex 1.3 0 4
      vertex 1.3 26 3.5
    endloop
  endfacet
  facet normal -1 0 0
    outer loop
      vertex 1.3 26 3.5
      vertex 1.3 0 4
      vertex 1.3 26 4
    endloop
  endfacet
  facet normal 0 -0 1
    outer loop
      vertex 1.3 26 4
      vertex 1.3 0 4
      vertex 2.4 0 4
    endloop
  endfacet
  facet normal 0 0 1
    outer loop
      vertex 2.4 26 4
      vertex 1.3 26 4
      vertex 2.4 0 4
    endloop
  endfacet
  facet normal 1 0 -0
    outer loop
      vertex 2.4 0 4
      vertex 2.4 0 3.5
      vertex 2.4 26 3.5
    endloop
  endfacet
  facet normal 1 0 0
    outer loop
      vertex 2.4 26 4
      vertex 2.4 0 4
      vertex 2.4 26 3.5
    endloop
  endfacet
  facet normal 0 -0 1
    outer loop
      vertex 2.4 26 3.5
      vertex 2.4 0 3.5
      vertex 2.6 0 3.5
    endloop
  endfacet
  facet normal 0 0 1
    outer loop
      vertex 2.6 26 3.5
      vertex 2.4 26 3.5
      vertex 2.6 0 3.5
    endloop
  endfacet
  facet normal -1 -0 -0
    outer loop
      vertex 2.6 0 3.5
      vertex 2.6 0 4
      vertex 2.6 26 3.5
    endloop
  endfacet
  facet normal -1 0 0
    outer loop
      vertex 2.6 26 3.5
      vertex 2.6 0 4
      vertex 2.6 26 4
    endloop
  endfacet
  facet normal 0 -0 1
    outer loop
      vertex 2.6 26 4
      vertex 2.6 0 4
      vertex 3.7 0 4
    endloop
  endfacet
  facet normal 0 0 1
    outer loop
      vertex 3.7 26 4
      vertex 2.6 26 4
      vertex 3.7 0 4
    endloop
  endfacet
  facet normal 1 0 -0
    outer loop
      vertex 3.7 0 4
      vertex 3.7 0 3.5
      vertex 3.7 26 3.5
    endloop
  endfacet
  facet normal 1 0 0
    outer loop
      vertex 3.7 26 4
      vertex 3.7 0 4
      vertex 3.7 26 3.5
    endloop
  endfacet
  facet normal 0 -0 1
    outer loop
      vertex 3.7 26 3.5
      vertex 3.7 0 3.5
      vertex 3.9 0 3.5
    endloop
  endfacet
  facet normal 0 0 1
    outer loop
      vertex 3.9 26 3.5
      vertex 3.7 26 3.5
      vertex 3.9 0 3.5
    endloop
  endfacet
  facet normal -1 -0 -0
    outer loop
      vertex 3.9 0 3.5
      vertex 3.9 0 4
      vertex 3.9 26 3.5
    endloop
  endfacet
  facet normal -1 0 0
    outer loop
      vertex 3.9 26 3.5
      vertex 3.9 0 4
      vertex 3.9 26 4
    endloop
  endfacet
  facet normal 0 -0 1
    outer loop
      vertex 3.9 26 4
      vertex 3.9 0 4
      vertex 5 0 4
    endloop
  endfacet
  facet normal 0 0 1
    outer loop
      vertex 5 26 4
      vertex 3.9 26 4
      vertex 5 0 4
    endloop
  endfacet
  facet normal 1 0 -0
    outer loop
      vertex 5 0 4
      vertex 5 0 3.5
      vertex 5 26 3.5
    endloop
  endfacet
  facet normal 1 0 0
    outer loop
      vertex 5 26 4
      vertex 5 0 4
      vertex 5 26 3.5
    endloop
  endfacet
  facet normal 0 -0 1
    outer loop
      vertex 5 26 3.5
      vertex 5 0 3.5
      vertex 5.2 0 3.5
    endloop
  endfacet
  facet normal 0 0 1
    outer loop
      vertex 5.2 26 3.5
      vertex 5 26 3.5
      vertex 5.2 0 3.5
    endloop
  endfacet
  facet normal -1 -0 -0
    outer loop
      vertex 5.2 0 3.5
      vertex 5.2 0 4
      vertex 5.2 26 3.5
    endloop
  endfacet
  facet normal -1 0 0
    outer loop
      vertex 5.2 26 3.5
      vertex 5.2 0 4
      vertex 5.2 26 4
    endloop
  endfacet
  facet normal 0 -0 1
    outer loop
      vertex 5.2 26 4
      vertex 5.2 0 4
      vertex 6.3 0 4
    endloop
  endfacet
  facet normal 0 0 1
    outer loop
      vertex 6.3 26 4
      vertex 5.2 26 4
      vertex 6.3 0 4
    endloop
  endfacet
  facet normal 1 0 -0
    outer loop
      vertex 6.3 0 4
      vertex 6.3 0 3.5
      vertex 6.3 26 3.5
    endloop
  endfacet
  facet normal 1 0 0
    outer loop
      vertex 6.3 26 4
      vertex 6.3 0 4
      vertex 6.3 26 3.5
    endloop
  endfacet
  facet normal 0 -0 1
    outer loop
      vertex 6.3 26 3.5
      vertex 6.3 0 3.5
      vertex 6.5 0 3.5
    endloop
  endfacet
  facet normal 0 0 1
    outer loop
      vertex 6.5 26 3.5
      vertex 6.3 26 3.5
      vertex 6.5 0 3.5
    endloop
  endfacet
  facet normal -1 -0 -0
    outer loop
      vertex 6.5 0 3.5
      vertex 6.5 0 4
      vertex 6.5 26 3.5
    endloop
  endfacet
  facet normal -1 0 0
    outer loop
      vertex 6.5 26 3.5
      vertex 6.5 0 4
      vertex 6.5 26 4
    endloop
  endfacet
  facet normal 0 -0 1
    outer loop
      vertex 6.5 26 4
      vertex 6.5 0 4
      vertex 7.6 0 4
    endloop
  endfacet
  facet normal 0 0 1
    outer loop
      vertex 7.6 26 4
      vertex 6.5 26 4
      vertex 7.6 0 4
    endloop
  endfacet
  facet normal 1 0 -0
    outer loop
      vertex 7.6 0 4
      vertex 7.6 0 3.5
      vertex 7.6 26 3.5
    endloop
  endfacet
  facet normal 1 0 0
    outer loop
      vertex 7.6 26 4
      vertex 7.6 0 4
      vertex 7.6 26 3.5
    endloop
  endfacet
  facet normal 0 -0 1
    outer loop
      vertex 7.6 26 3.5
      vertex 7.6 0 3.5
      vertex 7.8 0 3.5
    endloop
  endfacet
  facet normal 0 0 1
    outer loop
      vertex 7.8 26 3.5
      vertex 7.6 26 3.5
      vertex 7.8 0 3.5
    endloop
  endfacet
  facet normal -1 -0 -0
    outer loop
      vertex 7.8 0 3.5
      vertex 7.8 0 4
      vertex 7.8 26 3.5
    endloop
  endfacet
  facet normal -1 0 0
    outer loop
      vertex 7.8 26 3.5
      vertex 7.8 0 4
      vertex 7.8 26 4
    endloop
  endfacet
  facet normal 0 -0 1
    outer loop
      vertex 7.8 26 4
      vertex 7.8 0 4
      vertex 8.9 0 4
    endloop
  endfacet
  facet normal 0 0 1
    outer loop
      vertex 8.9 26 4
      vertex 7.8 26 4
      vertex 8.9 0 4
    endloop
  endfacet
  facet normal 1 0 -0
    outer loop
      vertex 8.9 0 4
      vertex 8.9 0 3.5
      vertex 8.9 26 3.5
    endloop
  endfacet
  facet normal 1 0 0
    outer loop
      vertex 8.9 26 4
      vertex 8.9 0 4
      vertex 8.9 26 3.5
    endloop
  endfacet
  facet normal 0 -0 1
    outer loop
      vertex 8.9 26 3.5
      vertex 8.9 0 3.5
      vertex 9.1 0 3.5
    endloop
  endfacet
  facet normal 0 0 1
    outer loop
      vertex 9.1 26 3.5
      vertex 8.9 26 3.5
      vertex 9.1 0 3.5
    endloop
  endfacet
  facet normal -1 -0 -0
    outer loop
      vertex 9.1 0 3.5
      vertex 9.1 0 4
      vertex 9.1 26 3.5
    endloop
  endfacet
  facet normal -1 0 0
    outer loop
      vertex 9.1 26 3.5
      vertex 9.1 0 4
      vertex 9.1 26 4
    endloop
  endfacet
  facet normal 0 -0 1
    outer loop
      vertex 9.1 26 4
      vertex 9.1 0 4
      vertex 10.2 0 4
    endloop
  endfacet
  facet normal 0 0 1
    outer loop
      vertex 10.2 26 4
      vertex 9.1 26 4
      vertex 10.2 0 4
    endloop
  endfacet
  facet normal 1 0 -0
    outer loop
      vertex 10.2 0 4
      vertex 10.2 0 3.5
      vertex 10.2 26 3.5
    endloop
  endfacet
  facet normal 1 0 0
    outer loop
      vertex 10.2 26 4
      vertex 10.2 0 4
      vertex 10.2 26 3.5
    endloop
  endfacet
  facet normal 0 -0 1
    outer loop
      vertex 10.2 26 3.5
      vertex 10.2 0 3.5
      vertex 10.4 0 3.5
    endloop
  endfacet
  facet normal 0 0 1
    outer loop
      vertex 10.4 26 3.5
      vertex 10.2 26 3.5
      vertex 10.4 0 3.5
    endloop
  endfacet
  facet normal -1 -0 -0
    outer loop
      vertex 10.4 0 3.5
      vertex 10.4 0 4
      vertex 10.4 26 3.5
    endloop
  endfacet
  facet normal -1 0 0
    outer loop
      vertex 10.4 26 3.5
      vertex 10.4 0 4
      vertex 10.4 26 4
    endloop
  endfacet
  facet normal 0 -0 1
    outer loop
      vertex 10.4 26 4
      vertex 10.4 0 4
      vertex 11.5 0 4
    endloop
  endfacet
  facet normal 0 0 1
    outer loop
      vertex 11.5 26 4
      vertex 10.4 26 4
      vertex 11.5 0 4
    endloop
  endfacet
  facet normal 1 0 -0
    outer loop
      vertex 11.5 0 4
      vertex 11.5 0 3.5
      vertex 11.5 26 3.5
    endloop
  endfacet
  facet normal 1 0 0
    outer loop
      vertex 11.5 26 4
      vertex 11.5 0 4
      vertex 11.5 26 3.5
    endloop
  endfacet
  facet normal 0 -0 1
    outer loop
      vertex 11.5 26 3.5
      vertex 11.5 0 3.5
      vertex 11.7 0 3.5
    endloop
  endfacet
  facet normal 0 0 1
    outer loop
      vertex 11.7 26 3.5
      vertex 11.5 26 3.5
      vertex 11.7 0 3.5
    endloop
  endfacet
  facet normal -1 -0 -0
    outer loop
      vertex 11.7 0 3.5
      vertex 11.7 0 4
      vertex 11.7 26 3.5
    endloop
  endfacet
  facet normal -1 0 0
    outer loop
      vertex 11.7 26 3.5
      vertex 11.7 0 4
      vertex 11.7 26 4
    endloop
  endfacet
  facet normal 0 -0 1
    outer loop
      vertex 11.7 26 4
      vertex 11.7 0 4
      vertex 12.8 0 4
    endloop
  endfacet
  facet normal 0 0 1
    outer loop
      vertex 12.8 26 4
      vertex 11.7 26 4
      vertex 12.8 0 4
    endloop
  endfacet
  facet normal 1 0 -0
    outer loop
      vertex 12.8 0 4
      vertex 12.8 0 3.5
      vertex 12.8 26 3.5
    endloop
  endfacet
  facet normal 1 0 0
    outer loop
      vertex 12.8 26 4
      vertex 12.8 0 4
      vertex 12.8 26 3.5
    endloop
  endfacet
  facet normal 0 -0 1
    outer loop
      vertex 12.8 26 3.5
      vertex 12.8 0 3.5
      vertex 13 0 3.5
    endloop
  endfacet
  facet normal 0 0 1
    outer loop
      vertex 13 26 3.5
      vertex 12.8 26 3.5
      vertex 13 0 3.5
    endloop
  endfacet
  facet normal -1 -0 -0
    outer loop
      vertex 13 0 3.5
      vertex 13 0 4
      vertex 13 26 3.5
    endloop
  endfacet
  facet normal -1 0 0
    outer loop
      vertex 13 26 3.5
      vertex 13 0 4
      vertex 13 26 4
    endloop
  endfacet
  facet normal 0 -0 1
    outer loop
      vertex 13 26 4
      vertex 13 0 4
      vertex 14.1 0 4
    endloop
  endfacet
  facet normal 0 0 1
    outer loop
      vertex 14.1 26 4
      vertex 13 26 4
      vertex 14.1 0 4
    endloop
  endfacet
  facet normal 1 0 -0
    outer loop
      vertex 14.1 0 4
      vertex 14.1 0 3.5
      vertex 14.1 26 3.5
    endloop
  endfacet
  facet normal 1 0 0
    outer loop
      vertex 14.1 26 4
      vertex 14.1 0 4
      vertex 14.1 26 3.5
    endloop
  endfacet
  facet normal 0 -0 1
    outer loop
      vertex 14.1 26 3.5
      vertex 14.1 0 3.5
      vertex 14.3 0 3.5
    endloop
  endfacet
  facet normal 0 0 1
    outer loop
      vertex 14.3 26 3.5
      vertex 14.1 26 3.5
      vertex 14.3 0 3.5
    endloop
  endfacet
  facet normal -1 -0 -0
    outer loop
      vertex 14.3 0 3.5
      vertex 14.3 0 4
      vertex 14.3 26 3.5
    endloop
  endfacet
  facet normal -1 0 0
    outer loop
      vertex 14.3 26 3.5
      vertex 14.3 0 4
      vertex 14.3 26 4
    endloop
  endfacet
  facet normal 0 -0 1
    outer loop
      vertex 14.3 26 4
      vertex 14.3 0 4
      vertex 15.4 0 4
    endloop
  endfacet
  facet normal 0 0 1
    outer loop
      vertex 15.4 26 4
      vertex 14.3 26 4
      vertex 15.4 0 4
    endloop
  endfacet
  facet normal 1 0 -0
    outer loop
      vertex 15.4 0 4
      vertex 15.4 0 3.5
      vertex 15.4 26 3.5
    endloop
  endfacet
  facet normal 1 0 0
    outer loop
      vertex 15.4 26 4
      vertex 15.4 0 4
      vertex 15.4 26 3.5
    endloop
  endfacet
  facet normal 0 -0 1
    outer loop
      vertex 15.4 26 3.5
      vertex 15.4 0 3.5
      vertex 15.6 0 3.5
    endloop
  endfacet
  facet normal 0 0 1
    outer loop
      vertex 15.6 26 3.5
      vertex 15.4 26 3.5
      vertex 15.6 0 3.5
    endloop
  endfacet
  facet normal -1 -0 -0
    outer loop
      vertex 15.6 0 3.5
      vertex 15.6 0 4
      vertex 15.6 26 3.5
    endloop
  endfacet
  facet normal -1 0 0
    outer loop
      vertex 15.6 26 3.5
      vertex 15.6 0 4
      vertex 15.6 26 4
    endloop
  endfacet
  facet normal 0 -0 1
    outer loop
      vertex 15.6 26 4
      vertex 15.6 0 4
      vertex 16.7 0 4
    endloop
  endfacet
  facet normal 0 0 1
    outer loop
      vertex 16.7 26 4
      vertex 15.6 26 4
      vertex 16.7 0 4
    endloop
  endfacet
  facet normal 1 0 -0
    outer loop
      vertex 16.7 0 4
      vertex 16.7 0 3.5
      vertex 16.7 26 3.5
    endloop
  endfacet
  facet normal 1 0 0
    outer loop
      vertex 16.7 26 4
      vertex 16.7 0 4
      vertex 16.7 26 3.5
    endloop
  endfacet
  facet normal 0 -0 1
    outer loop
      vertex 16.7 26 3.5
      vertex 16.7 0 3.5
      vertex 16.9 0 3.5
    endloop
  endfacet
  facet normal 0 0 1
    outer loop
      vertex 16.9 26 3.5
      vertex 16.7 26 3.5
      vertex 16.9 0 3.5
    endloop
  endfacet
  facet normal -1 -0 -0
    outer loop
      vertex 16.9 0 3.5
      vertex 16.9 0 4
      vertex 16.9 26 3.5
    endloop
  endfacet
  facet normal -1 0 0
    outer loop
      vertex 16.9 26 3.5
      vertex 16.9 0 4
      vertex 16.9 26 4
    endloop
  endfacet
  facet normal 0 -0 1
    outer loop
      vertex 16.9 26 4
      vertex 16.9 0 4
      vertex 18 0 4
    endloop
  endfacet
  facet normal 0 0 1
    outer loop
      vertex 18 26 4
      vertex 16.9 26 4
      vertex 18 0 4
    endloop
  endfacet
  facet normal 1 0 -0
    outer loop
      vertex 18 0 4
      vertex 18 0 3.5
      vertex 18 26 3.5
    endloop
  endfacet
  facet normal 1 0 0
    outer loop
      vertex 18 26 4
      vertex 18 0 4
      vertex 18 26 3.5
    endloop
  endfacet
  facet normal 0 -0 1
    outer loop
      vertex 18 26 3.5
      vertex 18 0 3.5
      vertex 18.2 0 3.5
    endloop
  endfacet
  facet normal 0 0 1
    outer loop
      vertex 18.2 26 3.5
      vertex 18 26 3.5
      vertex 18.2 0 3.5
    endloop
  endfacet
  facet normal -1 -0 -0
    outer loop
      vertex 18.2 0 3.5
      vertex 18.2 0 4
      vertex 18.2 26 3.5
    endloop
  endfacet
  facet normal -1 0 0
    outer loop
      vertex 18.2 26 3.5
      vertex 18.2 0 4
      vertex 18.2 26 4
    endloop
  endfacet
  facet normal 0 -0 1
    outer loop
      vertex 18.2 26 4
      vertex 18.2 0 4
      vertex 19.3 0 4
    endloop
  endfacet
  facet normal 0 0 1
    outer loop
      vertex 19.3 26 4
      vertex 18.2 26 4
      vertex 19.3 0 4
    endloop
  endfacet
  facet normal 1 0 -0
    outer loop
      vertex 19.3 0 4
      vertex 19.3 0 3.5
      vertex 19.3 26 3.5
    endloop
  endfacet
  facet normal 1 0 0
    outer loop
      vertex 19.3 26 4
      vertex 19.3 0 4
      vertex 19.3 26 3.5
    endloop
  endfacet
  facet normal 0 -0 1
    outer loop
      vertex 19.3 26 3.5
      vertex 19.3 0 3.5
      vertex 19.5 0 3.5
    endloop
  endfacet
  facet normal 0 0 1
    outer loop
      vertex 19.5 26 3.5
      vertex 19.3 26 3.5
      vertex 19.5 0 3.5
    endloop
  endfacet
  facet normal -1 -0 -0
    outer loop
      vertex 19.5 0 3.5
      vertex 19.5 0 4
      vertex 19.5 26 3.5
    endloop
  endfacet
  facet normal -1 0 0
    outer loop
      vertex 19.5 26 3.5
      vertex 19.5 0 4
      vertex 19.5 26 4
    endloop
  endfacet
  facet normal 0 -0 1
    outer loop
      vertex 19.5 26 4
      vertex 19.5 0 4
      vertex 20.6 0 4
    endloop
  endfacet
  facet normal 0 0 1
    outer loop
      vertex 20.6 26 4
      vertex 19.5 26 4
      vertex 20.6 0 4
    endloop
  endfacet
  facet normal 1 0 -0
    outer loop
      vertex 20.6 0 4
      vertex 20.6 0 3.5
      vertex 20.6 26 3.5
    endloop
  endfacet
  facet normal 1 0 0
    outer loop
      vertex 20.6 26 4
      vertex 20.6 0 4
      vertex 20.6 26 3.5
    endloop
  endfacet
  facet normal 0 -0 1
    outer loop
      vertex 20.6 26 3.5
      vertex 20.6 0 3.5
      vertex 20.8 0 3.5
    endloop
  endfacet
  facet normal 0 0 1
    outer loop
      vertex 20.8 26 3.5
      vertex 20.6 26 3.5
      vertex 20.8 0 3.5
    endloop
  endfacet
  facet normal -1 -0 -0
    outer loop
      vertex 20.8 0 3.5
      vertex 20.8 0 4
      vertex 20.8 26 3.5
    endloop
  endfacet
  facet normal -1 0 0
    outer loop
      vertex 20.8 26 3.5
      vertex 20.8 0 4
      vertex 20.8 26 4
    endloop
  endfacet
  facet normal 0 -0 1
    outer loop
      vertex 20.8 26 4
      vertex 20.8 0 4
      vertex 21.9 0 4
    endloop
  endfacet
  facet normal 0 0 1
    outer loop
      vertex 21.9 26 4
      vertex 20.8 26 4
      vertex 21.9 0 4
    endloop
  endfacet
  facet normal 1 0 -0
    outer loop
      vertex 21.9 0 4
      vertex 21.9 0 3.5
      vertex 21.9 26 3.5
    endloop
  endfacet
  facet normal 1 0 0
    outer loop
      vertex 21.9 26 4
      vertex 21.9 0 4
      vertex 21.9 26 3.5
    endloop
  endfacet
  facet normal 0 -0 1
    outer loop
      vertex 21.9 26 3.5
      vertex 21.9 0 3.5
      vertex 22.1 0 3.5
    endloop
  endfacet
  facet normal 0 0 1
    outer loop
      vertex 22.1 26 3.5
      vertex 21.9 26 3.5
      vertex 22.1 0 3.5
    endloop
  endfacet
  facet normal -1 -0 -0
    outer loop
      vertex 22.1 0 3.5
      vertex 22.1 0 4
      vertex 22.1 26 3.5
    endloop
  endfacet
  facet normal -1 0 0
    outer loop
      vertex 22.1 26 3.5
      vertex 22.1 0 4
      vertex 22.1 26 4
    endloop
  endfacet
  facet normal 0 -0 1
    outer loop
      vertex 22.1 26 4
      vertex 22.1 0 4
      vertex 23.2 0 4
    endloop
  endfacet
  facet normal 0 0 1
    outer loop
      vertex 23.2 26 4
      vertex 22.1 26 4
      vertex 23.2 0 4
    endloop
  endfacet
  facet normal 1 0 -0
    outer loop
      vertex 23.2 0 4
      vertex 23.2 0 3.5
      vertex 23.2 26 3.5
    endloop
  endfacet
  facet normal 1 0 0
    outer loop
      vertex 23.2 26 4
      vertex 23.2 0 4
      vertex 23.2 26 3.5
    endloop
  endfacet
  facet normal 0 -0 1
    outer loop
      vertex 23.2 26 3.5
      vertex 23.2 0 3.5
      vertex 23.4 0 3.5
    endloop
  endfacet
  facet normal 0 0 1
    outer loop
      vertex 23.4 26 3.5
      vertex 23.2 26 3.5
      vertex 23.4 0 3.5
    endloop
  endfacet
  facet normal -1 -0 -0
    outer loop
      vertex 23.4 0 3.5
      vertex 23.4 0 4
      vertex 23.4 26 3.5
    endloop
  endfacet
  facet normal -1 0 0
    outer loop
      vertex 23.4 26 3.5
      vertex 23.4 0 4
      vertex 23.4 26 4
    endloop
  endfacet
  facet normal 0 -0 1
    outer loop
      vertex 23.4 26 4
      vertex 23.4 0 4
      vertex 24.5 0 4
    endloop
  endfacet
  facet normal 0 0 1
    outer loop
      vertex 24.5 26 4
      vertex 23.4 26 4
      vertex 24.5 0 4
    endloop
  endfacet
  facet normal 1 0 -0
    outer loop
      vertex 24.5 0 4
      vertex 24.5 0 3.5
      vertex 24.5 26 3.5
    endloop
  endfacet
  facet normal 1 0 0
    outer loop
      vertex 24.5 26 4
      vertex 24.5 0 4
      vertex 24.5 26 3.5
    endloop
  endfacet
  facet normal 0 -0 1
    outer loop
      vertex 24.5 26 3.5
      vertex 24.5 0 3.5
      vertex 24.7 0 3.5
    endloop
  endfacet
  facet normal 0 0 1
    outer loop
      vertex 24.7 26 3.5
      vertex 24.5 26 3.5
      vertex 24.7 0 3.5
    endloop
  endfacet
  facet normal -1 -0 -0
    outer loop
      vertex 24.7 0 3.5
      vertex 24.7 0 4
      vertex 24.7 26 3.5
    endloop
  endfacet
  facet normal -1 0 0
    outer loop
      vertex 24.7 26 3.5
      vertex 24.7 0 4
      vertex 24.7 26 4
    endloop
  endfacet
  facet normal 0 -0 1
    outer loop
      vertex 24.7 26 4
      vertex 24.7 0 4
      vertex 25.8 0 4
    endloop
  endfacet
  facet normal 0 0 1
    outer loop
      vertex 25.8 26 4
      vertex 24.7 26 4
      vertex 25.8 0 4
    endloop
  endfacet
  facet normal 1 0 -0
    outer loop
      vertex 25.8 0 4
      vertex 25.8 0 3.5
      vertex 25.8 26 3.5
    endloop
  endfacet
  facet normal 1 0 0
    outer loop
      vertex 25.8 26 4
      vertex 25.8 0 4
      vertex 25.8 26 3.5
    endloop
  endfacet
  facet normal 0 -0 1
    outer loop
      vertex 25.8 26 3.5
      vertex 25.8 0 3.5
      vertex 26 0 3.5
    endloop
  endfacet
  facet normal 0 0 1
    outer loop
      vertex 26 26 3.5
      vertex 25.8 26 3.5
      vertex 26 0 3.5
    endloop
  endfacet
  facet normal 1 0 -0
    outer loop
      vertex 26 0 3.5
      vertex 26 0 0
      vertex 26 4 0
    endloop
  endfacet
  facet normal 1 -0 0
    outer loop
      vertex 26 7 2
      vertex 26 0 3.5
      vertex 26 4 2
    endloop
  endfacet
  facet normal 1 -0 0
    outer loop
      vertex 26 4 2
      vertex 26 0 3.5
      vertex 26 4 0
    endloop
  endfacet
  facet normal 1 0 0
    outer loop
      vertex 26 19 0
      vertex 26 0 3.5
      vertex 26 7 2
    endloop
  endfacet
  facet normal 1 -0 0
    outer loop
      vertex 26 19 0
      vertex 26 7 2
      vertex 26 7 0
    endloop
  endfacet
  facet normal 1 -0 0
    outer loop
      vertex 26 19 2
      vertex 26 0 3.5
      vertex 26 19 0
    endloop
  endfacet
  facet normal 1 -0 0
    outer loop
      vertex 26 22 2
      vertex 26 0 3.5
      vertex 26 19 2
    endloop
  endfacet
  facet normal 1 0 0
    outer loop
      vertex 26 26 3.5
      vertex 26 0 3.5
      vertex 26 22 2
    endloop
  endfacet
  facet normal 1 -0 0
    outer loop
      vertex 26 26 0
      vertex 26 22 2
      vertex 26 22 0
    endloop
  endfacet
  facet normal 1 0 0
    outer loop
      vertex 26 26 3.5
      vertex 26 22 2
      vertex 26 26 0
    endloop
  endfacet
  facet normal -1 0 0
    outer loop
      vertex 22 2.49 2
      vertex 22 2.49 0
      vertex 22 0 2
    endloop
  endfacet
  facet normal -1 0 0
    outer loop
      vertex 22 0 2
      vertex 22 2.49 0
      vertex 22 0 0
    endloop
  endfacet
  facet normal 0 0 -1
    outer loop
      vertex 4 2.49 2
      vertex 8.5 6.99 2
      vertex 17.5 6.99 2
    endloop
  endfacet
  facet normal 0 -0 -1
    outer loop
      vertex 7 1.24736 2
      vertex 4 2.49 2
      vertex 9.74264 3.99 2
    endloop
  endfacet
  facet normal -0 0 -1
    outer loop
      vertex 19 1.24736 2
      vertex 22 2.49 2
      vertex 22 0 2
    endloop
  endfacet
  facet normal 0 0 -1
    outer loop
      vertex 16.2574 3.99 2
      vertex 22 2.49 2
      vertex 19 1.24736 2
    endloop
  endfacet
  facet normal 0 0 -1
    outer loop
      vertex 17.5 6.99 2
      vertex 22 2.49 2
      vertex 16.2574 3.99 2
    endloop
  endfacet
  facet normal 0 0 -1
    outer loop
      vertex 17.5 6.99 2
      vertex 16.2574 3.99 2
      vertex 9.74264 3.99 2
    endloop
  endfacet
  facet normal 0 0 -1
    outer loop
      vertex 17.5 6.99 2
      vertex 9.74264 3.99 2
      vertex 4 2.49 2
    endloop
  endfacet
  facet normal 0 0 -1
    outer loop
      vertex 4 2.49 2
      vertex 7 1.24736 2
      vertex 7 0 2
    endloop
  endfacet
  facet normal 0 0 -1
    outer loop
      vertex 4 2.49 2
      vertex 7 0 2
      vertex 4 0 2
    endloop
  endfacet
  facet normal 0 0 -1
    outer loop
      vertex 19 1.24736 2
      vertex 22 0 2
      vertex 19 0 2
    endloop
  endfacet
  facet normal 1 0 0
    outer loop
      vertex 19 1.24736 0
      vertex 19 1.24736 2
      vertex 19 0 2
    endloop
  endfacet
  facet normal 1 0 0
    outer loop
      vertex 19 0 0
      vertex 19 1.24736 0
      vertex 19 0 2
    endloop
  endfacet
  facet normal -0 -0 -1
    outer loop
      vertex 7 0 0
      vertex 7 1.24736 0
      vertex 19 0 0
    endloop
  endfacet
  facet normal 0 0 -1
    outer loop
      vertex 19 0 0
      vertex 7 1.24736 0
      vertex 9.74264 3.99 0
    endloop
  endfacet
  facet normal 0 0 -1
    outer loop
      vertex 19 0 0
      vertex 9.74264 3.99 0
      vertex 16.2574 3.99 0
    endloop
  endfacet
  facet normal 0 0 -1
    outer loop
      vertex 19 0 0
      vertex 16.2574 3.99 0
      vertex 19 1.24736 0
    endloop
  endfacet
  facet normal -1 0 0
    outer loop
      vertex 7 1.24736 2
      vertex 7 1.24736 0
      vertex 7 0 2
    endloop
  endfacet
  facet normal -1 0 0
    outer loop
      vertex 7 0 2
      vertex 7 1.24736 0
      vertex 7 0 0
    endloop
  endfacet
  facet normal 1 0 0
    outer loop
      vertex 4 2.49 0
      vertex 4 2.49 2
      vertex 4 0 2
    endloop
  endfacet
  facet normal 1 0 0
    outer loop
      vertex 4 0 0
      vertex 4 2.49 0
      vertex 4 0 2
    endloop
  endfacet
  facet normal 0.707107 -0.707107 0
    outer loop
      vertex 8.5 6.99 0
      vertex 8.5 6.99 2
      vertex 4 2.49 2
    endloop
  endfacet
  facet normal 0.707107 -0.707107 0
    outer loop
      vertex 4 2.49 0
      vertex 8.5 6.99 0
      vertex 4 2.49 2
    endloop
  endfacet
  facet normal -2.96059e-16 -1 -0
    outer loop
      vertex 17.5 6.99 0
      vertex 17.5 6.99 2
      vertex 8.5 6.99 2
    endloop
  endfacet
  facet normal -2.96059e-16 -1 -0
    outer loop
      vertex 8.5 6.99 0
      vertex 17.5 6.99 0
      vertex 8.5 6.99 2
    endloop
  endfacet
  facet normal -0.707107 -0.707107 0
    outer loop
      vertex 22 2.49 2
      vertex 17.5 6.99 2
      vertex 22 2.49 0
    endloop
  endfacet
  facet normal -0.707107 -0.707107 0
    outer loop
      vertex 22 2.49 0
      vertex 17.5 6.99 2
      vertex 17.5 6.99 0
    endloop
  endfacet
  facet normal 0 1 0
    outer loop
      vertex 26 4 2
      vertex 26 4 0
      vertex 23.51 4 2
    endloop
  endfacet
  facet normal 0 1 -0
    outer loop
      vertex 23.51 4 2
      vertex 26 4 0
      vertex 23.51 4 0
    endloop
  endfacet
  facet normal 0.707107 0.707107 0
    outer loop
      vertex 19.01 8.5 2
      vertex 23.51 4 2
      vertex 23.51 4 0
    endloop
  endfacet
  facet normal 0.707107 0.707107 0
    outer loop
      vertex 19.01 8.5 0
      vertex 19.01 8.5 2
      vertex 23.51 4 0
    endloop
  endfacet
  facet normal 1 0 0
    outer loop
      vertex 19.01 17.5 0
      vertex 19.01 17.5 2
      vertex 19.01 8.5 2
    endloop
  endfacet
  facet normal 1 0 0
    outer loop
      vertex 19.01 8.5 0
      vertex 19.01 17.5 0
      vertex 19.01 8.5 2
    endloop
  endfacet
  facet normal 0.707107 -0.707107 0
    outer loop
      vertex 23.51 22 0
      vertex 23.51 22 2
      vertex 19.01 17.5 2
    endloop
  endfacet
  facet normal 0.707107 -0.707107 0
    outer loop
      vertex 19.01 17.5 0
      vertex 23.51 22 0
      vertex 19.01 17.5 2
    endloop
  endfacet
  facet normal 0 -1 0
    outer loop
      vertex 26 22 0
      vertex 26 22 2
      vertex 23.51 22 2
    endloop
  endfacet
  facet normal -0 -1 -0
    outer loop
      vertex 23.51 22 0
      vertex 26 22 0
      vertex 23.51 22 2
    endloop
  endfacet
  facet normal -1 0 0
    outer loop
      vertex 22 26 2
      vertex 22 26 0
      vertex 22 23.51 2
    endloop
  endfacet
  facet normal -1 0 0
    outer loop
      vertex 22 23.51 2
      vertex 22 26 0
      vertex 22 23.51 0
    endloop
  endfacet
  facet normal -0.707107 0.707107 0
    outer loop
      vertex 22 23.51 2
      vertex 22 23.51 0
      vertex 17.5 19.01 2
    endloop
  endfacet
  facet normal -0.707107 0.707107 0
    outer loop
      vertex 17.5 19.01 2
      vertex 22 23.51 0
      vertex 17.5 19.01 0
    endloop
  endfacet
  facet normal 0 1 0
    outer loop
      vertex 17.5 19.01 2
      vertex 17.5 19.01 0
      vertex 8.5 19.01 2
    endloop
  endfacet
  facet normal 0 1 -0
    outer loop
      vertex 8.5 19.01 2
      vertex 17.5 19.01 0
      vertex 8.5 19.01 0
    endloop
  endfacet
  facet normal 0.707107 0.707107 0
    outer loop
      vertex 4 23.51 2
      vertex 8.5 19.01 2
      vertex 8.5 19.01 0
    endloop
  endfacet
  facet normal 0.707107 0.707107 0
    outer loop
      vertex 4 23.51 0
      vertex 4 23.51 2
      vertex 8.5 19.01 0
    endloop
  endfacet
  facet normal 1 -1.78349e-16 0
    outer loop
      vertex 4 26 0
      vertex 4 26 2
      vertex 4 23.51 2
    endloop
  endfacet
  facet normal 1 -1.78349e-16 0
    outer loop
      vertex 4 23.51 0
      vertex 4 26 0
      vertex 4 23.51 2
    endloop
  endfacet
  facet normal -0.707107 -0.707107 -0
    outer loop
      vertex 6.99 17.5 0
      vertex 6.99 17.5 2
      vertex 2.49 22 2
    endloop
  endfacet
  facet normal -0.707107 -0.707107 -0
    outer loop
      vertex 2.49 22 0
      vertex 6.99 17.5 0
      vertex 2.49 22 2
    endloop
  endfacet
  facet normal -1 0 0
    outer loop
      vertex 6.99 17.5 2
      vertex 6.99 17.5 0
      vertex 6.99 8.5 2
    endloop
  endfacet
  facet normal -1 0 0
    outer loop
      vertex 6.99 8.5 2
      vertex 6.99 17.5 0
      vertex 6.99 8.5 0
    endloop
  endfacet
  facet normal -0.707107 0.707107 0
    outer loop
      vertex 6.99 8.5 2
      vertex 6.99 8.5 0
      vertex 2.49 4 2
    endloop
  endfacet
  facet normal -0.707107 0.707107 0
    outer loop
      vertex 2.49 4 2
      vertex 6.99 8.5 0
      vertex 2.49 4 0
    endloop
  endfacet
  facet normal 0.923879 -0.382684 0
    outer loop
      vertex 11.409 14.591 0
      vertex 11.409 14.591 2
      vertex 10.75 13 2
    endloop
  endfacet
  facet normal 0.923879 -0.382684 0
    outer loop
      vertex 10.75 13 0
      vertex 11.409 14.591 0
      vertex 10.75 13 2
    endloop
  endfacet
  facet normal 0.923879 0.382684 0
    outer loop
      vertex 10.75 13 2
      vertex 11.409 11.409 2
      vertex 11.409 11.409 0
    endloop
  endfacet
  facet normal 0.923879 0.382684 0
    outer loop
      vertex 10.75 13 0
      vertex 10.75 13 2
      vertex 11.409 11.409 0
    endloop
  endfacet
  facet normal 0.382684 -0.923879 0
    outer loop
      vertex 13 15.25 0
      vertex 13 15.25 2
      vertex 11.409 14.591 2
    endloop
  endfacet
  facet normal 0.382684 -0.923879 0
    outer loop
      vertex 11.409 14.591 0
      vertex 13 15.25 0
      vertex 11.409 14.591 2
    endloop
  endfacet
  facet normal -0.382684 -0.923879 -0
    outer loop
      vertex 14.591 14.591 0
      vertex 14.591 14.591 2
      vertex 13 15.25 2
    endloop
  endfacet
  facet normal -0.382684 -0.923879 -0
    outer loop
      vertex 13 15.25 0
      vertex 14.591 14.591 0
      vertex 13 15.25 2
    endloop
  endfacet
  facet normal -0.923879 -0.382684 0
    outer loop
      vertex 15.25 13 2
      vertex 14.591 14.591 2
      vertex 15.25 13 0
    endloop
  endfacet
  facet normal -0.923879 -0.382684 0
    outer loop
      vertex 15.25 13 0
      vertex 14.591 14.591 2
      vertex 14.591 14.591 0
    endloop
  endfacet
  facet normal -0.923879 0.382684 0
    outer loop
      vertex 15.25 13 2
      vertex 15.25 13 0
      vertex 14.591 11.409 2
    endloop
  endfacet
  facet normal -0.923879 0.382684 0
    outer loop
      vertex 14.591 11.409 2
      vertex 15.25 13 0
      vertex 14.591 11.409 0
    endloop
  endfacet
  facet normal -0.382684 0.923879 0
    outer loop
      vertex 14.591 11.409 2
      vertex 14.591 11.409 0
      vertex 13 10.75 2
    endloop
  endfacet
  facet normal -0.382684 0.923879 0
    outer loop
      vertex 13 10.75 2
      vertex 14.591 11.409 0
      vertex 13 10.75 0
    endloop
  endfacet
  facet normal 0.382684 0.923879 -0
    outer loop
      vertex 13 10.75 2
      vertex 13 10.75 0
      vertex 11.409 11.409 2
    endloop
  endfacet
  facet normal 0.382684 0.923879 -0
    outer loop
      vertex 11.409 11.409 2
      vertex 13 10.75 0
      vertex 11.409 11.409 0
    endloop
  endfacet
  facet normal 0.707107 0.707107 -0
    outer loop
      vertex 3.99 16.2574 2
      vertex 3.99 16.2574 0
      vertex 1.24736 19 2
    endloop
  endfacet
  facet normal 0.707107 0.707107 -0
    outer loop
      vertex 1.24736 19 2
      vertex 3.99 16.2574 0
      vertex 1.24736 19 0
    endloop
  endfacet
  facet normal 1 0 0
    outer loop
      vertex 3.99 16.2574 0
      vertex 3.99 16.2574 2
      vertex 3.99 9.74264 2
    endloop
  endfacet
  facet normal 1 0 0
    outer loop
      vertex 3.99 9.74264 0
      vertex 3.99 16.2574 0
      vertex 3.99 9.74264 2
    endloop
  endfacet
  facet normal 0.707107 -0.707107 0
    outer loop
      vertex 3.99 9.74264 0
      vertex 3.99 9.74264 2
      vertex 1.24736 7 2
    endloop
  endfacet
  facet normal 0.707107 -0.707107 0
    outer loop
      vertex 1.24736 7 0
      vertex 3.99 9.74264 0
      vertex 1.24736 7 2
    endloop
  endfacet
  facet normal 0 0 -1
    outer loop
      vertex 7 26 2
      vertex 7 24.7526 2
      vertex 4 26 2
    endloop
  endfacet
  facet normal 0 0 -1
    outer loop
      vertex 4 26 2
      vertex 7 24.7526 2
      vertex 9.74264 22.01 2
    endloop
  endfacet
  facet normal 0 -0 -1
    outer loop
      vertex 19 24.7526 2
      vertex 19 26 2
      vertex 22 26 2
    endloop
  endfacet
  facet normal -0 0 -1
    outer loop
      vertex 19 24.7526 2
      vertex 22 26 2
      vertex 16.2574 22.01 2
    endloop
  endfacet
  facet normal 0 0 -1
    outer loop
      vertex 16.2574 22.01 2
      vertex 22 26 2
      vertex 22 23.51 2
    endloop
  endfacet
  facet normal -0 0 -1
    outer loop
      vertex 16.2574 22.01 2
      vertex 22 23.51 2
      vertex 17.5 19.01 2
    endloop
  endfacet
  facet normal 0 0 -1
    outer loop
      vertex 16.2574 22.01 2
      vertex 17.5 19.01 2
      vertex 9.74264 22.01 2
    endloop
  endfacet
  facet normal 0 0 -1
    outer loop
      vertex 9.74264 22.01 2
      vertex 17.5 19.01 2
      vertex 8.5 19.01 2
    endloop
  endfacet
  facet normal 0 0 -1
    outer loop
      vertex 9.74264 22.01 2
      vertex 8.5 19.01 2
      vertex 4 26 2
    endloop
  endfacet
  facet normal 0 0 -1
    outer loop
      vertex 4 26 2
      vertex 8.5 19.01 2
      vertex 4 23.51 2
    endloop
  endfacet
  facet normal -1 0 0
    outer loop
      vertex 7 26 2
      vertex 7 26 0
      vertex 7 24.7526 2
    endloop
  endfacet
  facet normal -1 0 0
    outer loop
      vertex 7 24.7526 2
      vertex 7 26 0
      vertex 7 24.7526 0
    endloop
  endfacet
  facet normal -0 -0 -1
    outer loop
      vertex 7 24.7526 0
      vertex 7 26 0
      vertex 9.74264 22.01 0
    endloop
  endfacet
  facet normal 0 -0 -1
    outer loop
      vertex 9.74264 22.01 0
      vertex 7 26 0
      vertex 19 26 0
    endloop
  endfacet
  facet normal 0 0 -1
    outer loop
      vertex 9.74264 22.01 0
      vertex 19 26 0
      vertex 19 24.7526 0
    endloop
  endfacet
  facet normal -0 0 -1
    outer loop
      vertex 9.74264 22.01 0
      vertex 19 24.7526 0
      vertex 16.2574 22.01 0
    endloop
  endfacet
  facet normal 1 0 0
    outer loop
      vertex 19 26 0
      vertex 19 26 2
      vertex 19 24.7526 2
    endloop
  endfacet
  facet normal 1 0 0
    outer loop
      vertex 19 24.7526 0
      vertex 19 26 0
      vertex 19 24.7526 2
    endloop
  endfacet
  facet normal 0 0 -1
    outer loop
      vertex 19.01 17.5 2
      vertex 23.51 22 2
      vertex 26 22 2
    endloop
  endfacet
  facet normal -0 0 -1
    outer loop
      vertex 24.7526 19 2
      vertex 26 22 2
      vertex 26 19 2
    endloop
  endfacet
  facet normal 0 0 -1
    outer loop
      vertex 19.01 17.5 2
      vertex 26 22 2
      vertex 24.7526 19 2
    endloop
  endfacet
  facet normal 0 0 -1
    outer loop
      vertex 23.51 4 2
      vertex 19.01 17.5 2
      vertex 22.01 9.74264 2
    endloop
  endfacet
  facet normal 0 0 -1
    outer loop
      vertex 22.01 16.2574 2
      vertex 22.01 9.74264 2
      vertex 19.01 17.5 2
    endloop
  endfacet
  facet normal 0 0 -1
    outer loop
      vertex 26 4 2
      vertex 22.01 9.74264 2
      vertex 24.7526 7 2
    endloop
  endfacet
  facet normal 0 0 -1
    outer loop
      vertex 26 7 2
      vertex 26 4 2
      vertex 24.7526 7 2
    endloop
  endfacet
  facet normal 0 0 -1
    outer loop
      vertex 26 4 2
      vertex 23.51 4 2
      vertex 22.01 9.74264 2
    endloop
  endfacet
  facet normal 0 0 -1
    outer loop
      vertex 23.51 4 2
      vertex 19.01 8.5 2
      vertex 19.01 17.5 2
    endloop
  endfacet
  facet normal 0 -0 -1
    outer loop
      vertex 22.01 16.2574 2
      vertex 19.01 17.5 2
      vertex 24.7526 19 2
    endloop
  endfacet
  facet normal 0 1 0
    outer loop
      vertex 26 19 2
      vertex 26 19 0
      vertex 24.7526 19 2
    endloop
  endfacet
  facet normal 0 1 -0
    outer loop
      vertex 24.7526 19 2
      vertex 26 19 0
      vertex 24.7526 19 0
    endloop
  endfacet
  facet normal -0 -0 -1
    outer loop
      vertex 22.01 9.74264 0
      vertex 22.01 16.2574 0
      vertex 24.7526 7 0
    endloop
  endfacet
  facet normal 0 -0 -1
    outer loop
      vertex 24.7526 7 0
      vertex 22.01 16.2574 0
      vertex 24.7526 19 0
    endloop
  endfacet
  facet normal 0 0 -1
    outer loop
      vertex 24.7526 7 0
      vertex 24.7526 19 0
      vertex 26 19 0
    endloop
  endfacet
  facet normal -0 0 -1
    outer loop
      vertex 24.7526 7 0
      vertex 26 19 0
      vertex 26 7 0
    endloop
  endfacet
  facet normal 0 -1 0
    outer loop
      vertex 26 7 0
      vertex 26 7 2
      vertex 24.7526 7 2
    endloop
  endfacet
  facet normal -0 -1 -0
    outer loop
      vertex 24.7526 7 0
      vertex 26 7 0
      vertex 24.7526 7 2
    endloop
  endfacet
  facet normal -0.707107 0.707107 0
    outer loop
      vertex 9.74264 3.99 2
      vertex 9.74264 3.99 0
      vertex 7 1.24736 2
    endloop
  endfacet
  facet normal -0.707107 0.707107 0
    outer loop
      vertex 7 1.24736 2
      vertex 9.74264 3.99 0
      vertex 7 1.24736 0
    endloop
  endfacet
  facet normal 2.04501e-16 1 -0
    outer loop
      vertex 16.2574 3.99 2
      vertex 16.2574 3.99 0
      vertex 9.74264 3.99 2
    endloop
  endfacet
  facet normal 2.04501e-16 1 -0
    outer loop
      vertex 9.74264 3.99 2
      vertex 16.2574 3.99 0
      vertex 9.74264 3.99 0
    endloop
  endfacet
  facet normal 0.707107 0.707107 0
    outer loop
      vertex 16.2574 3.99 2
      vertex 19 1.24736 2
      vertex 19 1.24736 0
    endloop
  endfacet
  facet normal 0.707107 0.707107 0
    outer loop
      vertex 16.2574 3.99 0
      vertex 16.2574 3.99 2
      vertex 19 1.24736 0
    endloop
  endfacet
  facet normal 0 0 -1
    outer loop
      vertex 13 15.25 2
      vertex 14.591 14.591 2
      vertex 11.409 14.591 2
    endloop
  endfacet
  facet normal 0 0 -1
    outer loop
      vertex 11.409 14.591 2
      vertex 14.591 14.591 2
      vertex 15.25 13 2
    endloop
  endfacet
  facet normal 0 0 -1
    outer loop
      vertex 11.409 14.591 2
      vertex 15.25 13 2
      vertex 14.591 11.409 2
    endloop
  endfacet
  facet normal 0 0 -1
    outer loop
      vertex 11.409 14.591 2
      vertex 14.591 11.409 2
      vertex 13 10.75 2
    endloop
  endfacet
  facet normal 0 0 -1
    outer loop
      vertex 11.409 14.591 2
      vertex 13 10.75 2
      vertex 11.409 11.409 2
    endloop
  endfacet
  facet normal 0 0 -1
    outer loop
      vertex 11.409 14.591 2
      vertex 11.409 11.409 2
      vertex 10.75 13 2
    endloop
  endfacet
  facet normal 0.707107 -0.707107 0
    outer loop
      vertex 19 24.7526 0
      vertex 19 24.7526 2
      vertex 16.2574 22.01 2
    endloop
  endfacet
  facet normal 0.707107 -0.707107 0
    outer loop
      vertex 16.2574 22.01 0
      vertex 19 24.7526 0
      vertex 16.2574 22.01 2
    endloop
  endfacet
  facet normal 0 -1 0
    outer loop
      vertex 16.2574 22.01 0
      vertex 16.2574 22.01 2
      vertex 9.74264 22.01 2
    endloop
  endfacet
  facet normal -0 -1 -0
    outer loop
      vertex 9.74264 22.01 0
      vertex 16.2574 22.01 0
      vertex 9.74264 22.01 2
    endloop
  endfacet
  facet normal -0.707107 -0.707107 0
    outer loop
      vertex 9.74264 22.01 2
      vertex 7 24.7526 2
      vertex 9.74264 22.01 0
    endloop
  endfacet
  facet normal -0.707107 -0.707107 0
    outer loop
      vertex 9.74264 22.01 0
      vertex 7 24.7526 2
      vertex 7 24.7526 0
    endloop
  endfacet
  facet normal -0.707107 -0.707107 0
    outer loop
      vertex 24.7526 7 2
      vertex 22.01 9.74264 2
      vertex 24.7526 7 0
    endloop
  endfacet
  facet normal -0.707107 -0.707107 0
    outer loop
      vertex 24.7526 7 0
      vertex 22.01 9.74264 2
      vertex 22.01 9.74264 0
    endloop
  endfacet
  facet normal -1 0 0
    outer loop
      vertex 22.01 16.2574 2
      vertex 22.01 16.2574 0
      vertex 22.01 9.74264 2
    endloop
  endfacet
  facet normal -1 0 0
    outer loop
      vertex 22.01 9.74264 2
      vertex 22.01 16.2574 0
      vertex 22.01 9.74264 0
    endloop
  endfacet
  facet normal -0.707107 0.707107 0
    outer loop
      vertex 24.7526 19 2
      vertex 24.7526 19 0
      vertex 22.01 16.2574 2
    endloop
  endfacet
  facet normal -0.707107 0.707107 0
    outer loop
      vertex 22.01 16.2574 2
      vertex 24.7526 19 0
      vertex 22.01 16.2574 0
    endloop
  endfacet
endsolid OpenSCAD_Model
